<?xml version="1.0" encoding="utf-8"?>
<!-- Generator: Adobe Illustrator 18.1.1, SVG Export Plug-In . SVG Version: 6.00 Build 0)  -->
<!DOCTYPE svg PUBLIC "-//W3C//DTD SVG 1.1//EN" "http://www.w3.org/Graphics/SVG/1.1/DTD/svg11.dtd">
<svg version="1.1" id="Layer_1" xmlns="http://www.w3.org/2000/svg" xmlns:xlink="http://www.w3.org/1999/xlink" x="0px" y="0px"
	 viewBox="0 0 1200 320" enable-background="new 0 0 1200 320" xml:space="preserve">
<path fill="#0B0B0B" d="M348.3,48.7H132.1c-6.6,0-12,5.4-12,12v216.2c0,6.6,5.4,12,12,12h216.2c6.6,0,12-5.4,12-12V60.7
	C360.3,54.1,354.9,48.7,348.3,48.7z M167.2,270.7c-15.9,0-28.8-12.9-28.8-28.8c0-15.9,12.9-28.8,28.8-28.8
	c15.9,0,28.8,12.9,28.8,28.8C196,257.8,183.1,270.7,167.2,270.7z M167.2,127.5c-15.9,0-28.8-12.9-28.8-28.8
	c0-15.9,12.9-28.8,28.8-28.8c15.9,0,28.8,12.9,28.8,28.8C196,114.6,183.1,127.5,167.2,127.5z M316.3,270.7
	c-15.9,0-28.8-12.9-28.8-28.8c0-15.9,12.9-28.8,28.8-28.8c15.9,0,28.8,12.9,28.8,28.8C345.1,257.8,332.2,270.7,316.3,270.7z
	 M316.3,127.5c-15.9,0-28.8-12.9-28.8-28.8c0-15.9,12.9-28.8,28.8-28.8c15.9,0,28.8,12.9,28.8,28.8
	C345.1,114.6,332.2,127.5,316.3,127.5z"/>
<path fill="#0B0B0B" d="M1068.8,44.5H852.6c-6.6,0-12,5.4-12,12v216.2c0,6.6,5.4,12,12,12h216.2c6.6,0,12-5.4,12-12V56.5
	C1080.8,49.9,1075.4,44.5,1068.8,44.5z M887.7,266.5c-15.9,0-28.8-12.9-28.8-28.8c0-15.9,12.9-28.8,28.8-28.8
	c15.9,0,28.8,12.9,28.8,28.8C916.5,253.6,903.6,266.5,887.7,266.5z M887.7,123.3c-15.9,0-28.8-12.9-28.8-28.8
	c0-15.9,12.9-28.8,28.8-28.8c15.9,0,28.8,12.9,28.8,28.8C916.5,110.4,903.6,123.3,887.7,123.3z M1036.8,266.5
	c-15.9,0-28.8-12.9-28.8-28.8c0-15.9,12.9-28.8,28.8-28.8c15.9,0,28.8,12.9,28.8,28.8C1065.6,253.6,1052.7,266.5,1036.8,266.5z
	 M1036.8,123.3c-15.9,0-28.8-12.9-28.8-28.8c0-15.9,12.9-28.8,28.8-28.8c15.9,0,28.8,12.9,28.8,28.8
	C1065.6,110.4,1052.7,123.3,1036.8,123.3z"/>
<path fill="#0B0B0B" d="M708.5,288.9H492.3c-6.6,0-12-5.4-12-12V60.7c0-6.6,5.4-12,12-12h216.2c6.6,0,12,5.4,12,12v216.2
	C720.5,283.5,715.1,288.9,708.5,288.9z"/>
</svg>
