<?xml version="1.0" encoding="utf-8"?>
<!-- Generator: Adobe Illustrator 18.1.1, SVG Export Plug-In . SVG Version: 6.00 Build 0)  -->
<!DOCTYPE svg PUBLIC "-//W3C//DTD SVG 1.1//EN" "http://www.w3.org/Graphics/SVG/1.1/DTD/svg11.dtd">
<svg version="1.1" xmlns="http://www.w3.org/2000/svg" xmlns:xlink="http://www.w3.org/1999/xlink" x="0px" y="0px"
	 viewBox="0 0 100 100" enable-background="new 0 0 100 100" xml:space="preserve">
<g id="Layer_1">
	<g id="Circle">
		<circle fill="none" stroke="#020202" stroke-width="5" stroke-miterlimit="10" cx="50" cy="50" r="46.4"/>
	</g>
</g>
<g id="GitHub">
	<g id="Layer_6">
		<path fill="#010101" d="M74.6,52.1L74.6,52.1c0-0.1,0.8-2.1,0.8-2.3c0,0,1-5.8,1-9.2c0-4.9-1.9-8.9-4.9-11.9
			c0.5-1.7,1.2-5.5-0.7-10.3c0,0-3.4-1.1-11.1,4.1c-3-0.8-6.2-1.1-9.5-1.1c-3.5,0-7.1,0.5-10.5,1.4c-8-5.4-11.5-4.3-11.5-4.3
			c-2.3,5.7-0.9,10-0.4,11c-2.7,2.9-4.3,6.6-4.3,11.2c0,3.4,0.4,6.5,1.3,9.2l0,0c0.1,0.1,0.6,1.5,0.8,2l0,0c0.1,0.1,0.2,0.2,0.3,0.4
			v0.1c2.7,4.9,8,8.1,17.3,9.1c-1.3,0.9-2.7,2.4-3.3,5c-1.8,0.9-7.6,3-11.1-3c0,0-1.9-3.5-5.7-3.8c0,0-3.6-0.1-0.2,2.2
			c0,0,2.4,1.1,4.1,5.4c0,0,2.2,7.3,12.6,4.9v7.5c0,0-0.2,2.7-2.7,3.5c0,0-1.4,1,0.1,1.6c0,0,6.8,0.6,6.8-5v-8.2
			c0,0-0.3-3.3,1.3-4.4v13.5c0,0-0.1,3.2-1.8,4.4c0,0-1.1,2,1.3,1.4c0,0,4.7-0.7,4.9-6.1l0.1-13.6h1.1L51,80.5
			c0.2,5.4,4.9,6.1,4.9,6.1c2.4,0.6,1.3-1.4,1.3-1.4c-1.7-1.2-1.8-4.4-1.8-4.4V67.3c1.6,1.2,1.3,4.3,1.3,4.3v8.2c0,5.5,6.8,5,6.8,5
			c1.6-0.6,0.1-1.6,0.1-1.6c-2.4-0.9-2.7-3.5-2.7-3.5V69c0-4.2-1.8-6.4-3.5-7.6C67.6,60.4,72.4,57.1,74.6,52.1z M50.1,59.5
			c-11,0-19.8-1.7-19.8-12.2c0-2.5,1.2-4.9,3.4-6.8c3.6-3.3,9.6-1.5,16.5-1.5c6.8,0,12.8-1.7,16.4,1.5c2.2,2,3.4,4.3,3.4,6.9
			C70,59.2,61.1,59.5,50.1,59.5z"/>
	</g>
</g>
<g id="Twitter" display="none">
	<g id="Twitter_1_" display="inline">
		<g>
			<path fill="#020202" d="M76.1,33.5c-2,0.9-4,1.5-6.2,1.7c2.2-1.3,3.9-3.4,4.7-6c-2.1,1.2-4.4,2.2-6.8,2.7c-2-2.1-4.7-3.4-7.9-3.4
				c-6,0-10.9,4.9-10.9,10.9c0,0.9,0.1,1.7,0.2,2.4c-9-0.5-16.9-4.7-22.3-11.3c-1,1.6-1.5,3.4-1.5,5.5c0,3.8,2,7.1,4.9,9
				c-1.7,0-3.4-0.6-4.9-1.3v0.1c0,5.2,3.8,9.6,8.7,10.6c-1,0.2-1.8,0.4-2.8,0.4c-0.7,0-1.3,0-2.1-0.2c1.3,4.3,5.4,7.4,10.1,7.6
				C35.7,65,31,66.7,26,66.7c-0.9,0-1.7,0-2.6-0.1c4.7,3.1,10.5,4.9,16.7,4.9c20,0,30.8-16.6,30.8-30.8c0-0.5,0-1,0-1.5
				C72.8,37.6,74.7,35.6,76.1,33.5z"/>
		</g>
	</g>
</g>
<g id="Email" display="none">
	<g id="Email_1_" display="inline">
		<path fill="#010101" d="M16.5,27.9v2.7v38.8v2.7h67v-2.7V30.5v-2.7h-67V27.9z M80.8,32.2L60.7,49.3l20.1,18.9v1.1h-2.7L58.6,51.1
			L50,58.4l-8.6-7.3L21.9,69.4h-2.7v-1.1l20.1-18.9L19.2,32.2v-1.7h2.2L50,54.9l28.6-24.4h2.2C80.8,30.5,80.8,32.2,80.8,32.2z"/>
	</g>
</g>
<g id="CodePen_1_" display="none">
	<g id="CodePen" display="inline">
		<path fill="#020202" d="M84.1,39.2L84.1,39.2c0-0.2,0-0.3-0.1-0.3v-0.1c0-0.1,0-0.1-0.1-0.2c0,0,0-0.1-0.1-0.1
			c0-0.1-0.1-0.1-0.1-0.2l-0.1-0.1c0-0.1-0.1-0.1-0.1-0.2l-0.1-0.1c0-0.1-0.1-0.1-0.1-0.2l-0.1-0.1c-0.1,0-0.1-0.1-0.2-0.1l-0.1-0.1
			l0,0L51.5,16.2c-1-0.7-2.3-0.7-3.3,0L17,37.1l0,0l-0.1,0.1c-0.1,0-0.1,0.1-0.2,0.1l-0.1,0.1c-0.1,0.1-0.1,0.1-0.1,0.2l-0.1,0.1
			c0,0.1-0.1,0.1-0.1,0.2L16.2,38c0,0.1-0.1,0.1-0.1,0.2c0,0,0,0.1-0.1,0.1c0,0.1-0.1,0.1-0.1,0.2v0.1c0,0.1,0,0.2-0.1,0.2v0.1
			c0,0.1,0,0.3,0,0.4v20.9c0,0.1,0,0.3,0,0.4v0.1c0,0.1,0,0.2,0.1,0.2V61c0,0.1,0,0.1,0.1,0.2c0,0,0,0.1,0.1,0.1
			c0,0.1,0.1,0.1,0.1,0.2l0.1,0.1c0,0.1,0.1,0.1,0.1,0.2l0.1,0.1c0,0.1,0.1,0.1,0.1,0.2l0.1,0.1c0.1,0,0.1,0.1,0.2,0.1l0.1,0.1l0,0
			l31.3,20.9c0.5,0.3,1.1,0.5,1.6,0.5c0.6,0,1.1-0.2,1.6-0.5l31.3-20.9l0,0l0.1-0.1c0.1,0,0.1-0.1,0.2-0.1l0.1-0.1
			c0.1-0.1,0.1-0.1,0.1-0.2l0.1-0.1c0-0.1,0.1-0.1,0.1-0.2l0.1-0.1c0-0.1,0.1-0.1,0.1-0.2c0,0,0-0.1,0.1-0.1c0-0.1,0.1-0.1,0.1-0.2
			v-0.1c0-0.1,0-0.2,0.1-0.2v-0.1c0-0.1,0-0.3,0-0.4V39.5C84.1,39.4,84.1,39.3,84.1,39.2z M52.8,24.2l23,15.4l-10.3,6.9L52.7,38
			L52.8,24.2L52.8,24.2z M46.9,24.2v13.7l-12.7,8.5l-10.3-6.9L46.9,24.2z M21.6,45l7.4,4.9l-7.4,4.9V45z M46.9,75.7l-23-15.4
			l10.3-6.9L46.9,62V75.7z M49.9,56.9l-10.4-7l10.4-7l10.4,7L49.9,56.9z M52.8,75.7V62l12.8-8.5l10.3,6.9L52.8,75.7z M78.2,54.9
			L70.9,50l7.4-4.9v9.8H78.2z"/>
	</g>
</g>
</svg>
