<?xml version="1.0" encoding="utf-8"?>
<!-- Generator: Adobe Illustrator 18.1.1, SVG Export Plug-In . SVG Version: 6.00 Build 0)  -->
<!DOCTYPE svg PUBLIC "-//W3C//DTD SVG 1.1//EN" "http://www.w3.org/Graphics/SVG/1.1/DTD/svg11.dtd">
<svg version="1.1" xmlns="http://www.w3.org/2000/svg" xmlns:xlink="http://www.w3.org/1999/xlink" x="0px" y="0px"
	 viewBox="0 0 100 100" enable-background="new 0 0 100 100" xml:space="preserve">
<g id="Layer_1">
	<g id="Circle">
		<circle fill="none" stroke="#020202" stroke-width="5" stroke-miterlimit="10" cx="50" cy="50" r="46.4"/>
	</g>
</g>
<g id="GitHub" display="none">
	<g id="Layer_6" display="inline">
		<path fill="#010101" d="M69,52.2L69,52.2c0-0.1,0.6-1.6,0.6-1.8c0,0,0.8-4.5,0.8-7.2c0-3.8-1.5-7-3.8-9.3c0.4-1.3,0.9-4.3-0.5-8.1
			c0,0-2.7-0.9-8.7,3.2c-2.3-0.6-4.8-0.9-7.4-0.9c-2.7,0-5.6,0.4-8.2,1.1c-6.3-4.2-9-3.4-9-3.4c-1.8,4.5-0.7,7.8-0.3,8.6
			c-2.1,2.3-3.4,5.2-3.4,8.8c0,2.7,0.3,5.1,1,7.2l0,0c0.1,0.1,0.5,1.2,0.6,1.6l0,0c0.1,0.1,0.2,0.2,0.2,0.3v0.1
			c2.1,3.8,6.3,6.3,13.5,7.1c-1,0.7-2.1,1.9-2.6,3.9c-1.4,0.7-5.9,2.3-8.7-2.3c0,0-1.5-2.7-4.5-3c0,0-2.8-0.1-0.2,1.7
			c0,0,1.9,0.9,3.2,4.2c0,0,1.7,5.7,9.9,3.8v5.9c0,0-0.2,2.1-2.1,2.7c0,0-1.1,0.8,0.1,1.3c0,0,5.3,0.5,5.3-3.9v-6.4
			c0,0-0.2-2.6,1-3.4v10.6c0,0-0.1,2.5-1.4,3.4c0,0-0.9,1.6,1,1.1c0,0,3.7-0.5,3.8-4.8l0.1-10.6h0.9l0.2,10.7
			c0.2,4.2,3.8,4.8,3.8,4.8c1.9,0.5,1-1.1,1-1.1c-1.3-0.9-1.4-3.4-1.4-3.4V64.1c1.3,0.9,1,3.4,1,3.4v6.4c0,4.3,5.3,3.9,5.3,3.9
			c1.3-0.5,0.1-1.3,0.1-1.3c-1.9-0.7-2.1-2.7-2.1-2.7v-8.4c0-3.3-1.4-5-2.7-5.9C63.5,58.7,67.3,56.1,69,52.2z M49.8,58
			c-8.6,0-15.5-1.3-15.5-9.5c0-2,0.9-3.8,2.7-5.3c2.8-2.6,7.5-1.2,12.9-1.2c5.3,0,10-1.3,12.8,1.2c1.7,1.6,2.7,3.4,2.7,5.4
			C65.4,57.7,58.4,58,49.8,58z"/>
	</g>
</g>
<g id="Twitter" display="none">
	<g id="Twitter_1_" display="inline">
		<g>
			<path fill="#020202" d="M75.6,33.8c-2,0.9-3.9,1.5-6.1,1.7c2.2-1.3,3.8-3.3,4.6-5.9c-2.1,1.2-4.3,2.2-6.7,2.6
				c-2-2.1-4.6-3.3-7.7-3.3c-5.9,0-10.7,4.8-10.7,10.7c0,0.9,0.1,1.7,0.2,2.4c-8.8-0.5-16.6-4.6-21.8-11.1c-1,1.6-1.5,3.3-1.5,5.4
				c0,3.7,2,7,4.8,8.8c-1.7,0-3.3-0.6-4.8-1.3v0.1c0,5.1,3.7,9.4,8.5,10.4c-1,0.2-1.8,0.4-2.7,0.4c-0.7,0-1.3,0-2.1-0.2
				c1.3,4.2,5.3,7.2,9.9,7.4c-3.5,2.7-8.1,4.4-13,4.4c-0.9,0-1.7,0-2.5-0.1c4.6,3,10.3,4.8,16.4,4.8c19.6,0,30.2-16.3,30.2-30.2
				c0-0.5,0-1,0-1.5C72.3,37.9,74.2,35.9,75.6,33.8z"/>
		</g>
	</g>
</g>
<g id="Email" display="none">
	<path display="inline" d="M23.9,32.8v2.1v30.3v2.1h52.2v-2.1V34.9v-2.1H23.9z M74,36.2L58.3,49.5L74,64.2v0.9h-2.1L56.7,50.9
		L50,56.6l-6.7-5.7L28.1,65.1H26v-0.9l15.7-14.8L26,36.2v-1.3h1.7l22.3,19l22.3-19H74V36.2z"/>
</g>
<g id="CodePen_1_">
	<g id="CodePen">
		<path fill="#020202" d="M79.6,40.6L79.6,40.6c0-0.2,0-0.3-0.1-0.3v-0.1c0-0.1,0-0.1-0.1-0.2c0,0,0-0.1-0.1-0.1
			c0-0.1-0.1-0.1-0.1-0.2l-0.1-0.1c0-0.1-0.1-0.1-0.1-0.2L79,39.5c0-0.1-0.1-0.1-0.1-0.2l-0.1-0.1c-0.1,0-0.1-0.1-0.2-0.1L78.5,39
			l0,0L51.3,20.7c-0.9-0.6-2-0.6-2.9,0L21.4,38.8l0,0l-0.1,0.1c-0.1,0-0.1,0.1-0.2,0.1L21,39c-0.1,0.1-0.1,0.1-0.1,0.2l-0.1,0.1
			c0,0.1-0.1,0.1-0.1,0.2l-0.1,0.1c0,0.1-0.1,0.1-0.1,0.2c0,0,0,0.1-0.1,0.1c0,0.1-0.1,0.1-0.1,0.2v0.1c0,0.1,0,0.2-0.1,0.2v0.1
			c0,0.1,0,0.3,0,0.3v18.1c0,0.1,0,0.3,0,0.3v0.1c0,0.1,0,0.2,0.1,0.2v0.1c0,0.1,0,0.1,0.1,0.2c0,0,0,0.1,0.1,0.1
			c0,0.1,0.1,0.1,0.1,0.2l0.1,0.1c0,0.1,0.1,0.1,0.1,0.2l0.1,0.1c0,0.1,0.1,0.1,0.1,0.2l0.1,0.1c0.1,0,0.1,0.1,0.2,0.1l0.1,0.1l0,0
			l27.1,18.1c0.4,0.3,1,0.4,1.4,0.4c0.5,0,1-0.2,1.4-0.4l27.1-18.1l0,0l0.1-0.1c0.1,0,0.1-0.1,0.2-0.1l0.1-0.1
			c0.1-0.1,0.1-0.1,0.1-0.2l0.1-0.1c0-0.1,0.1-0.1,0.1-0.2l0.1-0.1c0-0.1,0.1-0.1,0.1-0.2c0,0,0-0.1,0.1-0.1c0-0.1,0.1-0.1,0.1-0.2
			v-0.1c0-0.1,0-0.2,0.1-0.2v-0.1c0-0.1,0-0.3,0-0.3V40.9C79.6,40.8,79.6,40.7,79.6,40.6z M52.4,27.6l19.9,13.4l-8.9,6l-11.1-7.4
			L52.4,27.6L52.4,27.6z M47.3,27.6v11.9l-11,7.4l-8.9-6L47.3,27.6z M25.4,45.6l6.4,4.2l-6.4,4.2V45.6z M47.3,72.2L27.4,58.9l8.9-6
			l11,7.5V72.2z M49.9,55.9l-9-6.1l9-6.1l9,6.1L49.9,55.9z M52.4,72.2V60.4L63.5,53l8.9,6L52.4,72.2z M74.4,54.2L68.1,50l6.4-4.2
			L74.4,54.2L74.4,54.2z"/>
	</g>
</g>
</svg>
