<?xml version="1.0" encoding="utf-8"?>
<!-- Generator: Adobe Illustrator 18.1.1, SVG Export Plug-In . SVG Version: 6.00 Build 0)  -->
<!DOCTYPE svg PUBLIC "-//W3C//DTD SVG 1.1//EN" "http://www.w3.org/Graphics/SVG/1.1/DTD/svg11.dtd">
<svg version="1.1" xmlns="http://www.w3.org/2000/svg" xmlns:xlink="http://www.w3.org/1999/xlink" x="0px" y="0px"
	 viewBox="0 0 100 100" enable-background="new 0 0 100 100" xml:space="preserve">
<g id="Circle">
	<circle fill="none" stroke="#020202" stroke-width="5" stroke-miterlimit="10" cx="50" cy="50" r="46.4"/>
</g>
<g id="Icon-Github3" display="none">
	<path display="inline" fill="#010101" d="M91.6,50.7l0.1-0.3C84.8,49,77.7,49,73.5,49.2c0.7-2.5,0.9-5.4,0.9-8.7
		c0-4.6-1.7-8.3-4.6-11.2c0.5-1.6,1.2-5.1-0.7-9.7c0,0-3.2-1-10.4,3.8c-2.8-0.7-5.9-1.1-8.9-1.1c-3.3,0-6.7,0.4-9.8,1.3
		c-7.5-5.1-10.8-4.1-10.8-4.1C27.1,25,28.5,29,28.9,30c-2.5,2.7-4.1,6.2-4.1,10.5c0,3.2,0.4,6.1,1.3,8.6C21.8,49,15,49,8.4,50.4
		l0.1,0.3c6.7-1.3,13.5-1.4,17.7-1.2c0.2,0.5,0.4,1,0.7,1.5c-4.2,0.1-11.4,0.7-18.3,2.6l0.1,0.3c7-2,14.2-2.5,18.4-2.6
		C29.5,56,34.5,59,43.3,60c-1.3,0.8-2.5,2.3-3.1,4.7c-1.7,0.8-7.1,2.8-10.4-2.8c0,0-1.8-3.3-5.3-3.6c0,0-3.4-0.1-0.2,2.1
		c0,0,2.3,1.1,3.8,5.1c0,0,2,6.8,11.8,4.6v7c0,0-0.2,2.5-2.5,3.3c0,0-1.4,0.9,0.1,1.5c0,0,6.3,0.5,6.3-4.7v-7.7c0,0-0.3-3,1.2-4.1
		v12.6c0,0-0.1,3-1.7,4.2c0,0-1,1.9,1.2,1.4c0,0,4.4-0.6,4.6-5.7l0.1-12.8h1l0.1,12.8c0.2,5.1,4.6,5.7,4.6,5.7
		c2.3,0.5,1.2-1.4,1.2-1.4c-1.6-1.1-1.7-4.2-1.7-4.2V65.6c1.5,1.2,1.2,4,1.2,4v7.7c0,5.2,6.3,4.7,6.3,4.7c1.5-0.5,0.1-1.5,0.1-1.5
		c-2.3-0.8-2.5-3.3-2.5-3.3V67.1c0-3.9-1.7-6-3.3-7.1c9.4-0.9,14-4,16-8.7c4.1,0.1,11.6,0.6,18.7,2.6l0.1-0.3
		c-7.1-2-14.5-2.5-18.6-2.6c0.2-0.5,0.4-1,0.5-1.5C77.6,49.3,84.7,49.3,91.6,50.7z M49.8,58.2c-10.3,0-18.6-1.5-18.6-11.5
		c0-2.4,1.2-4.6,3.2-6.4c3.3-3.1,9-1.4,15.4-1.4c6.4,0,12-1.6,15.4,1.4c2,1.8,3.2,4.1,3.2,6.5C68.4,57.9,60.1,58.2,49.8,58.2z"/>
</g>
<g id="Twitter" display="none">
	<g display="inline">
		<path fill="#020202" d="M76.1,33.5c-2,0.9-4,1.5-6.2,1.7c2.2-1.3,3.9-3.4,4.7-6c-2.1,1.2-4.4,2.2-6.8,2.7c-2-2.1-4.7-3.4-7.9-3.4c-6,0-10.9,4.9-10.9,10.9c0,0.9,0.1,1.7,0.2,2.4c-9-0.5-16.9-4.7-22.3-11.3c-1,1.6-1.5,3.4-1.5,5.5c0,3.8,2,7.1,4.9,9c-1.7,0-3.4-0.6-4.9-1.3v0.1c0,5.2,3.8,9.6,8.7,10.6c-1,0.2-1.8,0.4-2.8,0.4c-0.7,0-1.3,0-2.1-0.2c1.3,4.3,5.4,7.4,10.1,7.6C35.7,65,31,66.7,26,66.7c-0.9,0-1.7,0-2.6-0.1c4.7,3.1,10.5,4.9,16.7,4.9c20,0,30.8-16.6,30.8-30.8c0-0.5,0-1,0-1.5C72.8,37.6,74.7,35.6,76.1,33.5z"/>
	</g>
</g>
<g id="Email">
	<path fill="#010101" d="M23.5,32.5v2.1v30.7v2.1h53v-2.1V34.6v-2.1H23.5z M74.4,35.9L58.5,49.5l15.9,15v0.9h-2.1L56.8,50.8L50,56.7l-6.8-5.8L27.8,65.3h-2.1v-0.9l15.9-15L25.6,35.9v-1.3h1.7L50,53.9l22.6-19.3h1.7V35.9z"/>
</g>
<g id="CodePen" display="none">
	<path display="inline" fill="#020202" d="M84.1,39.2c0,0,0-0.1,0-0.1c0-0.1,0-0.2-0.1-0.2c0,0,0-0.1,0-0.1c0-0.1,0-0.1-0.1-0.2
		c0,0,0-0.1-0.1-0.1c0-0.1-0.1-0.1-0.1-0.2c0,0-0.1-0.1-0.1-0.1c0-0.1-0.1-0.1-0.1-0.2c0,0-0.1-0.1-0.1-0.1c0-0.1-0.1-0.1-0.1-0.2
		c0,0-0.1-0.1-0.1-0.1c-0.1,0-0.1-0.1-0.2-0.1c0,0-0.1-0.1-0.1-0.1c0,0,0,0,0,0L51.5,16.2c-1-0.7-2.3-0.7-3.3,0L17,37.1c0,0,0,0,0,0
		c0,0-0.1,0.1-0.1,0.1c-0.1,0-0.1,0.1-0.2,0.1c0,0-0.1,0.1-0.1,0.1c-0.1,0.1-0.1,0.1-0.1,0.2c0,0-0.1,0.1-0.1,0.1
		c0,0.1-0.1,0.1-0.1,0.2c0,0-0.1,0.1-0.1,0.1c0,0.1-0.1,0.1-0.1,0.2c0,0,0,0.1-0.1,0.1c0,0.1-0.1,0.1-0.1,0.2c0,0,0,0.1,0,0.1
		c0,0.1,0,0.2-0.1,0.2c0,0,0,0.1,0,0.1c0,0.1,0,0.3,0,0.4v20.9c0,0.1,0,0.3,0,0.4c0,0,0,0.1,0,0.1c0,0.1,0,0.2,0.1,0.2
		c0,0,0,0.1,0,0.1c0,0.1,0,0.1,0.1,0.2c0,0,0,0.1,0.1,0.1c0,0.1,0.1,0.1,0.1,0.2c0,0,0.1,0.1,0.1,0.1c0,0.1,0.1,0.1,0.1,0.2
		c0,0,0.1,0.1,0.1,0.1c0,0.1,0.1,0.1,0.1,0.2c0,0,0.1,0.1,0.1,0.1c0.1,0,0.1,0.1,0.2,0.1c0,0,0.1,0.1,0.1,0.1c0,0,0,0,0,0l31.3,20.9
		c0.5,0.3,1.1,0.5,1.6,0.5c0.6,0,1.1-0.2,1.6-0.5l31.3-20.9c0,0,0,0,0,0c0,0,0.1-0.1,0.1-0.1c0.1,0,0.1-0.1,0.2-0.1
		c0,0,0.1-0.1,0.1-0.1c0.1-0.1,0.1-0.1,0.1-0.2c0,0,0.1-0.1,0.1-0.1c0-0.1,0.1-0.1,0.1-0.2c0,0,0.1-0.1,0.1-0.1
		c0-0.1,0.1-0.1,0.1-0.2c0,0,0-0.1,0.1-0.1c0-0.1,0.1-0.1,0.1-0.2c0,0,0-0.1,0-0.1c0-0.1,0-0.2,0.1-0.2c0,0,0-0.1,0-0.1
		c0-0.1,0-0.3,0-0.4V39.5C84.1,39.4,84.1,39.3,84.1,39.2z M52.8,24.2l23,15.4l-10.3,6.9l-12.8-8.5V24.2z M46.9,24.2v13.7l-12.7,8.5
		l-10.3-6.9L46.9,24.2z M21.6,45l7.4,4.9l-7.4,4.9V45z M46.9,75.7l-23-15.4l10.3-6.9L46.9,62V75.7z M49.9,56.9l-10.4-7l10.4-7
		l10.4,7L49.9,56.9z M52.8,75.7V62l12.8-8.5l10.3,6.9L52.8,75.7z M78.2,54.9L70.9,50l7.4-4.9V54.9z"/>
</g>
<g id="GitHub" display="none">
	<g display="inline">
		<path fill-rule="evenodd" clip-rule="evenodd" fill="#010101" d="M50,2.3C23.7,2.3,2.4,23.6,2.4,49.9c0,21,13.6,38.9,32.6,45.2
			c2.4,0.4,3.3-1,3.3-2.3c0-1.1,0-4.9-0.1-8.9c-13.3,2.9-16-5.6-16-5.6c-2.2-5.5-5.3-7-5.3-7c-4.3-3,0.3-2.9,0.3-2.9
			c4.8,0.3,7.3,4.9,7.3,4.9c4.2,7.3,11.1,5.2,13.9,4c0.4-3.1,1.7-5.2,3-6.4c-10.6-1.2-21.7-5.3-21.7-23.5c0-5.2,1.9-9.4,4.9-12.8
			c-0.5-1.2-2.1-6,0.5-12.6c0,0,4-1.3,13.1,4.9c3.8-1.1,7.9-1.6,11.9-1.6c4,0,8.1,0.5,11.9,1.6C71,20.8,75,22,75,22
			c2.6,6.6,1,11.4,0.5,12.6c3.1,3.3,4.9,7.6,4.9,12.8c0,18.3-11.1,22.3-21.7,23.5c1.7,1.5,3.2,4.4,3.2,8.8c0,6.4-0.1,11.5-0.1,13.1
			c0,1.3,0.9,2.8,3.3,2.3C84,88.8,97.6,71,97.6,49.9C97.6,23.6,76.3,2.3,50,2.3z"/>
		<path fill="#010101" d="M20.4,70.7c-0.1,0.2-0.5,0.3-0.8,0.1c-0.3-0.2-0.5-0.5-0.4-0.7c0.1-0.2,0.5-0.3,0.8-0.1
			C20.3,70.1,20.5,70.4,20.4,70.7L20.4,70.7z M19.8,70.2"/>
		<path fill="#010101" d="M22.3,72.8c-0.2,0.2-0.7,0.1-1-0.2c-0.3-0.3-0.4-0.8-0.1-1c0.2-0.2,0.7-0.1,1,0.2
			C22.5,72.2,22.6,72.6,22.3,72.8L22.3,72.8z M21.9,72.3"/>
		<path fill="#010101" d="M24.2,75.6c-0.3,0.2-0.8,0-1.1-0.4c-0.3-0.4-0.3-0.9,0-1.1c0.3-0.2,0.8,0,1.1,0.4
			C24.5,74.9,24.5,75.4,24.2,75.6L24.2,75.6z M24.2,75.6"/>
		<path fill="#010101" d="M26.8,78.2c-0.3,0.3-0.8,0.2-1.2-0.2c-0.4-0.4-0.5-0.9-0.3-1.2c0.3-0.3,0.8-0.2,1.2,0.2
			C26.9,77.4,27.1,77.9,26.8,78.2L26.8,78.2z M26.8,78.2"/>
		<path fill="#010101" d="M30.3,79.8c-0.1,0.4-0.7,0.5-1.2,0.4c-0.5-0.2-0.9-0.6-0.8-1c0.1-0.4,0.7-0.6,1.2-0.4
			C30.1,78.9,30.5,79.4,30.3,79.8L30.3,79.8z M30.3,79.8"/>
		<path fill="#010101" d="M34.2,80c0,0.4-0.4,0.7-1,0.7c-0.6,0-1-0.3-1-0.7c0-0.4,0.4-0.7,1-0.7C33.8,79.3,34.2,79.7,34.2,80
			L34.2,80z M34.2,80"/>
		<path fill="#010101" d="M37.9,79.4c0.1,0.4-0.3,0.8-0.9,0.9c-0.6,0.1-1.1-0.1-1.1-0.5c-0.1-0.4,0.3-0.8,0.9-0.9
			C37.3,78.8,37.8,79,37.9,79.4L37.9,79.4z M37.9,79.4"/>
	</g>
</g>
</svg>
