<?xml version="1.0" encoding="utf-8"?>
<!-- Generator: Adobe Illustrator 18.1.1, SVG Export Plug-In . SVG Version: 6.00 Build 0)  -->
<!DOCTYPE svg PUBLIC "-//W3C//DTD SVG 1.1//EN" "http://www.w3.org/Graphics/SVG/1.1/DTD/svg11.dtd">
<svg version="1.1" xmlns="http://www.w3.org/2000/svg" xmlns:xlink="http://www.w3.org/1999/xlink" x="0px" y="0px" viewBox="0 0 32 32" enable-background="new 0 0 32 32" xml:space="preserve">
  <polygon fill="#C75E28" points="16,0.5 20.9,10.7 31.7,12.4 23.8,20.4 25.7,31.6 16,26.3 6.3,31.6 8.2,20.4 0.3,12.4 11.1,10.7"/>
<path d="M31.7,12.4l-10.8-1.6L16,0.5l-4.9,10.3L0.3,12.4l7.8,8L6.3,31.6l9.7-5.3l9.7,5.3l-1.9-11.3L31.7,12.4z M16,22.9l-6.4,3.5l1.2-7.5l-5.2-5.3l7.2-1.1L16,5.7l3.2,6.8l7.2,1.1l-5.2,5.3l1.2,7.5L16,22.9z"/>
</svg>
