<?xml version="1.0" encoding="utf-8"?>
<!-- Generator: Adobe Illustrator 18.1.1, SVG Export Plug-In . SVG Version: 6.00 Build 0)  -->
<!DOCTYPE svg PUBLIC "-//W3C//DTD SVG 1.1//EN" "http://www.w3.org/Graphics/SVG/1.1/DTD/svg11.dtd">
<svg version="1.1" id="_x33_M" xmlns="http://www.w3.org/2000/svg" xmlns:xlink="http://www.w3.org/1999/xlink" x="0px" y="0px"
	 viewBox="0 0 200 200" enable-background="new 0 0 200 200" xml:space="preserve">
<g>
	<path fill="#ED1B2F" d="M156.5,51.7l-14.2,57.6l-14.2-57.6H86.5V73c-5-18.6-22.7-23.3-39-23.6C27.5,49.2,6.6,57.8,5.8,84.2h27.6
		c0-8,6.1-12.5,13-12.4c8.4-0.1,12.3,3.5,12.5,9.2c-0.3,4.9-3.2,8.3-12.5,8.3h-9.3v19.1h8.4c4.8,0,11.4,2.6,11.7,9.4
		c0.3,8.1-5.3,11.7-12.3,11.8c-12.4-0.5-14.4-10-14.4-18.2H2c0.1,5.5-1.2,41.5,43.6,41.2c21.5,0.2,36.5-8.8,40.9-21.3v19.1h28.2
		V88.1l15.3,62.2h24.7L170,88.2v62.2h28.2V51.7H156.5z M86.5,109.2C83,102,78.1,98.8,75.3,97.8c5.8-2.6,8.9-6.1,11.2-13.1V109.2z"/>
</g>
</svg>
