<?xml version="1.0" encoding="utf-8"?>
<!-- Generator: Adobe Illustrator 18.1.1, SVG Export Plug-In . SVG Version: 6.00 Build 0)  -->
<!DOCTYPE svg PUBLIC "-//W3C//DTD SVG 1.1//EN" "http://www.w3.org/Graphics/SVG/1.1/DTD/svg11.dtd">
<svg version="1.1" id="Autolite" xmlns="http://www.w3.org/2000/svg" xmlns:xlink="http://www.w3.org/1999/xlink" x="0px" y="0px"
	 viewBox="0 0 200 200" enable-background="new 0 0 200 200" xml:space="preserve">
<g>
	<g>
		<polygon fill-rule="evenodd" clip-rule="evenodd" fill="#F15E22" points="134.9,72.6 124.3,72.6 124.3,123.6 134.9,123.6 
			134.9,72.6 		"/>
		<polygon fill-rule="evenodd" clip-rule="evenodd" fill="#F15E22" points="149.9,72.5 139.3,72.5 139.3,80.9 149.9,80.9 
			149.9,72.5 		"/>
		<polygon fill-rule="evenodd" clip-rule="evenodd" fill="#F15E22" points="149.9,87.5 139.3,87.5 139.3,123.6 149.9,123.6 
			149.9,87.5 		"/>
		<path fill-rule="evenodd" clip-rule="evenodd" fill="#F15E22" d="M83.2,123.6c0.5,0.2,7.6,0,7.6,0v-5c-2,0-4.7,0.3-4.7-2.3V93.4
			h4.7v-5.9h-4.7V79l-10.6,4.4V116C75.6,121.3,79.8,123.6,83.2,123.6L83.2,123.6z"/>
		<path fill-rule="evenodd" clip-rule="evenodd" fill="#F15E22" d="M161.9,123.6c0.5,0.2,7.6,0,7.6,0v-5c-2,0-4.7,0.3-4.7-2.3V93.4
			h4.7v-5.9h-4.7V79l-10.6,4.4V116C154.3,121.3,158.5,123.6,161.9,123.6L161.9,123.6z"/>
		<path fill-rule="evenodd" clip-rule="evenodd" fill="#F15E22" d="M106.2,124c7.5,0,13.6-3.1,13.6-10.7V97.8
			c0-7.5-6.1-10.7-13.6-10.7c-7.5,0-13.6,3.2-13.6,10.7v15.5C92.5,120.9,98.6,124,106.2,124L106.2,124z M103,95.5
			c0-1.7,1.4-3.1,3.1-3.1c1.7,0,3.1,1.4,3.1,3.1V116c0,1.7-1.4,3.1-3.1,3.1c-1.7,0-3.1-1.4-3.1-3.1V95.5L103,95.5z"/>
		<path fill-rule="evenodd" clip-rule="evenodd" fill="#F15E22" d="M16.3,110.7H28v12.9h10.6v-51H21.4L2,123.6h9.3L16.3,110.7
			L16.3,110.7z M28,79.7v23.6h-9L28,79.7L28,79.7z"/>
		<path fill-rule="evenodd" clip-rule="evenodd" fill="#F15E22" d="M60.5,122.7v0.9h10.6V87.5l-10.6,0V116c0,1.7-1.5,3.1-3.3,3.1
			c-1.7,0-3.1-1.4-3.1-3.1V87.5H43.6v28.1C43.6,122.4,51.2,126.9,60.5,122.7L60.5,122.7z"/>
		<path fill-rule="evenodd" clip-rule="evenodd" fill="#F15E22" d="M198.7,112.3C198.7,112.3,198.7,112.3,198.7,112.3
			C198.7,112.3,198.7,112.3,198.7,112.3L198.7,112.3z"/>
		<path fill-rule="evenodd" clip-rule="evenodd" fill="#F15E22" d="M184.6,124c7.5,0,13.9-3.1,13.9-10.7c0,0,0-1,0-1.1
			c0,0.2-10.6,0-10.6,0c0,0,0,3.7,0,3.7c0,1.7-1.7,3.1-3.4,3.1c-1.7,0-3.1-1.4-3.1-3.1v-7.6h17.1V97.8c0-7.5-6.4-10.7-13.9-10.7
			c-7.5,0-13.6,3.2-13.6,10.7v15.5C171,120.9,177.1,124,184.6,124L184.6,124z M181.5,95.4c0-1.7,1.9-3.1,3.6-3.1c1.7,0,3,1.4,3,3.1
			l0,6.5h-6.5V95.4L181.5,95.4z"/>
	</g>
</g>
</svg>
