<?xml version="1.0" encoding="utf-8"?>
<!-- Generator: Adobe Illustrator 18.1.1, SVG Export Plug-In . SVG Version: 6.00 Build 0)  -->
<!DOCTYPE svg PUBLIC "-//W3C//DTD SVG 1.1//EN" "http://www.w3.org/Graphics/SVG/1.1/DTD/svg11.dtd">
<svg version="1.1" id="General_Mills" xmlns="http://www.w3.org/2000/svg" xmlns:xlink="http://www.w3.org/1999/xlink" x="0px"
	 y="0px" viewBox="0 0 200 200" enable-background="new 0 0 200 200" xml:space="preserve">
<path fill="#0047BA" d="M160.8,79.7c0-20.2,6.6-32.5,6.6-32.5h-23.8c-2.2,9.7-6.1,16.4-16.3,19.1c0.1-0.3,0.2-0.6,0.3-0.8
	c1.9-5.5,4.7-15.3,4.7-21c0-15.2-10.5-27.5-29.2-27.5c-17.9,0-32.5,14.2-32.5,32.2c0,17.9,11.4,30.7,26.5,36.2
	c-1.3,3.7-2.7,7.6-4.2,11.6c-1.9-0.2-3.9-0.3-6-0.3c-35.9,0-46.4,24.5-46.4,39.9c0,30.1,28,49.1,61.9,49.1
	c28.4,0,65.2-14.8,65.2-56.3C167.6,111.5,160.8,94.3,160.8,79.7 M93.2,49.2c0-6.4,3.8-10.8,8.6-10.8c3,0,8,1.6,8,9.9
	c0,3-3.4,11.3-4.7,14.8c-0.1,0.3-0.4,1.1-0.8,2.4C96.2,62.2,93.2,53.4,93.2,49.2z M102.5,162.7c-19.3,0-38-9-38-25.6
	c0-11.2,8.7-17.4,20.4-18.3c-5.4,14.9-9.8,26.9-9.8,26.9h23.1c0,0,3.8-10.3,8.6-23.5c9.8,3.9,14.5,9.8,14.5,9.8l7.6-20.7
	c0,0-5.1-5-14.7-9.2c1.8-4.9,3.6-9.7,5.2-14.2c10-1.1,17.8-4.8,17.8-4.8c0,20.2,6.2,30.3,6.2,44.3
	C143.5,155.4,120.8,162.7,102.5,162.7z"/>
</svg>
