<?xml version="1.0" encoding="utf-8"?>
<!-- Generator: Adobe Illustrator 18.1.1, SVG Export Plug-In . SVG Version: 6.00 Build 0)  -->
<!DOCTYPE svg PUBLIC "-//W3C//DTD SVG 1.1//EN" "http://www.w3.org/Graphics/SVG/1.1/DTD/svg11.dtd">
<svg version="1.1" id="General_Mills" xmlns="http://www.w3.org/2000/svg" xmlns:xlink="http://www.w3.org/1999/xlink" x="0px"
	 y="0px" viewBox="0 0 200 200" enable-background="new 0 0 200 200" xml:space="preserve">
<path fill="#0047BA" d="M150.4,67.9c0-16.5,5.4-26.5,5.4-26.5h-19.4c-1.8,8-5,13.4-13.3,15.6c0.1-0.3,0.2-0.5,0.2-0.6
	c1.6-4.5,3.8-12.5,3.8-17.2c0-12.4-8.6-22.5-23.9-22.5c-14.7,0-26.6,11.6-26.6,26.3c0,14.6,9.3,25.1,21.7,29.6
	c-1.1,3-2.2,6.2-3.4,9.5c-1.6-0.1-3.2-0.2-4.9-0.2c-29.4,0-37.9,20-37.9,32.6c0,24.6,22.9,40.1,50.6,40.1c23.2,0,53.3-12.1,53.3-46
	C156,93.9,150.4,79.9,150.4,67.9 M95.2,43c0-5.2,3.1-8.8,7-8.8c2.5,0,6.5,1.3,6.5,8.1c0,2.4-2.8,9.2-3.8,12.1
	c-0.1,0.2-0.3,0.9-0.7,1.9C97.7,53.6,95.2,46.4,95.2,43z M102.8,135.8c-15.8,0-31.1-7.4-31.1-20.9c0-9.2,7.1-14.2,16.7-14.9
	c-4.4,12.2-8,22-8,22h18.9c0,0,3.1-8.4,7.1-19.2c8,3.2,11.8,8,11.8,8l6.3-16.9c0,0-4.1-4.1-12-7.5c1.5-4,2.9-7.9,4.2-11.6
	c8.2-0.9,14.6-3.9,14.6-3.9c0,16.5,5.1,24.7,5.1,36.2C136.3,129.8,117.7,135.8,102.8,135.8z"/>
<path fill="#009BDE" d="M11.6,166.9c-0.4-1.5-1.8-1.9-3.3-1.9c-3.4,0-4.7,2.7-4.6,5c0.2,3.2,1.2,4.9,5.2,5c0.9,0,1.9-0.1,2.8-0.4
	v-3.5H8.6v-1.5h5.1v6.1c-1.6,0.4-3.2,0.7-4.8,0.7c-2,0-3.6-0.2-5.1-1.4c-1.5-1.2-2.1-3.3-2.1-5c0-1.3,0.5-2.7,1.2-3.8
	c1.2-1.9,3.3-2.6,5.7-2.6c2.4,0,5,1,5.1,3.4H11.6"/>
<polyline fill="#009BDE" points="20.9,176.2 20.9,163.8 29.7,163.8 29.7,165.2 22.8,165.2 22.8,169.1 29.3,169.1 29.3,170.6 
	22.8,170.6 22.8,174.7 29.8,174.7 29.8,176.2 20.9,176.2 "/>
<polyline fill="#009BDE" points="48.4,163.8 48.4,176.2 46,176.2 38.9,165.6 38.9,165.6 38.9,176.2 37.2,176.2 37.2,163.8 
	39.8,163.8 46.6,174 46.7,174 46.7,163.8 48.4,163.8 "/>
<polyline fill="#009BDE" points="55.7,176.2 55.7,163.8 64.5,163.8 64.5,165.2 57.7,165.2 57.7,169.1 64.2,169.1 64.2,170.6 
	57.7,170.6 57.7,174.7 64.7,174.7 64.7,176.2 55.7,176.2 "/>
<path fill="#009BDE" d="M73.7,165.2h3.2c2.1,0.1,2.6,0.9,2.6,1.9c0,1-0.5,1.8-2.6,1.9h-3.2V165.2 M76.4,170.6c0.8,0.1,1.5,0,2.1,0.6
	c0.6,0.6,0.6,1.6,0.8,2.7c0.1,0.7,0.3,1.5,0.5,2.3h2.1c-0.5-1.2-0.7-2.5-0.9-3.7c-0.2-1.4-0.4-2.2-2.1-2.5v0c1.6-0.3,2.6-1.5,2.6-3
	c0-2.5-2.4-3.1-4.8-3.1h-5v12.4h1.9v-5.6H76.4z"/>
<path fill="#009BDE" d="M94,165.5l2.5,6h-5.2L94,165.5 M89.1,176.2l1.5-3.2h6.5l1.5,3.2h2.1l-5.7-12.4H93l-5.9,12.4H89.1z"/>
<polyline fill="#009BDE" points="106.7,176.2 106.7,163.8 108.7,163.8 108.7,174.7 115.2,174.7 115.2,176.2 106.7,176.2 "/>
<polyline fill="#009BDE" points="139.5,165 139.5,165 135,176.2 133.2,176.2 128.7,165 128.7,165 128.7,176.2 126.7,176.2 
	126.7,163.8 130.2,163.8 134.2,174 134.3,174 138.2,163.8 141.4,163.8 141.4,176.2 139.5,176.2 139.5,165 "/>
<rect x="148.9" y="163.8" fill="#009BDE" width="1.9" height="12.4"/>
<polyline fill="#009BDE" points="158.4,176.2 158.4,163.8 160.3,163.8 160.3,174.7 166.8,174.7 166.8,176.2 158.4,176.2 "/>
<polyline fill="#009BDE" points="173.1,176.2 173.1,163.8 175,163.8 175,174.7 181.5,174.7 181.5,176.2 173.1,176.2 "/>
<path fill="#009BDE" d="M189.1,172.6c0,1.7,1.2,2.4,3.1,2.4c1.6,0,3.5-0.4,3.5-2.1c0-1.2-1.1-1.7-2.3-1.9c-2.3-0.4-6.1-0.9-6.1-3.7
	c0-2.7,2.8-3.7,5.4-3.7c2.4,0,4.7,0.9,4.7,3.4h-2c-0.1-1.4-1.4-1.9-2.8-1.9c-1.4,0-3.2,0.4-3.2,1.9c0,1.4,1.1,1.5,2.3,1.8
	c2.6,0.7,6.1,0.7,6.1,3.9c0,2.8-2.8,3.8-5.7,3.8c-2.9,0-5.1-1.1-5-3.9H189.1"/>
</svg>
