<?xml version="1.0" encoding="utf-8"?>
<!-- Generator: Adobe Illustrator 18.1.1, SVG Export Plug-In . SVG Version: 6.00 Build 0)  -->
<!DOCTYPE svg PUBLIC "-//W3C//DTD SVG 1.1//EN" "http://www.w3.org/Graphics/SVG/1.1/DTD/svg11.dtd">
<svg version="1.1" id="Grand_Casino" xmlns="http://www.w3.org/2000/svg" xmlns:xlink="http://www.w3.org/1999/xlink" x="0px"
	 y="0px" viewBox="0 0 200 200" enable-background="new 0 0 200 200" xml:space="preserve">
<g>
	<g>
		<path fill="#006394" d="M70.2,72.1c-0.3,0-0.5,0-0.8,0c-1.3,0.2-2,0.5-2.4,1l-0.2,0.3l-0.1-0.3c-0.3-0.7-0.7-1.5-1.3-2.3l-0.3-0.4
			l0.5,0.1c0.4,0.1,0.9,0.1,1.4,0.1c-0.6-0.8-1.5-1.9-1.3-3.2c-0.7,0.3-1.5,0.5-2.5,0.5l-0.2,0L63,67.7c-0.3-0.4-0.6-0.7-0.9-1.1
			l-0.3-0.4l0.6,0.1c0.1,0,0.2,0,0.3,0c0.1,0,0.2,0,0.4,0c1.9,0,3.8-1.2,4.7-2.2c0.3-0.3,1.1-1.4,0.7-2.4c-0.3-0.8-1.5-0.9-2-0.9
			c-0.2,0-0.4,0-0.7,0c-1.5,0.2-2.4,0.8-3.2,1.4c-0.6,0.5-1.4,1.1-1.6,1.9l-0.1,0.4l-0.2-0.4c-0.3-0.6-0.6-1.2-0.8-1.8l0.3-0.2
			c0.2,0.2,0.3,0.3,0.5,0.4c0.1,0.1,0.2,0.2,0.3,0.3c0.8-1.2,2.1-1.9,3.4-2.4c-0.6-1.2-2.7-3.3-4.4-3.3c-0.1,0-0.3,0-0.4,0.1
			l-0.3,0.1l0-0.7l0.2,0c0.6-0.1,1.1-0.1,1.5,0.1c0.2-0.1,0.3-0.2,0.5-0.3c0.6-0.4,1.1-0.8,1-1.7c-1,0.1-1.9,0.1-2.9-0.2l-0.2,0
			l0-0.2c0-0.3,0-0.7,0.1-1l0-0.2l0.2,0c1.2,0.3,2.4,0.3,3.2,0c0.3-0.1,1.8-1.4,1.9-1.6c0.2-0.7-0.8-1.6-1.4-2
			c-1-0.6-2.7-0.8-3.7-0.7c0,0-0.1,0-0.1,0l-0.2,0l0-0.2c-0.2-1.6-0.6-2.8-1.6-3.3c-2.3-1.2-4.8-0.1-7.3,2.4
			c-1.3,1.3-4.5-1.2-10.4-1.2c-4.5,0-14.1,4-14,17.4c0.1,12,7.7,17.9,14.1,20.4c-2.6-1.7-5.8-4.7-7.8-8.6c-1.9-3.2-3-7.5-3-11.9
			c0-2.6,0.3-5,1-6.9c2.2-6.7,8.2-8,10-8.3c0.4,0,0.8-0.1,1.2-0.1c2.2,0,4.3,0.5,5.7,0.9c1,0.3,1.5,0.5,1.9,0.7l0.2,0.1l0,0.5
			c-0.2,2-0.7,8.2,2.3,14.2c2.6,5.1,4.7,7.9,7.3,9.4c-1.4-1.3-3.6-3.9-5.8-8.8C49.9,58,50,50.7,50,50.6l0-0.1l0.1-0.1
			c0,0,2-2,3.8-3.8l0.3,0.2c0,0.1-1.9,7.2,3.5,18c3.6,7.2,6.9,9,6.9,9l0.2,0.1l-0.1,0.2c-0.5,1-0.9,1.9-1,2.6c0,0.2,0,0.3,0.1,0.5
			l0,0.1c0.3,1.6,0,3.1-0.8,4.2c-0.9,1.1-2.2,1.7-4.1,1.7l-0.2,0c-1.4,0-3-0.3-3.4-0.4c-0.4,0.5-1.5,1.5-1.9,1.9
			c-0.5,0.4-1.4,0.8-2.4,1c3.3-0.1,5.5-0.5,10-2c4-1.3,5.6-5.5,6-8.3l0.1-0.4l0.3,0.3c0.3,0.3,0.6,0.5,0.9,0.6
			c0.8,0.4,2.1,0.7,3.3,0.7c1.3,0,2.4-0.3,2.9-0.9c0.3-0.3,0.4-0.7,0.4-1.1C74.9,72.9,72.2,72.1,70.2,72.1z"/>
		<path fill="#006394" d="M46.4,62.9c1.1-0.6,2-0.2,2.8,0.9c0.3,0.5,0.5,1,0.6,1.5c0.2-0.9,0.1-1.6-0.2-2.3c-0.5-1-1.6-1.4-1.9-1.5
			c-0.3-0.1-0.7-0.2-1.1-0.2c-1.4,0-2.1,0.8-2.2,2.5c-0.1,2,1.2,2.8,2,3.1c-0.2-0.3-0.4-0.6-0.7-1.1c-0.3-0.6-0.5-1.3-0.3-1.9
			C45.6,63.5,45.9,63.2,46.4,62.9z"/>
		<path fill="#006394" d="M55.8,81.1c1.1,0.5,2.2,0.8,3.1,0.8c2.2,0,3.4-1.5,3.6-2.6c0.1-1.2-0.2-2.7-0.8-3.3
			c-0.2-0.2-0.4-0.3-0.6-0.2c-0.3,0.1-0.2,0.7,0,1.5c0.3,0.9,0.6,2-0.1,2.8c-0.6,0.6-1.3,0.9-2.1,0.9c-1.1,0-2.4-0.6-3.7-1.7
			c-2-1.7-4-6.7-5.4-10.3c-0.3-0.9-0.7-1.7-0.9-2.4c-0.1-0.2-0.1-0.4-0.2-0.6c-0.2-0.5-0.3-1.1-0.7-1.1c0,0,0,0-0.1,0
			c-0.1,0-0.2,0-0.2,0.1c-0.1,0.2-0.2,0.6,0.2,2C48.4,69.2,51.8,79.1,55.8,81.1z"/>
	</g>
	<path fill="#006394" d="M66.9,66.7c0.1,2.3,1.6,3.8,4.7,4.7c0.1-0.1,0.2-0.1,0.3-0.2c0.4-0.2,0.8-0.5,1.3-0.6c-0.4-0.8-0.7-2-0.2-3
		c0,0-0.1-0.1-0.1-0.1c-0.1-0.1-0.1-0.1-0.2-0.2c-1.6-0.1-2.6-0.9-3.4-1.7c0,0-0.2,0-0.3,0c-0.1,0-0.2,0-0.2,0c-0.1,0-0.2,0-0.3,0
		c-0.2,0.2-0.5,0.4-0.7,0.6C67.3,66.4,67.1,66.6,66.9,66.7z"/>
	<path fill="#006394" d="M74.2,61.4c-0.1,0-0.2,0-0.4,0c-1.6,0.1-4.2,0.8-4.2,2.4c0,1.5,2.4,2,3.8,2l0,0.2l0-0.2
		c1.4,0,3.2-0.5,4-1.4c0.3-0.4,0.5-0.8,0.4-1.3C77.7,61.9,75.9,61.4,74.2,61.4z"/>
	<path fill="#006394" d="M66.6,60.1c0.7,0,1.2,0.3,1.6,0.6c0.3,0.2,0.5,0.3,0.7,0.4c0.2,0,0.4,0.1,0.6,0.1c1.4,0,3.1-0.8,3.7-1.5
		c0.4-0.5,0.5-1,0.3-1.5c-0.5-1.1-3-1.7-4.7-1.6c-1.6,0.2-3.2,1.1-3.4,2.1c-0.2,0.5,0.1,1.1,0.7,1.5C66.2,60.2,66.4,60.1,66.6,60.1z
		"/>
	<path fill="#006394" d="M62.4,57.5c0.8,0.6,1.5,1.3,2.1,2.2c0-0.7,0-1.5,0.4-1.9c-0.8-0.1-1.3-0.5-1.8-0.8
		C62.9,57.1,62.7,57.3,62.4,57.5C62.5,57.5,62.5,57.5,62.4,57.5z"/>
	<path fill="#006394" d="M68.4,51.3c-0.1,0-0.2,0-0.3,0c-1.3,0.1-2.4,0.4-3.4,1.1C63.9,53,62.9,54,63,54.9c0.1,0.9,1.2,1.3,1.8,1.4
		c1.6,0.2,3.5-0.3,4.9-1.4c0.7-0.5,1.5-1.4,1.2-2.4C70.7,51.6,69.5,51.3,68.4,51.3z"/>
	<path fill="#006394" d="M65.5,50.6c0.1,0,0.2,0,0.2,0c0.8,0,1.9-0.3,2.8-0.7c0-0.7,0.5-1.1,0.9-1.3c0.3-0.2,0.5-0.3,0.5-0.5
		c0.1-0.4-0.6-1.2-1-1.4c-0.7-0.4-1.6-0.6-2.7-0.6c-1.9,0-4,0.7-4.4,2C63.5,48.5,64.7,49.4,65.5,50.6z"/>
	<path fill="#006394" d="M79.2,76.3c0.6,0.6,1.7,0.9,3.1,0.9c1.3,0,2.5-0.3,3.3-0.8c-1.1-0.4-2.2-0.9-2.4-2.3
		c-0.9,0-1.7-0.1-2.6-0.4C80.6,75,80.1,75.9,79.2,76.3z"/>
	<path fill="#006394" d="M75.6,75.5c0.3,0,0.5,0,0.8,0c2.2,0,3.3-0.7,3.5-2c-0.2-0.1-0.4-0.3-0.6-0.4c-0.7-0.4-1.4-0.9-1.8-1.7
		C76.9,71.2,76,71,75.2,71c-1.1,0-2.1,0.3-2.7,0.7C74.3,72.3,75.9,73.2,75.6,75.5z"/>
	<path fill="#006394" d="M88.3,70.8c-0.2,0-0.5,0-0.7,0c-0.8,0.1-3.5,0.5-3.7,2.2c0,0.5,0.1,0.9,0.4,1.3c0.6,0.6,1.7,1,3.2,0.9
		c1.2,0,2.5-0.3,3.2-0.6c0.3-0.2,1.4-0.9,1.4-1.9C92,71.1,89.7,70.7,88.3,70.8z"/>
	<path fill="#006394" d="M81.2,67.9c-0.8,0-1.6,0.2-2.1,0.5c-0.6,0.3-0.9,0.7-0.9,1.2c0,0.8,0.9,1.8,1.8,2.2c0.8,0.4,1.7,0.8,3,0.8
		c0.1,0,0.1,0,0.2,0c0.5-1.1,1.5-1.8,3-2.2C85.7,68.9,83.2,67.9,81.2,67.9z"/>
	<path fill="#006394" d="M74,67.4c-0.1,0.1-0.1,0.2-0.2,0.3c-0.2,0.3-0.4,0.5-0.4,0.9c0,0.5,0.1,0.8,0.3,1.1
		c0.6,0.7,1.9,0.8,2.9,0.8c0.2,0,0.5,0,0.7,0c0.1-2.1,1.4-3.2,4.1-3.2c-0.2-1.1-1.2-1.5-3.3-1.5C77.1,66.7,75.7,67.3,74,67.4z"/>
	<path fill="#006394" d="M85.7,68.6c0.5,0.4,0.9,0.9,1.2,1.5c0.2,0,0.4-0.1,0.6-0.1c0.9-0.1,1.8-0.2,2.1-0.8
		c-0.2-1.4,0.4-2.6,1.9-3.2c0-0.4-0.1-0.8-0.3-1.1c-0.3-0.3-0.8-0.5-1.4-0.5c-0.5,0-1.1,0.1-1.5,0.4C88.7,67.3,87.2,68.1,85.7,68.6z
		"/>
	<path fill="#006394" d="M82.2,67.3c0.5,0.1,1,0.2,1.5,0.2c1.6,0,2.9-0.5,3.5-1.3c0.4-0.5,0.4-1,0.3-1.7c-0.9-0.3-1.7-0.7-2.3-1.3
		c-0.4,0-0.9-0.1-1.3-0.1c-2.4,0-3.9,0.7-4.3,2.1C80.8,65.4,81.9,65.8,82.2,67.3z"/>
	<path fill="#006394" d="M78.6,63c1.3,0,2.4-0.4,2.8-1c0.3-0.4,0.3-0.9,0-1.4c-0.6-1.3-2.9-2.3-5-2.3c-0.9,0-1.6,0.2-2.2,0.5
		c0.1,0.9-0.1,1.4-0.4,1.9C75.2,60.7,78,60.9,78.6,63z"/>
	<path fill="#006394" d="M83.1,62.3c0.2,0,0.5,0,0.8,0c0.3,0,0.6,0,0.8,0c-0.2-0.7-0.2-1.5,0.1-2.2c0.2-0.5,0.5-0.9,0.8-1.1
		c-0.1,0-0.1-0.1-0.2-0.1c-0.5-0.3-1.1-0.6-1.9-0.7c-0.7-0.1-1.4,0.2-1.7,0.5c-0.2,0.2-0.3,0.5-0.2,0.9c0,0.1,0.1,0.2,0.2,0.3
		c0.1,0.2,0.3,0.4,0.4,0.6c0.1,0.3,0.2,0.7,0.2,0.9c0,0.4,0.1,0.7,0.4,0.9C82.9,62.4,83,62.3,83.1,62.3z"/>
	<path fill="#006394" d="M79.4,58.2L79.4,58.2c0.5,0.2,1,0.4,1.5,0.5c0.4-0.6,0.8-1,1.7-1.2c0.5-0.1,1,0,1.5,0.2
		c0.4,0.1,0.8,0.2,1.1,0.1c-0.7-0.8-0.8-2.3-0.3-3.4c-0.6-0.2-1.3-0.3-2-0.3c-1.6,0-3.2,0.5-3.9,1.3C79.6,56.2,79.8,57.3,79.4,58.2z
		"/>
	<path fill="#006394" d="M73.5,53.3c-1,0-2.1,0.4-2.2,1.2c-0.2,1.3,0.5,1.6,1.3,2c0.4,0.2,0.7,0.4,1,0.6c0.2,0.2,0.3,0.4,0.4,0.5
		c0.1,0.1,0.1,0.3,0.3,0.4c0.6-0.3,1.4-0.4,2.3-0.4c0.8,0,1.6,0.1,2.2,0.3c0.2-0.7,0.1-1.5-0.3-2.2c-0.9-1.4-2.9-2.3-4.5-2.5
		C73.7,53.3,73.6,53.3,73.5,53.3z"/>
	<path fill="#006394" d="M77,53.7c0.5,0.3,0.9,0.7,1.3,1c0,0,0.1,0.1,0.1,0.1c0.3-0.4,0.3-1.1,0.1-1.6c-0.1-0.2-0.3-0.5-0.6-0.6
		c-0.2,0.4-0.5,0.7-0.8,1C77.1,53.6,77,53.6,77,53.7z"/>
	<path fill="#006394" d="M73.5,52.6c0.2,0,0.3,0,0.5,0c0.3,0,0.5,0.1,0.7,0.1c0.2,0,0.4,0.1,0.5,0.1l0.1,0c0.7,0,1.4-0.4,1.8-0.9
		c0.3-0.4,0.4-0.8,0.3-1.2c-0.2-1.4-2.8-2.5-5-2.5c-1.2,0-2.1,0.3-2.6,0.9c-0.3,0.4-0.5,0.9-0.4,1.4c0.2,0.1,0.4,0.1,0.6,0.2
		c0.3,0.1,0.6,0.2,0.9,0.4c0.3,0.2,0.4,0.5,0.5,0.7c0.1,0.2,0.2,0.4,0.4,0.5c0.1,0.1,0.3,0.1,0.6,0.1c0.1,0,0.3,0,0.5,0
		C73.1,52.6,73.3,52.6,73.5,52.6z"/>
	<path fill="#006394" d="M100,72.5c0.2,0,0.3,0,0.5,0c0.5,0,1,0.1,1.5,0.1c0.6,0,1.1-0.1,1.5-0.3c0.2-0.1,0.3-0.3,0.5-0.4
		c0.2-0.2,0.4-0.4,0.6-0.6c0.4-0.2,0.7-0.3,1-0.4c0.2,0,0.3-0.1,0.5-0.2c0.3-0.3,0.4-0.8,0.3-1.7c-0.6-0.8-1.6-1.2-3-1.2
		c-2.1,0-4.3,1.1-4.8,2.4c0.2,0.4,0.2,0.9,0.1,1.3C99.3,71.8,99.7,72.1,100,72.5z"/>
	<path fill="#006394" d="M92.6,66.7c-0.2,0-0.3,0-0.5,0c-0.6,0.1-1,0.3-1.2,0.8c-0.3,0.6-0.2,1.5,0.3,2.3c0.5,0.7,2.1,2.3,3.1,2.3
		c0.3,0,2.3-0.3,3.6-0.5c0-1-0.4-2.1-1.3-3C95.6,67.4,94,66.6,92.6,66.7z"/>
	<path fill="#006394" d="M97.9,68.2c0.1,0,0.2,0.1,0.3,0.1c0.4,0.1,0.8,0.2,1.3,0.2c0.2,0,0.5-0.2,0.7-0.3c0.2-0.1,0.5-0.3,0.8-0.4
		c0.6-0.2,1.2-0.4,1.9-0.5c0.1,0,0.2,0,0.3,0c0.2,0,0.4,0,0.5-0.1c-0.4-0.5-0.9-1.3-0.7-2.3c-0.1-0.1-0.2-0.1-0.3-0.2
		c-0.2-0.1-0.3-0.2-0.5-0.3c-0.6,0.7-1.6,1-3,1c0,0-0.1,0-0.1,0C99.1,66.7,98.7,67.6,97.9,68.2z"/>
	<path fill="#006394" d="M106.8,62.8c-0.2,0-0.4,0-0.6,0c-1.1,0.1-2.3,0.8-2.3,1.7c0,0.6,0.4,1.1,0.7,1.4c0.8,0.8,2.2,1.5,3.2,1.5
		c0.1,0,0.1,0,0.2,0c0.2,0,0.5-0.1,0.8-0.3c0.3-0.1,0.5-0.3,0.8-0.3c0.7-0.1,1.3-0.2,2-0.1c0.5-0.6,0.5-1.2,0.3-1.7
		C111.1,63.7,108.7,62.8,106.8,62.8z"/>
	<path fill="#006394" d="M93,66c0.9,0,1.5,0.4,2.1,0.7c0.4,0.2,0.8,0.5,1.1,0.5c0.7,0.1,1.4-0.2,1.8-0.7c0.3-0.4,0.4-0.9,0.4-1.3
		c-0.3-1.8-3.4-2.4-4.5-2.6c-0.6,0.8-1.5,1.2-2.4,1.6c0.7,0.5,1.1,1,1.3,1.8C92.9,66,92.9,66,93,66z"/>
	<path fill="#006394" d="M94.9,62.1c1,0,1.7,0.6,2.4,1.1c0.4,0.3,0.7,0.5,1.1,0.7c0.4,0.1,0.8,0.2,1.2,0.2c1.3,0,2.5-0.6,2.7-1.3
		c0.2-1-0.3-1.5-0.9-2c-0.1-0.1-0.2-0.2-0.4-0.3c-1.1,0.8-2.8,1.2-4.4,1.2c-0.8,0-1.6-0.1-2.2-0.3c0.1,0.2,0.2,0.3,0.3,0.5
		C94.8,61.8,94.9,61.9,94.9,62.1z"/>
	<path fill="#006394" d="M103,63c0.1,0.2,0.3,0.3,0.5,0.4c0,0,0,0,0.1,0c0.6-0.8,1.8-1.2,3.4-1.2c0.2,0,0.3,0,0.5,0
		c0-0.1,0-0.1,0-0.2c0-0.1-0.1-0.2-0.1-0.3c-1.5-0.3-2.3-1.3-2.4-2.9l-0.1-0.1c-0.8-0.4-1.5-0.9-2.6-0.9c0,0-0.1,0-0.1,0
		c0.2,0.9-0.3,1.5-0.6,2C102.2,60.3,103.3,61.3,103,63z"/>
	<path fill="#006394" d="M89.8,58.5c-1.7,0-3.4,0.6-4.1,1.4c-0.3,0.4-0.5,1-0.4,1.4c0.4,1.3,2.1,1.7,3.6,1.7c1.9,0,4.1-0.8,4.6-2.2
		l-0.1-0.1c-0.4-0.4-0.9-0.9-1-1.7C91.7,58.7,90.8,58.5,89.8,58.5z"/>
	<path fill="#006394" d="M111.2,55.4c-0.3,0-0.6,0-1,0.1c-1.2,0.2-2.1,0.5-3,1.1c-0.4,0.3-1.7,1.3-1.5,2.4c0.1,0.8,1.2,1.3,2.2,1.3
		c0.1,0,0.3,0,0.4,0c1.7,0,3.8-0.8,4.8-1.9c0.5-0.5,0.7-1.1,0.6-1.6C113.5,55.9,112.7,55.4,111.2,55.4z"/>
	<path fill="#006394" d="M97.8,55.6l-0.2,0c-1.4,0-3.3,0.5-4.1,1.5c-0.3,0.4-0.5,0.8-0.4,1.3c0.1,1.2,1.9,1.6,2.8,1.7
		c0.2,0,0.4,0,0.7,0c1.7,0,3.4-0.6,4.2-1.4c0.4-0.4,0.5-0.8,0.5-1.3C101.2,55.7,98.6,55.6,97.8,55.6z"/>
	<path fill="#006394" d="M89.8,57.8c0.4,0,0.8,0.1,1.2,0.2c0.5,0.1,0.9,0.2,1.3,0.1c0.1-0.7,0.5-1.1,0.8-1.5
		c0.2-0.2,0.3-0.3,0.4-0.5c-0.5-1.3-3-2.5-5.2-2.5c-0.7,0-1.8,0.2-2.4,0.9c-0.4,0.4-0.5,0.9-0.3,1.5c0.4,1.1,1.8,2,2.8,2.1
		c0.2,0,0.5,0,0.7-0.1C89.3,57.8,89.5,57.8,89.8,57.8z"/>
	<path fill="#006394" d="M103.7,52c-0.3,0-0.6,0-0.9,0.1c-1.2,0.2-2.3,0.8-2.5,1.5c-0.2,0.5,0,1,0.5,1.5c0.7,0.7,2.6,1.5,4.3,1.5
		c0.4,0,0.8-0.1,1.1-0.2c0.2-0.1,0.3-0.2,0.5-0.3c0.2-0.1,0.3-0.3,0.5-0.4c0.1-0.1,0.3-0.2,0.4-0.2c0.3-0.1,0.5-0.2,0.6-0.4
		c0.4-0.8-0.5-1.8-1.2-2.2C106.2,52.3,105,52,103.7,52z"/>
	<path fill="#006394" d="M89.2,53c2.5,0.2,4.1,1.2,4.9,2.8l0,0c1-0.5,2.1-1,2.1-2.2c0-0.4-0.1-0.8-0.4-1.1c-0.5-0.5-1.4-0.7-2.5-0.7
		C91.7,51.8,89.9,52.3,89.2,53z"/>
	<path fill="#006394" d="M97.1,54.4c0.7,0.2,1.5,0.4,2.3,0.4c-0.1-2.4,1.5-3.1,3.1-3.5c-0.8-0.6-2.3-1-3.8-1c-1.5,0-2.7,0.5-3.3,1.2
		C96.5,51.9,97.1,52.9,97.1,54.4z"/>
	<path fill="#006394" d="M93.1,51.1c0.7,0,1.2,0,1.7,0.2c0.8-1.2,2.6-1.8,4.8-1.6c0,0,0,0,0,0c-0.2-0.4-0.6-1-0.4-1.6
		c-0.5-0.1-0.9-0.1-1.3-0.1c-2.5,0-4.5,1.3-5.2,3.2L93.1,51.1z"/>
	<path fill="#006394" d="M102.4,45.8c-0.7,0-1.7,0.2-2.2,0.9c-0.6,0.8,0,1.9,0.5,2.4c0.6,0.6,1.7,1.1,3,1.5c-0.2-2,1.4-2.7,2.8-3.4
		c0,0,0.1,0,0.1-0.1C105.8,46.4,104,45.8,102.4,45.8z"/>
	<path fill="#006394" d="M116.9,71c-0.2,0-0.5,0-0.7,0.1c-0.6,0.1-1.7,0.4-1.9,1.1c-0.2,0.9,0.3,1.8,1.5,2.6
		c0.9,0.6,2.7,1.2,4.1,1.2c0.8,0,1.8-0.2,2.1-1.2c0.4-1.1-0.8-2.3-1.5-2.7C119.5,71.4,118.1,71,116.9,71z"/>
	<path fill="#006394" d="M107.8,71.3c-0.3,0-0.6,0-0.8,0.1c-2,0.2-3.3,1-3,2.1c0.5,1.9,2.7,2.3,4.3,2.3l0,0.2l0-0.2
		c1.3,0,3.8-0.5,3.9-2.1c0-0.5-0.1-0.9-0.5-1.2C110.8,71.5,109.1,71.2,107.8,71.3z"/>
	<path fill="#006394" d="M107.6,70.6c1.2,0,2.1,0.1,3.1,0.4c0.3,0.1,0.6,0.3,0.8,0.5c0.3,0.2,0.5,0.3,0.7,0.4
		c0.8,0.1,1.5-0.4,2.2-0.8c0.1,0,0.1-0.1,0.2-0.1c-1.4-0.4-3-1.1-2.8-3.5c-1.5-0.2-3.9,0.4-4.5,1.6C107,69.5,107.1,70,107.6,70.6
		L107.6,70.6z"/>
	<path fill="#006394" d="M116.2,65.3c-1.6,0-2.8,0.4-3.4,1.1c-0.3,0.4-0.4,0.8-0.3,1.3c0.3,1.9,4,2.3,6.1,1.8c0.3-1.2,1.2-1.8,2-2.2
		c-0.1-0.5-0.4-0.9-0.8-1.1C119.2,65.6,117.7,65.3,116.2,65.3z"/>
	<path fill="#006394" d="M121.1,59.2c-2.4,0.1-4.7,1.4-5.5,3.1c-0.3,0.7-0.3,1.2,0,1.6c0.3,0.5,1.2,0.8,2.3,0.8l0.2,0
		c2-0.1,3.8-1.9,4.6-3.1C121.9,61.2,121.5,60.4,121.1,59.2z"/>
	<path fill="#006394" d="M112.3,64.3c0.9,0,1.7,0,2.5-0.3c-0.3-1,0.2-2,0.6-2.6c0.1-0.1,0.1-0.2,0.2-0.3c0,0,0.1-0.1,0.1-0.2
		c-1-0.1-1.8-0.3-2.6-0.9c-1.2,1-2.7,1.6-4.6,1.6c0,0.2,0,0.3,0.1,0.5C110.3,62.6,111.4,63.4,112.3,64.3z"/>
	<path fill="#006394" d="M114.2,59.2c0.6,0.2,1.3,0.3,2,0.2c2.1,0,4.5-0.8,4.8-3.1c-0.3-0.2-0.5-0.4-0.7-0.7
		c-0.2-0.3-0.4-0.5-0.7-0.7c-0.4-0.2-0.8-0.3-1.4-0.3c-1.5,0-3.2,0.8-4.1,1.4C114.6,57,114.8,58.3,114.2,59.2z"/>
	<path fill="#006394" d="M110.9,54.7c1.2,0,2.2,0.3,2.8,0.8c0.1-0.1,0.3-0.2,0.5-0.3c0,0,0.1,0,0.1-0.1c-1.5-0.4-3.1-1.1-3.4-3
		c0,0,0,0,0,0c-0.5,0-0.8,0.2-1.1,0.5c-0.4,0.5-0.5,1.3-0.3,2.2C110,54.8,110.4,54.7,110.9,54.7z"/>
	<path fill="#006394" d="M115,49.4c-1,0-1.8,0.2-2.3,0.5c-0.6,0.4-1.1,1.1-0.7,2c0.6,1.3,2.8,2,4.6,2c0.8,0,1.6-0.1,2.2-0.4
		c-0.2-1,0.2-1.8,0.6-2.4c0-0.1,0.1-0.1,0.1-0.2C118.8,50,116.9,49.4,115,49.4z"/>
	<path fill="#006394" d="M109.1,47.3c-0.2,0-0.3,0-0.5,0c-1.7,0.1-4.3,1.1-4.2,2.8c0.1,1.6,2.6,1.8,3.4,1.8c1.2,0,2.4-0.3,3.1-0.7
		c-0.1-0.9,0.6-1.3,1.1-1.7c0.3-0.2,0.5-0.3,0.5-0.5c0.1-0.4-0.5-1.1-1-1.3C110.8,47.4,109.5,47.3,109.1,47.3z"/>
	<path fill="#006394" d="M109.3,46.7c2.2,0,3.7,0.8,4,2.2c0.2-0.1,0.5-0.1,0.8-0.1c0.2,0,0.3,0,0.5-0.1c0.1-0.6-0.1-1.2-0.5-1.7
		c-0.8-0.9-2.4-1.5-4.1-1.5c-1.3,0-2.4,0.4-3.1,1c0.1,0.1,0.2,0.1,0.2,0.2c0.1,0.1,0.2,0.2,0.3,0.2
		C108.1,46.8,108.7,46.7,109.3,46.7z"/>
	<path fill="#006394" d="M110.2,77c0.6,0.9,2.3,1.5,4.2,1.5c1.5,0,2.6-0.4,3.2-1.2c-1.5-0.4-3.5-1.3-4.3-3.4c-0.1,0-0.1,0-0.2,0
		c0,0-0.1,0-0.1,0C112.9,75.8,111.6,76.5,110.2,77z"/>
	<path fill="#006394" d="M138.5,74.3c-0.2,0-0.4,0-0.5,0c-1.4,0.1-3.1,0.6-3.8,1.6c-0.3,0.4-0.4,0.8-0.3,1.3c0.2,1,1.7,1.5,3,1.6
		c0.2,0,0.3,0,0.5,0c1.7,0,3.4-0.6,4.2-1.5c0.4-0.4,0.5-0.8,0.5-1.2C142,74.6,139.7,74.3,138.5,74.3z"/>
	<path fill="#006394" d="M122.4,76.1c0.6,0.7,1.8,1.1,3.2,1.1c1.5,0,3-0.5,3.8-1.1c0.6-0.5,0.9-1.1,0.9-1.7c0-0.5-0.3-1-0.9-1.2
		c-0.6-0.3-1.4-0.5-2.4-0.5c-1.7,0-3.5,0.6-4.2,1.4c0.2,0.7-0.1,1.2-0.3,1.7C122.5,75.9,122.5,76,122.4,76.1z"/>
	<path fill="#006394" d="M142.7,75.5c0.2,0,0.4,0.1,0.6,0.2c0.3,0.1,0.6,0.2,1,0.2c0.2-1.9,1.8-2.4,3.3-2.7c-0.3-0.4-0.6-0.9-1.1-1
		c-0.2,0-0.4,0-0.6,0.1c-0.2,0.1-0.4,0.1-0.6,0.1c-1.8,0.2-3.2-0.2-4.2-0.9c-0.4,0.2-0.8,0.6-0.9,1c-0.1,0.4-0.1,0.9,0.2,1.2
		C141.5,74.1,142.3,74.7,142.7,75.5z"/>
	<path fill="#006394" d="M136.4,73.4c0.7,0.2,2,0.1,2.8-0.1c0.1-1,0.6-1.8,1.4-2.3c-0.6-0.8-1.5-1.4-2.9-1.8
		c-0.3,0.2-0.7,0.3-1.2,0.3c-0.4,0-0.8,0-1.2-0.1c-0.5-0.1-0.9-0.1-1.2-0.1c-0.5,0.1-1,0.4-1.3,1.1
		C134.4,71.1,135.6,72.1,136.4,73.4z"/>
	<path fill="#006394" d="M121.6,67.9c-0.7,0-1.4,0.3-1.7,0.7c-0.3,0.3-0.4,0.8-0.3,1.2c0.3,1.6,2.3,2.4,4,2.9c0.9-0.5,2-0.7,3.2-0.7
		c0.1,0,0.2,0,0.3,0c0.6-1.1,0-2.1-1.8-3.3c-0.1,0-0.3,0-0.4,0c-0.7,0-1.2-0.2-1.8-0.5c-0.5-0.2-0.9-0.4-1.3-0.4
		C121.7,67.9,121.7,67.9,121.6,67.9z"/>
	<path fill="#006394" d="M145.8,66.4c-0.3,0-0.5,0-0.8,0c-1.6,0.2-4.2,0.9-4.1,2.7c0.1,1.4,2.3,1.9,4.1,1.8c1.6-0.1,4.2-1,4.1-2.7
		C149,66.5,146.5,66.4,145.8,66.4z"/>
	<path fill="#006394" d="M126.7,68.6c0.3,0.9,1.1,1.3,2,1.5c0.3-0.2,0.7-0.2,1.2-0.2c0.4,0,0.9,0,1.3,0.1c0.3,0,0.6,0.1,0.8,0.1
		c0.2-0.4,0.6-0.7,0.9-1c0.1-0.1,0.1-0.1,0.2-0.2c-1.2-0.4-1.9-1.6-1.7-3.2c-0.4,0-0.9,0-1.3,0.1C130,67.7,128.4,68.3,126.7,68.6z"
		/>
	<path fill="#006394" d="M138.9,68.8c0.1,0.1,0.3,0.1,0.4,0.2c0.3,0.2,0.5,0.3,0.8,0.3c-0.1-1.7,1.3-2.5,2.5-3
		c-0.1-0.2-0.1-0.4-0.1-0.7c-0.4-0.3-0.9-0.4-1.5-0.6c0,0,0,0,0,0C141.6,67.2,140,68.2,138.9,68.8z"/>
	<path fill="#006394" d="M145.6,65.7c1.1,0,2.2,0.2,2.9,0.6c0.2,0.1,0.4,0.3,0.5,0.4c0.2,0.2,0.3,0.3,0.5,0.4c0,0,0.1,0,0.1,0
		c0.7,0,1.7-0.9,1.9-1.3c0.2-0.5,0.2-1-0.1-1.4c-0.7-1-2.8-1.6-4.4-1.6c-0.1,0-0.2,0-0.3,0c-1.5,0.1-2.9,0.8-3.3,1.7
		c-0.2,0.5,0,1,0.4,1.5C144.4,65.8,145,65.7,145.6,65.7z"/>
	<path fill="#006394" d="M124.2,62.7L124.2,62.7c-0.9,0-1.9,0.4-2.5,1c-0.2,0.2-0.5,0.6-0.5,1.1c0,1.5,2.2,2.3,4.3,2.3
		c1.1,0,2.1-0.2,2.8-0.6c0.7-0.4,1.1-1,1-1.6c0-0.7-0.5-1.2-1.1-1.5c-0.3,0.1-0.5,0.1-0.8,0.1c-0.9,0-1.8-0.3-2.6-0.5
		C124.6,62.9,124.4,62.8,124.2,62.7z"/>
	<path fill="#006394" d="M140.8,64.2c0.3,0.1,0.6,0.2,0.9,0.3c0.3,0.1,0.6,0.2,0.9,0.3c0-0.4,0.2-0.8,0.3-1.1
		C142.2,63.8,141.5,63.9,140.8,64.2z"/>
	<path fill="#006394" d="M129.1,63.1c0.3,0.3,0.6,0.6,0.9,1c2,0,3-0.4,3.4-1.2c0.2-0.5,0.2-0.9,0-1.3c-0.4-0.9-1.6-1.5-2.7-1.8
		c0.1,0.8,0,1.7-0.4,2.3C130,62.6,129.6,63,129.1,63.1z"/>
	<path fill="#006394" d="M124.7,57c-0.2,0-0.4,0-0.6,0c-0.9,0.1-1.5,0.5-1.7,1.1c-0.2,0.6,0,1.2,0.5,1.9c0.9,1.1,3.3,2.2,5.3,2
		c1-0.1,1.6-0.5,1.8-1.2c0.2-0.8-0.2-1.7-1-2.4C127.9,57.6,126.1,57,124.7,57z"/>
	<path fill="#006394" d="M121.9,50.8c-0.1,0-0.2,0-0.3,0c-0.7,0.1-1.6,0.3-1.8,1.1c-0.3,1.4,1.1,2.5,1.6,2.9c1,0.8,2.2,1.3,3.3,1.4
		c0.2,0,0.4,0,0.5,0c1,0,1.6-0.3,1.9-0.9c0.3-0.7,0-1.7-0.7-2.5C125.6,51.8,123.6,50.7,121.9,50.8z"/>
	<path fill="#006394" d="M131.2,75.3c0.1,0,0.2,0.1,0.3,0.1c0.6,0.2,1.1,0.4,1.9,0.4c0.6-0.9,1.5-1.4,2.4-1.8
		c-0.6-1.7-2.8-3.3-4.9-3.4c-0.2,0-0.4,0-0.5,0c-0.9,0-1.5,0.2-1.9,0.6c-0.2,0.2-0.3,0.5-0.3,0.9C129.7,72.4,131.2,73,131.2,75.3z"
		/>
	<path fill="#006394" d="M157.8,77.9c0.6,0.6,1.9,1,3.4,1c2.1,0,4.3-0.8,4.3-2.4c0-1.4-1.6-1.8-3.3-2.1c0,1-0.2,1.8-0.7,2.3
		C160.7,77.6,159.5,77.9,157.8,77.9C157.8,77.9,157.8,77.9,157.8,77.9z"/>
	<path fill="#006394" d="M148.9,73.7c-1.6,0-3.6,0.5-3.9,1.9c-0.1,0.5,0,0.9,0.3,1.3c0.7,0.8,2.2,1.3,3.9,1.3c1.8,0,3.7-0.6,3.9-1.9
		c-0.1-0.1-0.2-0.3-0.3-0.5c-0.2-0.3-0.5-0.7-0.6-1.2C151.6,74,150.3,73.7,148.9,73.7z"/>
	<path fill="#006394" d="M162.7,73.9c1.8,0.3,3.6,1.1,3.5,3.6c1.6-0.3,3.7-0.8,3.6-2.5c-0.1-1.4-2-2-3.9-2
		C164.7,73.1,163.4,73.4,162.7,73.9z"/>
	<path fill="#006394" d="M156.4,71.8c-0.1,0-0.1,0-0.2,0c-1.3,0-2.8,0.4-3,1.5c-0.1,0.9,0.4,1.7,1.7,2.3c0.8,0.4,2.3,0.7,3.5,0.7
		c0.9,0,2.9-0.2,3-1.8c0-0.5-0.2-0.9-0.6-1.3C159.9,72.3,157.9,71.8,156.4,71.8z"/>
	<path fill="#006394" d="M149,73c1.2,0,2.3,0.2,3.4,0.8c0.2-1.5,1.2-2.1,2.4-2.5c-0.8-0.8-2.2-1.4-3.8-1.3c-0.4,0-0.9,0-1.3,0.1
		c-0.5,0.9-1.3,1.5-2.3,1.8c0.4,0.4,0.8,0.8,1.2,1.2C148.7,73,148.9,73,149,73z"/>
	<path fill="#006394" d="M156.8,71.1c2.5,0.2,4.2,1.1,5.1,2.5c0.7-0.6,1.6-0.9,2.6-1.1c-0.5-1.5-2.8-2.4-4.8-2.4
		c-0.8,0-1.5,0.2-2.1,0.4C157.2,70.8,156.9,71,156.8,71.1z"/>
	<path fill="#006394" d="M150.9,69.2c1.9,0,3.3,0.6,4.2,1.2c0.9-0.4,1.3-1,1.1-1.7c-0.3-1.3-2.2-2.5-3.9-2.5c0,0-0.1,0-0.1,0
		c-0.2,1.4-1.3,1.9-2.3,2.2c0,0.2,0,0.5,0,0.8C150.2,69.2,150.6,69.2,150.9,69.2z"/>
	<path fill="#006394" d="M153.5,65.8c1.4,0.3,2.5,1.1,3.1,2.1c0.4,0.7,0.5,1.5,0.3,2.3c0.6-0.4,1.3-0.6,2.1-0.6
		c-0.2-1-0.7-2-1.5-2.9c-0.7-0.8-1.9-1.6-2.8-1.6C154.2,65,153.8,65.3,153.5,65.8z"/>
	<path fill="#006394" d="M136.9,63.4c-0.1,0-0.3,0-0.4,0c-1.3,0.1-3.1,0.6-3.9,1.5c-0.3,0.4-0.5,0.8-0.4,1.2c0.1,1.2,1.7,1.7,3,1.8
		c0.2,0,0.3,0,0.5,0c1.5,0,3.3-0.5,4.2-1.4c0.4-0.4,0.5-0.9,0.5-1.4C140.2,63.8,138.4,63.4,136.9,63.4z"/>
	<g>
		<polygon fill="#006394" points="88.8,48.2 88.1,49.1 72.5,36.9 		"/>
		<polygon fill="#006394" points="94.1,43.6 93.1,44.2 82.4,27.5 		"/>
		<polygon fill="#006394" points="100.8,41.5 99.7,41.9 93.9,22.9 		"/>
		<polygon fill="#006394" points="106.8,41 105.7,41 105.8,21.2 		"/>
		<polygon fill="#006394" points="113,41.7 111.9,41.5 116.7,22.2 		"/>
		<polygon fill="#006394" points="125.3,27.4 118.8,43.5 117.7,43 125.1,27.4 		"/>
		<polygon fill="#006394" points="124.3,46.7 123.3,46.1 135,30 		"/>
		<polygon fill="#006394" points="128.9,51.1 128.2,50.2 143.8,37.9 		"/>
		<polygon fill="#006394" points="132,57.3 131.6,56.2 150.3,49.6 		"/>
	</g>
</g>
<path fill="#006394" d="M115.9,133.5c3.3,0.2,5.4,2.3,5.4,4.9c0.1,11-0.1,22.9-0.5,26.4c-0.4,4-3.2,4.2-4.7,4.5
	c-0.2,0.1-0.2,1.9,0,2.2c1.8,0,3.5-0.2,7-0.2c3.1,0,4.9,0.2,6.9,0.1c0.3-0.3,0.4-2.1,0.1-2.2c-3.3-0.4-5.3-0.6-5.5-4.7
	c-0.2-3-0.4-16.7-0.3-23.7c0-0.2,0.2-0.2,0.3,0c4.1,5.3,19.6,25.6,23.2,30.8c1.1-0.1,4.8-0.2,5.7-0.1c-0.1-2.3-0.2-6.1-0.2-9
	c0-9.7,0-19.2,0.3-24.7c0.2-4,2.7-4.3,4.1-4.5c0.3,0,0.2-1.9,0-2.1c-1.1,0-3,0.2-6.1,0.2c-4,0-5.8-0.2-7.4-0.1
	c-0.2,0.1-0.4,2.1-0.1,2.1c0.9,0,2.7,0.2,4,1.1c0.9,0.6,1.5,1.7,1.6,3.2c0.4,4.4,0.4,14.1,0.4,22.4c0,0.1-0.1,0.2-0.2,0.1
	c-3.9-4.6-14.5-18.1-19.9-25.2c-1.5-1.8-2.1-2.7-2.4-3.6c-0.8,0.1-2.4,0.1-4.1,0.2c-3.7,0-5.8-0.2-7.8-0.1
	C115.7,131.5,115.7,133.2,115.9,133.5z"/>
<g>
	<g>
		<path fill="#006394" d="M162.2,166.2c-4-4.2-5.5-9.9-5.5-15.2c0-5.1,1.4-10.2,5.1-14c3.5-4.1,9.4-6.9,16-7
			c13.1-0.1,20,9.3,20.1,20.2c0,5.1-1.1,9.8-3.8,13.4c-4,5.7-10.3,8.4-16.8,8.5C170.5,172.1,165.5,169.8,162.2,166.2z M184.8,166.9
			c3.2-3.1,4.3-8.7,4.2-14.5c0-6.7-1.9-13.7-6.3-17.3c-2-1.6-4.1-2.5-6.8-2.4c-1.9,0-3.7,0.5-5.1,1.5c-3.9,2.7-5.3,8.4-5.3,14.8
			c0,6.3,2,13.9,6.8,17.8c2,1.5,4.2,2.3,7,2.3C181.4,169,183.5,168.2,184.8,166.9z"/>
	</g>
</g>
<path fill="#006394" d="M95.9,169.4c3.6-0.2,4-2.3,4.1-3.8c0.1-2.1,0.1-9.3,0-15.7c0-6.4-0.1-9.9-0.2-12.8c-0.2-3.6-4-3.3-5.2-3.4
	c-0.3-0.3-0.2-1.8,0-2.1c2,0,5,0.2,9,0.1c5.2,0,6.6-0.2,8-0.3c0.2,0.3,0.3,1.8,0,2.1c-1.6,0.3-3.6,0.3-3.8,4
	c-0.1,2.2-0.1,7.2,0,12.9c0.1,7.4,0.1,12.7,0.2,15.1c0.2,3.4,1.3,3.3,4.6,3.9c0.3,0.3,0.1,2-0.2,2.2c-2.2,0-3.9-0.2-8-0.1
	c-5,0-6.2,0.2-8.5,0.3C95.6,171.3,95.5,169.5,95.9,169.4z"/>
<path fill="#006394" d="M53.2,153.4c-0.8-2.7-3.1-9.6-4.3-12.8c-0.1-0.1-0.2-0.1-0.3,0c-1.2,3.5-3.2,9.6-4.1,12.8
	c-0.1,0.3-0.1,0.4,0.1,0.5c0.7,0,2.2,0,4.1,0c1.9,0,3.6,0,4.3-0.1C53.2,153.7,53.3,153.7,53.2,153.4z M36.9,95.3
	C36.6,88.1,31.7,86,25,86c-7.6,0-13.1,5.2-13,17.8c0.1,11.7,5.8,20.1,15.2,20.1c1.1,0,2.5-0.3,3.2-0.8c0.6-0.4,1-1.5,1-2.3
	c0.2-1.9,0.2-4.8,0.1-6.8c-0.1-2.2-0.4-3.3-2.3-3.8c-1.2-0.3-1.3-0.3-3.2-0.6c-0.3-0.3-0.1-2,0.1-2.2c2-0.1,4.9,0.2,9.3,0.1
	c4.4,0,6.5-0.2,7.9-0.3c0.2,0.2,0.2,2-0.1,2.2l-2,0.5c-1.2,0.4-1.6,1-1.6,3.7c-0.1,1.9,0,6.1,0,7c0.1,0.8,0.4,1.1,1.6,1.7
	c0,0.3-0.1,1.3-0.3,1.5c-2.5,0.8-9,2.6-14.8,2.7c-14.8,0.1-23.4-7.1-23.5-21.6C2.5,96.1,6.9,89.2,14.1,86c3.5-1.6,7.3-2.5,13-2.6
	c5.7,0,10,1.1,13.3,1.4c-0.6,2.6-1.1,6.9-1.1,10.3C39.1,95.4,37.2,95.6,36.9,95.3z M101.7,123.1c1.7-0.3,3-0.8,3.4-1.4
	c0.1-0.1,0.1-0.3,0.1-0.6c-1.1-3.7-4.3-13-5.7-16.8c-0.1-0.3-0.3-0.5-0.7-0.5c-1.3-0.1-3.7,0-6.4,0c-5.1,0-5.5,0-6.4,0.1
	c-0.5,0-0.6,0.3-0.7,0.5c-1.6,4.6-4.5,12.7-4.7,14.8c-0.3,2.9,1.8,3.4,4.7,3.9c0.2,0.3,0.1,1.7-0.2,2c-1.3,0-2.8-0.1-5.7-0.2
	c-1.8-0.1-2.5,0-3.5-0.1c-1.6-0.1-3.1-0.4-4-0.9c-1.4-0.7-2.6-1.9-3.2-2.7c-2.6-3.1-6-9.1-8.2-12.7c-0.5-0.8-1-1.1-1.8-1.2
	c0,0-2,0-2.6,0c-0.2,0-0.3,0.1-0.3,0.4c0,4,0.1,8.8,0.2,11.5c0.1,2.1,0.6,2.6,1.5,3c1.1,0.5,2.6,0.6,4,0.8c0.3,0.2,0.2,2.1-0.1,2.2
	c-1.4,0-4.5-0.2-9.4-0.1c-5,0-6.8,0.2-8.1,0.3c-0.3-0.3-0.3-1.9,0-2.1c0.9-0.3,3.7,0,3.9-4c0.1-1.9,0.1-11,0.1-15
	c0-6.6-0.1-11.5-0.2-14.2c-0.1-1.8-0.6-2.5-1.9-3.1c-0.8-0.3-1.4-0.5-2.3-0.5c-0.3-0.4-0.2-2,0.1-2.1c1.6,0,5.1,0.2,7.5,0.1
	c4.9,0,8.4-0.2,11.8-0.2c7.9-0.1,12.1,4.2,12.2,10.2c0,5.4-3.3,8.5-7.5,10.4c-0.1,0.1-0.1,0.4-0.1,0.5c1.3,2.4,5.4,8.5,8.6,12.4
	c0.3-0.6,0.6-1.3,0.9-2.2c4.5-11.2,12.3-33.9,14.1-39.4c0.4-1.3,1.6-1.1,1.8-2.5c0.3-0.1,1-0.1,2.6-0.4c1.5-0.2,3.6-0.6,3.9-0.6
	c0.1,0.5,0.3,1,0.5,1.6c0.2,0.5,0.5,1.2,0.7,2c0.5,1.4,1.6,4.6,3,8.8c3.5,10.4,8.9,26.1,10.8,31c1.5,3.4,2.6,5,2.9,5.3
	c0.7,0.1,1.7-1.2,1.8-3c0.3-3.6,0.4-15.7,0.5-27c0-2.8-1.8-4.8-5.6-5.1c-0.2-0.3-0.1-2,0.1-2.2c2.1-0.1,4.2,0.2,8,0.1
	c1.8,0,3.4-0.1,4.2-0.2c0.3,0.9,0.9,1.8,2.4,3.7c5.6,7.3,16.4,21.1,20.4,25.8c0.1,0.1,0.2,0,0.2-0.1c-0.1-8.6,0-18.5-0.4-23
	c-0.4-3.8-3.2-4.2-5.8-4.5c-0.2-0.3-0.1-2,0-2.1c1.6,0,3.5,0.2,7.6,0.1c3,0,5-0.2,6.2-0.2c1.6,0,6.1,0.2,7.9,0.1
	c4.6-0.1,6.9-0.3,12.3-0.4c5.8,0,10.3,1.3,13.8,4.3c4.3,3.6,6.6,9.1,6.6,15.2c0.1,7.8-3.1,13.2-7,16.5c-4.7,4-10.4,5.4-17.3,5.5
	c-3.9,0-9.2-0.1-15.2-0.2l-1.6,0c-0.3-0.4-0.3-2.1,0-2.2c2-0.3,4.7-0.2,4.9-3.8c0.2-2.6,0.1-8.3,0.1-15.5c0-6.1,0-10.9-0.2-13.8
	c-0.1-2.3-1.8-3.6-4.1-3.5s-4.1,1.7-4.2,4.4c-0.4,5.7-0.3,15.4-0.3,25.3c0,3,0.1,6.9,0.2,9.2c-1-0.1-4.7,0-5.9,0.1
	c-3.7-5.3-19.6-26.1-23.8-31.6c-0.1-0.2-0.3-0.2-0.3,0c0,7.2,0.1,21.3,0.3,24.3c0.3,4.5,3.1,4.4,5.6,4.9c0.2,0.3,0.2,1.9-0.1,2.2
	c-2.2,0-5.9-0.1-13.6-0.1c-7.9,0.1-11.3,0.3-13.4,0.3C101.5,124.8,101.4,123.3,101.7,123.1z M66.9,96.5c0-5.8-3.1-9.6-8.8-9.6
	c-0.5,0-1.4,0.1-2,0.4c-0.3,0.2-0.4,0.7-0.4,1c-0.1,1.7-0.1,8,0,15.7c0,0.3,0.2,0.5,0.4,0.5c3.3,0.1,6.3-0.1,7.5-0.7
	C65.3,102.7,66.9,100.7,66.9,96.5z M188.9,103.9c0-6.3-2.4-12.3-6.9-15.5c-2.6-1.8-5.8-2.4-9.3-2.4c-1,0-2.1,0.1-2.5,0.4
	c-0.3,0.1-0.6,0.6-0.6,1c0,2.3,0,10.5,0,16.6c0,6.2,0.1,12.3,0.3,14.1c0.1,0.7,0.4,1.8,1.1,2.3c1.4,1.3,4.4,1.6,6.1,1.6
	c2.8,0,5.5-1,7.8-3.8C187.4,115,189,110.9,188.9,103.9z M92.1,83.4c-1.6,4.7-4.2,12.7-5.3,16.3c-0.1,0.4-0.1,0.6,0.3,0.6
	c0.8,0.1,2.6,0.1,6.2,0c1.4,0,3.2,0,4.4-0.1c0.2,0,0.4-0.2,0.3-0.7c-1.1-3.5-2.6-8-3.9-11.9c-0.8-2.2-1-2.9-1.4-4.2
	C92.5,83.2,92.2,83.1,92.1,83.4z M81.3,179.4c3.4-1,5.5-4,5.2-7.8c-0.3-4.4-3-6.2-10.6-10.7l-0.1,0c-7.3-4.3-11.8-8.1-12.4-16.4
	c-0.6-8.8,7.2-15.4,15.9-15.4c5.4,0,9.9,0.9,13.3,1.2c-0.4,2.8-0.6,6-0.6,10.1c-0.2,0.3-1.7,0.3-1.9,0.1c-0.9-6.2-5.5-8.8-11.8-7.8
	c-3.9,0.6-5.9,3.7-5.8,7.4c0.1,3.5,1.9,5.4,5.5,7.9c1.9,1.3,4,2.5,6,3.6c1.3,0.7,2.5,1.5,3.7,2.2c4.1,2.6,7.1,6.6,7.6,14
	c0.6,8.3-5.6,15.3-16.7,15.4c-4.8,0-9.6-1.4-11.4-2.4c-0.6-0.9-1.5-5.8-2-9.3c-0.6,0-1.3,0-1.9,0c-4.6,0-6.1,0.2-8.2,0.2
	c-0.1-0.3-0.3-1.8,0-2.2c1-0.2,3.2-0.8,2.8-2.2c-0.7-2.3-2.3-7.2-3.3-9.7c-0.1-0.3-0.2-0.4-0.6-0.5c-1-0.1-3.2,0-5.3,0
	c-3,0-4.3,0-5.1,0.1c-0.4,0-0.5,0.2-0.7,0.6c-1.2,3.3-2.6,7.7-2.7,8.9c0,2,2.2,2.7,3.9,2.8c0.2,0.3,0,1.9-0.2,2.2
	c-1.7,0-3.3-0.2-7-0.1c-1.2,0-2.4,0.1-3.5,0.1c-1.9,0.6-4.6,1.1-8,1.1c-14.2,0.1-22.5-7.3-22.6-21.2c-0.1-7.3,3.2-14.2,10.2-17.9
	c3.4-1.9,7.5-2.9,12.9-2.9c5.1,0,9.9,0.9,12.8,1c-0.4,2.2-0.9,7.3-0.9,10.7c-0.3,0.3-2.2,0.5-2.2,0.2c-0.7-4.3-1.3-6.4-3.7-7.8
	c-2.2-1.2-4.9-1.6-7.6-1.6c-7.6,0.1-12.4,6-12.3,17.6c0.1,9.4,4.6,18.7,15.2,18.7c2.1,0,5.1-0.4,7.1-1.9c2-1.6,3-4,4.1-6.8
	c3.3-8.6,7.6-20.8,8.9-24.9c0.5-1.3,1.1-3.3,1.2-4.3c0.8,0.1,1.8,0.1,2.9,0.1c1.3,0,2.2-0.1,2.9-0.2c0.3,1,0.7,2.5,1.1,3.7
	c1.9,5.5,7.7,21.8,9.8,27.5c3.9,10.4,5.1,13.5,8.7,15.5C75.6,179.6,79,180.1,81.3,179.4z"/>
</svg>
