<?xml version="1.0" encoding="utf-8"?>
<!-- Generator: Adobe Illustrator 18.1.1, SVG Export Plug-In . SVG Version: 6.00 Build 0)  -->
<!DOCTYPE svg PUBLIC "-//W3C//DTD SVG 1.1//EN" "http://www.w3.org/Graphics/SVG/1.1/DTD/svg11.dtd">
<svg version="1.1" id="Lifetime_Fitness" xmlns="http://www.w3.org/2000/svg" xmlns:xlink="http://www.w3.org/1999/xlink" x="0px"
	 y="0px" viewBox="0 0 200 200" enable-background="new 0 0 200 200" xml:space="preserve">
<path fill="#515251" d="M2.4,115.4v24.5h189.7v-24.5H2.4z M27.7,124.4H16c-0.3,0-0.5,0.1-0.6,0.3c-0.2,0.2-0.3,0.5-0.3,0.7v0.9h11.3
	v2.7H15.1l0,4.7h-2.7l0-8.3c0-2.1,1.6-3.7,3.6-3.7h11.7V124.4z M40.9,133.7h-2.7v-12h2.7V133.7z M69.6,124.3h-7.7l0,9.3l-2.7,0
	l0-9.3h-7.7v-2.7h18.1V124.3z M97.7,132.5c-0.7,0.7-1.7,1.1-2.9,1.1c-0.9,0-2.3-0.5-3.3-1.5l-6.8-6.7l-0.2-0.2l0-0.1
	c-0.2-0.3-0.7-0.7-1-0.8c-0.3,0-0.6,0.1-0.7,0.2c-0.1,0.1-0.1,0.4-0.1,0.5v8.6H80c0,0,0-8.6,0-8.6c0-1.3,0.5-2,1-2.4
	c0.5-0.5,1.3-1,2.8-1c1.1,0,2.5,1.2,3.1,2c0.6,0.6,6.7,6.6,6.7,6.6c0.4,0.4,1.1,0.7,1.4,0.7c1.1,0,1.2-0.5,1.2-0.9l0-8.4l2.7,0
	c0,0,0,8.4,0,8.4C98.7,130.9,98.4,131.8,97.7,132.5z M112.6,133.6c-1,0-1.9-0.4-2.6-1.1c-0.7-0.7-1.1-1.6-1.1-2.6c0,0,0-4.6,0-4.6
	c0-2.1,1.6-3.7,3.6-3.7h14.4v2.7h-14.4c-0.3,0-0.5,0.1-0.6,0.3c-0.2,0.2-0.3,0.5-0.3,0.7c0,0,0,0.4,0,1h15.3v2.7h-15.3
	c0,0.6,0,1,0,1c0,0.3,0.1,0.5,0.3,0.7c0.2,0.2,0.4,0.3,0.7,0.3l14.3,0l0,2.7C126.9,133.6,112.6,133.6,112.6,133.6z M153.9,132.4
	c-0.8,0.8-1.8,1.2-2.8,1.2h-14.2v-2.7H151c0.6,0,1.2-0.6,1.2-1.1c0-0.2-0.1-0.3-0.2-0.5c-0.2-0.2-0.6-0.4-1-0.4c0,0-10.5,0-10.5,0
	c-1,0-1.9-0.4-2.6-1.1c-0.7-0.7-1.1-1.6-1.1-2.6c0-2,1.7-3.7,3.7-3.7l13.6,0v2.7l-13.6,0c-0.3,0-0.5,0.1-0.7,0.3
	c-0.2,0.2-0.3,0.4-0.3,0.7c0,0.3,0.1,0.5,0.3,0.7c0.2,0.2,0.4,0.3,0.7,0.3c0,0,10.5,0,10.5,0c1.1,0,2.2,0.4,2.9,1.2
	c0.7,0.7,1,1.5,1,2.4C155,130.8,154.6,131.7,153.9,132.4z M181.1,132.4c-0.8,0.8-1.8,1.2-2.8,1.2h-14.2v-2.7h14.2
	c0.6,0,1.2-0.5,1.2-1.1c0-0.2-0.1-0.3-0.2-0.5c-0.2-0.2-0.6-0.4-1-0.4c0,0-10.5,0-10.5,0c-1,0-1.9-0.4-2.6-1.1
	c-0.7-0.7-1.1-1.6-1.1-2.6c0-2,1.7-3.7,3.7-3.7l13.6,0v2.7l-13.6,0c-0.3,0-0.5,0.1-0.7,0.3c-0.2,0.2-0.3,0.4-0.3,0.7
	c0,0.3,0.1,0.5,0.3,0.7c0.2,0.2,0.4,0.3,0.7,0.3c0,0,10.5,0,10.5,0c1.1,0,2.2,0.4,2.9,1.2c0.7,0.7,1,1.5,1,2.4
	C182.2,130.8,181.8,131.7,181.1,132.4z"/>
<g>
	<path fill="#515251" d="M14.6,102c0-1.3,0-33.6,0-33.6H14H2.4v44.9h23.2l0-11.2C25.6,102,15.8,102,14.6,102z"/>
	<path fill="#515251" d="M87.6,68.4v10.4c0,0,6.2,0,7,0c0,0.9,0,34.4,0,34.4h11.9c0,0,0-33.6,0-34.4c0.8,0,7.1,0,7.1,0V68.4h-0.5
		H87.6z"/>
	<polygon fill="#515251" points="115.7,68.4 115.7,113.2 127.2,113.2 127.2,68.4 126.8,68.4 	"/>
	<path fill="#515251" d="M152.7,68.4c0,0-3.1,19.6-3.5,21.7c-0.6-4.8-2.8-21.7-2.8-21.7h-17v44.9h11.4c0,0,0-17,0-24.7
		c1.1,7.7,3.7,24.7,3.7,24.7h8.9c0,0,3.4-20.3,4.2-25.4c0,7.3,0,25.4,0,25.4h11.4V68.4h-0.5H152.7z"/>
	<path fill="#515251" d="M41.4,68.4v44.9h12.4c0,0,0-15.8,0-17.1c1.1,0,7.9,0,7.9,0v-11c0,0-6.8,0-7.9,0c0-1,0-5,0-6
		c1.1,0,8.4,0,8.4,0V68.4h-0.7H41.4z"/>
	<path fill="#515251" d="M192.1,79V68.4l0,0h-20.8v44.9h20.8v-10.4c0,0-8.6,0-9.4,0c0-0.7,0-6.1,0-6.8c0.8,0,8.5,0,8.5,0V85.5
		c0,0-7.7,0-8.5,0c0-0.7,0-5.7,0-6.4C183.6,79,192.1,79,192.1,79z"/>
	<path fill="#515251" d="M63.9,68.4v44.9h21.8v-10.7c0,0-8.3,0-9.5,0c0-1,0-5.4,0-6.4c1.1,0,8.5,0,8.5,0v-11c0,0-7.3,0-8.5,0
		c0-1,0-5,0-6c1.2,0,9.5,0,9.5,0V68.4h-0.7H63.9z"/>
	<polygon fill="#515251" points="27.4,68.4 27.4,113.2 39.7,113.2 39.7,68.4 39.1,68.4 	"/>
</g>
<path fill="#515251" d="M193.9,70.9c0-1.2,0.9-2,2-2c1.1,0,2,0.9,2,2c0,1.2-0.9,2-2,2C194.8,73,193.9,72.1,193.9,70.9z M195.9,73.4
	c1.3,0,2.5-1,2.5-2.5c0-1.4-1.1-2.4-2.5-2.4c-1.3,0-2.5,1-2.5,2.4C193.4,72.3,194.5,73.4,195.9,73.4z M195.4,71.1h0.5l0.7,1.2h0.5
	l-0.8-1.2c0.4-0.1,0.7-0.3,0.7-0.8c0-0.6-0.3-0.8-1-0.8h-1.1v2.8h0.4V71.1z M195.4,70.8v-0.9h0.6c0.3,0,0.6,0.1,0.6,0.4
	c0,0.4-0.3,0.5-0.7,0.5H195.4z"/>
</svg>
