<?xml version="1.0" encoding="utf-8"?>
<!-- Generator: Adobe Illustrator 18.1.1, SVG Export Plug-In . SVG Version: 6.00 Build 0)  -->
<!DOCTYPE svg PUBLIC "-//W3C//DTD SVG 1.1//EN" "http://www.w3.org/Graphics/SVG/1.1/DTD/svg11.dtd">
<svg version="1.1" id="Miami_Marlins" xmlns="http://www.w3.org/2000/svg" xmlns:xlink="http://www.w3.org/1999/xlink" x="0px"
	 y="0px" viewBox="0 0 200 200" enable-background="new 0 0 200 200" xml:space="preserve">
<g>
	<path fill="#8A8D8F" d="M133,115l18.2,46.5h35.5L137.3,38l-31.6,58L79.3,47l-3.4-6.3l-1.6-3.1L72,43.1l-3.4,8.6
		c-3.9,3-7.3,5.8-10.3,8.7c-13.6,13-14.8,22.7-11.2,29.5c0.6,0.9,1.2,1.8,1.9,2.7c2.7,3.1,6.4,5.7,9.9,7.4c0.1,0,0.2,0.1,0.3,0.1
		c0.2,0.1,0.4,0.2,0.6,0.3c0.2,0.1,0.7,0.3,1,0.4c0.1,0.1,0.3,0.1,0.3,0.1c0,0,0,0,0,0c-0.4-0.2-0.8-0.4-1.2-0.6l0,0v0
		c-0.3-0.1-0.5-0.3-0.8-0.4c-0.1-0.1-0.3-0.1-0.4-0.2c0,0,0,0-0.1,0c-0.2-0.1-0.5-0.3-0.7-0.4c-0.2-0.1-0.3-0.2-0.5-0.3
		c-0.1,0-0.2-0.1-0.2-0.2c-0.1-0.1-0.2-0.1-0.3-0.2c-1-0.7-1.7-1.3-2.2-1.8c-0.1-0.1-0.3-0.3-0.4-0.4l17.3-44.1l1.5-3.8l1.1-2.7l0,0
		l0.8,1.5l1.1,2l29.7,54.9l31.5-58.4l43.8,112h-27.3l-20.2-51.7l-27.9,51.6l-27.9-51.6l0,0.1l-0.2,0.6v0l-20,51.1H30.4l22.4-57.2
		c0.1,0,0.1,0,0.2,0c-1.1-0.2-2.1-0.4-2.9-0.6c0,0,0,0,0,0c0,0,0,0,0,0c0,0-0.3,0-0.7-0.1c0,0,0,0,0,0l-24.7,61.7h35.5L78.4,115
		l27.3,50L133,115z M51.8,93.7c-1.1-1.4-1.9-2.7-2.5-3.7c-0.7-1.3-1-2.1-1-2.1c-0.3-0.8-0.5-1.8-0.6-3C46.3,75.3,55.2,65,67,55.7
		L51.8,93.7z"/>
	<path fill="#8A8D8F" d="M101,23.2c25.9-12.3,43.4-21.3,43.4-21.3L138,4.3c-0.6,0.3-14.3,6.5-16.7,7.6c-14.2,6.2-33.2,14.6-41,18.7
		c-1.6,0.8-4.1,2.2-7,3.8C46.4,51.3,26.7,70.2,36.7,92c-11.5-13.3-1.4-32.9,10.7-46.4c8.1-9,11.9-12.8,16.1-19.5
		c3.2-5.3,5.3-10.8,5.1-16.3c0.2,0.1-4.3-2.2-4.3-2.2c0.5,1.8-0.6,12.6-7.6,22.2c-7.6,10.4-34,33.5-26,55.2
		c4.4,12,15.8,14.4,18.7,14.9c0.2,0,0.4,0.1,0.6,0.1C25.2,87,31.7,55.3,101,23.2z"/>
	<path fill="#8A8D8F" d="M79.3,47c12.4-8.1,25.2-14.5,31.5-17.6l-2.5-1.2c-11,5.5-19.8,10.4-27.1,14.9c-1,0.6-2,1.3-3,1.9L79.3,47z"
		/>
	<path fill="#2478BE" d="M81.2,43.1c7.2-4.5,16.1-9.4,27.1-14.9l-3.8-1.8l-1.8-0.8c-7.4,3.7-17.7,9.3-26.9,15l2.4,4.4
		C79.2,44.4,80.2,43.7,81.2,43.1z"/>
	<path fill="#2478BE" d="M60.8,100.7c-0.3-0.1-0.8-0.3-1-0.4c-0.2-0.1-0.4-0.2-0.6-0.3c-0.1,0-0.2-0.1-0.3-0.1
		c-3.5-1.7-7.2-4.3-9.9-7.4c-0.7-0.9-1.4-1.7-1.9-2.7c-3.6-6.8-2.4-16.5,11.2-29.5c3-2.9,6.3-5.7,10.3-8.7l3.4-8.6
		c-1.2,0.8-2.4,1.6-3.5,2.4C34,69.2,36.6,85.2,46.4,93.4c1.7,1.5,3.7,2.8,5.6,3.8c2.7,1.3,5.3,2.5,8,3.4c0.3,0.1,0.6,0.2,0.9,0.3
		c0,0,0.1,0,0.2,0l0,0C61.1,100.9,61,100.8,60.8,100.7z"/>
	<path fill="#F16924" d="M47.4,45.5C35.3,59.1,25.2,78.6,36.7,92c-10-21.8,9.7-40.7,36.6-57.6c2.8-1.7,5.4-3,7-3.8
		c7.9-4,26.9-12.4,41-18.7c2.4-1.1,16.1-7.3,16.7-7.6c0,0,0,0,0,0s-28.8,10.9-34.5,13.2c-0.1,0,0,0,0,0c-2.7,0.7-6.6,1.4-9.3,1.2
		c-2.2-0.1-5.9-0.5-10.1-2.3c-1.3-0.5-8.6-3.6-14.8-6.5c-0.2-0.1-0.4-0.2-0.6-0.3c0.2,5.6-1.9,11.1-5.1,16.3
		C59.4,32.7,55.5,36.5,47.4,45.5z"/>
	<polygon fill="#FFD10C" points="74.5,50.2 75.2,61 75.3,62.9 75.3,62.9 104.7,116.8 105.8,119 107,116.8 136.2,63 136.2,63 
		137.3,45.6 105.8,104 76.1,49.1 75,47.1 74.2,45.6 74.3,47.6 	"/>
	<polygon fill="#2478BE" points="41.2,149.9 41.2,149.9 52.1,149.9 	"/>
	<polygon fill="#2478BE" points="107,137.8 105.8,140 104.6,137.8 105.8,140 	"/>
	<polygon fill="#2478BE" points="171.1,151.8 171.1,152 157.7,152 134.5,92.4 105.8,145.5 77.1,92.4 53.8,152 40.4,152 40.7,151.3 
		40.4,152 30.4,157.7 57.7,157.7 77.6,106.6 77.9,106 77.9,105.9 105.8,157.5 133.6,105.9 153.9,157.7 181.2,157.7 171.1,152 	"/>
	<polygon fill="#2478BE" points="151.1,100.9 169.8,148.6 170.2,149.8 171.1,151.8 	"/>
	<polygon fill="#8A8D8F" points="53.8,152 77.1,92.4 105.8,145.5 134.5,92.4 157.7,152 171.1,152 171.1,151.8 170.2,149.8 
		170.2,149.8 159.5,149.8 134.8,86.4 107,137.8 105.8,140 104.6,137.8 76.8,86.5 52.1,149.9 41.2,149.9 40.7,151.3 40.4,152 	"/>
	<path fill="#F16924" d="M75.2,61l-0.7-10.9l-0.2-2.6l-0.1-1.9l-1.1,2.7l-1.5,3.8L54.4,96.3c0.1,0.1,0.3,0.3,0.4,0.4
		c0.5,0.4,1.2,1.1,2.2,1.8c0.1,0.1,0.2,0.1,0.3,0.2c0,0,0,0,0.1,0c0.1,0,0.1,0.1,0.2,0.1c0.2,0.1,0.3,0.2,0.5,0.3
		c0.2,0.1,0.5,0.3,0.7,0.4c0,0,0.1,0,0.1,0c0.1,0.1,0.2,0.1,0.3,0.2c0.1,0,0.1,0.1,0.2,0.1c0.2,0.1,0.4,0.2,0.6,0.3l15.3-37.5
		L75.2,61z"/>
	<path fill="#F16924" d="M30.4,157.7l10-5.7l0.3-0.7l0.5-1.4l0,0h0l0,0L59.7,101c0,0,0,0,0,0c-0.2,0-0.3,0-0.5,0c-0.1,0-0.3,0-0.4,0
		c-2,0-4-0.3-5.8-0.6c-0.1,0-0.1,0-0.2,0L30.4,157.7z"/>
	<polygon fill="#F16924" points="151.1,100.9 171.1,151.8 171.1,152 181.2,157.7 137.3,45.6 136.2,63 	"/>
	<path fill="#020202" d="M41.2,149.9L41.2,149.9L41.2,149.9l10.9,0l24.8-63.4l27.7,51.3l1.2,2.2l1.2-2.3l27.8-51.4l24.7,63.4h10.7
		l0,0l-0.4-1.1l-18.7-47.8L136.2,63l0,0L107,116.8l-1.2,2.1l-1.1-2.1l-29.4-54v0L60,100.3l0,0c0.3,0.2,0.8,0.4,1.2,0.6c0,0,0,0,0,0
		c0,0-0.2-0.1-0.3-0.1c0.2,0.1,0.3,0.1,0.3,0.1l0,0h0c-0.1,0-0.9,0.1-1.4,0.1c0,0,0,0,0,0L41.2,149.9z"/>
	<rect x="67" y="173.5" fill="#020202" width="5" height="24.9"/>
	<polygon fill="#020202" points="150.3,186.3 149.7,187.4 149.1,186.3 142,173.1 132,198.6 137.3,198.6 142.2,186.2 142.7,184.8 
		143.4,186.1 149.7,197.8 156,186.1 156.7,184.8 157.3,186.2 162.1,198.6 167.4,198.6 157.4,173.1 	"/>
	<path fill="#020202" d="M102,173.5l-10,24.9h5.3l2.4-5.8h9.8l2.4,5.8h5.3l-10-24.9H102z M101.7,187.6l3-7l2.8,7H101.7z"/>
	<rect x="186.4" y="173" fill="#020202" width="5" height="25.4"/>
	<polygon fill="#020202" points="30.4,186.3 29.8,187.4 29.1,186.3 22,173.1 12.1,198.6 17.3,198.6 22.2,186.2 22.7,184.8 
		23.4,186.1 29.8,197.8 36.1,186.1 36.8,184.8 37.3,186.2 42.2,198.6 47.4,198.6 37.5,173.1 	"/>
</g>
</svg>
