<?xml version="1.0" encoding="utf-8"?>
<!-- Generator: Adobe Illustrator 18.1.1, SVG Export Plug-In . SVG Version: 6.00 Build 0)  -->
<!DOCTYPE svg PUBLIC "-//W3C//DTD SVG 1.1//EN" "http://www.w3.org/Graphics/SVG/1.1/DTD/svg11.dtd">
<svg version="1.1" id="Miami_Marlins" xmlns="http://www.w3.org/2000/svg" xmlns:xlink="http://www.w3.org/1999/xlink" x="0px"
	 y="0px" viewBox="0 0 200 200" enable-background="new 0 0 200 200" xml:space="preserve">
<g>
	<path fill="#8A8D8F" d="M130,131.4l18.2,46.5h35.5L134.3,54.4l-31.6,58l-26.4-49L72.9,57L71.2,54L69,59.5l-3.4,8.6
		c-3.9,3-7.3,5.8-10.3,8.7c-13.6,13-14.8,22.7-11.2,29.5c0.6,0.9,1.2,1.8,1.9,2.7c2.7,3.1,6.4,5.7,9.9,7.4c0.1,0,0.2,0.1,0.3,0.1
		c0.2,0.1,0.4,0.2,0.6,0.3c0.2,0.1,0.7,0.3,1,0.4c0.1,0.1,0.3,0.1,0.3,0.1c0,0,0,0,0,0c-0.4-0.2-0.8-0.4-1.2-0.6l0,0v0
		c-0.3-0.1-0.5-0.3-0.8-0.4c-0.1-0.1-0.3-0.1-0.4-0.2c0,0,0,0-0.1,0c-0.2-0.1-0.5-0.3-0.7-0.4c-0.2-0.1-0.3-0.2-0.5-0.3
		c-0.1,0-0.2-0.1-0.2-0.2c-0.1-0.1-0.2-0.1-0.3-0.2c-1-0.7-1.7-1.3-2.2-1.8c-0.1-0.1-0.3-0.3-0.4-0.4l17.3-44.1l1.5-3.8l1.1-2.7l0,0
		l0.8,1.5l1.1,2l29.7,54.9l31.5-58.4l43.8,112h-27.3l-20.2-51.7l-27.9,51.6l-27.9-51.6l0,0.1l-0.2,0.6v0l-20,51.1H27.4l22.4-57.2
		c0.1,0,0.1,0,0.2,0c-1.1-0.2-2.1-0.4-2.9-0.6c0,0,0,0,0,0c0,0,0,0,0,0c0,0-0.3,0-0.7-0.1c0,0,0,0,0,0l-24.7,61.7h35.5l18.2-46.5
		l27.3,50L130,131.4z M48.8,110.1c-1.1-1.4-1.9-2.7-2.5-3.7c-0.7-1.3-1-2.1-1-2.1c-0.3-0.8-0.5-1.8-0.6-3
		c-1.3-9.5,7.6-19.9,19.3-29.2L48.8,110.1z"/>
	<path fill="#8A8D8F" d="M98,39.6c25.9-12.3,43.4-21.3,43.4-21.3l-6.5,2.5c-0.6,0.3-14.3,6.5-16.7,7.6c-14.2,6.2-33.2,14.6-41,18.7
		c-1.6,0.8-4.1,2.2-7,3.8c-26.9,16.9-46.6,35.8-36.6,57.6C22.2,95,32.3,75.5,44.4,62c8.1-9,11.9-12.8,16.1-19.5
		c3.2-5.3,5.3-10.8,5.1-16.3c0.2,0.1-4.3-2.2-4.3-2.2c0.5,1.8-0.6,12.6-7.6,22.2c-7.6,10.4-34,33.5-26,55.2
		c4.4,12,15.8,14.4,18.7,14.9c0.2,0,0.4,0.1,0.6,0.1C22.2,103.5,28.7,71.7,98,39.6z"/>
	<path fill="#8A8D8F" d="M76.3,63.4c12.4-8.1,25.2-14.5,31.5-17.6l-2.5-1.2c-11,5.5-19.8,10.4-27.1,14.9c-1,0.6-2,1.3-3,1.9
		L76.3,63.4z"/>
	<path fill="#2478BE" d="M78.2,59.5c7.2-4.5,16.1-9.4,27.1-14.9l-3.8-1.8L99.7,42c-7.4,3.7-17.7,9.3-26.9,15l2.4,4.4
		C76.2,60.8,77.2,60.1,78.2,59.5z"/>
	<path fill="#2478BE" d="M57.8,117.2c-0.3-0.1-0.8-0.3-1-0.4c-0.2-0.1-0.4-0.2-0.6-0.3c-0.1,0-0.2-0.1-0.3-0.1
		c-3.5-1.7-7.2-4.3-9.9-7.4c-0.7-0.9-1.4-1.7-1.9-2.7c-3.6-6.8-2.4-16.5,11.2-29.5c3-2.9,6.3-5.7,10.3-8.7l3.4-8.6
		c-1.2,0.8-2.4,1.6-3.5,2.4C31,85.6,33.6,101.6,43.4,109.8c1.7,1.5,3.7,2.8,5.6,3.8c2.7,1.3,5.3,2.5,8,3.4c0.3,0.1,0.6,0.2,0.9,0.3
		c0,0,0.1,0,0.2,0l0,0C58.1,117.3,58,117.2,57.8,117.2z"/>
	<path fill="#F16924" d="M44.4,62C32.3,75.5,22.2,95,33.7,108.4c-10-21.8,9.7-40.7,36.6-57.6c2.8-1.7,5.4-3,7-3.8
		c7.9-4,26.9-12.4,41-18.7c2.4-1.1,16.1-7.3,16.7-7.6c0,0,0,0,0,0s-28.8,10.9-34.5,13.2c-0.1,0,0,0,0,0c-2.7,0.7-6.6,1.4-9.3,1.2
		c-2.2-0.1-5.9-0.5-10.1-2.3c-1.3-0.5-8.6-3.6-14.8-6.5c-0.2-0.1-0.4-0.2-0.6-0.3c0.2,5.6-1.9,11.1-5.1,16.3
		C56.4,49.2,52.5,52.9,44.4,62z"/>
	<polygon fill="#FFD10C" points="71.5,66.6 72.2,77.5 72.3,79.3 72.3,79.3 101.7,133.2 102.8,135.4 104,133.2 133.2,79.4 
		133.2,79.4 134.3,62.1 102.8,120.4 73.1,65.5 72,63.5 71.2,62.1 71.3,64 	"/>
	<polygon fill="#2478BE" points="38.2,166.3 38.2,166.3 49.1,166.3 	"/>
	<polygon fill="#2478BE" points="104,154.2 102.8,156.4 101.6,154.2 102.8,156.4 	"/>
	<polygon fill="#2478BE" points="168.1,168.2 168.1,168.4 154.7,168.4 131.5,108.9 102.8,161.9 74.1,108.9 50.8,168.4 37.4,168.4 
		37.7,167.7 37.4,168.4 27.4,174.1 54.7,174.1 74.6,123 74.9,122.4 74.9,122.3 102.8,173.9 130.6,122.3 150.9,174.1 178.2,174.1 
		168.1,168.4 	"/>
	<polygon fill="#2478BE" points="148.1,117.3 166.8,165.1 167.2,166.2 168.1,168.2 	"/>
	<polygon fill="#8A8D8F" points="50.8,168.4 74.1,108.9 102.8,161.9 131.5,108.9 154.7,168.4 168.1,168.4 168.1,168.2 167.2,166.2 
		167.2,166.2 156.5,166.2 131.8,102.8 104,154.2 102.8,156.4 101.6,154.2 73.8,102.9 49.1,166.3 38.2,166.3 37.7,167.7 37.4,168.4 	
		"/>
	<path fill="#F16924" d="M72.2,77.5l-0.7-10.9L71.3,64l-0.1-1.9l-1.1,2.7l-1.5,3.8l-17.3,44.1c0.1,0.1,0.3,0.3,0.4,0.4
		c0.5,0.4,1.2,1.1,2.2,1.8c0.1,0.1,0.2,0.1,0.3,0.2c0,0,0,0,0.1,0c0.1,0,0.1,0.1,0.2,0.1c0.2,0.1,0.3,0.2,0.5,0.3
		c0.2,0.1,0.5,0.3,0.7,0.4c0,0,0.1,0,0.1,0c0.1,0.1,0.2,0.1,0.3,0.2c0.1,0,0.1,0.1,0.2,0.1c0.2,0.1,0.4,0.2,0.6,0.3l15.3-37.5
		L72.2,77.5z"/>
	<path fill="#F16924" d="M27.4,174.1l10-5.7l0.3-0.7l0.5-1.4l0,0h0l0,0l18.5-48.9c0,0,0,0,0,0c-0.2,0-0.3,0-0.5,0
		c-0.1,0-0.3,0-0.4,0c-2,0-4-0.3-5.8-0.6c-0.1,0-0.1,0-0.2,0L27.4,174.1z"/>
	<polygon fill="#F16924" points="148.1,117.3 168.1,168.2 168.1,168.4 178.2,174.1 134.3,62.1 133.2,79.4 	"/>
	<path fill="#020202" d="M38.2,166.3L38.2,166.3L38.2,166.3l10.9,0l24.8-63.4l27.7,51.3l1.2,2.2l1.2-2.3l27.8-51.4l24.7,63.4h10.7
		l0,0l-0.4-1.1l-18.7-47.8l-14.9-37.9l0,0L104,133.2l-1.2,2.1l-1.1-2.1l-29.4-54v0L57,116.7l0,0c0.3,0.2,0.8,0.4,1.2,0.6
		c0,0,0,0,0,0c0,0-0.2-0.1-0.3-0.1c0.2,0.1,0.3,0.1,0.3,0.1l0,0h0c-0.1,0-0.9,0.1-1.4,0.1c0,0,0,0,0,0L38.2,166.3z"/>
</g>
</svg>
