<?xml version="1.0" encoding="utf-8"?>
<!-- Generator: Adobe Illustrator 18.1.1, SVG Export Plug-In . SVG Version: 6.00 Build 0)  -->
<!DOCTYPE svg PUBLIC "-//W3C//DTD SVG 1.1//EN" "http://www.w3.org/Graphics/SVG/1.1/DTD/svg11.dtd">
<svg version="1.1" id="MN_Wild" xmlns="http://www.w3.org/2000/svg" xmlns:xlink="http://www.w3.org/1999/xlink" x="0px" y="0px"
	 viewBox="0 0 200 200" enable-background="new 0 0 200 200" xml:space="preserve">
<g id="g2416">
	<g id="g2422" transform="translate(130.8809,1.7646)">
		<path id="path2424" fill="#EEE3C6" d="M-17,167.1l53.6-52.6l-11.4,0l42.2-44.9c0,0-9.8-2.9-13-3.5l6.7-5.4
			c-11.2-2.9-34.4-6.6-59.1-5c0,0-5.3-15.2-25.6-15.2c-23.2,0-28.7,17.9-28.7,17.9s-27.8,5.8-53.3,22.3l5.5,4.2
			c0,0-11.5,5.9-28.8,19.7c1.9,7.8,9.5,17.9,10.2,18.8c3,2,13.3,7.5,21.3,10.3c1.5-0.4,4.3-1.6,4.3-1.6c0.9,0.4,5.2,1.5,6.4,1.7
			c-0.8,5.1,2.9,8,2.9,8l-2.6,1.4c0,0,3.6,8,21,12.2C-25.8,146.5-17,167.1-17,167.1"/>
	</g>
	<g id="g2426" transform="translate(6.1792,72.7002)">
		<path id="path2428" fill="#045937" d="M-0.1,34.8c1.8,4.9,5.2,10.4,8.5,14.9c1,0.9,11.1,6.2,19.1,9.2c0.8-0.1,3.5-1.3,3.9-1.6
			c0.5,0,6.3,2.6,13.9,2.6c2.7,0,4.7-0.3,4.7-0.8c0-0.5-1.1-1-1.6-1.3c-1.5-0.7-3.6-1.3-3.6-2.9c0-1.7,3-3.9,16.8-3.9
			c8.7,0,14.4,0.5,14.4,0.5v1c-4.4,0-9,0.7-12.1,1.4c-2,0.5-5,1.4-5,2.3c0,1.8,7.9,1.8,7.9,5.4c0,2.9-3,6-13.9,6
			c-5.9,0-10.7-1.9-11.1-1.9c-0.4,0-0.5,0.1-0.5,0.3c0,0.2,0.3,0.9,0.9,1.7c0.9,1.2,2.3,2.6,5,3.6l-3.5,2c4,4.1,13.7,6.9,15.8,7.5
			c0,0,33.4-8.7,48.9,10.2l42.4-44l-10-0.1L181,1.1c0,0-7.7-2.8-15.5-4.3l5.3-4.1c0,0-26.8-5.6-48.5-3.8c0,0-4.1-15.3-23.1-15.3
			c-18.4,0-24.3,16.9-24.3,16.9S53-6,25.4,10l5.9,4.5C31.3,14.5,18.6,20.4-0.1,34.8"/>
	</g>
	<g id="g2430" transform="translate(30.7095,58.96)">
		<path id="path2432" fill="#C02C38" d="M-3.4,60.5c0,0,3.7,1.1,13.4,0.5l11.2-6.9l8.6,2.8l2.6-3.7h-2.8l5.7-9.2l4.9,9.2H38l1.5,3.2
			l6.1-1.1l2.5-3.3h-2.3l3.4-5.2h-2.7l5.4-9.2l4.7,9.4h-2.1l3.3,5.6h-2.6l5.1,9.2l4.9-7h-3.4L67,47h-3.3L71.2,34L77.7,47H75l4.3,7.8
			h-3l4.3,9.4l7.3-11.8h-4l5.9-9.7h-3.7l8-16.1l8.3,16.9h-2.9l5.3,8.9h-3.7l4.2,8.7l6.6-10.2h-3.5l7.8-11.2H112l12.5-17.1l6.7,11.9
			L145,17.2c0,0-24.2-10.1-59.8-10.1C37.9,7.1,11,23.7,11,23.7s31.1-10.8,65.2-10.8c24.9,0,39.7,5.7,39.7,5.7S84,18.4,32.8,32.3
			c8.3,0,13.3,2.4,13.3,2.4S25.3,38.4-3.8,50.8l3.7,5.5L-3.4,60.5z"/>
	</g>
	<g id="g2434" transform="translate(107.0884,99.71)">
		<path id="path2436" fill="#EEB41E" d="M-13.8-15.5c3.2,2.7,7.3,4.4,11.8,4.4c6.7,0,12.5-3.6,15.6-9C6-19.1-3.2-17.7-13.8-15.5"/>
	</g>
	<g id="g2438" transform="translate(99.9761,118.1895)">
		<path id="path2440" fill="#EEB41E" d="M-12.8-50c-0.1,0.7-0.1,1.5-0.1,2.3c0,0.9,0.1,1.7,0.2,2.5c6.3-0.7,13-1.1,19.7-1.1
			c6,0,11.4,0.3,16.2,0.8c0.1-0.7,0.1-1.5,0.1-2.2c0-1.5-0.2-2.9-0.5-4.3c-2.2-0.1-4.5-0.1-6.8-0.1C5.3-52.1-4.3-51.3-12.8-50"/>
	</g>
	<g id="g2442" transform="translate(139.125,125.7051)">
		<path id="path2444" fill="#EEB41E" d="M-18.1-64c-3.1-5.6-9-9.4-15.9-9.4c-9.2,0-16.9,6.9-18,15.9C-43.9-60.5-30.5-63-18.1-64"/>
	</g>
	<g id="g2446" transform="translate(122.7559,107.8613)">
		<path id="path2448" fill="#FFFFFF" d="M-15.9-30.7c-7.7,0.2-21.8,0.9-44.6,6.6c0,0,0,0,0,0c-0.3-1.8-0.5-3.2-0.5-3.2
			s-0.9,1.5-2.1,3.6c-5.8,2.1-13,5.1-17.7,7.7c2.9-1,8.7-2.9,16.3-5.1c-0.8,1.5-1.6,3.2-2.2,4.7l4-3.6c0,0,2.7,1.6,2.9,1.5
			c-0.1-1-0.2-2.2-0.4-3.4C-47.9-25.1-32.1-28.8-15.9-30.7"/>
	</g>
</g>
</svg>
