<?xml version="1.0" encoding="utf-8"?>
<!-- Generator: Adobe Illustrator 18.1.1, SVG Export Plug-In . SVG Version: 6.00 Build 0)  -->
<!DOCTYPE svg PUBLIC "-//W3C//DTD SVG 1.1//EN" "http://www.w3.org/Graphics/SVG/1.1/DTD/svg11.dtd">
<svg version="1.1" id="Layer_3" xmlns="http://www.w3.org/2000/svg" xmlns:xlink="http://www.w3.org/1999/xlink" x="0px" y="0px"
	 viewBox="0 0 288.2 250" enable-background="new 0 0 288.2 250" xml:space="preserve">
<g>
	<polygon fill="#C5AA86" points="136.5,239 131.6,239 131.6,233.9 128,233.9 128,247.2 131.6,247.2 131.6,241.7 136.5,241.7 
		136.5,247.2 139.9,247.2 139.9,233.9 136.5,233.9 	"/>
	<path fill="#C5AA86" d="M148.8,233.5c-3.8,0-7.3,2.8-7.3,6.8c0,4.2,3.1,7.3,7.3,7.3c4.2,0,7.3-3,7.3-7.3
		C156.1,236.3,152.6,233.5,148.8,233.5z M148.8,244.2c-2.1,0-3.7-1.7-3.7-3.9c0-1.8,1.7-3.5,3.7-3.5c2.1,0,3.7,1.7,3.7,3.5
		C152.6,242.5,150.9,244.2,148.8,244.2z"/>
	<polygon fill="#C5AA86" points="156.4,236.9 159.2,236.9 159.2,247.2 162.6,247.2 162.6,236.9 165.5,236.9 165.5,233.9 
		156.4,233.9 	"/>
	<polygon fill="#C5AA86" points="166.7,247.2 174.3,247.2 174.3,244.2 170.2,244.2 170.2,241.9 174,241.9 174,239 170.2,239 
		170.2,236.9 174.3,236.9 174.3,233.9 166.7,233.9 	"/>
	<path fill="#C5AA86" d="M170.8,219.2l-8-10.4c3.7-0.7,5.6-3.7,5.6-7.2c0-5.5-3.8-7.9-8.9-7.9h-9.9v25.5h6.6v-9.9l0,0l6.2,9.9H170.8
		z M156.8,205.3h-0.7v-6.3h0.7c2.1,0,4.7,0.4,4.7,3.2C161.5,205,159.1,205.3,156.8,205.3z"/>
	<path fill="#C5AA86" d="M137.5,206.1c0-7.8-6.8-13.1-14.1-13.1s-14.1,5.4-14.1,13.1c0,8.3,5.9,14.1,14.1,14.1
		S137.5,214.3,137.5,206.1z M123.4,213.7c-3.9,0-7.2-3.2-7.2-7.6c0-3.5,3.2-6.8,7.2-6.8c3.9,0,7.2,3.2,7.2,6.8
		C130.6,210.5,127.3,213.7,123.4,213.7z"/>
	<polygon fill="#C5AA86" points="100.9,209.4 100.8,209.4 88.7,193.7 82,193.7 82,219.2 88.7,219.2 88.7,203.6 88.7,203.6 
		100.9,219.2 107.6,219.2 107.6,193.7 100.9,193.7 	"/>
	<path fill="#C5AA86" d="M67.9,217.5c2-1.7,2.7-4.4,2.7-6.9c0-4.1-2.7-5.9-6.3-7.1l-1.7-0.6c-1.1-0.4-3-1-3-2.4
		c0-1.4,1.7-2.1,2.8-2.1c1.7,0,3.2,0.7,4.4,1.7l2.7-5.2c-2.3-1.3-5.4-2.1-8-2.1c-5.1,0-8.7,3.4-8.7,8.6c0,4.9,2.7,6.1,6.9,7.2
		c1.4,0.4,4.1,1,4.1,3c0,1.8-1.7,2.5-3.2,2.5c-2.3,0-4.2-1.1-5.9-2.7l-0.6,1l2.5,6.6c1.4,0.4,2.7,0.6,4.1,0.6
		C63.3,219.9,66,219.2,67.9,217.5z"/>
	<rect x="53" y="233.9" fill="#C5AA86" width="3.4" height="13.3"/>
	<path fill="#C5AA86" d="M48.5,240.1L48.5,240.1c1.1-0.6,1.4-1.6,1.4-2.7c0-2.5-1.6-3.4-3.9-3.4H41v13.3h5.4c2.4,0,4.8-0.8,4.8-3.7
		C51.1,241.5,50.3,240.3,48.5,240.1z M44.5,236.6h0.3c1,0,2,0,2,1.3c0,1.1-1,1.3-1.8,1.3h-0.4C44.5,239.1,44.5,236.6,44.5,236.6z
		 M44.9,244.5h-0.4v-2.8h0.3c1.1,0,2.8-0.1,2.8,1.4C47.6,244.5,45.9,244.5,44.9,244.5z"/>
	<path fill="#C5AA86" d="M47.1,219.2h7.1l-9.6-25.5h-7.2l-9.9,25.5h7.1l1.7-4.4h9.2L47.1,219.2z M38,209.8l2.7-8.2l0,0l2.7,8.2H38z"
		/>
	<path fill="#C5AA86" d="M27.3,211.3c-1.4,1.4-3.2,2.1-5.2,2.1c-4.1,0-6.9-3-6.9-6.9c0-3.9,2.7-7.1,6.8-7.1c2.1,0,4.1,0.8,5.4,2.3
		h0.4v-7.5c-2-0.8-3.9-1.3-6.1-1.3c-3.5,0-7.2,1.6-9.7,4.1c-2.4,2.5-3.8,5.9-3.8,9.3c0,3.8,1.3,7.1,4.1,9.7c2.7,2.4,6.1,3.8,9.6,3.8
		c1,0,1.8-0.1,2.7-0.3l3.2-8.3L27.3,211.3L27.3,211.3z"/>
	<rect x="72.4" y="193.7" fill="#C5AA86" width="6.6" height="25.5"/>
	<polygon fill="#C5AA86" points="179.8,233.9 176.4,233.9 176.4,247.2 183.9,247.2 183.9,244.2 179.8,244.2 	"/>
	<polygon fill="#C5AA86" points="68.4,241.9 68.4,241.9 62,233.9 58.6,233.9 58.6,247.2 62,247.2 62,239 62.1,239 68.4,247.2 
		71.9,247.2 71.9,233.9 68.4,233.9 	"/>
	<path fill="#C5AA86" d="M95.2,233.5c-3.8,0-7.3,2.8-7.3,6.8c0,4.2,3.1,7.3,7.3,7.3c4.2,0,7.3-3,7.3-7.3
		C102.5,236.3,99,233.5,95.2,233.5z M95.2,244.2c-2.1,0-3.7-1.7-3.7-3.9c0-1.8,1.7-3.5,3.7-3.5c2.1,0,3.7,1.7,3.7,3.5
		C98.8,242.5,97.1,244.2,95.2,244.2z"/>
	<path fill="#C5AA86" d="M80.5,242.4h2.8c-0.1,1.6-1.3,2.3-2.8,2.3c-2.3,0-3.5-2.1-3.5-4.1s1.1-4.2,3.4-4.2c1.4,0,2.4,0.8,2.8,2.1
		l3.2-1.4c-1.1-2.5-3.2-3.7-5.9-3.7c-4.2,0-7.2,2.8-7.2,7.1c0,4.1,3,6.9,7.1,6.9c2.3,0,4.1-0.8,5.5-2.5c1.1-1.7,1.3-3.2,1.4-5.2
		h-6.8C80.5,239.6,80.5,242.4,80.5,242.4z"/>
	<path fill="#C5AA86" d="M114.9,237.2c-1.8,0-3.2,1.6-3.2,3.2c0,1.8,1.4,3.2,3.2,3.2s3.2-1.6,3.2-3.2
		C118.3,238.7,116.9,237.2,114.9,237.2z"/>
	<path fill="#C5AA86" d="M175,37.8l-0.4-11.7c-1.6-0.4-3.1-0.8-4.8-1.3L160,43.1c1.7,0.3,3.4,0.7,5.1,1.1l5.2-10.3l0,0l0.7,12
		c0.7,0.3,1.4,0.4,2.1,0.7l7.9-9l0,0l-2.1,11.3c1.6,0.7,3.1,1.4,4.7,2.1l3.7-20.3c-1.6-0.7-3.1-1.3-4.5-1.8L175,37.8z"/>
	<path fill="#C5AA86" d="M127.2,22.2l1.8,12.1l0,0l-11.3-10.7c-1.7,0.3-3.4,0.7-5.1,1.1l3.1,19.6c1.7-0.4,3.4-0.8,5.1-1.1L119,31.3
		l0,0l11.1,10.4c1.7-0.1,3.4-0.3,5.1-0.4l-3-19.6C130.6,21.8,128.9,21.9,127.2,22.2z"/>
	<path fill="#C5AA86" d="M105,35.2l-1.4,0.1c-1,0-2.4,0.1-2.8-1c-0.4-1,0.6-2,1.6-2.3c1.1-0.4,2.5-0.3,3.7,0l0.6-4.5
		c-2-0.3-4.5-0.1-6.3,0.6c-3.7,1.4-5.5,4.8-4.1,8.6c1.3,3.7,3.7,3.7,6.9,3.4c1.1-0.1,3.2-0.3,3.7,1s-0.6,2.3-1.7,2.7
		c-1.7,0.6-3.4,0.3-4.9-0.4l-0.7,4.9c2.4,0.7,4.9,0.6,7.3-0.3c1.8-0.7,3.7-2,4.7-3.7c1-1.8,0.7-3.8,0.1-5.6
		C110.4,35.6,107.9,35,105,35.2z"/>
	<path fill="#C5AA86" d="M138.9,21.6l-0.6,19.6c3.2-0.1,6.6,0,10,0.3c0.4,0,0.8,0.1,1.3,0.1l0.1-4.2c-2-0.1-4.1-0.3-6.1-0.3l0.1-3.4
		c2,0,3.8,0.1,5.8,0.3l0.1-4.4c-2-0.1-3.8-0.1-5.8-0.3l0.1-3.2c2.1,0,4.1,0.1,6.1,0.3l0.1-4.4h-0.1
		C146.2,21.6,142.6,21.5,138.9,21.6z"/>
	<path fill="#C5AA86" d="M78.8,39.1l3.5,21.2c1.6-1.1,3-2.1,4.7-3.1l-0.6-3.5c2-1.3,4.1-2.4,6.1-3.5l2.8,2.3
		c1.7-0.8,3.4-1.7,5.1-2.4L83.7,36.6C81.9,37.3,80.3,38.3,78.8,39.1z M84.2,43.1l5.1,4.4c-1.3,0.7-2.5,1.4-3.7,2.1L84.2,43.1
		L84.2,43.1z"/>
	<path fill="#C5AA86" d="M62.6,73l-2.7-2.3c1.3-1.6,2.5-3,3.8-4.4l-3.2-2.8c-1.3,1.4-2.5,2.8-3.8,4.4l-2.4-2.1
		c1.3-1.6,2.7-3.1,4.1-4.5l-3.2-2.8L55,58.6c-2.5,2.7-4.9,5.5-7.2,8.5l14.8,12.8c2-2.7,4.2-5.1,6.5-7.6c0.3-0.3,0.6-0.6,0.8-0.8
		l-3.1-2.8C65.3,69.9,63.8,71.4,62.6,73z"/>
	<path fill="#C5AA86" d="M70.9,54.2l-1.3,0.6c-0.8,0.4-2.3,1-3,0c-0.7-0.8-0.1-2.1,0.6-2.7c1-0.8,2.3-1.1,3.4-1.3l-1-4.4
		c-2,0.4-4.2,1.6-5.8,2.8c-3,2.5-3.5,6.5-0.8,9.5c2.5,3,4.7,2.1,7.8,0.8c1-0.4,3-1.4,3.8-0.3c0.8,1.1,0.3,2.4-0.6,3.1
		c-1.3,1.1-3.1,1.4-4.8,1.4l1,4.7c2.4-0.3,4.8-1.1,6.8-2.8c1.6-1.3,2.7-3.1,3.1-5.1c0.3-2-0.6-3.9-1.8-5.4
		C76,52.6,73.4,52.9,70.9,54.2z"/>
	<path fill="#C5AA86" d="M207.9,53.6c3.2-5.1,1-11.4-3.8-14.4c-4.8-3.1-11.4-2.3-14.7,2.8c-3.4,5.4-2,11.7,3.4,15.1
		C198.1,60.4,204.5,59.1,207.9,53.6z M203.4,50.8c-1.8,2.8-5.2,3.7-7.9,2c-2.5-1.7-3.4-5.1-1.6-8c1.4-2.3,4.9-3.1,7.5-1.4
		C203.9,45,204.8,48.6,203.4,50.8z"/>
	<path fill="#C5AA86" d="M280.1,163c-0.8,0-1.6-0.1-2.4-0.1c1.3-7.3,1.8-15,1.8-22.7c0-76.6-62.1-138.7-138.7-138.7
		S2.2,63.5,2.2,140.1c0,9.7,1,19.3,3,28.5c-1.4,0.7-2.8,1.4-4.2,2.1c-1.8,1-0.7,3.8,1.3,3.2c67.3-20,91.4,18.3,131.9,7.8
		c2-0.6,1.7-3.5-0.4-3.5c-20.3-0.8-38.4-9.2-57.7-14.5c48-4.7,70.7,22.1,105.4,13.1c2-0.6,1.7-3.5-0.4-3.5
		c-20.2-0.8-38.2-9-57.6-14.5c48.5-4.9,71.2,22.1,106.1,13c2-0.6,1.7-3.5-0.4-3.5c-19.9-0.8-37.7-8.9-56.7-14.2
		c49.8-5.9,72.8,22.1,108.1,12.8C282.5,165.9,282.1,163,280.1,163z M158.4,150.4c-15-2.7-31.2-2.5-50.1,4.8
		c-11.6-1.8-26.2-2-40.8,1.7l-0.8-1.6c-3.7-6.3-5.2-16.5-0.1-25.5c5.9-10.9,15.7-19.6,18.9-17.8c3.1,1.7,2.8,4.7,3.1,14
		c0.1,9.2,5.8,12.6,11,3.8s4.5-13.5,8.6-15c-0.1-1.7-0.1-3.5,1.3-3.8c1.4-0.4,4.8-0.8,4.8-0.8l-0.1-1c-4.4-0.1-5.6-0.3-5.5-2.8
		c0.1-2,0.3-2.7,0.4-3c0,0,0-0.1-0.1-0.1c-1.3,0-3.1-0.3-0.1-4.7c0-2-0.4-2.5,0.7-5.6v-0.1c-1.6-0.4-1.7-2.1-1-3.2
		c1-1.6,2-2.7,10.3-2.3c0,0,0.1,0,0.1-0.1c0.7-1.4,2.1-1.7,7.2,1.6c3.1,2,8.5,4.7,12.6,5.9c5.8,1.8,3,3.5,0.6,3c0,0-0.1,0-0.1,0.1
		c0.1,2.3-2.1,2.1-4.2,1h-0.1c0.4,2.3-2,1-3.2-0.3c-1.3-1.3-3.4-2.5-2.4,0.4c1,2.8,2.1,4.4,2.3,7.6c0,0.1,0,0.1,0.1,0.3
		c5.4,3,11.6,5.6,13.3,14.1c1.7,8.5,2.5,13,6.3,15.7c0.1,0,0.3,0,0.3-0.1c0.3-4.2,1.7-6.5,2.3-7.3c0.1-0.1,0.1-0.4,0.1-0.6
		c-0.1-5.1,1.7-16.9,7.5-17.6c0,0,0.1,0,0.1-0.1c-0.6-4.1-0.1-11.1,2.1-16.8c-8.9-5.1-12.3-10-13.1-12.1c-1.6-3.5,1-4.7,1.8-3.7
		c3,3.4,6.8,7.1,11.8,10.3c0.1,0,0.1,0,0.1-0.1c-4.5-5.4-6.6-10.6-6.9-12.7c-0.4-3.5,2-3.9,2.5-2.8c1.8,3.8,4.4,8.3,8,12.6
		c0.1,0.1,0.3,0,0.1-0.1c-2.7-7.8-2.8-12.6-2.3-15.1c1-4.1,3.9-3.5,3.9-2c0.1,2.5,0.6,12.3,3.5,17.1c3.1-0.1,6.8,0.6,7.5,2.5
		c1.1,3,2.5,9.6,1.6,18.3c0,0,0,0.1,0.1,0.1c6.9,0.7,10.9-3.4,16.9,13l0,0c1.1-4.7,2.7-12.6,7.5-9.6c4.5,2.7,17.1,14,10,35.4
		l-0.6,1.6C199.1,142.6,180.5,141.5,158.4,150.4z M227.3,149.8l0.1-1.7c2.3-24.8-6.1-50.5-25.1-69.5c-34-34-89-34-123,0
		c-21.6,21.6-29.5,51.8-23.6,79.7l0.3,1.7c-14-2.1-26.8-1.6-43.3,5.2c-1.6-8.2-2.4-16.5-2.4-25.1C10.5,68,68.9,9.6,140.9,9.6
		S271.2,68,271.2,140c0,7.5-0.6,14.7-1.8,21.7C255,159.4,241.4,154.1,227.3,149.8z"/>
	<path fill="#C5AA86" d="M226.6,57.9l-5.6,5.6c-1.7-1.8-3.5-3.5-5.4-5.2l5.6-5.6c-1.3-1.1-2.5-2.3-3.9-3.4l-14.1,14.4
		c1.3,1.1,2.5,2.3,3.8,3.4l5.6-5.8c1.8,1.7,3.7,3.4,5.4,5.2l-5.6,5.8c1.1,1.3,2.4,2.5,3.5,3.8L230,61.8
		C229,60.4,227.8,59.1,226.6,57.9z"/>
	<path fill="#C5AA86" d="M258.5,128.4l-8.9-5.2l0,0l8-1c-0.3-1.7-0.6-3.4-0.8-5.1l-19.5,2.4c0.4,1.7,0.7,3.4,1,5.1l8.3-1l0,0
		l-7.5,7.5c0.3,2.4,0.3,4.7,0.4,7.1l9.5-10l9.9,6.3C258.9,132.5,258.8,130.4,258.5,128.4z"/>
	<path fill="#C5AA86" d="M254.3,106.5l-13,1l0,0l10.6-8.2c-0.4-1.3-1-2.5-1.4-3.7l-13.4,0.7l0,0l10.4-7.6c-0.7-1.6-1.6-3.1-2.4-4.7
		l-15.7,12.1c0.7,1.6,1.6,3.1,2.1,4.7l11.8-0.4l0,0l-9.3,7.2c0.6,1.7,1.1,3.4,1.6,5.1l19.9-1.1C255.3,109.8,254.8,108.2,254.3,106.5
		z"/>
	<polygon fill="#C5AA86" points="171.2,219.2 185.7,219.2 185.7,213.7 177.8,213.7 177.8,209.2 185.4,209.2 185.4,203.6 
		177.8,203.6 177.8,199.3 185.7,199.3 185.7,193.7 171.2,193.7 	"/>
	<path fill="#C5AA86" d="M237.3,71.7l-20.9,4.8c1.1,1.4,2.4,2.8,3.5,4.4l3.4-0.8c1.4,2,2.7,3.8,3.9,5.8l-2,3c1,1.6,1.8,3.2,2.8,4.8
		l12.3-17.5C239.5,74.6,238.3,73.1,237.3,71.7z M229.7,82.7c-0.7-1.3-1.6-2.4-2.4-3.5l6.5-1.8l0,0L229.7,82.7z"/>
	<path fill="#C5AA86" d="M220.3,220.2c8.2,0,14.1-5.8,14.1-14.1c0-7.8-6.8-13.1-14.1-13.1s-14.1,5.4-14.1,13.1
		C206,214.3,212.1,220.2,220.3,220.2z M220.3,199.3c3.9,0,7.2,3.2,7.2,6.8c0,4.4-3.2,7.6-7.2,7.6s-7.2-3.2-7.2-7.6
		C213.1,202.6,216.3,199.3,220.3,199.3z"/>
	<path fill="#C5AA86" d="M41.8,74.8L51,84l0,0l-13.1-2.7c-0.7,1.1-1.3,2.3-2,3.5l9.2,9.9l0,0l-12.6-3.1c-0.7,1.6-1.4,3.2-2,4.8
		l19.5,4.1c0.7-1.6,1.4-3.1,2.3-4.7l-8-8.7l0,0l11.4,2.4c0.8-1.6,1.8-3,2.8-4.5L44.7,70.6C43.7,72,42.7,73.4,41.8,74.8z"/>
	<path fill="#C5AA86" d="M195.3,237.2c-1.8,0-3.2,1.6-3.2,3.2c0,1.8,1.4,3.2,3.2,3.2s3.2-1.6,3.2-3.2
		C198.6,238.7,197.1,237.2,195.3,237.2z"/>
	<path fill="#C5AA86" d="M229.3,238.3c0-3.1-2-4.4-4.8-4.4h-5.2v13.3h3.4v-4.4h2C227.6,242.8,229.3,241.4,229.3,238.3z M223.2,240
		h-0.6v-3.2h0.6c1.3,0,2.5,0,2.5,1.7C225.6,240,224.5,240,223.2,240z"/>
	<path fill="#C5AA86" d="M199.3,203.7l-1.7-0.6c-1.1-0.4-3-1-3-2.4c0-1.4,1.7-2.1,2.8-2.1c1.7,0,3.2,0.7,4.4,1.7l2.7-5.2
		c-2.3-1.3-5.4-2.1-8-2.1c-5.1,0-8.7,3.4-8.7,8.6c0,4.9,2.7,6.1,6.9,7.2c1.4,0.4,4.1,1,4.1,3c0,1.8-1.7,2.5-3.2,2.5
		c-2.3,0-4.2-1.1-5.9-2.7l-2.8,5.4c2.7,1.8,5.8,3,9,3c2.5,0,5.2-0.7,7.2-2.4c2-1.7,2.7-4.4,2.7-6.9
		C205.6,206.5,202.8,204.7,199.3,203.7z"/>
	<path fill="#C5AA86" d="M214.4,239l-0.8-0.3c-0.6-0.1-1.6-0.4-1.6-1.3c0-0.7,0.8-1.1,1.4-1.1c0.8,0,1.7,0.3,2.3,0.8l1.4-2.7
		c-1.1-0.7-2.8-1.1-4.1-1.1c-2.7,0-4.5,1.7-4.5,4.4c0,2.5,1.4,3.1,3.5,3.7c0.7,0.1,2.1,0.6,2.1,1.6c0,1-0.8,1.3-1.7,1.3
		c-1.1,0-2.3-0.6-3.1-1.4l-1.4,2.8c1.4,1,3,1.6,4.7,1.6c1.3,0,2.7-0.4,3.8-1.3c1-0.8,1.4-2.3,1.4-3.5
		C217.6,240.5,216.2,239.6,214.4,239z"/>
	<path fill="#C5AA86" d="M29.6,99.3c-0.7,2-1.3,3.8-2,5.8l6.1,8l0,0l-7.8-2.1c-0.4,1.7-0.8,3.2-1.1,4.9l18.8,5.4
		c0.3-1.7,0.7-3.4,1.1-5.1l-8-2.3l0,0l9.7-3.9c0.7-2.3,1.6-4.5,2.4-6.6l-12.7,5.5L29.6,99.3z"/>
	<path fill="#C5AA86" d="M233.1,233.9l-5.1,13.3h3.7l0.8-2.3h4.8l0.8,2.3h3.7l-4.9-13.3H233.1z M233.5,242.2l1.4-4.2l0,0l1.4,4.2
		H233.5z"/>
	<path fill="#C5AA86" d="M22.5,134.2l19.5,9c0-1.8,0-3.7,0-5.6l-3.2-1.6c0.1-2.4,0.3-4.7,0.4-7.1l3.4-1.1c0.3-1.8,0.6-3.7,0.8-5.5
		l-20.6,6.3C22.7,130.5,22.5,132.3,22.5,134.2z M28.7,131.8l6.5-1.7c-0.1,1.4-0.3,2.8-0.3,4.2L28.7,131.8L28.7,131.8z"/>
	<path fill="#C5AA86" d="M255,201.6c0-5.5-3.8-7.9-8.9-7.9h-9.9v25.5h6.6v-9.9l0,0l6.2,9.9h8.3l-8-10.4
		C253,208.2,255,205.1,255,201.6z M243.4,205.3h-0.7v-6.3h0.7c2.1,0,4.7,0.4,4.7,3.2C248.1,205,245.5,205.3,243.4,205.3z"/>
	<polygon fill="#C5AA86" points="255.8,199.3 261.3,199.3 261.3,219.2 268,219.2 268,199.3 273.5,199.3 273.5,193.7 255.8,193.7 	
		"/>
</g>
</svg>
