<?xml version="1.0" encoding="utf-8"?>
<!-- Generator: Adobe Illustrator 18.1.1, SVG Export Plug-In . SVG Version: 6.00 Build 0)  -->
<!DOCTYPE svg PUBLIC "-//W3C//DTD SVG 1.1//EN" "http://www.w3.org/Graphics/SVG/1.1/DTD/svg11.dtd">
<svg version="1.1" id="Photoshop" xmlns="http://www.w3.org/2000/svg" xmlns:xlink="http://www.w3.org/1999/xlink" x="0px" y="0px"
	 viewBox="0 0 100 100" enable-background="new 0 0 100 100" xml:space="preserve">
<g id="Layer_2_1_">
	<g>
		<g>
			<rect fill="#66CBF4" width="100" height="100"/>
		</g>
	</g>
</g>
<g id="Layer_2">
	<g>
		<g>
			<rect x="8" y="8" fill="#18142E" width="84.1" height="84.1"/>
		</g>
	</g>
</g>
<g>
	<g id="Layer_4">
		<g>
			<path fill="#66CBF4" d="M24.2,28.2c0,0,6.3-0.2,11.5-0.2c5.3,0,9,1.3,11.5,3.5c2.4,2.1,4,5.7,4,9.7s-1.2,7.4-3.5,9.7
				c-2.9,3-6.3,4.8-12.1,5C34.1,56,32.6,56,32.6,56v13.2h-8.5L24.2,28.2L24.2,28.2z M32.6,48.7c0.9,0.1,1.5,0,2.9,0
				c4.5-0.1,7.3-2.9,7.3-7.1c0-3.8-2.3-6.9-6.7-7.1c-1.7-0.1-3.5,0-3.5,0V48.7z"/>
			<g>
				<path fill="#66CBF4" d="M54.5,60c1.7,1.1,5.7,2.7,8.5,2.7c2.8,0,4-1,4-2.6c0-1.6-0.9-3.2-4.4-4.4C56.4,53.6,54,51,54,47.5
					c0-5.8,4.7-10.1,12.1-10.1c3.5,0,6.2,1.2,8.1,2.1v6.9C72.9,45.6,69,44,66.5,44c-2.3,0-3.5,0.9-3.5,2.5c0,1.4,1.2,2.2,4.8,3.5
					c5.7,2,8,4.9,8.1,9.5c0,5.7-4.3,10.2-12.9,10c-2.9-0.1-6.2-1.3-8.5-2.5L54.5,60L54.5,60z"/>
			</g>
		</g>
	</g>
</g>
</svg>
