<?xml version="1.0" encoding="utf-8"?>
<!-- Generator: Adobe Illustrator 19.1.0, SVG Export Plug-In . SVG Version: 6.00 Build 0)  -->
<!DOCTYPE svg PUBLIC "-//W3C//DTD SVG 1.1//EN" "http://www.w3.org/Graphics/SVG/1.1/DTD/svg11.dtd">
<svg version="1.1" id="Ramada" xmlns="http://www.w3.org/2000/svg" xmlns:xlink="http://www.w3.org/1999/xlink" x="0px" y="0px"
	 viewBox="-199 201 200 200" style="enable-background:new -199 201 200 200;" xml:space="preserve">
<style type="text/css">
	.st0{fill:#C6093B;}
	.st1{fill:#FFFFFF;}
	.st2{fill:#FFFFFF;enable-background:new    ;}
</style>
<g>
	<rect x="-200.7" y="226.9" class="st0" width="202.8" height="148.6"/>
</g>
<g>
	<path class="st1" d="M-144.1,350.2h-2.1l0,6.3c-0.1,0-1.9,0-1.9,0l0.1-15c0,0,3.1-0.1,4.5-0.1c1.2,0,4.9-0.1,4.9,4.3
		C-138.7,349.3-141.6,350.2-144.1,350.2 M-144,342.7c-1.1,0-2.2,0-2.2,0l0,6h1.9c1.8,0,3.7-0.5,3.7-3.2
		C-140.7,343-142.5,342.7-144,342.7z"/>
	<polyline class="st1" points="-125.5,356.5 -125.3,341.4 -123.4,341.4 -123.5,354.9 -117.3,354.9 -117.3,356.5 -125.5,356.5 	"/>
	<path class="st1" d="M-94.2,356.5l-1.9-5h-6.2l-2,5l-2,0l6.4-15h1.8l6,15L-94.2,356.5 M-98.5,345.6c-0.3-0.7-0.7-2.3-0.7-2.3
		s-0.4,1.4-0.7,2.3l-1.8,4.4h4.9L-98.5,345.6z"/>
	<path class="st1" d="M-77.3,353.1c-0.5,0.8-1.4,1.8-1.4,1.8s1.8,0,2.5,0h5.7v1.6h-10l-0.5-1l7.1-10.7c0.6-1,1.3-1.8,1.3-1.8
		s-1.3,0.1-2.4,0.1h-5.5v-1.6h9.8l0.5,1L-77.3,353.1"/>
	<path class="st1" d="M-47.2,356.5l-1.9-5h-6.2l-2,5l-2,0l6.4-15h1.8l6,15H-47.2 M-51.5,345.6c-0.3-0.7-0.7-2.3-0.7-2.3
		s-0.4,1.4-0.7,2.3l-1.8,4.4h4.9L-51.5,345.6z"/>
</g>
<g>
	<g>
		<g>
			<path class="st1" d="M-139.8,326.5h3.2l-9.6-23.3h-2.1l-9.7,23.3h3l2.9-7.2h9.3L-139.8,326.5z M-143.6,317h-7.4l3.7-9.3
				L-143.6,317z"/>
			<path class="st1" d="M-148.5,302.8l-10.1,24.2h4c0,0,2.7-6.7,2.9-7.2c0.5,0,8.2,0,8.7,0c0.2,0.5,2.9,7.2,2.9,7.2h4.1l-9.9-24.2
				H-148.5z M-146.4,303.7c0.2,0.5,8.8,21.3,9.2,22.5c-0.7,0-1.9,0-2.3,0c-0.2-0.5-2.9-7.2-2.9-7.2h-9.9c0,0-2.7,6.7-2.9,7.2
				c-0.4,0-1.4,0-2.1,0c0.5-1.1,9.1-22,9.4-22.5C-147.6,303.7-146.8,303.7-146.4,303.7z"/>
			<path class="st1" d="M-151.7,317.4h8.7l-4.3-10.9L-151.7,317.4z M-147.3,308.8c0.6,1.5,2.7,6.8,3.1,7.7c-1,0-5.2,0-6.1,0
				C-150,315.6-147.9,310.3-147.3,308.8z"/>
		</g>
		<g>
			<polygon class="st2" points="-104.8,303.7 -106.9,303.7 -115.4,322.2 -124,303.7 -126,303.7 -128.8,326.5 -126,326.5 
				-124.2,310.1 -116.5,326.5 -114.7,326.5 -106.9,309.7 -105.2,326.5 -102.1,326.5 			"/>
			<path class="st1" d="M-107.2,303.3c0,0-7.5,16.4-8.2,17.9c-0.7-1.5-8.3-17.9-8.3-17.9h-2.7l-2.9,23.7h3.7c0,0,1.4-12.8,1.7-15.3
				c1.1,2.3,7.1,15.3,7.1,15.3h2.4c0,0,6.1-13.3,7.2-15.6c0.3,2.6,1.6,15.6,1.6,15.6h3.9l-2.8-23.7H-107.2z M-105.2,304.1
				c0.1,0.7,2.5,21.1,2.6,22c-0.6,0-1.7,0-2.2,0c-0.1-0.7-1.9-18-1.9-18s-8.1,17.5-8.3,18c-0.3,0-1,0-1.3,0
				c-0.2-0.5-8.2-17.6-8.2-17.6s-1.9,16.9-2,17.6c-0.5,0-1.4,0-1.9,0c0.1-0.9,2.6-21.3,2.7-22c0.4,0,1.1,0,1.4,0
				c0.2,0.5,8.8,19.1,8.8,19.1s8.5-18.6,8.8-19.1C-106.3,304.1-105.6,304.1-105.2,304.1z"/>
		</g>
		<g>
			<path class="st1" d="M-76.2,326.5h3.2l-9.6-23.3h-2.1l-9.7,23.3h3l2.9-7.2h9.3L-76.2,326.5z M-80.1,317h-7.4l3.7-9.3L-80.1,317z"
				/>
			<path class="st1" d="M-84.9,302.8L-95,327h4c0,0,2.7-6.7,2.9-7.2c0.5,0,8.2,0,8.7,0c0.2,0.5,2.9,7.2,2.9,7.2h4.1l-9.9-24.2H-84.9
				z M-82.9,303.7c0.2,0.5,8.8,21.3,9.2,22.5c-0.7,0-1.9,0-2.3,0c-0.2-0.5-2.9-7.2-2.9-7.2h-9.9c0,0-2.7,6.7-2.9,7.2
				c-0.4,0-1.4,0-2.1,0c0.5-1.1,9.1-22,9.4-22.5C-84,303.7-83.2,303.7-82.9,303.7z"/>
			<path class="st1" d="M-88.1,317.4h8.7l-4.3-10.9L-88.1,317.4z M-83.7,308.8c0.6,1.5,2.7,6.8,3.1,7.7c-1,0-5.2,0-6.1,0
				C-86.5,315.6-84.3,310.3-83.7,308.8z"/>
		</g>
		<g>
			<path class="st1" d="M-64,303.8v22.6c2.1,0.2,3.3,0.2,5,0.2c3.5,0,5.9-0.3,8-1.1c3.9-1.4,6.5-5.6,6.5-10.3c0-3.3-1.3-6.3-3.4-8.4
				c-2.3-2.1-5.8-3.2-10.4-3.2c-1.2,0-2.8,0-4.3,0.1L-64,303.8z M-61,306.2c0.9-0.1,1.3-0.1,1.9-0.1c2.6,0,4.7,0.4,6.5,1.3
				c2.9,1.4,4.8,4.6,4.8,8.2c0,2.3-0.7,4.3-2.1,5.9c-1.6,1.8-4,2.7-7.9,2.7c-1.1,0-1.9-0.1-3.2-0.2V306.2z"/>
			<path class="st1" d="M-62.6,303.3c0,0-1.4,0.1-1.4,0.1l-0.4,0v23.4l0.4,0c2,0.2,3.3,0.2,5,0.2c3.5,0,5.9-0.3,8.2-1.1
				c4.1-1.5,6.8-5.8,6.8-10.7c0-3.4-1.3-6.6-3.5-8.7c-2.4-2.2-6.1-3.4-10.7-3.4C-59.1,303.2-60.8,303.2-62.6,303.3z M-62.6,304.2
				c1.8-0.1,3.4-0.1,4.3-0.1c4.4,0,7.9,1.1,10.1,3.1c2.1,2,3.3,4.9,3.3,8.1c0,4.6-2.5,8.6-6.2,9.9c-2.1,0.8-4.5,1.1-7.9,1.1
				c-1.6,0-2.8-0.1-4.5-0.2c0-0.8,0-21,0-21.8C-63.2,304.2-62.6,304.2-62.6,304.2z"/>
			<path class="st1" d="M-61.4,305.8l0,0.4v18l0.4,0.1c1.4,0.2,2.2,0.2,3.3,0.2c4,0,6.6-0.9,8.2-2.8c1.4-1.6,2.2-3.8,2.2-6.2
				c0-3.8-2-7.1-5-8.6c-1.8-0.9-4-1.3-6.7-1.3L-61.4,305.8z M-59,306.6c2.5,0,4.6,0.4,6.3,1.2c2.7,1.3,4.5,4.3,4.5,7.8
				c0,2.2-0.7,4.2-2,5.6c-1.5,1.8-3.8,2.5-7.6,2.5c-0.9,0-1.7-0.1-2.8-0.2c0-0.7,0-16.1,0-16.9C-60.1,306.6-59,306.6-59,306.6z"/>
		</g>
		<g>
			<path class="st1" d="M-20,326.5h3.2l-9.6-23.3h-2.1l-9.7,23.3h3l2.9-7.2h9.3L-20,326.5z M-23.8,317h-7.4l3.7-9.3L-23.8,317z"/>
			<path class="st1" d="M-28.7,302.8L-38.8,327h4c0,0,2.7-6.7,2.9-7.2c0.5,0,8.2,0,8.7,0c0.2,0.5,2.9,7.2,2.9,7.2h4.1l-9.9-24.2
				H-28.7z M-26.6,303.7c0.2,0.5,8.8,21.3,9.2,22.5c-0.7,0-1.9,0-2.3,0c-0.2-0.5-2.9-7.2-2.9-7.2h-9.9c0,0-2.7,6.7-2.9,7.2
				c-0.4,0-1.4,0-2.1,0c0.5-1.1,9.1-22,9.4-22.5C-27.8,303.7-27,303.7-26.6,303.7z"/>
			<path class="st1" d="M-31.9,317.4h8.7l-4.3-10.9L-31.9,317.4z M-27.5,308.8c0.6,1.5,2.7,6.8,3.1,7.7c-1,0-5.2,0-6.1,0
				C-30.2,315.6-28.1,310.3-27.5,308.8z"/>
		</g>
		<g>
			<path class="st2" d="M-166.4,327.3l-9.8-15.1l0.6-1.5c3.8-0.5,6.3-3,6.3-6.2c0-4.3-2.9-5.2-6.4-5.2c-1.1,0-4.7,0.1-4.7,0.1
				l0,27.3h-3.8v-30c0,0,7.2-0.2,8.6-0.2c3.7,0,10.2,0.4,10.2,7.7c0,6-5.4,7.7-6.3,8.1l8.7,13.3L-166.4,327.3"/>
			<path class="st1" d="M-184.1,296.6l-0.2,0V327h4.2c0,0,0-26.9,0-27.3c0.4,0,4.5-0.1,4.5-0.1c4.4,0,6.2,1.5,6.2,5
				c0,3.2-2.4,5.5-6.1,6l-0.1,0l-0.7,1.7l9.8,15.2c0,0,0.1-0.1,0.2-0.1c0,0.1,0.1,0.2,0.1,0.2l3.8-1.7c0,0-8.5-12.9-8.7-13.3
				c0.1,0,0.1-0.1,0.1-0.1c1.5-0.6,6-2.6,6-8.2c0-7.9-7.6-7.9-10.5-7.9C-176.9,296.4-184.1,296.6-184.1,296.6z M-175.5,296.8
				c4.7,0,10,0.9,10,7.5c0,5.3-4.4,7.1-5.8,7.8l-0.6,0.3l0.1,0.2c0,0,8.3,12.7,8.6,13.1c-0.4,0.2-2.9,1.3-3.1,1.4
				c-0.2-0.3-9.5-14.7-9.6-14.8c0.1-0.2,0.5-1.1,0.6-1.3c3.8-0.5,6.3-3.1,6.3-6.4c0-4.9-3.8-5.4-6.7-5.4l-4.9,0.1l0,0.2
				c0,0,0,26.7,0,27.1c-0.4,0-3,0-3.4,0c0-0.4,0-29.2,0-29.6C-182.8,297-176.8,296.8-175.5,296.8z"/>
		</g>
	</g>
	<path class="st1" d="M-16.1,300.7c1.2,0,2.2,0.9,2.2,2.1c0,1.2-1,2.2-2.2,2.2c-1.2,0-2.2-0.9-2.2-2.2
		C-18.3,301.6-17.3,300.7-16.1,300.7 M-16.1,301c-1,0-1.8,0.8-1.8,1.8c0,1,0.8,1.8,1.8,1.8c1,0,1.8-0.8,1.8-1.8
		C-14.4,301.8-15.1,301-16.1,301z M-16.6,304H-17v-2.5h0.9c0.6,0,0.9,0.2,0.9,0.7c0,0.4-0.3,0.6-0.6,0.7l0.7,1.1h-0.4l-0.7-1.1h-0.4
		V304z M-16.6,302.7h0.5c0.5,0,0.6-0.1,0.6-0.4c0-0.2-0.1-0.4-0.5-0.4h-0.5V302.7z"/>
</g>
<g>
	<path class="st1" d="M-98.9,246.6c2.9,0.8,6,2.9,7.1,6.9c0.9,3.5-0.5,6.1-2.2,7.6c-1.7,1.6-3.9,2.3-3.9,2.3
		c1.1,0.2,3.4,0.9,4.9,2.9c1.3,1.8,2,4.8,2.7,7.9c0.7,3.2,2.9,3.6,4.3,3.5c0.8-0.1,1.5-0.3,2.3-1.3c2.3-2.8,4.2-7.3,4.2-12.2
		c0-10.9-8.8-19.7-19.7-19.7c-2.9,0-5.6,0.6-8.1,1.8C-105.4,245.8-102.4,245.7-98.9,246.6"/>
	<path class="st1" d="M-92.6,276.4c-1.8-2-1.1-6.2-2.6-9.2c-1.5-3-5.1-3.9-5.1-3.9c5.7-2.2,5.9-7.7,4.6-11c-1.6-3.9-5.2-5.4-8.6-5.7
		c-2.9-0.3-4.8,0.7-5.3,1c-0.4,0.2-0.7,0.4-0.9,0.5c3-0.9,5.8-0.5,8.5,1.6c2.1,1.7,3.4,4.9,2.4,8.4c-0.9,3.1-5.8,5-5.8,5
		c2.2,0.3,5.4,2.3,6.2,6.5c0.7,3.3,2.1,6.3,3.3,7.6c2.9,3.2,7.1,2.6,8.6,2c0.6-0.2,1.5-0.7,2-1.2C-89.3,279.2-91.5,277.6-92.6,276.4
		"/>
	<path class="st1" d="M-97.3,279.4c-4.6-2.7-4.3-8.4-5.6-11.2c-1.7-3.8-4.5-5-4.5-5c0.8-0.3,5.9-3.7,4.4-9.1
		c-1.9-6.9-8.2-5.2-9.5-4.2c-3.4,2.5-6.2,8.5-6.2,14.2c0,10.9,8.8,19.7,19.7,19.7c4.1,0,7.9-1.3,11.1-3.4
		C-90.5,281.2-94.4,281.1-97.3,279.4"/>
</g>
</svg>
