<?xml version="1.0" encoding="utf-8"?>
<!-- Generator: Adobe Illustrator 19.1.0, SVG Export Plug-In . SVG Version: 6.00 Build 0)  -->
<!DOCTYPE svg PUBLIC "-//W3C//DTD SVG 1.1//EN" "http://www.w3.org/Graphics/SVG/1.1/DTD/svg11.dtd">
<svg version="1.1" id="Ramada" xmlns="http://www.w3.org/2000/svg" xmlns:xlink="http://www.w3.org/1999/xlink" x="0px" y="0px"
	 viewBox="-99 -50 200 200" style="enable-background:new -99 -50 200 200;" xml:space="preserve">
<style type="text/css">
	.st0{fill:#C6093B;}
</style>
<path class="st0" d="M1.3-31.6c10.3,2.7,21.1,10.1,24.8,24.1c3.2,12.2-1.9,21.3-7.6,26.7c-5.8,5.5-13.6,7.9-13.6,7.9
	c3.8,0.5,12,3.1,17,10.2c4.6,6.5,7.2,17,9.6,27.6c2.6,11.2,10.1,12.6,15.2,12.2c2.7-0.2,5.4-1.2,8.1-4.5C62.8,63,69.7,47.1,69.7,30
	c0-38.1-30.9-69-69-69c-10.1,0-19.7,2.3-28.4,6.2C-21.5-34.2-11-34.8,1.3-31.6"/>
<path class="st0" d="M23.6,73.2c-6.2-7.1-3.9-21.8-9.2-32.4C9.1,30.3-3.7,27.1-3.7,27.1C16.2,19.3,17.1,0,12.5-11.3
	C7-24.9-5.6-30.1-17.8-31.3c-10.3-1-16.9,2.5-18.6,3.4c-1.2,0.6-2.4,1.4-3.1,1.9c10.5-3.3,20.4-1.7,29.7,5.8
	c7.5,6,11.9,17.1,8.3,29.6C-4.6,20.2-21.7,27-21.7,27c7.8,0.9,18.9,8.1,21.8,22.7c2.3,11.5,7.4,22.1,11.5,26.7
	c10.2,11.4,24.8,9.2,30.3,7.1c2.1-0.8,5.3-2.5,6.9-4.2C35.2,83.1,27.3,77.5,23.6,73.2"/>
<path class="st0" d="M6.8,83.8C-9.5,74.3-8.3,54.4-12.8,44.5c-6-13.3-16-17.4-16-17.4c2.9-1.2,20.9-13.1,15.5-32
	C-20.1-29-41.9-23.3-46.5-19.8C-58.4-11-68.3,10.2-68.3,30c0,38.1,30.9,69,69,69c14.4,0,27.8-4.4,38.8-12
	C30.8,90,17.1,89.8,6.8,83.8"/>
<g>
	<path class="st0" d="M-45.1,112.4l-9.5,22.9h3.7c0,0,2.6-6.4,2.8-6.8c0.5,0,7.8,0,8.3,0c0.2,0.5,2.7,6.8,2.7,6.8h3.9l-9.4-22.9
		H-45.1z M-41.1,125.3c-0.9,0-4.9,0-5.8,0c0.3-0.9,2.4-5.9,2.9-7.3C-43.4,119.5-41.4,124.5-41.1,125.3z"/>
	<path class="st0" d="M-6,112.8c0,0-7.1,15.5-7.8,16.9c-0.7-1.5-7.8-16.9-7.8-16.9h-2.6l-2.7,22.4h3.5c0,0,1.4-12.1,1.6-14.5
		c1,2.2,6.7,14.5,6.7,14.5h2.3c0,0,5.8-12.5,6.8-14.8c0.3,2.4,1.5,14.8,1.5,14.8h3.7l-2.6-22.4H-6z"/>
	<path class="st0" d="M15,112.4l-9.5,22.9h3.7c0,0,2.6-6.4,2.8-6.8c0.5,0,7.8,0,8.3,0c0.2,0.5,2.7,6.8,2.7,6.8h3.9l-9.4-22.9H15z
		 M19,125.3c-0.9,0-4.9,0-5.8,0c0.3-0.9,2.4-5.9,2.9-7.3C16.7,119.5,18.7,124.5,19,125.3z"/>
	<path class="st0" d="M40.2,112.7c-0.8,0-2.4,0-4.1,0.1c0,0-1.3,0.1-1.3,0.1l-0.4,0v22.1l0.4,0c1.9,0.2,3.1,0.2,4.7,0.2
		c3.3,0,5.6-0.3,7.7-1.1c3.8-1.4,6.4-5.5,6.4-10.2c0-3.2-1.2-6.2-3.3-8.2C48.1,113.8,44.6,112.7,40.2,112.7z M38.1,116
		c0.5,0,1.4-0.1,1.4-0.1c2.4,0,4.4,0.4,5.9,1.1c2.6,1.2,4.3,4.1,4.3,7.4c0,2-0.7,3.9-1.9,5.3c-1.4,1.7-3.6,2.4-7.2,2.4
		c-0.9,0-1.6-0.1-2.6-0.2C38.1,131.3,38.1,116.7,38.1,116z"/>
	<path class="st0" d="M70.7,112.4h-2.5l-9.5,22.9h3.7c0,0,2.6-6.4,2.8-6.8c0.5,0,7.8,0,8.3,0c0.2,0.5,2.7,6.8,2.7,6.8h3.9
		L70.7,112.4z M72.2,125.3c-0.9,0-4.9,0-5.8,0c0.3-0.9,2.4-5.9,2.9-7.3C69.9,119.5,71.9,124.5,72.2,125.3z"/>
	<path class="st0" d="M-66.5,121.5c1.4-0.6,5.7-2.4,5.7-7.7c0-7.5-7.2-7.5-9.9-7.5c-1.3,0-8.1,0.2-8.1,0.2l-0.2,0v28.8h4
		c0,0,0-25.5,0-25.9c0.4,0,4.3-0.1,4.3-0.1c4.1,0,5.9,1.4,5.9,4.7c0,3-2.3,5.2-5.8,5.6l-0.1,0l-0.7,1.6l9.3,14.4
		c0,0,0.1-0.1,0.2-0.1c0,0.1,0.1,0.2,0.1,0.2l3.6-1.6c0,0-8-12.2-8.3-12.6C-66.5,121.5-66.5,121.5-66.5,121.5z"/>
</g>
</svg>
