<?xml version="1.0" encoding="utf-8"?>
<!-- Generator: Adobe Illustrator 18.1.1, SVG Export Plug-In . SVG Version: 6.00 Build 0)  -->
<!DOCTYPE svg PUBLIC "-//W3C//DTD SVG 1.1//EN" "http://www.w3.org/Graphics/SVG/1.1/DTD/svg11.dtd">
<svg version="1.1" id="Layer_1" xmlns="http://www.w3.org/2000/svg" xmlns:xlink="http://www.w3.org/1999/xlink" x="0px" y="0px"
	 viewBox="0 0 800 250" enable-background="new 0 0 800 250" xml:space="preserve">
<g>
	<path fill="#B22028" d="M158.9,118.8h78.2c-3.5-41.2-36.6-74.4-78.2-77.9V118.8z"/>
	<path fill="#F3E9E9" d="M153.2,212.8c-48.2,0-87.5-39.3-87.5-87.9s39.3-87.9,87.9-87.9s87.9,39.3,87.9,87.9
		S201.7,212.8,153.2,212.8z M153.2,44.8c-44.3,0-80.6,36.2-80.6,80.6s36.2,80.2,80.6,80.2s80.6-36.2,80.6-80.6
		S197.9,44.8,153.2,44.8z"/>
	<g>
		<path fill="#F3E9E9" d="M368.6,124.2h-6.2v28.1c0,3.9-0.8,6.2-2.3,8.1c-1.5,1.5-3.9,2.7-6.2,2.7c-2.7,0-5-0.8-6.6-2.7
			c-1.5-1.9-2.3-4.2-2.3-7.7V85.2c0-3.9,0.8-6.6,2.3-8.1c1.5-1.5,4.2-2.3,8.1-2.3H384c4.2,0,7.3,0.4,10,0.4c2.7,0.4,5.4,1.2,7.7,2.3
			c2.7,1.2,5,2.7,7.3,5s3.9,4.6,5,7.3c1.2,2.7,1.5,5.8,1.5,8.9c0,6.6-1.9,11.6-5.4,15.4c-3.5,3.9-9.3,6.6-16.6,8.1
			c3.1,1.5,5.8,4.2,8.9,7.3c2.7,3.1,5.4,6.9,7.7,10.4c2.3,3.5,4.2,6.9,5,9.6c1.5,3.1,1.9,5,1.9,5.8c0,0.8-0.4,2.3-1.2,3.5
			c-0.8,1.2-1.5,1.9-3.1,2.7c-1.5,0.4-2.7,1.2-4.2,1.2c-1.9,0-3.5-0.4-5-1.5c-1.5-0.8-2.3-2.3-3.5-3.5c-1.2-1.5-2.3-3.5-3.9-6.2
			l-6.9-11.6c-2.3-4.2-5-7.7-6.9-9.6c-1.9-2.3-4.2-3.9-5.8-4.6C374.4,124.6,371.7,124.2,368.6,124.2z M378.6,87.9h-16.2v23.9h15.8
			c4.2,0,7.7-0.4,10.4-1.2c3.1-0.8,5-1.9,6.6-3.9c1.5-1.5,2.3-4.2,2.3-7.3c0-2.3-0.4-4.6-1.9-6.2c-1.2-1.9-3.1-3.1-5-4.2
			C389,87.9,384.8,87.9,378.6,87.9z"/>
		<path fill="#F3E9E9" d="M489.3,87.9h-39.3v21.2h36.2c2.7,0,4.6,0.4,5.8,1.9c1.5,1.2,1.9,2.7,1.9,5c0,1.9-0.4,3.5-1.9,5
			c-1.5,1.5-3.1,1.9-5.8,1.9h-36.2v24.7h40.9c2.7,0,5,0.4,6.2,1.9c1.5,1.5,2.3,3.1,2.3,5c0,1.9-0.8,3.9-2.3,5
			c-1.5,1.5-3.5,1.9-6.2,1.9H443c-3.9,0-6.6-0.8-8.1-2.3c-1.5-1.5-2.3-4.2-2.3-8.1V85.6c0-2.3,0.4-4.6,1.2-6.2
			c0.8-1.5,1.9-2.7,3.5-3.5s3.5-1.2,6.2-1.2h46.3c2.7,0,5,0.4,6.2,1.9c1.5,1.5,2.3,3.1,2.3,5c0,2.3-0.8,3.9-2.3,5
			C494.3,87.6,492.3,87.9,489.3,87.9z"/>
		<path fill="#F3E9E9" d="M586.8,133.8c0,2.7-0.4,5.8-2.3,8.9c-1.5,3.1-3.5,6.2-6.6,9.6c-3.1,3.1-6.6,5.8-11.2,7.7
			s-9.6,3.1-15.8,3.1c-4.6,0-8.9-0.4-12.3-1.5c-3.9-0.8-6.9-2.3-10.4-4.2c-3.1-1.9-5.8-4.2-8.5-7.3c-2.3-2.7-4.2-5.8-5.8-9.3
			c-1.5-3.1-2.7-6.9-3.5-10.8c-0.8-3.9-1.2-7.7-1.2-12.3c0-6.9,1.2-13.5,3.1-18.9c1.9-5.4,5-10.4,8.9-14.3s8.1-6.9,13.5-8.9
			c5-2.3,10.4-3.1,16.2-3.1c6.9,0,13.5,1.5,18.9,4.2s9.6,6.2,12.3,10.4c3.1,4.2,4.2,8.1,4.2,11.6c0,1.9-0.8,3.9-2.3,5.4
			s-3.1,2.3-5,2.3c-2.3,0-3.9-0.4-5-1.5c-1.2-1.2-2.3-3.1-3.9-5.4c-2.3-4.2-5-7.7-8.1-9.6c-3.1-2.3-6.9-3.1-11.6-3.1
			c-7.3,0-13.1,2.7-17.3,8.1c-4.2,5.4-6.6,13.5-6.6,23.5c0,6.9,0.8,12.3,2.7,17c1.9,4.2,4.6,7.7,8.1,10c3.5,2.3,7.7,3.1,12.3,3.1
			c5,0,9.3-1.5,12.7-3.9s6.2-6.2,7.7-11.2c0.8-2.3,1.5-4.2,2.7-5.8s3.1-2.3,5.4-2.3s3.9,0.8,5.4,2.3
			C586.4,130,586.8,131.9,586.8,133.8z"/>
		<path fill="#F3E9E9" d="M641.1,73.3c8.9,0,17,1.9,23.1,5.4c6.6,3.5,11.6,8.9,14.6,15.4c3.1,6.9,5,14.6,5,23.5
			c0,6.9-0.8,12.7-2.7,18.1s-4.6,10.4-8.1,14.3c-3.5,4.2-8.1,6.9-13.5,9.3c-5,2.3-11.6,3.1-18.1,3.1c-6.9,0-12.7-1.2-18.1-3.1
			c-5.4-2.3-9.6-5-13.5-9.3c-3.5-4.2-6.2-8.9-8.1-14.3s-2.7-11.6-2.7-18.1c0-6.9,1.2-12.7,3.1-18.5c1.9-5.4,4.6-10.4,8.5-14.3
			c3.5-3.9,8.1-6.9,13.5-8.9C628.4,74.1,634.6,73.3,641.1,73.3z M665.8,117.6c0-6.2-1.2-11.9-3.1-16.6c-2.3-4.6-5-8.1-8.9-10.4
			c-3.9-2.3-8.1-3.5-13.1-3.5c-3.5,0-6.9,0.4-9.6,1.9c-3.1,1.5-5.4,3.1-7.7,5.8c-2.3,2.3-3.9,5.8-5,9.6c-1.5,3.9-1.9,8.5-1.9,13.5
			c0,5,0.4,9.6,1.9,13.5c1.5,4.2,3.1,7.3,5,10c2.3,2.7,5,4.6,7.7,5.8c3.1,1.5,6.2,1.9,9.6,1.9c4.6,0,8.9-1.2,12.3-3.1
			c3.9-2.3,6.9-5.8,8.9-10.4C665,130.3,665.8,124.6,665.8,117.6z"/>
		<path fill="#F3E9E9" d="M721.7,83.7l33.9,50.9V83.3c0-3.1,0.8-5.8,2.3-7.7c1.5-1.5,3.1-2.3,5.8-2.3c2.7,0,4.6,0.8,5.8,2.3
			c1.5,1.5,2.3,4.2,2.3,7.7v68.2c0,7.7-3.1,11.6-9.6,11.6c-1.5,0-3.1-0.4-4.2-0.4c-1.5-0.4-2.3-1.2-3.5-2.3
			c-1.2-1.2-2.3-2.3-3.1-3.5c-0.8-1.5-1.9-2.7-2.7-4.2l-33.1-50.5v50.9c0,3.1-0.8,5.8-2.3,7.7c-1.5,1.5-3.5,2.3-5.8,2.3
			c-2.3,0-4.2-0.8-5.8-2.3s-2.3-4.2-2.3-7.7V86c0-2.7,0.4-5,0.8-6.9c0.8-1.9,1.9-3.1,3.9-4.2c1.5-1.2,3.5-1.5,5.8-1.5
			c1.5,0,3.1,0.4,4.2,0.8s2.3,1.2,3.1,2.3c0.8,0.8,1.5,1.9,2.7,3.1C719.7,80.6,720.9,82.2,721.7,83.7z"/>
	</g>
	<path fill="#F3E9E9" d="M271.5,131.9H35.2c-3.9,0-6.9-3.1-6.9-6.9s3.1-6.9,6.9-6.9h236.7c3.9,0,6.9,3.1,6.9,6.9
		C278.8,128.8,275.3,131.9,271.5,131.9z"/>
	<path fill="#F3E9E9" d="M153.2,246c-3.9,0-6.9-3.1-6.9-6.9V10.9c0-3.9,3.1-6.9,6.9-6.9s6.9,3.1,6.9,6.9V239
		C160.5,243.3,157.4,246,153.2,246z"/>
	<path fill="#F3E9E9" d="M153.2,230.9c-58.2,0-106-47.4-106-106S95,19,153.2,19s106,47.4,106,106S211.7,230.9,153.2,230.9z
		 M153.2,26.3c-54.7,0-98.7,44.3-98.7,98.7S98.8,224,153.2,224s98.7-44.3,98.7-98.7S207.9,26.3,153.2,26.3z"/>
</g>
</svg>
