<?xml version="1.0" encoding="utf-8"?>
<!-- Generator: Adobe Illustrator 18.1.1, SVG Export Plug-In . SVG Version: 6.00 Build 0)  -->
<!DOCTYPE svg PUBLIC "-//W3C//DTD SVG 1.1//EN" "http://www.w3.org/Graphics/SVG/1.1/DTD/svg11.dtd">
<svg version="1.1" id="Stock_Exchange" xmlns="http://www.w3.org/2000/svg" xmlns:xlink="http://www.w3.org/1999/xlink" x="0px"
	 y="0px" viewBox="0 0 200 200" enable-background="new 0 0 200 200" xml:space="preserve">
<g>
	<path fill="#F15A29" d="M191.1,120.6c0-0.5,0.5-1,1-1h4.6c0.2,0,0.8,0.4,0.8,0.6c0,0.1,0,0.1,0,0.1c0,0.6-0.8,0.8-1.3,0.8h-3.5
		l0.1,9.7l3.2-0.5h0.1c1.4,0,0.9,1.3-0.3,1.5l-2.9,0.4l-0.1,7.7c0.3,0,1.3,0,1.5,0c2,0,3.4-0.7,3.5,0.7c0.1,1-6.5,0.9-6.5,0.3
		L191.1,120.6z"/>
	<g>
		<path fill="#6D707C" d="M47.9,163c0,0,2.2,32.7,30.1,32.7s34.2-19,34.2-34.6"/>
		<path fill="#4A4B55" d="M67,34.9c0,0,5.9,83.6,4.8,100s-4.2,18.6-4.2,18.6l-5.3,0.8c-8.6,1.7-14.2,4.5-14.2,7.7
			c0,5.1,14.4,9.3,32.1,9.3c17.8,0,32.1-4.2,32.1-9.3c0-3.2-5.6-6-14.2-7.7l-5.6-1.2c-5.6-0.5-5.3-8.2-7.8-18.2
			c-2.1-8.5-2.6-88.8-0.7-99.2c1.9-10.4,0.4-24.5-8.9-24.5S67,34.9,67,34.9z"/>
		<path fill="#F15A29" d="M3,138.4c1.1,0.2,0.9,1.6,2.1,1.8c1.9,0.3,2.3-1,2.6-2.6c0.5-3.3-1.1-5.8-2.8-8.6c-0.8-1.3-1.3-2.4-1-4
			c0.4-2.3,1.5-3.9,4-3.9c0.2,0,0.4,0,0.6,0c0.8,0.1,1.3,0.3,1.2,1.1c-0.3,1.4-3.4-1-4,3.1c-0.3,1.9,0.4,2.6,1.4,4.3
			c1.6,2.7,2.9,5.1,2.4,8.3c-0.4,2.4-1.4,3.8-3.8,3.8c-0.2,0-0.5,0-0.7,0c-1-0.2-2.8-1.2-2.8-2.4c0-0.1,0-0.1,0-0.2
			C2.2,138.8,2.6,138.4,3,138.4z"/>
		<path fill="#F15A29" d="M18.3,120.8c-1.8,0.1-2.6,0.1-2.7-0.4c0.1-1,0.1-1.3,3.1-1.2h2.5c0.6,0,1.7,0.1,1.7,1
			c0,0.3-0.3,0.6-0.6,0.6h-2.5l0.6,18.6c0,0.3-0.6,0.4-0.8,0.4c-0.2,0-0.8-0.1-0.8-0.4L18.3,120.8z"/>
		<path fill="#F15A29" d="M32.8,119c5.2,0.6,4.5,13.1,4.2,17c-0.2,2.1-1.3,5.9-4.2,5.9c-5.2,0-5.4-8.9-5.4-12.3
			C27.3,125.8,27.6,119,32.8,119z M29,129.4c0,8.6,1.6,10.9,3.7,10.9c2.9,0,2.9-7.4,2.9-9.3v-0.1c0-2.3-0.6-10.5-3.4-10.5
			c-2.2,0-3.1,4.9-3.1,6.4C29,127.8,29,128.6,29,129.4z"/>
		<path fill="#F15A29" d="M50.4,120.4c0,1-1.7,0.8-2.1,0.8h-0.2c-2.8,0-4.1,5.9-4.1,9.2c0,3.8,0.2,6.4,2.8,8.6
			c1.3,1.1,3.2,0,3.6,0.8c0.6,1-0.5,1.4-1.4,1.4c-6.7-0.1-7.7-9-6.3-14.7c0.7-3,2.5-7.1,6.3-7.1C49.6,119.3,50.4,119.7,50.4,120.4z"
			/>
		<path fill="#F15A29" d="M55.3,119.5c0-0.5,0.4-0.9,0.8-0.9c0.6,0,0.9,0.4,0.9,1.1l0.3,9.8c1.8-3.5,3.2-6.6,3.9-9.1
			c0.2-0.8,0.3-2,1.3-2c0.4,0,1.2,0.2,0.8,1.5l-4.7,11l5.5,10.2c0.3,0.5,0,1.3-0.7,1.3c-0.4,0-0.5,0-0.8-0.4c-1.6-3-3.2-6.8-5.2-9.9
			v0.2c0,1.3,0.4,6.2,0.4,9.8c-0.3,0.8-1.6,1.1-1.6-0.1L55.3,119.5z"/>
		<path fill="#F15A29" d="M92.9,138.5v-5.8c0-4.2-0.4-6.9-0.4-11.1v-1.5c4.7-0.4,5.2-0.1,5.2,0.6c0,0.2-0.1,0.6-0.4,0.7h-3.2
			c-0.2,0-0.2,0.1-0.2,0.2c0,3.1,0.3,5.4,0.5,8.6c0.4,0.1,2.9,0,3.4,0c1,0,1.7,1.7,0.3,1.7h-3.7l0.1,6.9c0.7,0.2,4.4-0.6,4.4,0.7
			c0,0.4-0.2,0.7-0.6,0.8h-0.1c-1.1,0.1-5.2,0.4-5.3-0.4L92.9,138.5z"/>
		<path fill="#F15A29" d="M107.6,141.4c-0.1,0.4-0.4,0.8-0.9,0.8h-0.1c-0.4,0-0.7-0.1-0.7-0.5c0-0.3,0.1-0.6,0.1-0.9
			c0.5-1.7,2.4-9.3,2.8-10.7l-4-8.9c0-0.1-0.1-0.3-0.1-0.4c0-0.5,0.5-0.6,1-0.6c0.4,0,0.7,0.2,0.9,0.7c0.9,1.9,1.7,4.1,2.4,5.7
			l0.1,0.4c0,0.1,0.1,0.3,0.2,0.4c0.6-2.3,1.5-6.6,2.1-8.4c0.1-0.2,0.4-0.2,0.6-0.2h0.1c0.6,0,1.1,0.1,1.1,0.7
			c-0.8,3-1.9,7.1-2.8,10.3c0.4,1,2.2,5.5,2.6,6.5l2.1,4.5c0.1,0.3,0.2,0.4,0.2,0.7c0,0.4-0.6,0.8-1,0.8c-0.3,0-0.5-0.2-0.7-0.5
			c-3.7-8.7-3.9-9.3-4-9.4C109.1,135.3,108.3,138.6,107.6,141.4z"/>
		<path fill="#F15A29" d="M126.8,120.4c0,1-1.7,0.8-2.1,0.8h-0.2c-2.8,0-4.1,5.9-4.1,9.2c0,3.8,0.2,6.4,2.8,8.6
			c1.3,1.1,3.2,0,3.6,0.8c0.6,1-0.5,1.4-1.4,1.4c-6.7-0.1-7.7-9-6.3-14.7c0.7-3,2.5-7.1,6.3-7.1
			C126.1,119.3,126.8,119.7,126.8,120.4z"/>
		<path fill="#F15A29" d="M133.9,133.4v8.3c0,1.3-1.6,0.8-1.7,0.4c0-1.1,0.1-5.9,0.1-6.9c0-2.3,0.2-14.1,0.2-16.4
			c0.2-0.2,0.5-0.2,0.8-0.2c0.4,0,0.6,0.3,0.9,0.6c0,2.8-0.3,6.8-0.3,9.8c0,0.4,0,2.3,0,2.7c0.2,0.3,0.4,0.2,0.7,0.2
			c1.1,0,2.2,0,3.3,0.1c0.2-3.3,0.4-9,0.3-12.8V119c0-0.4,0.4-0.6,0.8-0.6c0.4,0,0.8,0.3,1,0.6c0,0.6-0.1,2.5-0.1,3.1
			c-0.4,13.5,0.3,20.3-0.6,20.3c-1,0-1-1.2-1-3.2c0-0.5-0.1-5.3-0.1-5.8H133.9z"/>
		<path fill="#F15A29" d="M148.1,136.3l-0.2,0.2l-0.5,3.3c-0.1,0.4,0,1.7-0.9,1.7c-0.4,0-0.6-0.8-0.6-1.1c3-21.3,3.1-21.3,3.1-21.3
			c0.1-0.6,0.4-1.4,1.1-1.4c0.3,0,0.7,0.1,0.9,0.4l0.2,0.6c1.7,6.7,2.5,13.6,3.3,20.5l0.2,1.9c0,0,0,0,0,0.1
			c-0.2,0.6-0.3,0.8-0.9,0.8h-0.1c-0.2,0-0.5,0-0.5-0.2l-0.7-5.6H148.1z M148.5,134.4l3.7,0.1l-2-13.7L148.5,134.4z"/>
		<path fill="#F15A29" d="M160.9,121.1c-0.1-1.2,1.6-1.9,2.2-0.2l6,16.2c0-1.3,0.3-8.5,0.4-11.4c0.1-1.8,0-3.5,0.4-5.2
			c0-0.3,0.3-0.3,0.8-0.3c0.7,0,0.8,0.1,0.7,0.7c-0.1,3-0.5,6.1-0.6,9.1c-0.1,1.7-0.4,9.8-0.4,11.5c-0.2,0.6-1.1,0.3-1.3-0.2
			c-0.3-0.6-0.5-1.2-6.7-17.8l-0.2,18c0,0.9-1.5,0.8-1.5,0.2L160.9,121.1z"/>
		<path fill="#F15A29" d="M176.1,130.9c0-3.7,0.4-11.2,5.4-11.4l0.2,0c1.1,0,3.3,0.7,3.3,1.8c0,0.1,0,0.2-0.1,0.4
			c-0.6,1.4-1.6-0.6-3.3-0.9h-0.1c-2.7,0.4-3.7,4-3.7,8.9v0.6l0.1,3.2c0.1,2,0.7,6.6,3.4,6.6h0.1c1.9-0.1,2.2-4.1,2.3-5.5
			c0.1-1,0.3-2,0.2-3.1c-0.1-1.8-3.3,0.1-3.4-1.4c0-0.7,0.8-0.8,1.3-0.8l0.5,0c0.7,0,3.2-0.1,3.2,1.1v0.6c0,0.9-0.3,4.2-0.3,4.6
			c-0.3,2.6-0.9,5.8-4,6h-0.2c-4.5,0-4.8-7.1-4.8-10.3V130.9z"/>
		<rect x="2.6" y="80.9" fill="#F15A29" width="102.2" height="26.3"/>
		<g>
			<path fill="#FFFFFF" d="M9.4,86.4c-1.3,0.1-1.8,0.1-1.9-0.3c0-0.7,0-0.9,2.2-0.8h1.7c0.5,0,1.2,0.1,1.2,0.7
				c0,0.2-0.2,0.4-0.4,0.4h-1.7l0.4,13c0,0.2-0.4,0.3-0.5,0.3s-0.5-0.1-0.5-0.3L9.4,86.4z"/>
			<path fill="#FFFFFF" d="M20.7,101C20.7,101,20.7,101,20.7,101c-0.1,0.5-0.2,0.9-0.7,0.9c-0.3,0-0.3,0-0.5-0.2l-0.3-1.4
				c-0.6-3.7-1.1-7.4-1.7-11.1c-0.2-0.8-0.4-1.7-0.7-2.6c0-0.1,0-0.1,0-0.1c0-0.6,1.2-0.7,1.3-0.2c0.6,2.8,1.2,6.6,1.6,9.4l0.4,2.3
				c0.4-1.6,0.6-3.2,0.8-4.7c0-0.3,0.3-0.6,0.7-0.6c0.2,0,0.5,0,0.6,0.2l2.3,5.7c0.1-3.6,0.5-9.7,0.7-12.9c0.2-0.5,1.1-0.6,1.2,0.1
				c0.1,0.7-0.2,2-0.2,2.7c-0.3,4.4-0.4,8.7-0.6,13c-0.2,0.2-0.1,0.4-0.6,0.5h-0.1c-0.5,0-0.5-0.4-0.7-0.9l-2.4-6.3
				C21.5,97.5,21,99.1,20.7,101z"/>
			<path fill="#FFFFFF" d="M31.1,86.1c0.1-0.4,0.2-0.4,0.7-0.4c0.6,0,0.6,0.3,0.6,0.9c0,0.1,0,0.3,0,0.4l-0.6,14
				c0,0.9-1.2,1-1.2,0.4L31.1,86.1z"/>
			<path fill="#FFFFFF" d="M36.7,86.6c0-0.8,1.1-1.3,1.5-0.1l4.2,11.4c0-0.9,0.2-6,0.3-8c0.1-1.2,0-2.5,0.2-3.6
				c0-0.2,0.2-0.2,0.5-0.2c0.5,0,0.5,0,0.5,0.5c-0.1,2.1-0.4,4.3-0.5,6.4c0,1.2-0.2,6.9-0.2,8.1c-0.1,0.4-0.8,0.2-0.9-0.2
				c-0.2-0.4-0.4-0.8-4.7-12.5l-0.1,12.6c0,0.6-1,0.6-1,0.1L36.7,86.6z"/>
			<path fill="#FFFFFF" d="M62.1,86.1c0,0.7-1.2,0.6-1.5,0.6h-0.1c-2,0-2.9,4.1-2.9,6.4c0,2.6,0.2,4.5,2,6c0.9,0.7,2.2,0,2.5,0.5
				c0.4,0.7-0.4,1-1,1c-4.7-0.1-5.4-6.3-4.4-10.3c0.5-2.1,1.8-5,4.4-5C61.6,85.4,62.1,85.6,62.1,86.1z"/>
			<path fill="#FFFFFF" d="M66.8,86.1c0.1-0.4,0.2-0.4,0.7-0.4c0.6,0,0.6,0.3,0.6,0.9c0,0.1,0,0.3,0,0.4l-0.6,14
				c0,0.9-1.2,1-1.2,0.4L66.8,86.1z"/>
			<path fill="#FFFFFF" d="M73.1,86.4c-1.3,0.1-1.8,0.1-1.9-0.3c0-0.7,0-0.9,2.2-0.8h1.7c0.5,0,1.2,0.1,1.2,0.7
				c0,0.2-0.2,0.4-0.4,0.4h-1.7l0.4,13c0,0.2-0.4,0.3-0.5,0.3s-0.5-0.1-0.5-0.3L73.1,86.4z"/>
			<path fill="#FFFFFF" d="M80.3,86.1c0.1-0.4,0.2-0.4,0.7-0.4c0.6,0,0.6,0.3,0.6,0.9c0,0.1,0,0.3,0,0.4l-0.6,14
				c0,0.9-1.2,1-1.2,0.4L80.3,86.1z"/>
			<path fill="#FFFFFF" d="M85.7,86.7c0-0.4,0.3-0.7,0.7-0.7h3.2c0.1,0,0.5,0.3,0.6,0.4c0,0,0,0.1,0,0.1c0,0.4-0.6,0.6-0.9,0.6h-2.5
				l0.1,6.8l2.2-0.3h0.1c1,0,0.6,0.9-0.2,1.1L87,95l-0.1,5.4c0.2,0,0.9,0,1.1,0c1.4,0,2.4-0.5,2.4,0.5c0,0.7-4.6,0.6-4.6,0.2
				L85.7,86.7z"/>
			<path fill="#FFFFFF" d="M94.7,97.8c0.8,0.2,0,2.1,1.1,2.6h0.1c1.2,0,1.5-1.6,1.5-2.4c0-1.1-0.1-2.3-0.6-3.4c-1-2.2-3-4.1-3-6.6
				c0-1.2,0.7-3.1,2.1-3.1c0.9,0,2.4,0.7,2.4,1.8c0,0.4-0.1,0.6-0.5,0.6c-0.8,0-0.6-1.2-1.7-1.2c-1,0-1.1,1.5-1.1,2.2
				c0,2.1,1.7,3.5,2.7,5.3c0.8,1.6,1.3,3.9,0.8,5.4c-0.3,1.1-1.3,2.5-2.5,2.5c-1.5,0-2-1.9-2-3.1C93.9,98,94.4,97.7,94.7,97.8z"/>
		</g>
		<ellipse fill="#4A4B55" cx="80.1" cy="162.2" rx="32.1" ry="9.2"/>
		<ellipse fill="#FBAB18" cx="80.2" cy="163.8" rx="28.4" ry="5.9"/>
	</g>
</g>
</svg>
