<?xml version="1.0" encoding="utf-8"?>
<!-- Generator: Adobe Illustrator 19.0.0, SVG Export Plug-In . SVG Version: 6.00 Build 0)  -->
<!DOCTYPE svg PUBLIC "-//W3C//DTD SVG 1.1//EN" "http://www.w3.org/Graphics/SVG/1.1/DTD/svg11.dtd">
<svg version="1.1" id="Layer_1" xmlns="http://www.w3.org/2000/svg" xmlns:xlink="http://www.w3.org/1999/xlink" x="0px" y="0px"
	 viewBox="0 0 800 250" enable-background="new 0 0 800 250" xml:space="preserve">
<g id="XMLID_75_">
	<path id="XMLID_76_" fill="#DEDCEE" d="M345,47.7h-15.4V218h-10.5V47.7h-15.7v-9.6h41.9L345,47.7z M396.6,38.1V218H386V113.1h-20.8
		V218H355V38.1h10.2v65.4H386V38.1H396.6z M451.4,103.5v9.6h-31.6v95.2h31.6v9.6h-41.9V38.1h41.9v9.6h-31.6v55.8H451.4z
		 M538.2,103.5v9.6h-31V218h-10.2V38.1h41.3v9.6h-31v55.8H538.2z M626.2,56.8v37.1c0,10.5-9.6,19.6-20.8,19.6h-10.2V218h-10.2V38.1
		h20.8C616.6,38.1,626.2,46.5,626.2,56.8L626.2,56.8z M615.7,56.8c0-4.8-4.5-9-10.5-9h-10.2v55.8h10.2c6,0,10.5-4.2,10.5-9.6V56.8z
		 M677.4,208.4v9.6h-41.9V38.1h10.2v170.3H677.4z M740.4,38.1V199c0,10.2-9.3,19-21.1,19c-11.8,0-21.1-8.1-21.1-19V38.1h10.5V199
		c0,5.1,4.5,9.6,10.5,9.6c5.7,0,10.2-4.5,10.2-9.6V38.1H740.4z M784.1,56.2v-0.6c0-5.1-4.5-9.3-10.5-9.3c-5.7,0-10.2,4.2-10.2,9.3
		v38.3c0,5.1,4.2,9.3,10.2,9.3c11.8,0,21.1,7.5,21.1,19v76.5c0,10.5-9.6,19-21.1,19c-11.2,0-20.8-7.8-20.8-19v-0.6h10.5v0.6
		c0,5.1,4.5,9.6,10.2,9.6c6,0,10.5-4.5,10.5-9.6v-76.2c0-5.1-4.5-9-10.2-9.6c-12.7-0.9-21.1-6.6-21.1-19.3V55.9
		c0-10.2,9.3-19,20.8-19c11.2,0,21.1,7.5,21.1,19v0.3H784.1z"/>
</g>
<g id="XMLID_72_">
	<path id="XMLID_73_" fill="#C0282D" d="M163.6,6.7c-35.3,0-66.9,15.4-88.7,39.8h140.3l-10.2,11c-5,5.4-5.1,5.5-9.5,12.2
		c-3.6,5.5-2.6,11.4-2.6,11.4l1.4,6.9h-39l4.8-9.7l-25.5,0.1l-17.1,42.1h22.1L151,95l39.7-0.1l-11.5,25.6h30.2l-15.3,35.9l-31,0.1
		l-12,26.8l-39.7,0.1l12-26.7l-21.6,0.1l-16.7,36.9c-2.2,4.8-5,9.1-8.4,13c21.7,23.2,52.5,37.7,86.8,37.7
		c65.6,0,118.8-53.2,118.8-118.8S229.2,6.7,163.6,6.7z"/>
</g>
<path id="XMLID_69_" fill="#DEDCEE" d="M200.7,126.3h-30.4l11.5-25.6l-27.1,0.1l-11.4,25.6H109l21.7-53.5l38.6-0.2l-4.8,9.7h22.7
	c0,0-1.6-8,3.4-15.7c5-7.7,5-7.5,11.4-14.4H40.3c0,0-7,4.4-7,11.2c0,6.8,6.1,9.6,6.1,9.6l53.7-0.2l-23.3,53.5
	c-23.7,8.9-40.5,24.5-50.4,46.8L8.2,198.3c-0.9,1.9-1.3,3.7-1.3,5.4c0,5,3.3,8.9,10,11.8c5.5,2.4,11.4,3.6,17.7,3.6
	c9.6,0,18.3-2.2,26-6.7c8.7-5,15.2-12,19.3-21.1L98.1,151l34.2-0.1l-12,26.7l27.1-0.1l12-26.8l30.9-0.1L200.7,126.3z M38.5,196.7
	c-1.4,2.7-3.4,4.1-6.2,4.1c-2.4,0-3.6-0.9-3.6-2.6c0-0.4,0.1-0.7,0.3-1l10.8-24.2c5.7-13,12-20.4,19-22.1
	C49.6,171.3,42.8,186.6,38.5,196.7z"/>
</svg>
