<?xml version="1.0" encoding="utf-8"?>
<!-- Generator: Adobe Illustrator 18.1.1, SVG Export Plug-In . SVG Version: 6.00 Build 0)  -->
<!DOCTYPE svg PUBLIC "-//W3C//DTD SVG 1.1//EN" "http://www.w3.org/Graphics/SVG/1.1/DTD/svg11.dtd">
<svg version="1.1" id="Layer_2" xmlns="http://www.w3.org/2000/svg" xmlns:xlink="http://www.w3.org/1999/xlink" x="0px" y="0px"
	 viewBox="0 0 800 250" enable-background="new 0 0 800 250" xml:space="preserve">
<g>
	<circle fill="#BDBEC0" cx="137.4" cy="128.9" r="110.2"/>
	<circle fill="#C1282D" cx="137.4" cy="128.9" r="106.1"/>
	<g>
		<path fill="#010101" d="M186.2,117.6h-28.8l10.9-24.3l-25.7,0.1l-10.8,24.2H99.3l20.6-50.7l36.6-0.2l-4.6,9.2h21.5
			c0,0-1.5-7.5,3.2-14.9c4.7-7.3,4.8-7.1,10.8-13.6H34.2c0,0-6.6,4.1-6.6,10.6c0,6.5,5.8,9.1,5.8,9.1l50.9-0.2l-22,50.7
			c-22.4,8.4-38.3,23.2-47.8,44.4L3.8,185.9c-0.8,1.8-1.2,3.5-1.2,5.1c0,4.7,3.2,8.5,9.5,11.2c5.2,2.3,10.8,3.4,16.8,3.4
			c9.1,0,17.3-2.1,24.6-6.3c8.3-4.7,14.4-11.4,18.3-20L89,141.1l32.4-0.1L110,166.3l25.7-0.1l11.4-25.4l29.3-0.1L186.2,117.6z
			 M32.5,184.4c-1.3,2.6-3.2,3.9-5.8,3.9c-2.3,0-3.4-0.8-3.4-2.4c0-0.3,0.1-0.7,0.2-1L33.7,162c5.4-12.3,11.4-19.3,18-21
			C43,160.4,36.6,174.8,32.5,184.4z"/>
		<path fill="#FFFFFF" d="M186.2,115.1h-28.8l2.3,3.6l10.9-24.3l1.6-3.6l-3.9,0l-25.7,0.1l-1.6,0l-0.7,1.5l-10.8,24.2l2.3-1.5H99.3
			l2.4,3.5l20.6-50.7l-2.3,1.6l36.6-0.2l-2.3-3.7l-4.6,9.2l-1.8,3.7h4.1h21.5h3.1l-0.6-3c0-0.1-1.2-6.7,2.9-13
			c4.3-6.6,4.5-6.8,9.3-12l1.2-1.3l4-4.3h-5.8H34.2h-0.7l-0.6,0.4c-0.3,0.2-7.8,5-7.8,12.7c0,8,7,11.3,7.3,11.4l0.5,0.2l0.6,0
			l50.9-0.2l-2.3-3.6l-22,50.7l1.4-1.4c-23,8.7-39.5,24-49.2,45.7c0,0-10.7,23.9-10.7,23.9C0.5,186.9,0,189,0,191
			c0,5.8,3.7,10.3,11,13.5c5.5,2.4,11.5,3.6,17.8,3.6c9.5,0,18.2-2.2,25.9-6.7c8.7-4.9,15.2-12.1,19.3-21.1l17.2-38.2l-2.3,1.5
			l32.4-0.1l-2.3-3.6l-11.3,25.3l-1.6,3.6l3.9,0l25.7-0.1l1.6,0l0.7-1.5l11.4-25.4l-2.3,1.5l29.3-0.1l1.7,0l0.7-1.5l9.9-23.1
			l1.5-3.5L186.2,115.1L186.2,115.1z M176.3,138.2l-29.3,0.1h-1.6l-0.7,1.5l-11.4,25.4l2.3-1.5l-25.7,0.1l2.3,3.6l11.3-25.3l1.6-3.6
			l-3.9,0L89,138.6l-1.6,0l-0.7,1.5l-17.2,38.2c-3.7,8.1-9.4,14.4-17.2,18.8c-6.9,4-14.7,6-23.3,6c-5.6,0-11-1.1-15.8-3.2
			c-5.4-2.3-8-5.2-8-8.9c0-1.2,0.3-2.6,1-4.1c0,0,10.7-23.9,10.7-23.9c9.1-20.4,24.7-34.9,46.3-43l1-0.4l0.4-1l22-50.7l1.5-3.6
			l-3.9,0l-50.9,0.2l1,0.2c-0.2-0.1-4.3-2.1-4.3-6.7c0-4.9,5.4-8.4,5.4-8.4L34.2,50h153.2l-1.9-4.3l-1.2,1.3
			c-4.9,5.3-5.3,5.7-9.8,12.7c-5.3,8.1-3.7,16.4-3.6,16.7l2.5-3h-21.5l2.3,3.7l4.6-9.2l1.8-3.7l-4.1,0l-36.6,0.2l-1.7,0l-0.6,1.6
			l-20.6,50.7l-1.4,3.5h3.8h32.5h1.6l0.7-1.5L145,94.5l-2.3,1.5l25.7-0.1l-2.3-3.6l-10.9,24.3l-1.6,3.6h3.9h28.8l-2.3-3.5l-9.9,23.1
			L176.3,138.2z"/>
		<path fill="#FFFFFF" d="M30.2,183.3c-1.1,2.2-2.4,2.5-3.6,2.5c-0.8,0-1.1-0.1-1.1-0.1c0.1,0.1,0.2,0.2,0.2,0.3c0,0,0,0,0-0.1
			c0,0.1,0,0.2,0,0.2l0,0c0-0.1,0-0.1,0-0.1L36,163c5-11.5,10.5-18.1,16.3-19.5l-2.9-3.5c-8.7,19.2-15.2,33.9-19.3,43.4L30.2,183.3z
			 M51.2,138.6c-7.5,1.8-14,9.2-19.8,22.4c0,0-10.2,22.9-10.2,22.9l0.1-0.1c-0.3,0.7-0.5,1.4-0.5,2.1c0,2.4,1.6,5,6,5
			c2.5,0,5.9-0.9,8.1-5.3l0-0.1l0-0.1c4-9.5,10.5-24.1,19.2-43.3l2.2-4.8L51.2,138.6z"/>
	</g>
</g>
<g>
	<path fill="#F4DE0D" d="M302.8,41h-17v187.2h-11.7V41h-17.3V30.4h46L302.8,41L302.8,41z"/>
	<path fill="#F4DE0D" d="M359.3,30.4v197.8h-11.7V113h-23v115.2h-11.4V30.4h11.4v72h23v-72H359.3z"/>
	<path fill="#F4DE0D" d="M419.7,102.4V113H385v104.6h34.7v10.6h-46V30.4h46V41H385v61.4H419.7z"/>
	<path fill="#F4DE0D" d="M515,102.4V113H481v115.2h-11.4V30.4H515V41H481v61.4H515z"/>
	<path fill="#F4DE0D" d="M611.6,51.1v40.8c0,11.7-10.5,21.5-23,21.5h-11.4v114.9h-11.4V30.4h22.7C601.1,30.4,611.6,39.9,611.6,51.1z
		 M600.2,51.1c0-5.4-5.1-10.1-11.7-10.1h-11.4v61.4h11.4c6.6,0,11.7-4.6,11.7-10.6V51.1z"/>
	<path fill="#F4DE0D" d="M668.1,217.6v10.6h-46V30.4h11.4v187.2H668.1z"/>
	<path fill="#F4DE0D" d="M737,30.4v176.9c0,11.1-10.2,20.9-23,20.9c-12.9,0-23.3-9-23.3-20.9V30.4h11.7v176.9
		c0,5.7,5.1,10.6,11.7,10.6c6.3,0,11.4-4.9,11.4-10.6V30.4H737z"/>
	<path fill="#F4DE0D" d="M785.1,50.5V50c0-5.7-5.1-10.3-11.7-10.3c-6.3,0-11.4,4.6-11.4,10.3v42.1c0,5.7,4.8,10.3,11.4,10.3
		c12.9,0,23.3,8.4,23.3,20.9v84c0,11.7-10.5,20.9-23.3,20.9c-12.2,0-23-8.7-23-20.9v-0.5h11.7v0.5c0,5.7,5.1,10.6,11.4,10.6
		c6.6,0,11.7-4.9,11.7-10.6v-84c0-5.7-5.1-10.1-11.4-10.6c-13.7-1.1-23.3-7.3-23.3-21.2V50c0-11.1,10.2-20.9,23-20.9
		c12.3,0,23.3,8.4,23.3,20.9v0.5H785.1z"/>
</g>
<g>
	<path fill="#F4DE0D" d="M687.3,228.2h-11.4v-9.8h11.4V228.2z"/>
</g>
</svg>
