<?xml version="1.0" encoding="utf-8"?>
<!-- Generator: Adobe Illustrator 18.1.1, SVG Export Plug-In . SVG Version: 6.00 Build 0)  -->
<!DOCTYPE svg PUBLIC "-//W3C//DTD SVG 1.1//EN" "http://www.w3.org/Graphics/SVG/1.1/DTD/svg11.dtd">
<svg version="1.1" id="United_Health_Group" xmlns="http://www.w3.org/2000/svg" xmlns:xlink="http://www.w3.org/1999/xlink"
	 x="0px" y="0px" viewBox="0 0 200 200" enable-background="new 0 0 200 200" xml:space="preserve">
<g>
	<path fill-rule="evenodd" clip-rule="evenodd" fill="#2D429B" d="M1.6,119.6h6.5v0.8c-1.7,0.1-1.9,0.5-1.9,1.9v11.7
		c0,2.5,1.4,3.9,3.5,3.9c2.3,0,3.7-1.6,3.7-4v-11.3c0-1.4-0.5-2.1-2.2-2.2v-0.8h5.3v0.8c-1.7,0.1-2.2,0.7-2.2,2.2v10.7
		c0,3.4-1.4,5.4-5.2,5.4c-3.9,0-5.7-2.1-5.7-5.5v-10.9c0-1.4-0.1-1.8-1.9-1.9V119.6L1.6,119.6z"/>
	<path fill-rule="evenodd" clip-rule="evenodd" fill="#2D429B" d="M16.2,138.3v-0.8c1.2,0,1.7-0.6,1.7-1.3v-8.6
		c0-1.2-0.4-1.3-1.8-1.4v-0.8l4-0.1v2.7l0,0c0.8-1.6,1.8-2.8,3.7-2.8c2.3,0,3.3,1.4,3.3,3.9v7.2c0,0.8,0.4,1.3,1.7,1.3v0.8h-4v-9.7
		c0-1.8-0.7-2.4-1.6-2.4c-1.4,0-3,1.9-3,4.6v5.3c0,0.7,0.5,1.3,1.8,1.3v0.8H16.2L16.2,138.3z"/>
	<path fill-rule="evenodd" clip-rule="evenodd" fill="#2D429B" d="M29.4,138.3v-0.8c1.3,0,1.7-0.6,1.7-1.3v-8.7
		c0-1.2-0.2-1.3-1.7-1.4v-0.8l4.1-0.1v11.1c0,0.7,0.4,1.3,1.7,1.3v0.8H29.4L29.4,138.3z M33.5,121.1c0,1.1-0.6,1.8-1.4,1.8
		c-0.7,0-1.3-0.7-1.3-1.8c0-1,0.6-1.7,1.3-1.7C32.9,119.4,33.5,120.1,33.5,121.1L33.5,121.1z"/>
	<path fill-rule="evenodd" clip-rule="evenodd" fill="#2D429B" d="M39.4,120.3v4.9h3.3v1.1h-3.3v9.5c0,1.2,0.5,1.7,1.2,1.7
		c0.8,0,1.6-0.5,1.6-3.4v-0.8H43v1.3c0,2.8-1,4-3,4c-1.8,0-2.9-1.2-2.9-3.4v-8.9h-1.7v-0.8c1.9-0.8,3-1.7,3.1-5.2H39.4L39.4,120.3z"
		/>
	<path fill-rule="evenodd" clip-rule="evenodd" fill="#2D429B" d="M46.6,130.7c0-3.5,1.1-4.8,2.5-4.8c1.4,0,2.3,1.3,2.3,4.8H46.6
		L46.6,130.7z M54.1,131.8c0-4-1.9-6.8-4.9-6.8c-3,0-5.2,2.8-5.2,6.8c0,3.4,2.2,6.9,5.5,6.9c3.1,0,4.5-2.4,4.7-4.8l-0.8-0.1
		c-0.4,1.8-1.2,3.9-3.5,3.9c-1.9,0-3.3-2.1-3.3-5.8H54.1L54.1,131.8z"/>
	<path fill-rule="evenodd" clip-rule="evenodd" fill="#2D429B" d="M58.1,131.9c0-4.2,1.1-5.9,2.5-5.9c1.7,0,2.7,2.1,2.7,5.9
		c0,4.7-1.4,5.9-2.9,5.9C59,137.8,58.1,136.1,58.1,131.9L58.1,131.9z M61.4,120.5c1.4,0.1,1.8,0.2,1.8,1.4v4.8v0.1
		c-0.6-1.1-1.6-1.8-2.8-1.8c-2.9,0-5.1,2.9-5.1,6.9c0,4.2,2.3,6.8,4.7,6.8c1.7,0,2.7-1,3.1-2.3h0.1v1.9l3.7-0.1v-0.8
		c-1.1,0-1.6-0.5-1.6-1.9v-15.9l-4.1,0.1V120.5L61.4,120.5z"/>
	<path fill-rule="evenodd" clip-rule="evenodd" fill="#2D429B" d="M68.4,138.3v-0.8c1.6-0.1,1.8-0.5,1.8-1.8v-13.3
		c0-1.4-0.2-1.8-1.8-1.9v-0.8H75v0.8c-1.7,0.1-2.1,0.5-2.1,1.9v5.5h5.9v-5.5c0-1.4-0.4-1.8-2.1-1.9v-0.8h6.6v0.8
		c-1.7,0.1-1.9,0.5-1.9,1.9v13.3c0,1.3,0.2,1.7,1.9,1.8v0.8h-6.6v-0.8c1.7-0.1,2.1-0.5,2.1-1.8V129h-5.9v6.6c0,1.3,0.4,1.7,2.1,1.8
		v0.8H68.4L68.4,138.3z"/>
	<path fill-rule="evenodd" clip-rule="evenodd" fill="#2D429B" d="M86.2,130.7c0-3.5,1.1-4.8,2.7-4.8c1.4,0,2.2,1.3,2.2,4.8H86.2
		L86.2,130.7z M93.7,131.8c0-4-1.8-6.8-4.8-6.8c-3.1,0-5.3,2.8-5.3,6.8c0,3.4,2.3,6.9,5.5,6.9c3.1,0,4.5-2.4,4.7-4.8l-0.8-0.1
		c-0.2,1.8-1.1,3.9-3.5,3.9c-1.8,0-3.3-2.1-3.3-5.8H93.7L93.7,131.8z"/>
	<path fill-rule="evenodd" clip-rule="evenodd" fill="#2D429B" d="M101.5,132.9c0,3.1-1.2,4.7-2.7,4.7c-0.8,0-1.4-0.7-1.4-2.2
		c0-2.3,1.9-3.3,4.1-4.1V132.9L101.5,132.9z M105.2,134.6c-0.1,1.9-0.2,2.5-0.8,2.5c-0.4,0-0.5-0.4-0.5-1.1v-7.6
		c0-2.1-1.2-3.4-4.2-3.4c-2.4,0-4.1,1.4-4.1,3.3c0,1.1,0.5,1.7,1.3,1.7c0.7,0,1.3-0.6,1.3-1.6c0-0.8-0.2-1.4-1.2-1.6
		c0.6-0.7,1.4-1,2.3-1c1.4,0,2.2,0.6,2.2,2.2v2.3c-2.3,0.8-6.6,2.2-6.6,5.2c0,1.8,1.2,3.1,3.4,3.1c1.9,0,2.7-1,3.4-2.2l0,0
		c0.2,1.4,1,2.2,2.2,2.2c1.7,0,2.3-1.2,2.3-4.1H105.2L105.2,134.6z"/>
	<path fill-rule="evenodd" clip-rule="evenodd" fill="#2D429B" d="M106.3,138.3v-0.8c1.3,0,1.8-0.6,1.8-1.3v-14.2
		c0-0.8-0.5-1.3-1.8-1.4v-0.8l4.1-0.1v16.6c0,0.7,0.5,1.3,1.7,1.3v0.8H106.3L106.3,138.3z"/>
	<path fill-rule="evenodd" clip-rule="evenodd" fill="#2D429B" d="M116.6,120.3v4.9h3.3v1.1h-3.3v9.5c0,1.2,0.4,1.7,1.1,1.7
		c1,0,1.6-0.5,1.6-3.4v-0.8h1v1.3c0,2.8-1.1,4-3.1,4c-1.7,0-2.8-1.2-2.8-3.4v-8.9h-1.7v-0.8c1.9-0.8,2.9-1.7,3.1-5.2H116.6
		L116.6,120.3z"/>
	<path fill-rule="evenodd" clip-rule="evenodd" fill="#2D429B" d="M120.9,138.3v-0.8c1.2,0,1.7-0.6,1.7-1.3v-14.2
		c0-1.2-0.4-1.3-1.8-1.4v-0.8l4.1-0.1v8h0.1c0.5-1.2,1.6-2.4,3.4-2.4c2.2,0,3.4,1.4,3.4,3.9v7.2c0,0.7,0.5,1.3,1.7,1.3v0.8h-4v-9.5
		c0-1.9-0.7-2.5-1.7-2.5c-1.3,0-2.9,1.8-2.9,4.5v5.4c0,0.7,0.5,1.3,1.8,1.3v0.8H120.9L120.9,138.3z"/>
	<path fill-rule="evenodd" clip-rule="evenodd" fill="#2D429B" d="M150.5,119.6v7.2h-1c-0.6-4.6-1.8-6.6-4.3-6.6
		c-2.2,0-4.1,1.8-4.1,8.8c0,6.6,1.8,8.7,4.1,8.7c1.8,0,2.8-1.2,2.8-4.3c0-2.9-0.4-3.4-2.5-3.4v-1h7.2v1c-1.7,0-2.1,0.4-2.1,1.8v6.5
		h-0.8c-0.2-0.6-0.6-1-0.8-1c-0.4,0-0.4,0.2-1.4,0.8c-0.7,0.4-1.6,0.6-2.4,0.6c-3.6,0-7.1-3.5-7.1-9.8c0-5.5,3.3-9.8,7.1-9.8
		c1.1,0,2.1,0.2,2.8,0.7c0.6,0.4,0.8,0.6,1.1,0.6c0.2,0,0.5-0.4,0.6-1H150.5L150.5,119.6z"/>
	<path fill-rule="evenodd" clip-rule="evenodd" fill="#2D429B" d="M153.2,138.3v-0.8c1.2,0,1.6-0.6,1.6-1.3v-7.5
		c0-1.8-0.2-2.4-1.7-2.5v-0.8l3.9-0.1v3.1l0,0c0.4-1.4,1.3-3.3,3-3.3c1,0,1.9,0.8,1.9,2.3c0,1.2-0.6,1.8-1.2,1.8
		c-0.6,0-1.3-0.4-1.3-1.6c0-0.7,0.5-1.4,1.2-1.4c-0.1-0.1-0.4-0.2-0.7-0.2c-1.8,0-2.7,4-2.7,6.4v3.9c0,0.7,0.4,1.3,2.3,1.3v0.8
		H153.2L153.2,138.3z"/>
	<path fill-rule="evenodd" clip-rule="evenodd" fill="#2D429B" d="M164.9,131.8c0-4.7,1.1-5.9,2.7-5.9c1.6,0,2.7,1.2,2.7,5.9
		c0,4.7-1.1,6-2.7,6C166,137.8,164.9,136.5,164.9,131.8L164.9,131.8z M162.5,131.8c0,4.1,2.5,6.9,5.1,6.9c2.5,0,5.1-2.8,5.1-6.9
		c0-4.1-2.5-6.8-5.1-6.8C165.1,125,162.5,127.7,162.5,131.8L162.5,131.8z"/>
	<path fill-rule="evenodd" clip-rule="evenodd" fill="#2D429B" d="M185.4,138.2l-3.6,0.1v-2.4h-0.1c-0.6,1.6-1.6,2.8-3.5,2.8
		c-2.3,0-3.4-1.2-3.4-3.9v-7.2c0-1.2-0.4-1.3-1.6-1.4v-0.8l3.9-0.1v10.1c0,1.6,0.6,2.1,1.6,2.1c1.6,0,2.8-2.1,2.8-4.3v-5.4
		c0-1.2-0.2-1.3-1.7-1.4v-0.8l4.1-0.1v10.7c0,1.1,0.4,1.3,1.6,1.4V138.2L185.4,138.2z"/>
	<path fill-rule="evenodd" clip-rule="evenodd" fill="#2D429B" d="M189.7,132.4c0-4.7,1.3-6.4,2.8-6.4c1.4,0,2.4,1.7,2.4,5.9
		c0,4.1-1,5.9-2.4,5.9C191.2,137.8,189.7,136.5,189.7,132.4L189.7,132.4z M191.7,143.3v-0.8c-1.6-0.1-2.1-0.6-2.1-1.3v-4.2h0.1
		c0.5,1.1,1.3,1.8,2.8,1.8c3,0,4.9-3.1,4.9-6.9c0-2.8-1.6-6.8-4.7-6.8c-1.7,0-2.8,1.2-3.3,2.5l0,0V125l-4,0.1v0.8
		c1.4,0.1,1.8,0.2,1.8,1.4v13.6c0,0.7-0.5,1.2-1.8,1.3v0.8H191.7L191.7,143.3z"/>
	<path fill-rule="evenodd" clip-rule="evenodd" fill="#2D429B" d="M96.2,91.3c-1.8,6.6-5.1,7.2-6.5,7.2c-2.5,0-4.8-1.7-4.8-12.7
		c0-11.1,0-26.1,0-26.1l12.4-6.6v25.2C97.3,82.3,97,88.2,96.2,91.3L96.2,91.3z"/>
	<path fill-rule="evenodd" clip-rule="evenodd" fill="#2D429B" d="M102.5,50.4l2.8,0.6v26.8c0,6.6-0.2,12.4-1.9,16.6
		c-1.4,3.6-4,6.4-7.1,7.2l-3.4-0.5c4.8-0.6,7.7-6,8.3-8.7c1.1-3.6,1.3-8.2,1.3-13.3V50.4l-5.2,2.8l2.7,0.6v23c0,6-0.1,11.2-1.1,14.7
		c-1.3,4.8-3.9,6.9-5.5,7.5l-3.6-0.5l0,0c-0.2,0-0.6,0-0.8,0c0.5,1.3,1.6,2.4,2.9,2.7c0.4,1.2,1.6,2.2,2.8,2.4
		c0.8,1.7,2.5,2.5,4.3,2.5c2.4,0.1,4.5-1,6.4-2.2c5.9-4.2,7.8-13.4,7.8-25.9V44.7L102.5,50.4L102.5,50.4z M110.5,77.8
		c0,9-0.8,15.3-2.9,19.4c-1.9,4-5.1,6.5-8.2,7l-3.9-0.5c5.1,0,8.3-4.9,9.5-7.6c1.8-3.9,2.7-9.3,2.7-17.1V47.5l2.8,0.7V77.8
		L110.5,77.8z"/>
</g>
</svg>
