<?xml version="1.0" encoding="utf-8"?>
<!-- Generator: Adobe Illustrator 18.1.1, SVG Export Plug-In . SVG Version: 6.00 Build 0)  -->
<!DOCTYPE svg PUBLIC "-//W3C//DTD SVG 1.1//EN" "http://www.w3.org/Graphics/SVG/1.1/DTD/svg11.dtd">
<svg version="1.1" id="US_Bank" xmlns="http://www.w3.org/2000/svg" xmlns:xlink="http://www.w3.org/1999/xlink" x="0px" y="0px"
	 viewBox="0 0 200 200" enable-background="new 0 0 200 200" xml:space="preserve">
<g>
	<polygon fill-rule="evenodd" clip-rule="evenodd" fill="#DC4756" points="1.8,83.3 1.8,121.7 34.3,132.7 66.8,121.7 66.8,83.3 
		1.8,83.3 	"/>
	<path fill-rule="evenodd" clip-rule="evenodd" fill="#FFFFFF" d="M34.2,120.4h-10V117c-2,2.7-4.8,4.2-8.8,4.2c-4.8,0-9.3-3-9.3-9.2
		V93.5h10.3v14.3c0,3,0.4,5.2,3.4,5.2c1.7,0,4-0.8,4-5.2V93.5h10.3V120.4L34.2,120.4z"/>
	<path fill-rule="evenodd" clip-rule="evenodd" fill="#FFFFFF" d="M53.4,101.4c-0.2-0.9-0.5-1.5-1.2-2c-0.6-0.6-1.4-0.9-2.4-0.9
		c-1.3,0-3,0.4-3,2.1c0,0.8,0.6,1.2,1.2,1.4c1.7,0.8,5.6,0.9,9.1,2.1c3.3,1.1,6.3,3,6.3,7.4c0,7.5-7.1,9.6-13.7,9.6
		c-6.4,0-13.3-2.6-13.5-9.6h9.8c0.2,1,0.5,1.7,1.4,2.4c0.5,0.4,1.4,0.8,2.7,0.8c1.3,0,3.5-0.5,3.5-2.1c0-1.6-1-2-5.8-2.8
		c-7.8-1.4-11-4-11-8.5c0-6.8,7.4-8.6,12.8-8.6c5.9,0,12.9,1.6,13.1,8.5H53.4L53.4,101.4z"/>
	<path fill-rule="evenodd" clip-rule="evenodd" fill="#105293" d="M70.4,83.4h10.3v13h0.2c1.6-2.2,4.3-3.6,7.4-3.6
		c9,0,11.5,7.6,11.5,14c0,6.8-3.7,14.4-11.3,14.4c-5,0-6.6-2-8-3.6h-0.1v2.9h-10V83.4L70.4,83.4z M84.8,100.4
		c-3.6,0-4.5,3.4-4.5,6.6c0,3.2,0.8,6.8,4.5,6.8c3.7,0,4.6-3.6,4.6-6.8C89.4,103.8,88.5,100.4,84.8,100.4L84.8,100.4z"/>
	<path fill-rule="evenodd" clip-rule="evenodd" fill="#105293" d="M128.4,114.4c0,2.1,0.2,4.3,1.2,6h-10.4c-0.2-0.7-0.5-1.8-0.4-2.6
		h-0.1c-2.2,2.6-5.4,3.3-8.7,3.3c-5.2,0-9.4-2.6-9.4-8.2c0-8.4,10-8.2,15.2-9.2c1.4-0.2,2.8-0.6,2.8-2.4c0-1.8-1.7-2.6-3.4-2.6
		c-3.2,0-3.8,1.6-3.8,2.8h-9.6c0.2-7.6,7.4-8.8,13.8-8.8c12.9,0,12.8,5.3,12.8,10.6V114.4L128.4,114.4z M118.6,108.4
		c-1.4,0.7-2.7,1.1-4,1.3c-2.4,0.5-3.6,1.1-3.6,3c0,1.2,1.4,2.4,3.2,2.4c2.4,0,4.2-1.3,4.4-4.2V108.4L118.6,108.4z"/>
	<path fill-rule="evenodd" clip-rule="evenodd" fill="#105293" d="M132.1,93.5h9.9v3.4h0.2c2-2.7,4.6-4,8.8-4c4.8,0,9.2,3,9.2,9.1
		v18.5h-10.3v-14.1c0-3.2-0.4-5.3-3.3-5.3c-1.8,0-4.2,0.9-4.2,5.2v14.2h-10.3V93.5L132.1,93.5z"/>
	<polygon fill-rule="evenodd" clip-rule="evenodd" fill="#105293" points="163.8,83.4 174.1,83.4 174.1,101.4 180.6,93.5 
		192.3,93.5 182.7,103.6 193.7,120.4 181.3,120.4 175.9,110.8 174.1,112.8 174.1,120.4 163.8,120.4 163.8,83.4 	"/>
	<path fill-rule="evenodd" clip-rule="evenodd" fill="#105293" d="M198.4,116.8c0.4,0.4,0.5,0.8,0.5,1.4c0,0.5-0.1,1-0.5,1.4
		c-0.5,0.5-0.9,0.6-1.5,0.6c-0.5,0-1-0.1-1.3-0.6c-0.5-0.4-0.6-0.8-0.6-1.4c0-0.6,0.1-1.1,0.6-1.4c0.4-0.4,0.8-0.6,1.3-0.6
		C197.5,116.2,197.9,116.4,198.4,116.8L198.4,116.8z M198.6,116.6c-0.5-0.4-1.1-0.6-1.7-0.6c-0.6,0-1.2,0.2-1.6,0.6
		c-0.5,0.5-0.7,1.1-0.7,1.7c0,0.6,0.2,1.2,0.7,1.6c0.4,0.5,1,0.8,1.6,0.8c0.6,0,1.3-0.2,1.7-0.8c0.4-0.4,0.6-1,0.6-1.6
		C199.2,117.6,199,117,198.6,116.6L198.6,116.6z M197.3,118.2c-0.1,0-0.2,0-0.5,0h-0.4v-0.9h0.4c0.2,0,0.5,0,0.6,0.2
		c0.1,0,0.1,0.2,0.1,0.4C197.5,117.9,197.4,118,197.3,118.2L197.3,118.2z M196,119.5h0.5v-0.9h0.4c0.2,0,0.4,0,0.5,0.1
		c0.2,0,0.2,0.2,0.2,0.5v0.2v0.1l0,0l0,0h0.5c-0.2,0-0.2-0.1-0.2-0.1c0-0.2,0-0.2,0-0.2V119c0-0.2,0-0.2-0.1-0.4
		c-0.2-0.2-0.3-0.2-0.4-0.2c0.1-0.2,0.2-0.2,0.4-0.2c0.1,0,0.2-0.3,0.2-0.5c0-0.2-0.2-0.5-0.5-0.6c-0.1,0-0.3-0.1-0.6-0.1H196V119.5
		L196,119.5z"/>
</g>
</svg>
