<?xml version="1.0" encoding="utf-8"?>
<!-- Generator: Adobe Illustrator 18.1.1, SVG Export Plug-In . SVG Version: 6.00 Build 0)  -->
<!DOCTYPE svg PUBLIC "-//W3C//DTD SVG 1.1//EN" "http://www.w3.org/Graphics/SVG/1.1/DTD/svg11.dtd">
<svg version="1.1" id="Layer_1" xmlns="http://www.w3.org/2000/svg" xmlns:xlink="http://www.w3.org/1999/xlink" x="0px" y="0px"
	 viewBox="0 0 800 250" enable-background="new 0 0 800 250" xml:space="preserve">
<g>
	<path fill="#EF4F79" d="M97.7,85.5l16.5,59.3l16.3-59.3c0.3-1.2,1.1-2.2,2.1-3c1.1-0.8,2.4-1.2,3.8-1.2c1.2,0,2.4,0.4,3.6,1.1
		c1.1,0.7,1.8,1.7,2.2,3l16.5,59.3l16.5-59.3c0.3-0.8,0.8-1.6,1.4-2.4c1.2-1.2,2.6-1.8,4.3-1.8c1.7,0,3.2,0.7,4.3,1.8
		c1.2,1.2,1.7,2.6,1.7,4.3c0,0.8-0.1,1.6-0.4,2.4l-21.7,78.9c-0.5,1.4-1.3,2.8-2.4,3.6c-1.1,0.9-2.4,1.3-3.7,1.3
		c-1.7,0-3.2-0.7-4.2-1.8c-0.8-0.8-1.4-1.8-1.8-3l-16.3-58.1l-16.1,58.2c-0.5,1.4-1.3,2.8-2.4,3.6c-1.1,0.9-2.4,1.3-3.7,1.3
		c-1.7,0-3.2-0.7-4.3-1.8c-0.8-0.8-1.3-1.7-1.8-3l-21.9-79c-0.3-0.9-0.4-1.7-0.4-2.4c0-1.7,0.7-3.2,1.8-4.3c1.2-1.2,2.6-1.8,4.3-1.8
		s3.2,0.7,4.3,1.8C96.9,83.9,97.3,84.7,97.7,85.5z"/>
	<path fill="#EF4F79" d="M196.2,167.7V87.5c0-0.8,0.1-1.6,0.5-2.4c0.3-0.8,0.8-1.4,1.3-2c0.5-0.5,1.2-1.1,2-1.3
		c0.8-0.3,1.6-0.5,2.4-0.5h22.3c4,0,7.5,0.8,11.1,2.2c3.4,1.4,6.5,3.6,9,6.1c2.5,2.6,4.6,5.5,6.1,9.1c1.4,3.4,2.2,7.1,2.2,11.1
		c0,2.5-0.3,5-0.9,7.4c-0.7,2.4-1.6,4.7-2.8,6.8c-1.2,2.1-2.8,4.1-4.7,5.9c-1.8,1.8-4.1,3.4-6.5,4.9l18.4,29.5
		c0.7,1.1,0.9,2.2,0.9,3.3c0,0.9-0.1,1.7-0.5,2.4c-0.3,0.8-0.8,1.3-1.3,2c-0.5,0.5-1.2,1.1-2,1.3c-0.8,0.3-1.6,0.5-2.4,0.5
		c-2.1,0-4-1.1-5.3-3L225.6,138h-17.3v29.5c0,1.7-0.7,3.2-1.8,4.3c-1.2,1.2-2.6,1.8-4.3,1.8s-3.2-0.7-4.3-1.8
		C196.7,170.8,196.2,169.4,196.2,167.7z M208.4,93.7v32.3h16.2c2.2,0,4.3-0.4,6.3-1.3c2-0.8,3.7-2,5.1-3.6c1.4-1.4,2.6-3.2,3.4-5.1
		c0.8-2,1.3-4,1.3-6.2s-0.4-4.3-1.3-6.3c-0.8-2-2-3.7-3.4-5.1c-1.4-1.4-3.2-2.6-5.1-3.4c-2-0.8-4.1-1.3-6.2-1.3h-16.3V93.7z"/>
	<path fill="#EF4F79" d="M358.1,127.6c0,12.8-4.5,23.6-13.6,32.7c-9,9-19.9,13.6-32.7,13.6s-23.7-4.5-32.7-13.6
		c-9-9-13.6-19.9-13.6-32.7c0-12.8,4.5-23.6,13.6-32.7c9.1-9.1,19.9-13.6,32.7-13.6c12.6,0,23.6,4.5,32.7,13.6
		c4.5,4.5,7.9,9.5,10.1,14.9C357,115.3,358.1,121.2,358.1,127.6z M312,93.7c-4.7,0-9.1,0.8-13,2.5s-7.6,4.2-10.9,7.5
		c-3.3,3.3-5.8,7-7.5,10.9c-1.6,4-2.5,8.3-2.5,13c0,9.4,3.3,17.4,9.9,24c6.6,6.6,14.6,9.9,24,9.9c9.4,0,17.4-3.3,24-9.9
		s9.9-14.6,9.9-24s-3.3-17.4-9.9-24C329.3,96.9,321.3,93.7,312,93.7z"/>
	<path fill="#EF4F79" d="M367.1,167.7V87.5c0-0.8,0.1-1.6,0.5-2.4c0.3-0.8,0.8-1.4,1.3-2c0.5-0.5,1.2-1.1,2-1.3
		c0.8-0.3,1.6-0.5,2.4-0.5c1.8,0,3.4,0.8,4.7,2.2l51.5,66.3V87.5c0-1.7,0.7-3.2,1.8-4.3c1.2-1.2,2.6-1.8,4.3-1.8
		c1.7,0,3.2,0.7,4.3,1.8c1.2,1.2,1.8,2.6,1.8,4.3v80.1c0,0.9-0.1,1.7-0.5,2.4c-0.3,0.8-0.8,1.3-1.3,2s-1.2,1.1-2,1.3
		c-0.8,0.3-1.6,0.5-2.4,0.5c-1.8,0-3.4-0.7-4.7-2.1l-51.6-66.3v62.3c0,1.7-0.7,3.2-1.8,4.3c-1.2,1.2-2.6,1.8-4.3,1.8
		s-3.2-0.7-4.3-1.8C367.8,170.8,367.1,169.4,367.1,167.7z"/>
	<path fill="#EF4F79" d="M527.6,159.1c0,1.6-0.7,3-1.8,4.3c-8.6,6.8-18.3,10.3-29,10.3c-12.8,0-23.7-4.5-32.7-13.6
		c-9-9-13.6-19.9-13.6-32.7s4.5-23.6,13.6-32.7c9.1-9.1,19.9-13.6,32.7-13.6c10.9,0,20.8,3.6,29.6,10.8c1.1,1.1,1.6,2.4,1.6,4.2
		c0,0.9-0.1,1.7-0.5,2.4c-0.3,0.8-0.8,1.3-1.3,2c-0.5,0.5-1.2,1.1-2,1.3c-0.8,0.3-1.6,0.5-2.4,0.5c-1.6,0-3-0.5-4.2-1.7
		c-2.9-2.4-6.2-4.1-9.6-5.3c-3.6-1.2-7.2-1.8-11.2-1.8c-9.4,0-17.4,3.3-24.1,10c-6.6,6.6-9.9,14.6-9.9,24c0,9.5,3.3,17.4,9.9,24
		c6.6,6.6,14.6,9.9,24.1,9.9c7,0,13.2-1.8,18.7-5.5V138h-15.9c-1.7,0-3.2-0.5-4.3-1.7c-1.2-1.2-1.7-2.6-1.7-4.3
		c0-0.8,0.1-1.6,0.5-2.4c0.3-0.8,0.8-1.4,1.3-2c0.5-0.5,1.2-1.1,2-1.3c0.8-0.3,1.6-0.5,2.4-0.5h22.1c0.8,0,1.6,0.1,2.4,0.5
		c0.8,0.3,1.3,0.8,2,1.3c0.5,0.5,1.1,1.2,1.3,2c0.3,0.8,0.5,1.6,0.5,2.4v27.1H527.6z"/>
	<path fill="#EF4F79" d="M596.5,161.5c1.7,0,3.2,0.7,4.3,1.8c1.2,1.2,1.8,2.6,1.8,4.3c0,1.7-0.7,3.2-1.8,4.3
		c-1.2,1.2-2.6,1.8-4.3,1.8h-53.3c-0.9,0-1.7-0.1-2.4-0.5c-0.8-0.3-1.3-0.8-2-1.3c-0.5-0.5-1.1-1.2-1.3-2c-0.3-0.8-0.5-1.6-0.5-2.4
		V87.5c0-0.8,0.1-1.6,0.5-2.4c0.3-0.8,0.8-1.4,1.3-2c0.5-0.5,1.2-1.1,2-1.3c0.8-0.3,1.6-0.5,2.4-0.5h53.3c1.7,0,3.2,0.7,4.3,1.8
		c1.2,1.2,1.8,2.6,1.8,4.3s-0.7,3.2-1.8,4.3c-1.2,1.2-2.6,1.8-4.3,1.8h-47.3v27.8h34c1.7,0,3.2,0.7,4.3,1.8c1.2,1.2,1.8,2.6,1.8,4.3
		c0,1.7-0.7,3.2-1.8,4.3s-2.6,1.8-4.3,1.8h-34v27.8h47.3V161.5z"/>
	<path fill="#EF4F79" d="M611.9,161c-0.8-1.1-1.2-2.2-1.2-3.7c0-0.8,0.1-1.7,0.5-2.4c0.3-0.8,0.8-1.4,1.3-2s1.2-1.1,2-1.3
		c0.8-0.3,1.6-0.5,2.4-0.5c2.2,0,4,0.9,5.1,2.8c1.6,2.5,3.7,4.3,6.1,5.7c2.4,1.3,5,1.8,7.9,1.8c2.2,0,4.2-0.4,6.2-1.3
		c2-0.9,3.7-2,5.1-3.6s2.6-3.2,3.4-5.1c0.8-2,1.3-4.1,1.3-6.3c0-2.1-0.4-4.1-1.2-5.9c-0.8-1.8-1.8-3.6-3.2-4.9
		c-1.3-1.4-2.9-2.5-4.7-3.4c-1.8-0.9-3.7-1.4-5.7-1.6c-3-0.3-5.9-1.1-8.6-2.4c-2.6-1.3-5-3-7-5.3c-2-2.2-3.6-4.6-4.7-7.4
		c-1.2-2.8-1.7-5.7-1.7-8.7c0-3.8,0.7-7.2,2.1-10.3c1.4-3,3.6-5.8,6.3-8.2l0,0c4.5-3.8,9.6-5.8,15.5-5.8c2,0,3.8,0.3,5.8,0.7
		c2,0.5,3.8,1.2,5.5,2.2c1.8,0.9,3.4,2.2,5,3.7c1.6,1.4,2.9,3.2,4.2,5.1c0.5,1.1,0.9,2.1,0.9,3.3c0,0.9-0.1,1.7-0.5,2.4
		c-0.3,0.8-0.8,1.3-1.3,2c-0.5,0.5-1.2,1.1-2,1.3c-0.8,0.3-1.6,0.5-2.4,0.5c-0.8,0-1.4-0.1-2.1-0.4c-0.7-0.3-1.2-0.5-1.6-0.9
		c-0.5-0.4-0.9-0.9-1.4-1.4c-0.4-0.5-0.9-1.2-1.4-2c-0.9-1.3-2.2-2.4-3.8-3c-1.6-0.7-3.3-1.1-5.1-1.1c-1.4,0-2.9,0.3-4.2,0.9
		c-1.4,0.7-2.6,1.4-3.7,2.5c-1.1,1.1-2,2.2-2.6,3.7c-0.7,1.4-1.1,3-1.1,4.6c0,1.4,0.3,2.9,0.8,4.2s1.3,2.5,2.2,3.6
		c0.9,1.1,2.1,2,3.4,2.6c1.3,0.7,2.6,1.1,4.2,1.2c3.6,0.3,7,1.2,10.1,2.8c3.2,1.6,5.9,3.7,8.3,6.2c2.4,2.5,4.2,5.4,5.7,8.7
		c1.4,3.3,2.1,6.7,2.1,10.3c0,9-3.3,16.3-10,22l0,0c-5.4,4.5-11.5,6.8-18.3,6.8c-2.2,0-4.5-0.3-6.8-0.8c-2.2-0.5-4.5-1.3-6.6-2.5
		c-2.1-1.1-4.1-2.4-5.9-4.1C614.8,164.8,613.2,163.1,611.9,161z"/>
	<path fill="#EF4F79" d="M736.1,93.7h-22.9v74c0,1.7-0.7,3.2-1.8,4.3c-1.2,1.2-2.6,1.8-4.3,1.8c-1.7,0-3.2-0.7-4.3-1.8
		c-1.2-1.2-1.8-2.6-1.8-4.3v-74H678c-1.7,0-3.2-0.7-4.3-1.8c-1.2-1.2-1.8-2.6-1.8-4.3s0.7-3.2,1.8-4.3c1.2-1.2,2.6-1.8,4.3-1.8h57.8
		c1.7,0,3.2,0.7,4.3,1.8c1.2,1.2,1.8,2.6,1.8,4.3s-0.7,3.2-1.8,4.3C739.1,93,737.7,93.7,736.1,93.7z"/>
</g>
<g>
	<path fill="#EF4F79" d="M32.7,66.1c0.9,0,1.7,0.3,2.2,0.9c0.5,0.7,0.9,1.4,0.9,2.2c0,0.9-0.3,1.7-0.9,2.2s-1.4,0.9-2.2,0.9
		c-10.8,0-16.2-5.4-16.2-16.2V33.6h-3.3c-0.9,0-1.7-0.3-2.2-0.9c-0.7-0.7-0.9-1.4-0.9-2.2c0-0.9,0.3-1.7,0.9-2.2
		c0.7-0.7,1.4-0.9,2.2-0.9h3.3V10.8c0-0.9,0.3-1.7,0.9-2.2c0.7-0.7,1.4-1.1,2.4-1.1c0.9,0,1.7,0.3,2.2,0.9c0.7,0.7,0.9,1.4,0.9,2.4
		V27h6.6c0.9,0,1.7,0.3,2.2,0.9c0.7,0.7,0.9,1.4,0.9,2.2c0,0.9-0.3,1.7-0.9,2.2c-0.7,0.7-1.4,0.9-2.2,0.9H23v22.8
		C23,62.8,26.3,66.1,32.7,66.1z"/>
	<path fill="#EF4F79" d="M42.6,10.8c0-0.9,0.3-1.7,0.9-2.2c0.7-0.7,1.4-0.9,2.2-0.9c0.9,0,1.7,0.3,2.2,0.9c0.7,0.7,0.9,1.4,0.9,2.2
		v22.1c4.1-4,9-5.9,14.6-5.9c5.8,0,10.8,2.1,14.9,6.2s6.2,9.1,6.2,14.9v21.1c0,0.9-0.3,1.7-0.9,2.2c-0.7,0.7-1.4,0.9-2.2,0.9
		c-0.9,0-1.7-0.3-2.2-0.9c-0.7-0.7-0.9-1.4-0.9-2.2V48.1c0-4.1-1.4-7.5-4.3-10.4c-2.9-2.9-6.3-4.3-10.4-4.3c-4.1,0-7.5,1.4-10.4,4.3
		c-2.9,2.9-4.3,6.3-4.3,10.4v21.1c0,0.9-0.3,1.7-0.9,2.2c-0.7,0.7-1.4,0.9-2.2,0.9c-0.9,0-1.7-0.3-2.2-0.9c-0.7-0.7-0.9-1.4-0.9-2.2
		V10.8H42.6z"/>
	<path fill="#EF4F79" d="M126.6,61.5c0.9,0,1.7,0.3,2.2,0.9c0.5,0.7,0.9,1.4,0.9,2.2c0,0.9-0.3,1.7-0.9,2.4
		c-4.2,3.7-9.1,5.5-14.9,5.5c-6.3,0-11.6-2.2-16.1-6.7c-4.5-4.5-6.7-9.7-6.7-16.1s2.2-11.6,6.7-16.1S107.7,27,114,27
		s11.6,2.2,16.1,6.7s6.7,9.7,6.7,16.1c0,0.9-0.3,1.7-0.9,2.2c-0.7,0.5-1.4,0.9-2.2,0.9H98c0.7,3.2,2.1,5.9,4.5,8.3
		c3.2,3.2,7,4.7,11.5,4.7c4.1,0,7.5-1.3,10.5-3.8C125.2,61.8,125.8,61.5,126.6,61.5z M130.1,46.6c-0.7-3.2-2.1-5.9-4.5-8.3
		c-3.2-3.2-7-4.7-11.5-4.7c-4.5,0-8.3,1.6-11.5,4.7c-2.4,2.4-3.8,5.1-4.5,8.3H130.1z"/>
</g>
<g>
	<path fill="#EF4F79" d="M570.7,198.2c0.7-0.7,1.3-0.9,2.2-0.9c0.9,0,1.7,0.3,2.4,0.9c0.4,0.4,0.7,0.9,0.8,1.4l9.9,29.5l10-30.2
		c0.1-0.3,0.4-0.7,0.7-0.9c0.7-0.7,1.3-0.9,2.2-0.9s1.7,0.3,2.2,0.9c0.5,0.7,0.9,1.4,0.9,2.2c0,0.4-0.1,0.8-0.3,1.3l-12.9,39
		c-0.1,0.4-0.4,0.8-0.8,1.2c-0.7,0.7-1.4,0.9-2.4,0.9c-0.9,0-1.7-0.3-2.2-0.9c-0.4-0.4-0.7-0.8-0.8-1.2l-10-29.9l-10,29.9
		c-0.1,0.4-0.4,0.8-0.8,1.2c-0.7,0.7-1.4,0.9-2.4,0.9s-1.7-0.3-2.2-0.9c-0.4-0.4-0.7-0.8-0.8-1.2l-12.9-39c-0.1-0.4-0.3-0.8-0.3-1.3
		c0-0.9,0.3-1.7,0.9-2.2c0.7-0.5,1.4-0.9,2.2-0.9c0.9,0,1.7,0.3,2.4,0.9c0.3,0.3,0.5,0.7,0.7,0.9l10,30.2l9.9-29.5
		C570,199.2,570.3,198.8,570.7,198.2z"/>
	<path fill="#EF4F79" d="M654.3,220.1c0,6.3-2.2,11.6-6.7,16.1c-4.5,4.5-9.7,6.7-16.1,6.7c-6.3,0-11.6-2.2-16.1-6.7
		c-4.5-4.5-6.7-9.7-6.7-16.1s2.2-11.6,6.7-16.1c4.5-4.5,9.7-6.7,16.1-6.7c6.3,0,11.6,2.2,16.1,6.7
		C652.1,208.5,654.3,213.8,654.3,220.1z M631.5,203.9c-4.5,0-8.3,1.6-11.5,4.7s-4.7,7-4.7,11.5s1.6,8.3,4.7,11.5
		c3.2,3.2,7,4.7,11.5,4.7c4.5,0,8.3-1.6,11.5-4.7c3.2-3.2,4.7-7,4.7-11.5s-1.6-8.3-4.7-11.5C639.8,205.5,636,203.9,631.5,203.9z"/>
	<path fill="#EF4F79" d="M660.7,200.6c0-0.9,0.3-1.7,0.9-2.2c0.7-0.5,1.4-0.9,2.2-0.9c0.9,0,1.7,0.3,2.2,0.9s0.9,1.4,0.9,2.2v3.6
		c4.6-4.6,10-6.8,16.2-6.8c3.2,0,6.1,0.5,8.7,1.6c0.5,0.1,0.9,0.5,1.3,0.8c0.7,0.7,0.9,1.4,0.9,2.4c0,0.9-0.3,1.7-0.9,2.2
		c-0.7,0.7-1.4,0.9-2.2,0.9c-0.5,0-1.1-0.1-1.4-0.3c-2-0.8-4.1-1.2-6.3-1.2c-4.5,0-8.3,1.6-11.5,4.7c-3.2,3.2-4.7,7-4.7,11.5v19.5
		c0,0.9-0.3,1.7-0.9,2.2c-0.7,0.7-1.4,0.9-2.2,0.9c-0.9,0-1.7-0.3-2.2-0.9c-0.7-0.7-0.9-1.4-0.9-2.2L660.7,200.6L660.7,200.6z"/>
	<path fill="#EF4F79" d="M738.7,181c0-0.9,0.3-1.7,0.9-2.2c0.7-0.7,1.4-0.9,2.2-0.9s1.7,0.3,2.2,0.9c0.7,0.7,0.9,1.4,0.9,2.2v39.1
		c0,6.3-2.2,11.6-6.7,16.1c-4.5,4.5-9.7,6.7-16.1,6.7s-11.6-2.2-16.1-6.7c-4.5-4.5-6.7-9.7-6.7-16.1s2.2-11.6,6.7-16.1
		c4.5-4.5,9.7-6.7,16.1-6.7s11.6,2.2,16.1,6.7l0.1,0.1V181H738.7z M738.7,220.1c0-4.5-1.6-8.3-4.7-11.5s-7-4.7-11.5-4.7
		s-8.3,1.6-11.5,4.7s-4.7,7-4.7,11.5s1.6,8.3,4.7,11.5c3.2,3.2,7,4.7,11.5,4.7s8.3-1.6,11.5-4.7S738.7,224.6,738.7,220.1z"/>
	<path fill="#EF4F79" d="M759.8,220.1c-2.5-0.9-4.2-1.8-5.1-2.9c-2-1.8-2.9-4.2-2.9-6.8c0-2.6,1.1-5,3-7c4-4,9-5.9,15.3-5.9
		c6.8,0,12.6,2.8,17.5,8.2c0.4,0.5,0.7,1.2,0.7,2c0,0.9-0.3,1.7-0.9,2.2c-0.7,0.5-1.4,0.9-2.2,0.9c-0.9,0-1.6-0.3-2.1-0.8
		c-0.5-0.5-0.9-0.9-1.2-1.2c-3.2-3.2-7-4.7-11.5-4.7c-4.5,0-8,1.4-10.8,4.2c-0.7,0.8-0.9,1.7-0.9,2.8c0.1,1.3,0.8,2.1,2,2.6l20,6.6
		c2.5,0.9,4.2,1.8,5.1,2.9c2,1.8,2.9,4.2,2.9,6.8s-1.1,5-3,7c-4,4-9,5.9-15.3,5.9c-6.8,0-12.6-2.8-17.5-8.2c-0.4-0.5-0.7-1.2-0.7-2
		c0-0.9,0.3-1.7,0.9-2.2c0.7-0.5,1.4-0.9,2.2-0.9c0.9,0,1.6,0.3,2.1,0.8c0.5,0.5,0.9,0.9,1.2,1.2c3.2,3.2,7,4.7,11.5,4.7
		c4.5,0,8-1.4,10.8-4.2c0.7-0.8,0.9-1.7,0.9-2.8c-0.1-1.3-0.8-2.1-2-2.6L759.8,220.1z"/>
</g>
<g>
	<path fill="#EF4F79" d="M308.3,128.3l-10.8-12.9c-0.4-0.4-0.5-0.9-0.5-1.6c0-0.7,0.3-1.2,0.7-1.7c0.5-0.5,1.1-0.7,1.7-0.7
		c0.7,0,1.3,0.3,1.8,0.8l10.4,12.4l10.4-12.4c0.5-0.5,1.2-0.8,1.8-0.8c0.7,0,1.2,0.3,1.7,0.7c0.5,0.5,0.7,1.1,0.7,1.7
		c0,0.7-0.1,1.2-0.5,1.6l-10.8,12.9l10.9,13.2c0.3,0.4,0.5,0.9,0.5,1.4c0,0.7-0.3,1.2-0.7,1.7c-0.5,0.5-1.1,0.7-1.7,0.7
		c-0.7,0-1.2-0.3-1.7-0.8L311.8,132l-10.4,12.5c-0.5,0.5-1.1,0.8-1.7,0.8s-1.2-0.3-1.7-0.7c-0.5-0.5-0.7-1.1-0.7-1.7
		c0-0.5,0.1-1.1,0.5-1.4L308.3,128.3z"/>
</g>
</svg>
