<?xml version="1.0" encoding="utf-8"?>
<!-- Generator: Adobe Illustrator 18.1.1, SVG Export Plug-In . SVG Version: 6.00 Build 0)  -->
<!DOCTYPE svg PUBLIC "-//W3C//DTD SVG 1.1//EN" "http://www.w3.org/Graphics/SVG/1.1/DTD/svg11.dtd">
<svg version="1.1" xmlns="http://www.w3.org/2000/svg" xmlns:xlink="http://www.w3.org/1999/xlink" x="0px" y="0px"
	 viewBox="0 0 100 100" enable-background="new 0 0 100 100" xml:space="preserve">
<g id="BG" display="none">
	<rect display="inline" fill="#141414" width="100" height="100"/>
</g>
<g id="php" display="none">
	<g id="ellipse3860" display="inline">
		<path fill="#706CB1" d="M50,76.8C22.7,76.8,0.5,65,0.5,50.5C0.5,36,22.7,24.2,50,24.2c27.3,0,49.5,11.8,49.5,26.3
			C99.5,65,77.3,76.8,50,76.8z M50,26.6c-25.9,0-47,10.7-47,23.9c0,13.2,21.1,23.9,47,23.9s47-10.7,47-23.9
			C97,37.3,75.9,26.6,50,26.6z"/>
	</g>
	<g display="inline">
		<path id="h" fill="#706CB1" d="M40.6,58.4l5.3-26.8h6.3l-1.3,6.9h5.9c5.3,0.3,7.3,3,6.6,6.3L61,58.4h-6.6l2.3-12.2
			c0.3-1.7,0.3-2.6-2-2.6h-5l-3,14.9H40.6z"/>
		<path fill="#706CB1" d="M79.8,38.6H67.6l-5.3,26.8h6.3l1.3-6.9h5.9c5.6,0.3,11.9-4.3,11.9-12.2C87.7,41.6,85.1,38.9,79.8,38.6z
			 M74.5,53.5h-4l1.7-9.9h4.3c2.3,0,4,1,4,3C80.2,52.1,77.5,53.1,74.5,53.5z"/>
		<path fill="#706CB1" d="M32.6,38.6H20.4l-5.3,26.8h6.3l1.3-6.9h5.9c5.6,0.3,11.9-4.3,11.9-12.2C40.6,41.6,37.9,38.9,32.6,38.6z
			 M27.4,53.5h-4l1.7-9.9h4.3c2.3,0,4,1,4,3C33,52.1,30.3,53.1,27.4,53.5z"/>
	</g>
</g>
<g id="Sass" display="none">
	<path display="inline" fill="#CD6799" d="M84.8,55.4c-3.4,0-6.3,0.8-8.7,2c-0.9-1.8-1.8-3.4-2-4.5c-0.2-1.4-0.4-2.2-0.2-3.8
		c0.2-1.6,1.2-3.9,1.1-4.1c0-0.2-0.2-1-2.2-1c-1.9,0-3.6,0.4-3.8,0.9c-0.2,0.5-0.6,1.7-0.8,2.9c-0.3,1.8-3.9,8-5.9,11.3
		c-0.7-1.3-1.2-2.4-1.3-3.3c-0.2-1.4-0.4-2.2-0.2-3.8c0.2-1.6,1.2-3.9,1.1-4.1c0-0.2-0.2-1-2.2-1c-1.9,0-3.6,0.4-3.8,0.9
		c-0.2,0.5-0.4,1.7-0.8,2.9c-0.4,1.2-5.1,11.6-6.3,14.4c-0.6,1.4-1.2,2.5-1.6,3.3c0,0,0,0,0,0s0,0.1-0.1,0.1c-0.3,0.6-0.5,1-0.5,1
		s0,0,0,0c-0.3,0.5-0.5,0.9-0.7,0.9c-0.1,0-0.3-1.3,0-3c0.7-3.6,2.4-9.3,2.4-9.5c0-0.1,0.3-1.1-1.1-1.6c-1.4-0.5-1.9,0.3-2,0.3
		c-0.1,0-0.2,0.3-0.2,0.3s1.5-6.4-2.9-6.4c-2.8,0-6.6,3-8.5,5.8c-1.2,0.7-3.8,2.1-6.5,3.5c-1,0.6-2.1,1.2-3.1,1.7
		c-0.1-0.1-0.1-0.2-0.2-0.2c-5.4-5.7-15.3-9.8-14.9-17.5c0.2-2.8,1.1-10.2,19.1-19.2c14.7-7.3,26.6-5.3,28.6-0.8
		c2.9,6.4-6.3,18.3-21.6,20c-5.8,0.7-8.9-1.6-9.7-2.4c-0.8-0.9-0.9-0.9-1.2-0.8c-0.5,0.3-0.2,1.1,0,1.5c0.5,1.2,2.3,3.3,5.5,4.4
		c2.8,0.9,9.7,1.4,17.9-1.8C57,41,64.3,31.1,62.2,22.7c-2.2-8.5-16.2-11.3-29.6-6.5c-7.9,2.8-16.5,7.2-22.7,13
		C2.6,36,1.4,42,1.9,44.5c1.7,8.9,13.9,14.6,18.8,18.9c-0.2,0.1-0.5,0.3-0.7,0.4C17.6,65,8.3,69.9,6,75c-2.6,5.8,0.4,10,2.4,10.6
		c6.3,1.7,12.7-1.4,16.2-6.6c3.5-5.2,3-11.9,1.5-15c0,0,0-0.1-0.1-0.1c0.6-0.4,1.3-0.8,1.9-1.1c1.2-0.7,2.5-1.4,3.5-2
		c-0.6,1.6-1,3.6-1.3,6.4c-0.3,3.3,1.1,7.6,2.9,9.3c0.8,0.7,1.7,0.8,2.3,0.8c2.1,0,3-1.7,4.1-3.8c1.3-2.5,2.4-5.4,2.4-5.4
		S40.4,76,44.3,76c1.4,0,2.8-1.8,3.5-2.8c0,0,0,0,0,0s0-0.1,0.1-0.2c0.1-0.2,0.2-0.4,0.2-0.4s0,0,0,0c0.6-1,1.8-3.2,3.7-6.9
		C54.3,61,56.6,55,56.6,55s0.2,1.5,0.9,3.9c0.4,1.4,1.3,3,2,4.5c-0.6,0.8-0.9,1.2-0.9,1.2s0,0,0,0c-0.5,0.6-1,1.2-1.5,1.9
		c-1.9,2.3-4.2,4.9-4.5,5.7c-0.4,0.9-0.3,1.5,0.4,2.1c0.5,0.4,1.4,0.4,2.4,0.4c1.7-0.1,2.9-0.5,3.5-0.8c0.9-0.3,2-0.9,3-1.6
		c1.9-1.4,3-3.4,2.9-6c-0.1-1.4-0.5-2.9-1.1-4.2c0.2-0.2,0.3-0.5,0.5-0.7c3-4.3,5.3-9.1,5.3-9.1s0.2,1.5,0.9,3.9
		c0.4,1.2,1.1,2.6,1.7,3.9c-2.8,2.3-4.5,4.9-5.1,6.6c-1.1,3.2-0.2,4.7,1.4,5c0.7,0.1,1.8-0.2,2.6-0.5c1-0.3,2.2-0.9,3.3-1.7
		c1.9-1.4,3.7-3.3,3.6-6c-0.1-1.2-0.4-2.4-0.8-3.5c2.4-1,5.4-1.5,9.3-1.1c8.4,1,10,6.2,9.7,8.4c-0.3,2.2-2.1,3.4-2.7,3.8
		c-0.6,0.4-0.8,0.5-0.7,0.8c0.1,0.4,0.3,0.4,0.8,0.3c0.7-0.1,4.4-1.8,4.6-5.8C98.4,61,93.5,55.4,84.8,55.4z M20.1,77.2
		c-2.8,3-6.7,4.2-8.3,3.2c-1.8-1-1.1-5.5,2.3-8.7c2.1-2,4.8-3.8,6.5-4.9c0.4-0.2,1-0.6,1.7-1c0.1-0.1,0.2-0.1,0.2-0.1l0,0
		c0.1-0.1,0.3-0.2,0.4-0.3C24.3,70,23.1,74,20.1,77.2z M40.4,63.4c-1,2.4-3,8.4-4.2,8.1c-1.1-0.3-1.7-4.9-0.2-9.4
		c0.8-2.3,2.4-5,3.3-6c1.5-1.7,3.2-2.2,3.6-1.6C43.3,55.4,41,62,40.4,63.4z M57.1,71.4c-0.4,0.2-0.8,0.3-1,0.2
		c-0.1-0.1,0.2-0.4,0.2-0.4s2.1-2.2,2.9-3.3c0.5-0.6,1-1.3,1.6-2.1c0,0.1,0,0.2,0,0.2C60.8,68.9,58.2,70.7,57.1,71.4z M70,68.5
		c-0.3-0.2-0.3-0.9,0.8-3.1c0.4-0.9,1.3-2.3,2.9-3.7c0.2,0.6,0.3,1.1,0.3,1.6C73.8,66.7,71.4,67.9,70,68.5z"/>
</g>
<g id="Kirby" display="none">
	<path display="inline" fill="#EE2524" d="M51,2.3L9,26.1v47.7l42,23.8l42-23.8V26.1L51,2.3z M69.8,51L58,57.4v0.9h11.8v9.2H32.3
		v-9.2h11.8v-0.9L32.3,51V39.6L51,49.7l18.7-10.1V51z"/>
</g>
<g id="RSS" display="none">
	<path display="inline" fill="#F26722" d="M50.4,2C23.6,2,2,23.6,2,50.4s21.6,48.4,48.4,48.4s48.4-21.6,48.4-48.4S77.2,2,50.4,2
		L50.4,2z M33.9,75.7c-4.2,0-7.5-3.4-7.5-7.5c0-4.2,3.4-7.6,7.5-7.6c4.2,0,7.6,3.4,7.6,7.6C41.6,72.2,38.1,75.7,33.9,75.7L33.9,75.7
		z M53.5,75.2c-0.1-7.1-2.9-13.8-8-18.8s-11.6-7.9-18.7-8v-9.9C47,38.8,63.3,55.1,63.5,75.2H53.5z M73,75.2
		c-0.3-25.4-20.8-45.9-46-46.1v-9.9c30.7,0.1,55.7,25.2,55.9,56H73z"/>
</g>
<g id="jQuery" display="none">
	<path fill="#0769AD" d="M23.2,17.6c-5.7,8.2-5,18.9-0.6,27.6c0.1,0.2,0.2,0.4,0.3,0.6c0.1,0.1,0.1,0.3,0.2,0.4c0,0.1,0.1,0.2,0.1,0.2c0.1,0.1,0.1,0.3,0.2,0.4c0.1,0.2,0.3,0.5,0.4,0.7c0.1,0.1,0.2,0.3,0.2,0.4c0.1,0.3,0.3,0.5,0.5,0.8c0.1,0.1,0.1,0.2,0.2,0.3c0.2,0.3,0.4,0.7,0.7,1c0,0,0,0,0,0c0,0.1,0.1,0.1,0.1,0.2c0.2,0.3,0.4,0.6,0.6,0.8c0.1,0.1,0.2,0.2,0.2,0.3c0.2,0.2,0.4,0.5,0.6,0.7c0.1,0.1,0.1,0.2,0.2,0.3c0.3,0.3,0.5,0.6,0.8,0.9c0,0,0,0,0,0c0,0,0,0,0,0c0.3,0.3,0.5,0.6,0.8,0.9c0.1,0.1,0.2,0.2,0.3,0.3c0.2,0.2,0.4,0.4,0.7,0.7c0.1,0.1,0.2,0.2,0.3,0.3c0.3,0.3,0.6,0.6,0.9,0.8c0,0,0,0,0,0c0.1,0,0.1,0.1,0.2,0.1c0.3,0.2,0.6,0.5,0.8,0.7c0.1,0.1,0.2,0.2,0.3,0.3c0.2,0.2,0.5,0.4,0.7,0.5c0.1,0.1,0.2,0.2,0.4,0.3c0.3,0.2,0.5,0.4,0.8,0.6c0.1,0.1,0.2,0.1,0.3,0.2c0,0,0.1,0,0.1,0.1c0.3,0.2,0.5,0.3,0.8,0.5c0.1,0.1,0.2,0.1,0.3,0.2c0.4,0.3,0.8,0.5,1.2,0.7c0.1,0.1,0.2,0.1,0.3,0.2c0.3,0.2,0.6,0.3,0.9,0.5c0.2,0.1,0.3,0.2,0.5,0.3c0.2,0.1,0.4,0.2,0.6,0.3c0.1,0,0.1,0,0.1,0.1c0.1,0,0.2,0.1,0.3,0.1c0.3,0.2,0.7,0.3,1,0.5c0.1,0,0.1,0.1,0.2,0.1c0.4,0.2,0.8,0.3,1.2,0.5c0.1,0,0.2,0.1,0.3,0.1c0.4,0.1,0.7,0.3,1.1,0.4c0,0,0.1,0,0.1,0c0.4,0.1,0.8,0.3,1.2,0.4c0.1,0,0.2,0.1,0.3,0.1c0.4,0.1,0.8,0.3,1.3,0.4c27.6,5,35.6-16.6,35.6-16.6c-6.7,8.8-18.7,11.1-30,8.5c-0.4-0.1-0.8-0.2-1.3-0.4c-0.1,0-0.2-0.1-0.3-0.1c-0.4-0.1-0.8-0.3-1.2-0.4c-0.1,0-0.1,0-0.2-0.1c-0.4-0.1-0.7-0.3-1.1-0.4c-0.1,0-0.2-0.1-0.3-0.1c-0.4-0.2-0.8-0.3-1.2-0.5c-0.1,0-0.2-0.1-0.2-0.1c-0.3-0.2-0.6-0.3-1-0.5c-0.1,0-0.2-0.1-0.3-0.1c-0.3-0.1-0.5-0.3-0.8-0.4c-0.2-0.1-0.3-0.2-0.5-0.3c-0.3-0.2-0.6-0.3-0.9-0.5c-0.1-0.1-0.2-0.1-0.3-0.2c-0.4-0.2-0.8-0.5-1.2-0.7c-0.1-0.1-0.2-0.1-0.3-0.2c-0.3-0.2-0.6-0.4-0.8-0.6c-0.1-0.1-0.2-0.1-0.3-0.2c-0.3-0.2-0.5-0.4-0.8-0.6c-0.1-0.1-0.2-0.2-0.4-0.3c-0.2-0.2-0.5-0.4-0.7-0.6c-0.1-0.1-0.2-0.2-0.3-0.3c-0.3-0.2-0.6-0.5-0.9-0.8c0,0-0.1-0.1-0.1-0.1c-0.3-0.3-0.6-0.6-0.9-0.9c-0.1-0.1-0.2-0.2-0.3-0.3c-0.2-0.2-0.4-0.4-0.7-0.7c-0.1-0.1-0.2-0.2-0.3-0.3c-0.3-0.3-0.6-0.6-0.8-0.9c0,0,0,0,0,0c-0.3-0.3-0.6-0.6-0.8-1c-0.1-0.1-0.1-0.2-0.2-0.3c-0.2-0.2-0.4-0.5-0.6-0.7c-0.1-0.1-0.1-0.2-0.2-0.3c-0.2-0.3-0.5-0.6-0.7-0.9c-6.3-8.6-8.6-20.4-3.5-30.1"/>
	<path fill="#0769AD" d="M41,10.7c-4.1,5.9-3.9,13.9-0.7,20.2c0.5,1.1,1.1,2.1,1.8,3c0.6,0.9,1.3,1.9,2.1,2.7c0.3,0.3,0.6,0.6,0.9,1c0.1,0.1,0.2,0.2,0.2,0.2c0.3,0.3,0.6,0.6,0.9,0.9c0,0,0,0,0,0c0,0,0,0,0,0c0.4,0.3,0.7,0.6,1.1,0.9c0.1,0.1,0.2,0.1,0.3,0.2c0.4,0.3,0.8,0.6,1.1,0.8c0,0,0,0,0,0c0.2,0.1,0.3,0.2,0.5,0.4c0.1,0.1,0.2,0.1,0.2,0.2c0.3,0.2,0.6,0.4,0.9,0.5c0,0,0.1,0,0.1,0.1c0.2,0.1,0.5,0.3,0.8,0.4c0.1,0.1,0.2,0.1,0.3,0.1c0.2,0.1,0.4,0.2,0.5,0.3c0,0,0.1,0,0.1,0c0.4,0.2,0.7,0.3,1.1,0.5c0.1,0,0.2,0.1,0.2,0.1c0.3,0.1,0.6,0.3,0.9,0.4c0.1,0,0.3,0.1,0.4,0.1c0.3,0.1,0.6,0.2,0.8,0.3c0.1,0,0.3,0.1,0.4,0.1c0.4,0.1,0.8,0.3,1.2,0.3c21.3,3.5,26.2-12.9,26.2-12.9c-4.4,6.4-13,9.4-22.2,7.1c-0.4-0.1-0.8-0.2-1.2-0.4c-0.1,0-0.2-0.1-0.4-0.1c-0.3-0.1-0.6-0.2-0.8-0.3c-0.1,0-0.3-0.1-0.4-0.1c-0.3-0.1-0.6-0.2-0.9-0.4c-0.1,0-0.2-0.1-0.2-0.1c-0.4-0.2-0.8-0.3-1.1-0.5c-0.2-0.1-0.4-0.2-0.6-0.3c-0.1-0.1-0.2-0.1-0.3-0.2c-0.2-0.1-0.5-0.3-0.7-0.4c-0.1,0-0.1-0.1-0.2-0.1c-0.3-0.2-0.6-0.3-0.9-0.5c-0.1-0.1-0.2-0.1-0.3-0.2c-0.2-0.1-0.4-0.2-0.6-0.4c-0.4-0.3-0.8-0.6-1.1-0.8c-0.1-0.1-0.2-0.1-0.3-0.2c-4-3.2-7.2-7.5-8.7-12.4c-1.6-5.1-1.2-10.8,1.5-15.4"/>
	<path fill="#0769AD" d="M55.9,5.5c-2.4,3.6-2.7,8-1,12c1.8,4.2,5.4,7.5,9.7,9.1c0.2,0.1,0.3,0.1,0.5,0.2c0.1,0,0.2,0,0.2,0.1c0.2,0.1,0.5,0.2,0.8,0.2c11.8,2.3,15-6,15.8-7.3c-2.8,4-7.5,5-13.3,3.6c-0.5-0.1-0.9-0.3-1.4-0.4c-0.6-0.2-1.1-0.4-1.7-0.7c-1-0.5-2-1.1-2.9-1.8c-5.2-3.9-8.4-11.4-5-17.5"/>
	<path fill="#D3E6F1" d="M85.7,74.6l0.2,0.7c0,0.2-0.1,0.4-0.3,0.4"/>
	<path fill="#D3E6F1" d="M72.5,73.4c0,0.2-0.1,0.4-0.1,0.6l-1.5,6.8l1.5-7.2L72.5,73.4z"/>
	<polygon fill="#D3E6F1" points="29,78 28.2,80.8 29,78"/>
	<path fill="#D3E6F1" d="M85.9,75.3l-0.4-1.8c-0.3-1.3-1.3-1.9-3.4-1.9h-8.8c-0.2,0-0.4,0.1-0.4,0.3l-3.4,15.9c0,0.2-0.1,0.3,0,0.4c0,0.1,0.4,0.1,0.6,0.1h3.1c0.2,0,0.6,0,0.7,0c0.1,0,0.2-0.3,0.2-0.6l1.1-5.6l1.3-6.2c0-0.2,0.2-0.4,0.4-0.4l8.8,0C85.8,75.7,85.9,75.5,85.9,75.3"/>
	<path fill="#D3E6F1" d="M98.3,68.9c-0.2,0-3.9,0-3.9,0c-0.2,0-0.5,0.2-0.6,0.4l-6.8,10c-0.1,0.2-0.2,0.2-0.3,0l-0.5-2.2c0-0.2-0.2-0.4-0.5-0.4h-4.4c-0.2,0-0.3,0.2-0.3,0.4l2,6.9c0.1,0.2,0.1,0.5,0,0.7l-0.9,3.5c0,0.2,0.1,0.3,0.3,0.3h4.3c0.2,0,0.4-0.1,0.5-0.3l0.9-3.5c0.1-0.2,0.2-0.5,0.3-0.6l11.1-14.7c0.1-0.2,0.1-0.4-0.1-0.4L98.3,68.9z"/>
	<path fill="#D3E6F1" d="M52.7,71.7h-4c-0.2,0-0.4,0.1-0.4,0.3L47,78.1l-1.3,5.9c0,0.2-0.2,0.2-0.4,0.2h-2.6c-2.6,0-2.3-1.6-1.7-4.1c0,0,1.6-8.1,1.6-8.1c0-0.2-0.1-0.3-0.3-0.3h-3.8c-0.2,0-0.4,0.1-0.4,0.3L36.6,80c-0.8,4.4-0.8,8.2,4.3,8.3c0.1,0,8,0,8,0c0.2,0,0.4-0.1,0.4-0.3L51,80l1.7-8.1C52.7,71.9,52.8,71.7,52.7,71.7z"/>
	<path fill="#D3E6F1" d="M13.4,71.7H9.1c-0.2,0-0.4,0-0.5,0.2l-0.8,3.3c0,0.2,0.1,0.4,0.3,0.4h4.1c0.2,0,0.4-0.2,0.5-0.4l0.7-3.3C13.5,71.9,13.5,71.7,13.4,71.7z"/>
	<path fill="#D3E6F1" d="M7.9,76.7c-0.2,0-0.4,0.2-0.5,0.4l-0.6,2.5l-1.3,5.8c0,0-0.7,3.1-0.7,3.3c0,0-0.6,2.2-1.9,2.1c-0.6,0-1.4-0.2-1.4-0.2h0c-0.4-0.1-0.4,0.3-0.5,0.5l-0.8,3.6c0,0.2,0.1,0.4,0.3,0.4c0,0,1.8,0.3,3.1,0.3h0.2c3.2,0,4.9-1.9,5.9-7l1.3-5.9l1.2-5.5c0-0.2-0.1-0.4-0.3-0.4"/>
	<path fill="#D3E6F1" d="M62.7,71.6c-7.1,0-8.8,4.4-9.8,8.8c-0.9,4.5-0.9,8,6.5,8h0.3c2.9,0,6.5,0,6.5,0c0.2,0,0.4-0.2,0.4-0.4l0.7-2.8c0-0.2-0.1-0.3-0.3-0.3h-6.6c-2.4,0-3.3-0.7-3.2-2.4c0-0.2,0.2-0.7,0.4-0.7h10.2c0.4,0,0.5-0.3,0.5-0.3C69.4,76.9,69.5,71.6,62.7,71.6 M64.6,78.6c0,0.2-0.7,0.2-0.7,0.2l-5.6,0c-0.2,0-0.2-0.3-0.3-0.5c0,0,0-0.2,0-0.3c0.4-1.5,1.7-2.3,3.7-2.3c2.3,0,2.8,1.1,2.8,2.4"/>
	<path fill="#D3E6F1" d="M31.9,83.8c0,0,2-4.8,2.4-7.7c0.6-3.8-1.3-9.2-8.5-9.2c-7.2,0-10.3,5.2-11.5,10.8c-1.2,5.7,0.4,10.6,7.5,10.6l10.9,0c0.2,0,0.4-0.2,0.5-0.4l0.9-3.5c0.1-0.2-0.1-0.4-0.3-0.4l-0.9,0l-0.9,0C32,84.1,31.9,84,31.9,83.8C31.9,83.8,31.9,83.8,31.9,83.8 M28.2,80.8l-0.8,2.8c-0.1,0.2-0.3,0.3-0.5,0.3h-4.2c-3.2,0-4-2.5-3.2-6.2c0.8-3.8,2.3-6.1,5.5-6.4c4.3-0.3,5.2,2.7,4.2,6.2L28.2,80.8z"/>
</g>
<g id="jQuery_Dark" display="none">
	<path display="inline" fill="#0769AD" d="M23.2,17.6c-5.7,8.2-5,18.9-0.6,27.6c0.1,0.2,0.2,0.4,0.3,0.6c0.1,0.1,0.1,0.3,0.2,0.4
		c0,0.1,0.1,0.2,0.1,0.2c0.1,0.1,0.1,0.3,0.2,0.4c0.1,0.2,0.3,0.5,0.4,0.7c0.1,0.1,0.2,0.3,0.2,0.4c0.1,0.3,0.3,0.5,0.5,0.8
		c0.1,0.1,0.1,0.2,0.2,0.3c0.2,0.3,0.4,0.7,0.7,1c0,0,0,0,0,0c0,0.1,0.1,0.1,0.1,0.2c0.2,0.3,0.4,0.6,0.6,0.8
		c0.1,0.1,0.2,0.2,0.2,0.3c0.2,0.2,0.4,0.5,0.6,0.7c0.1,0.1,0.1,0.2,0.2,0.3c0.3,0.3,0.5,0.6,0.8,0.9c0,0,0,0,0,0c0,0,0,0,0,0
		c0.3,0.3,0.5,0.6,0.8,0.9c0.1,0.1,0.2,0.2,0.3,0.3c0.2,0.2,0.4,0.4,0.7,0.7c0.1,0.1,0.2,0.2,0.3,0.3c0.3,0.3,0.6,0.6,0.9,0.8
		c0,0,0,0,0,0c0.1,0,0.1,0.1,0.2,0.1c0.3,0.2,0.6,0.5,0.8,0.7c0.1,0.1,0.2,0.2,0.3,0.3c0.2,0.2,0.5,0.4,0.7,0.5
		c0.1,0.1,0.2,0.2,0.4,0.3c0.3,0.2,0.5,0.4,0.8,0.6c0.1,0.1,0.2,0.1,0.3,0.2c0,0,0.1,0,0.1,0.1c0.3,0.2,0.5,0.3,0.8,0.5
		c0.1,0.1,0.2,0.1,0.3,0.2c0.4,0.3,0.8,0.5,1.2,0.7c0.1,0.1,0.2,0.1,0.3,0.2c0.3,0.2,0.6,0.3,0.9,0.5c0.2,0.1,0.3,0.2,0.5,0.3
		c0.2,0.1,0.4,0.2,0.6,0.3c0.1,0,0.1,0,0.1,0.1c0.1,0,0.2,0.1,0.3,0.1c0.3,0.2,0.7,0.3,1,0.5c0.1,0,0.1,0.1,0.2,0.1
		c0.4,0.2,0.8,0.3,1.2,0.5c0.1,0,0.2,0.1,0.3,0.1c0.4,0.1,0.7,0.3,1.1,0.4c0,0,0.1,0,0.1,0c0.4,0.1,0.8,0.3,1.2,0.4
		c0.1,0,0.2,0.1,0.3,0.1c0.4,0.1,0.8,0.3,1.3,0.4c27.6,5,35.6-16.6,35.6-16.6c-6.7,8.8-18.7,11.1-30,8.5c-0.4-0.1-0.8-0.2-1.3-0.4
		c-0.1,0-0.2-0.1-0.3-0.1c-0.4-0.1-0.8-0.3-1.2-0.4c-0.1,0-0.1,0-0.2-0.1c-0.4-0.1-0.7-0.3-1.1-0.4c-0.1,0-0.2-0.1-0.3-0.1
		c-0.4-0.2-0.8-0.3-1.2-0.5c-0.1,0-0.2-0.1-0.2-0.1c-0.3-0.2-0.6-0.3-1-0.5c-0.1,0-0.2-0.1-0.3-0.1c-0.3-0.1-0.5-0.3-0.8-0.4
		c-0.2-0.1-0.3-0.2-0.5-0.3c-0.3-0.2-0.6-0.3-0.9-0.5c-0.1-0.1-0.2-0.1-0.3-0.2c-0.4-0.2-0.8-0.5-1.2-0.7c-0.1-0.1-0.2-0.1-0.3-0.2
		c-0.3-0.2-0.6-0.4-0.8-0.6c-0.1-0.1-0.2-0.1-0.3-0.2c-0.3-0.2-0.5-0.4-0.8-0.6c-0.1-0.1-0.2-0.2-0.4-0.3c-0.2-0.2-0.5-0.4-0.7-0.6
		c-0.1-0.1-0.2-0.2-0.3-0.3c-0.3-0.2-0.6-0.5-0.9-0.8c0,0-0.1-0.1-0.1-0.1c-0.3-0.3-0.6-0.6-0.9-0.9c-0.1-0.1-0.2-0.2-0.3-0.3
		c-0.2-0.2-0.4-0.4-0.7-0.7c-0.1-0.1-0.2-0.2-0.3-0.3c-0.3-0.3-0.6-0.6-0.8-0.9c0,0,0,0,0,0c-0.3-0.3-0.6-0.6-0.8-1
		c-0.1-0.1-0.1-0.2-0.2-0.3c-0.2-0.2-0.4-0.5-0.6-0.7c-0.1-0.1-0.1-0.2-0.2-0.3c-0.2-0.3-0.5-0.6-0.7-0.9
		c-6.3-8.6-8.6-20.4-3.5-30.1"/>
	<path display="inline" fill="#0769AD" d="M41,10.7c-4.1,5.9-3.9,13.9-0.7,20.2c0.5,1.1,1.1,2.1,1.8,3c0.6,0.9,1.3,1.9,2.1,2.7
		c0.3,0.3,0.6,0.6,0.9,1c0.1,0.1,0.2,0.2,0.2,0.2c0.3,0.3,0.6,0.6,0.9,0.9c0,0,0,0,0,0c0,0,0,0,0,0c0.4,0.3,0.7,0.6,1.1,0.9
		c0.1,0.1,0.2,0.1,0.3,0.2c0.4,0.3,0.8,0.6,1.1,0.8c0,0,0,0,0,0c0.2,0.1,0.3,0.2,0.5,0.4c0.1,0.1,0.2,0.1,0.2,0.2
		c0.3,0.2,0.6,0.4,0.9,0.5c0,0,0.1,0,0.1,0.1c0.2,0.1,0.5,0.3,0.8,0.4c0.1,0.1,0.2,0.1,0.3,0.1c0.2,0.1,0.4,0.2,0.5,0.3
		c0,0,0.1,0,0.1,0c0.4,0.2,0.7,0.3,1.1,0.5c0.1,0,0.2,0.1,0.2,0.1c0.3,0.1,0.6,0.3,0.9,0.4c0.1,0,0.3,0.1,0.4,0.1
		c0.3,0.1,0.6,0.2,0.8,0.3c0.1,0,0.3,0.1,0.4,0.1c0.4,0.1,0.8,0.3,1.2,0.3c21.3,3.5,26.2-12.9,26.2-12.9c-4.4,6.4-13,9.4-22.2,7.1
		c-0.4-0.1-0.8-0.2-1.2-0.4c-0.1,0-0.2-0.1-0.4-0.1c-0.3-0.1-0.6-0.2-0.8-0.3c-0.1,0-0.3-0.1-0.4-0.1c-0.3-0.1-0.6-0.2-0.9-0.4
		c-0.1,0-0.2-0.1-0.2-0.1c-0.4-0.2-0.8-0.3-1.1-0.5c-0.2-0.1-0.4-0.2-0.6-0.3c-0.1-0.1-0.2-0.1-0.3-0.2c-0.2-0.1-0.5-0.3-0.7-0.4
		c-0.1,0-0.1-0.1-0.2-0.1c-0.3-0.2-0.6-0.3-0.9-0.5c-0.1-0.1-0.2-0.1-0.3-0.2c-0.2-0.1-0.4-0.2-0.6-0.4c-0.4-0.3-0.8-0.6-1.1-0.8
		c-0.1-0.1-0.2-0.1-0.3-0.2c-4-3.2-7.2-7.5-8.7-12.4c-1.6-5.1-1.2-10.8,1.5-15.4"/>
	<path display="inline" fill="#0769AD" d="M55.9,5.5c-2.4,3.6-2.7,8-1,12c1.8,4.2,5.4,7.5,9.7,9.1c0.2,0.1,0.3,0.1,0.5,0.2
		c0.1,0,0.2,0,0.2,0.1c0.2,0.1,0.5,0.2,0.8,0.2c11.8,2.3,15-6,15.8-7.3c-2.8,4-7.5,5-13.3,3.6c-0.5-0.1-0.9-0.3-1.4-0.4
		c-0.6-0.2-1.1-0.4-1.7-0.7c-1-0.5-2-1.1-2.9-1.8c-5.2-3.9-8.4-11.4-5-17.5"/>
	<path display="inline" fill="#333333" d="M85.7,74.6l0.2,0.7c0,0.2-0.1,0.4-0.3,0.4"/>
	<path display="inline" fill="#333333" d="M72.5,73.4c0,0.2-0.1,0.4-0.1,0.6l-1.5,6.8l1.5-7.2L72.5,73.4z"/>
	<polygon display="inline" fill="#333333" points="29,78 28.2,80.8 29,78 	"/>
	<path display="inline" fill="#333333" d="M85.9,75.3l-0.4-1.8c-0.3-1.3-1.3-1.9-3.4-1.9h-8.8c-0.2,0-0.4,0.1-0.4,0.3l-3.4,15.9
		c0,0.2-0.1,0.3,0,0.4c0,0.1,0.4,0.1,0.6,0.1h3.1c0.2,0,0.6,0,0.7,0c0.1,0,0.2-0.3,0.2-0.6l1.1-5.6l1.3-6.2c0-0.2,0.2-0.4,0.4-0.4
		l8.8,0C85.8,75.7,85.9,75.5,85.9,75.3"/>
	<path display="inline" fill="#333333" d="M98.3,68.9c-0.2,0-3.9,0-3.9,0c-0.2,0-0.5,0.2-0.6,0.4l-6.8,10c-0.1,0.2-0.2,0.2-0.3,0
		l-0.5-2.2c0-0.2-0.2-0.4-0.5-0.4h-4.4c-0.2,0-0.3,0.2-0.3,0.4l2,6.9c0.1,0.2,0.1,0.5,0,0.7l-0.9,3.5c0,0.2,0.1,0.3,0.3,0.3h4.3
		c0.2,0,0.4-0.1,0.5-0.3l0.9-3.5c0.1-0.2,0.2-0.5,0.3-0.6l11.1-14.7c0.1-0.2,0.1-0.4-0.1-0.4L98.3,68.9z"/>
	<path display="inline" fill="#333333" d="M52.7,71.7h-4c-0.2,0-0.4,0.1-0.4,0.3L47,78.1l-1.3,5.9c0,0.2-0.2,0.2-0.4,0.2h-2.6
		c-2.6,0-2.3-1.6-1.7-4.1c0,0,1.6-8.1,1.6-8.1c0-0.2-0.1-0.3-0.3-0.3h-3.8c-0.2,0-0.4,0.1-0.4,0.3L36.6,80c-0.8,4.4-0.8,8.2,4.3,8.3
		c0.1,0,8,0,8,0c0.2,0,0.4-0.1,0.4-0.3L51,80l1.7-8.1C52.7,71.9,52.8,71.7,52.7,71.7z"/>
	<path display="inline" fill="#333333" d="M13.4,71.7H9.1c-0.2,0-0.4,0-0.5,0.2l-0.8,3.3c0,0.2,0.1,0.4,0.3,0.4h4.1
		c0.2,0,0.4-0.2,0.5-0.4l0.7-3.3C13.5,71.9,13.5,71.7,13.4,71.7z"/>
	<path display="inline" fill="#333333" d="M7.9,76.7c-0.2,0-0.4,0.2-0.5,0.4l-0.6,2.5l-1.3,5.8c0,0-0.7,3.1-0.7,3.3
		c0,0-0.6,2.2-1.9,2.1c-0.6,0-1.4-0.2-1.4-0.2h0c-0.4-0.1-0.4,0.3-0.5,0.5l-0.8,3.6c0,0.2,0.1,0.4,0.3,0.4c0,0,1.8,0.3,3.1,0.3h0.2
		c3.2,0,4.9-1.9,5.9-7l1.3-5.9l1.2-5.5c0-0.2-0.1-0.4-0.3-0.4"/>
	<path display="inline" fill="#333333" d="M62.7,71.6c-7.1,0-8.8,4.4-9.8,8.8c-0.9,4.5-0.9,8,6.5,8h0.3c2.9,0,6.5,0,6.5,0
		c0.2,0,0.4-0.2,0.4-0.4l0.7-2.8c0-0.2-0.1-0.3-0.3-0.3h-6.6c-2.4,0-3.3-0.7-3.2-2.4c0-0.2,0.2-0.7,0.4-0.7h10.2
		c0.4,0,0.5-0.3,0.5-0.3C69.4,76.9,69.5,71.6,62.7,71.6 M64.6,78.6c0,0.2-0.7,0.2-0.7,0.2l-5.6,0c-0.2,0-0.2-0.3-0.3-0.5
		c0,0,0-0.2,0-0.3c0.4-1.5,1.7-2.3,3.7-2.3c2.3,0,2.8,1.1,2.8,2.4"/>
	<path display="inline" fill="#333333" d="M31.9,83.8c0,0,2-4.8,2.4-7.7c0.6-3.8-1.3-9.2-8.5-9.2c-7.2,0-10.3,5.2-11.5,10.8
		c-1.2,5.7,0.4,10.6,7.5,10.6l10.9,0c0.2,0,0.4-0.2,0.5-0.4l0.9-3.5c0.1-0.2-0.1-0.4-0.3-0.4l-0.9,0l-0.9,0
		C32,84.1,31.9,84,31.9,83.8C31.9,83.8,31.9,83.8,31.9,83.8 M28.2,80.8l-0.8,2.8c-0.1,0.2-0.3,0.3-0.5,0.3h-4.2
		c-3.2,0-4-2.5-3.2-6.2c0.8-3.8,2.3-6.1,5.5-6.4c4.3-0.3,5.2,2.7,4.2,6.2L28.2,80.8z"/>
</g>
<g id="Illustrator" display="none">
	<rect x="2.5" y="2.7" display="inline" fill="#27170F" width="95" height="94.7"/>
	<g id="icon" display="inline">
		<path fill="#F47723" d="M95.7,4.4v91.2H4.3V4.4H95.7 M100,0H0v100H100V0L100,0z"/>
	</g>
	<g id="A" display="inline">
		<path fill="#F47723" d="M34.8,60.9l-4.6,13.2c-0.1,0.5-0.4,0.6-0.8,0.6h-7.6c-0.5,0-0.7-0.3-0.5-0.8c4.2-11.8,11-30.9,15.9-44.1
			c0.2-0.6,0.5-1.4,0.7-4.1c0-0.4,0.2-0.5,0.5-0.5h10.3c0.3,0,0.4,0.1,0.6,0.4c5.7,16,11.7,32.6,17.6,48.5c0.1,0.5,0,0.7-0.4,0.7
			h-8.4c-0.4,0-0.5-0.2-0.7-0.5l-4.9-13.4L34.8,60.9L34.8,60.9z M50.2,53.5c-1.6-5.1-5.3-15.3-6.8-20.7h-0.1
			c-1.2,5-4.3,13.7-6.5,20.7H50.2z"/>
	</g>
	<rect x="68.6" y="37.6" display="inline" fill="#F47723" width="8.5" height="37"/>
	<circle display="inline" fill="#F47723" cx="72.8" cy="28.3" r="4.3"/>
</g>
<g id="Photoshop" display="none">
	<g id="Layer_2_1_">
		<g>
			<g>
				<rect fill="#66CBF4" width="100" height="100"/>
			</g>
		</g>
	</g>
	<g id="Layer_2">
		<g>
			<g>
				<rect x="8" y="8" fill="#18142E" width="84.1" height="84.1"/>
			</g>
		</g>
	</g>
	<g>
		<g id="Layer_4">
			<g>
				<path fill="#66CBF4" d="M24.2,28.2c0,0,6.3-0.2,11.5-0.2c5.3,0,9,1.3,11.5,3.5c2.4,2.1,4,5.7,4,9.7s-1.2,7.4-3.5,9.7
					c-2.9,3-6.3,4.8-12.1,5C34.1,56,32.6,56,32.6,56v13.2h-8.5L24.2,28.2L24.2,28.2z M32.6,48.7c0.9,0.1,1.5,0,2.9,0
					c4.5-0.1,7.3-2.9,7.3-7.1c0-3.8-2.3-6.9-6.7-7.1c-1.7-0.1-3.5,0-3.5,0V48.7z"/>
				<g>
					<path fill="#66CBF4" d="M54.5,60c1.7,1.1,5.7,2.7,8.5,2.7c2.8,0,4-1,4-2.6c0-1.6-0.9-3.2-4.4-4.4C56.4,53.6,54,51,54,47.5
						c0-5.8,4.7-10.1,12.1-10.1c3.5,0,6.2,1.2,8.1,2.1v6.9C72.9,45.6,69,44,66.5,44c-2.3,0-3.5,0.9-3.5,2.5c0,1.4,1.2,2.2,4.8,3.5
						c5.7,2,8,4.9,8.1,9.5c0,5.7-4.3,10.2-12.9,10c-2.9-0.1-6.2-1.3-8.5-2.5L54.5,60L54.5,60z"/>
				</g>
			</g>
		</g>
	</g>
</g>
<g id="SVG_1_" display="none">
	<path display="inline" fill="#EFD31A" d="M100,49.7C100,49.7,100,49.7,100,49.7L100,49.7L100,49.7c-0.2-8-6.6-14.5-14.6-14.5
		c5.7-5.7,5.7-15,0-20.7c-5.7-5.7-15-5.7-20.7,0C64.8,6.5,58.3,0,50.2,0c-8.1,0-14.6,6.5-14.6,14.6c-5.7-5.7-15-5.7-20.7,0
		c-5.7,5.7-5.7,15,0,20.7c-8,0-14.5,6.5-14.6,14.4v44.6c0,3.7,1.9,5.6,5.6,5.6h88.4c3.7,0,5.6-1.9,5.6-5.6L100,49.7L100,49.7z
		 M15,41.8c2.2,0,4.2,0.9,5.6,2.3h16.2L25.4,32.8c-2,0-4.1-0.8-5.6-2.3c-3.1-3.1-3.1-8.1,0-11.2s8.1-3.1,11.2,0
		c1.5,1.5,2.3,3.6,2.3,5.6l11.4,11.4V20.2c-1.4-1.4-2.3-3.4-2.3-5.6c0-4.4,3.5-7.9,7.9-7.9s7.9,3.5,7.9,7.9c0,2.2-0.9,4.2-2.3,5.6
		v16.2l11.5-11.5c0-2,0.8-4,2.3-5.6c3.1-3.1,8.1-3.1,11.2,0c3.1,3.1,3.1,8.1,0,11.2c-1.5,1.5-3.6,2.3-5.6,2.3L63.7,44.2h16.2
		c1.4-1.4,3.4-2.3,5.6-2.3c4.3,0,7.7,3.4,7.9,7.7H7.1C7.2,45.3,10.7,41.8,15,41.8z M20.3,69.9c1,1,2.3,1.6,3.8,1.6
		c3.6,0,6.9,1.5,9.2,3.8c2.4,2.4,3.8,5.6,3.8,9.2c0,7.2-5.8,13-13,13c-7.2,0-13-5.8-13-13h7.6c0,3,2.4,5.4,5.4,5.4s5.4-2.4,5.4-5.4
		c0-1.5-0.6-2.8-1.6-3.8c-1-1-2.3-1.6-3.8-1.6c-3.6,0-6.9-1.5-9.2-3.8c-2.3-2.4-3.8-5.6-3.8-9.2c0-7.2,5.8-13,13-13
		c7.2,0,13,5.8,13,13h-7.6c0-3-2.4-5.4-5.4-5.4s-5.4,2.4-5.4,5.4C18.8,67.5,19.4,68.9,20.3,69.9z M53.9,97.4h-7.6L37.1,53h7.6
		l5.4,26l5.4-26h7.6L53.9,97.4z M76.1,89.7c3,0,5.4-2.4,5.4-5.4v-5.4h-5.4v-7.6h13v13.1c0,7.2-5.8,13-13,13c-7.2,0-13-5.8-13-13V66
		c0-7.2,5.9-13,13-13c7.2,0,13,5.8,13,13h-7.6c0-3-2.4-5.4-5.4-5.4S70.8,63,70.8,66v18.4C70.8,87.3,73.2,89.7,76.1,89.7z"/>
</g>
<g id="SVG_Dark" display="none">
	<path display="inline" fill="#404040" d="M100,49.7C100,49.7,100,49.7,100,49.7L100,49.7L100,49.7c-0.2-8-6.6-14.5-14.6-14.5
		c5.7-5.7,5.7-15,0-20.7c-5.7-5.7-15-5.7-20.7,0C64.8,6.5,58.3,0,50.2,0c-8.1,0-14.6,6.5-14.6,14.6c-5.7-5.7-15-5.7-20.7,0
		c-5.7,5.7-5.7,15,0,20.7c-8,0-14.5,6.5-14.6,14.4v44.6c0,3.7,1.9,5.6,5.6,5.6h88.4c3.7,0,5.6-1.9,5.6-5.6L100,49.7L100,49.7z
		 M15,41.8c2.2,0,4.2,0.9,5.6,2.3h16.2L25.4,32.8c-2,0-4.1-0.8-5.6-2.3c-3.1-3.1-3.1-8.1,0-11.2s8.1-3.1,11.2,0
		c1.5,1.5,2.3,3.6,2.3,5.6l11.4,11.4V20.2c-1.4-1.4-2.3-3.4-2.3-5.6c0-4.4,3.5-7.9,7.9-7.9s7.9,3.5,7.9,7.9c0,2.2-0.9,4.2-2.3,5.6
		v16.2l11.5-11.5c0-2,0.8-4,2.3-5.6c3.1-3.1,8.1-3.1,11.2,0c3.1,3.1,3.1,8.1,0,11.2c-1.5,1.5-3.6,2.3-5.6,2.3L63.7,44.2h16.2
		c1.4-1.4,3.4-2.3,5.6-2.3c4.3,0,7.7,3.4,7.9,7.7H7.1C7.2,45.3,10.7,41.8,15,41.8z M20.3,69.9c1,1,2.3,1.6,3.8,1.6
		c3.6,0,6.9,1.5,9.2,3.8c2.4,2.4,3.8,5.6,3.8,9.2c0,7.2-5.8,13-13,13c-7.2,0-13-5.8-13-13h7.6c0,3,2.4,5.4,5.4,5.4s5.4-2.4,5.4-5.4
		c0-1.5-0.6-2.8-1.6-3.8c-1-1-2.3-1.6-3.8-1.6c-3.6,0-6.9-1.5-9.2-3.8c-2.3-2.4-3.8-5.6-3.8-9.2c0-7.2,5.8-13,13-13
		c7.2,0,13,5.8,13,13h-7.6c0-3-2.4-5.4-5.4-5.4s-5.4,2.4-5.4,5.4C18.8,67.5,19.4,68.9,20.3,69.9z M53.9,97.4h-7.6L37.1,53h7.6
		l5.4,26l5.4-26h7.6L53.9,97.4z M76.1,89.7c3,0,5.4-2.4,5.4-5.4v-5.4h-5.4v-7.6h13v13.1c0,7.2-5.8,13-13,13c-7.2,0-13-5.8-13-13V66
		c0-7.2,5.9-13,13-13c7.2,0,13,5.8,13,13h-7.6c0-3-2.4-5.4-5.4-5.4S70.8,63,70.8,66v18.4C70.8,87.3,73.2,89.7,76.1,89.7z"/>
</g>
<g id="concrete5" display="none">
	<path display="inline" fill="#22BBE5" d="M83.4,61.7C75.8,52.5,64,71.8,57.6,75.9c-4.4,2.9-11,3.1-15.7,0.4
		c-6.4-3.8-4.4-12.7,2.3-15c6-2,16.5,4.3,20.3-2c4.7-7.8-11.3-9.6-16.1-9.4c-8.6,0.3-16.8,3.1-21.9,9.6c-5.5,7-4.2,15.4,1.8,21.7
		c6.1,5.9,15,8.2,23.9,7.5c2.2-0.2,6.1-1.1,9-2.7C67.1,82.8,85,63.5,83.4,61.7z M27.4,54.8c3,0.6-2.8-16-3.2-18.2
		c-0.5-2.8-1.5-6.6-4.2-7c-3.2-0.5-4,3.1-3.4,6.3C17.3,39.1,24.7,54.3,27.4,54.8z M52,46.3c4.6,0.7,4.3-21.4,4.3-24.4
		c0-2.7,1.1-10.2-2.6-10.9c-5-1-5.5,5.6-5.6,9.1C48.3,23.7,47.2,45.6,52,46.3z M62.9,49.8c5,2.1,8.9-20.2,9.4-23
		c0.6-2.9,0.7-9.1-4.3-7.1c-2.5,1-3,5-3.3,7.3C64,29.8,59,48.2,62.9,49.8z M38.8,47.9c5.7,0.4,0.3-22-0.1-25c-0.5-3-2.5-9.1-6.7-5.6
		c-2.1,1.8-1.2,5.9-0.8,8.2C31.5,28.6,34.4,47.6,38.8,47.9z"/>
	<g display="inline">
		<path fill="#22BBE5" d="M86,99.9H14C6.3,99.9,0.1,93.6,0.1,86v-72C0.1,6.3,6.3,0.1,14,0.1h72c7.7,0,13.9,6.2,13.9,13.9v72
			C99.9,93.6,93.7,99.9,86,99.9z M14,2.5C7.7,2.5,2.5,7.6,2.5,13.9v72c0,6.3,5.1,11.4,11.4,11.4h72c6.3,0,11.4-5.1,11.4-11.4v-72
			c0-6.3-5.1-11.4-11.4-11.4H14z"/>
	</g>
</g>
<g id="Visual_Studio" display="none">
	<path display="inline" fill="#682A7A" d="M73.6,4.4L96,13.5v72.7l-22.7,9.1L37.3,59.5L14.4,77.2l-9.1-4.5V27.1l9.1-4.3l22.9,17.9
		L73.6,4.4z M14.4,36.4V64L28,50L14.4,36.4z M49.9,50l23.5,18.5V31.4L49.9,50z"/>
</g>
<g id="GitHub" display="none">
	<g display="inline">
		<path fill-rule="evenodd" clip-rule="evenodd" fill="#FFFFFF" d="M50.2,1.8C22.7,1.8,0.4,24.1,0.4,51.6c0,22,14.3,40.7,34.1,47.3
			c2.5,0.5,3.4-1.1,3.4-2.4c0-1.2,0-5.1-0.1-9.3c-13.9,3-16.8-5.9-16.8-5.9c-2.3-5.8-5.5-7.3-5.5-7.3c-4.5-3.1,0.3-3,0.3-3
			c5,0.4,7.6,5.1,7.6,5.1c4.4,7.6,11.7,5.4,14.5,4.1c0.4-3.2,1.7-5.4,3.2-6.7C30.1,72.4,18.4,68.1,18.4,49c0-5.4,1.9-9.9,5.1-13.4
			c-0.5-1.3-2.2-6.3,0.5-13.2c0,0,4.2-1.3,13.7,5.1c4-1.1,8.2-1.7,12.5-1.7c4.2,0,8.5,0.6,12.5,1.7c9.5-6.4,13.7-5.1,13.7-5.1
			c2.7,6.9,1,11.9,0.5,13.2C80.1,39.1,82,43.6,82,49c0,19.1-11.7,23.4-22.8,24.6c1.8,1.5,3.4,4.6,3.4,9.2c0,6.7-0.1,12-0.1,13.7
			c0,1.3,0.9,2.9,3.4,2.4c19.8-6.6,34-25.3,34-47.3C100,24.1,77.7,1.8,50.2,1.8z"/>
		<path fill="#FFFFFF" d="M19.3,73.3c-0.1,0.2-0.5,0.3-0.9,0.2C18,73.3,17.8,73,18,72.7c0.1-0.3,0.5-0.3,0.9-0.2
			C19.2,72.8,19.4,73.1,19.3,73.3L19.3,73.3z M18.6,72.9"/>
		<path fill="#FFFFFF" d="M21.3,75.6c-0.2,0.2-0.7,0.1-1-0.2c-0.3-0.3-0.4-0.8-0.1-1c0.2-0.2,0.7-0.1,1,0.2
			C21.5,74.9,21.5,75.4,21.3,75.6L21.3,75.6z M20.8,75.1"/>
		<path fill="#FFFFFF" d="M23.2,78.5c-0.3,0.2-0.8,0-1.1-0.4c-0.3-0.4-0.3-1,0-1.2c0.3-0.2,0.8,0,1.1,0.4
			C23.6,77.7,23.6,78.3,23.2,78.5L23.2,78.5z M23.2,78.5"/>
		<path fill="#FFFFFF" d="M25.9,81.2c-0.3,0.3-0.9,0.2-1.3-0.2c-0.4-0.4-0.6-1-0.3-1.3c0.3-0.3,0.9-0.2,1.3,0.2
			C26.1,80.4,26.2,80.9,25.9,81.2L25.9,81.2z M25.9,81.2"/>
		<path fill="#FFFFFF" d="M29.6,82.8c-0.1,0.4-0.7,0.6-1.2,0.4c-0.6-0.2-0.9-0.6-0.8-1c0.1-0.4,0.7-0.6,1.2-0.4
			C29.4,82,29.8,82.5,29.6,82.8L29.6,82.8z M29.6,82.8"/>
		<path fill="#FFFFFF" d="M33.7,83.1c0,0.4-0.5,0.8-1.1,0.8c-0.6,0-1.1-0.3-1.1-0.7c0-0.4,0.5-0.8,1.1-0.8
			C33.2,82.4,33.7,82.7,33.7,83.1L33.7,83.1z M33.7,83.1"/>
		<path fill="#FFFFFF" d="M37.5,82.5c0.1,0.4-0.3,0.8-0.9,0.9c-0.6,0.1-1.1-0.1-1.2-0.5c-0.1-0.4,0.3-0.8,0.9-0.9
			C36.9,81.9,37.4,82.1,37.5,82.5L37.5,82.5z M37.5,82.5"/>
	</g>
</g>
<g id="GitHib_Dark" display="none">
	<g display="inline">
		<path fill-rule="evenodd" clip-rule="evenodd" fill="#191717" d="M49.8,1C22.4,1,0.2,23.2,0.2,50.6c0,21.9,14.2,40.5,33.9,47.1
			c2.5,0.5,3.4-1.1,3.4-2.4c0-1.2,0-5.1-0.1-9.2c-13.8,3-16.7-5.9-16.7-5.9c-2.3-5.7-5.5-7.3-5.5-7.3c-4.5-3.1,0.3-3,0.3-3
			c5,0.3,7.6,5.1,7.6,5.1c4.4,7.6,11.6,5.4,14.4,4.1c0.4-3.2,1.7-5.4,3.1-6.6C29.8,71.3,18.2,67,18.2,48c0-5.4,1.9-9.8,5.1-13.3
			c-0.5-1.2-2.2-6.3,0.5-13.1c0,0,4.2-1.3,13.6,5.1c4-1.1,8.2-1.7,12.4-1.7c4.2,0,8.5,0.6,12.4,1.7c9.5-6.4,13.6-5.1,13.6-5.1
			c2.7,6.8,1,11.9,0.5,13.1c3.2,3.5,5.1,7.9,5.1,13.3c0,19.1-11.6,23.2-22.7,24.5c1.8,1.5,3.4,4.6,3.4,9.2c0,6.6-0.1,12-0.1,13.6
			c0,1.3,0.9,2.9,3.4,2.4c19.7-6.6,33.9-25.2,33.9-47.1C99.4,23.2,77.2,1,49.8,1z"/>
		<path fill="#191717" d="M19,72.2c-0.1,0.2-0.5,0.3-0.9,0.2c-0.4-0.2-0.6-0.5-0.4-0.7c0.1-0.3,0.5-0.3,0.9-0.2
			C18.9,71.6,19.1,72,19,72.2L19,72.2z M18.4,71.8"/>
		<path fill="#191717" d="M21,74.5c-0.2,0.2-0.7,0.1-1-0.2c-0.3-0.3-0.4-0.8-0.1-1c0.2-0.2,0.7-0.1,1,0.2
			C21.2,73.8,21.3,74.2,21,74.5L21,74.5z M20.5,74"/>
		<path fill="#191717" d="M23,77.3c-0.3,0.2-0.8,0-1.1-0.4c-0.3-0.4-0.3-1,0-1.2c0.3-0.2,0.8,0,1.1,0.4C23.3,76.6,23.3,77.1,23,77.3
			L23,77.3z M23,77.3"/>
		<path fill="#191717" d="M25.7,80.1c-0.3,0.3-0.9,0.2-1.3-0.2c-0.4-0.4-0.6-1-0.3-1.3c0.3-0.3,0.9-0.2,1.3,0.2
			C25.8,79.2,25.9,79.8,25.7,80.1L25.7,80.1z M25.7,80.1"/>
		<path fill="#191717" d="M29.4,81.7c-0.1,0.4-0.7,0.6-1.2,0.4c-0.6-0.2-0.9-0.6-0.8-1c0.1-0.4,0.7-0.6,1.2-0.4
			C29.1,80.8,29.5,81.3,29.4,81.7L29.4,81.7z M29.4,81.7"/>
		<path fill="#191717" d="M33.4,82c0,0.4-0.5,0.7-1.1,0.8c-0.6,0-1.1-0.3-1.1-0.7c0-0.4,0.5-0.7,1.1-0.8
			C32.9,81.2,33.4,81.6,33.4,82L33.4,82z M33.4,82"/>
		<path fill="#191717" d="M37.2,81.3c0.1,0.4-0.3,0.8-0.9,0.9c-0.6,0.1-1.1-0.1-1.2-0.5c-0.1-0.4,0.3-0.8,0.9-0.9
			C36.6,80.7,37.1,80.9,37.2,81.3L37.2,81.3z M37.2,81.3"/>
	</g>
</g>
<g id="jade" display="none">
	<rect x="0.4" y="43" display="inline" fill="#00A86B" width="8.1" height="34.6"/>
	<circle display="inline" fill="#00A86B" cx="4.5" cy="34.5" r="4.5"/>
	<path display="inline" fill="#00A86B" d="M31.3,43v2.8C29.4,44,26.9,43,24.1,43C18,43,13,48.2,13,54.7c0,6.5,5,11.7,11.1,11.7
		c2.8,0,5.3-1.1,7.2-2.8v2h7.7V43H31.3z M26.6,58.9c-3,0-5.4-2.1-5.4-4.6s2.4-4.6,5.4-4.6c3,0,5.4,2.1,5.4,4.6S29.6,58.9,26.6,58.9z
		"/>
	<path display="inline" fill="#00A86B" d="M62.2,30v15.8C60.2,44,57.7,43,54.9,43c-6.1,0-11.1,5.3-11.1,11.7c0,6.5,5,11.7,11.1,11.7
		c2.8,0,5.3-1.1,7.2-2.8v2h7.7V30H62.2z M57.4,58.9c-3,0-5.4-2.1-5.4-4.6s2.4-4.6,5.4-4.6c3,0,5.4,2.1,5.4,4.6S60.4,58.9,57.4,58.9z
		"/>
	<path display="inline" fill="#00A86B" d="M99.2,56.4c0.1-0.7,0.2-1.4,0.2-2.1c0-6.7-5.6-12.1-12.6-12.1c-6.9,0-12.6,5.4-12.6,12.1
		s5.6,12.1,12.6,12.1c5.3,0,9.8-3.1,11.6-7.5h-7.3c-1,1.7-2.6,2.9-4.3,2.9c-2.5,0-4.6-2.3-5.2-5.4H99.2z M86.8,46.9
		c2.5,0,4.6,2.3,5.2,5.3H81.5C82.2,49.2,84.3,46.9,86.8,46.9z"/>
</g>
<g id="nodeJS" display="none">
	<g display="inline">
		<path fill="#81BE41" d="M51.5,100.2c-1,0-2-0.2-2.8-0.8l-8.9-5.3c-1.3-0.8-0.7-1-0.2-1.2c1.7-0.7,2.2-0.8,4-1.8
			c0.2-0.1,0.4-0.1,0.7,0l6.8,4c0.2,0.1,0.7,0.1,0.9,0l26.7-15.4c0.2-0.1,0.4-0.4,0.4-0.8V48.4c0-0.3-0.1-0.5-0.4-0.8L51.9,32.3
			c-0.2-0.1-0.5-0.1-0.9,0L24.4,47.6c-0.2,0.1-0.4,0.4-0.4,0.8v30.7c0,0.3,0.2,0.5,0.4,0.8l7.3,4.2c3.9,2,6.4-0.3,6.4-2.7V51
			c0-0.4,0.3-0.8,0.8-0.8h3.4c0.4,0,0.8,0.3,0.8,0.8v30.4c0,5.3-2.9,8.4-7.9,8.4c-1.5,0-2.7,0-6.2-1.6l-6.9-4
			c-1.6-1.1-2.6-2.9-2.6-5V48.4c0-2,1.1-3.9,2.8-4.9l26.6-15.4c1.7-1,3.9-1,5.6,0l26.7,15.4c1.7,1,2.8,2.8,2.8,4.9v30.7
			c0,2-1.1,3.9-2.8,4.9L54.3,99.4C53.5,99.8,52.5,100.2,51.5,100.2z"/>
		<path fill="#81BE41" d="M59.7,79c-11.6,0-14.1-5.3-14.1-9.9c0-0.4,0.3-0.8,0.8-0.8h3.5c0.4,0,0.8,0.3,0.8,0.7
			c0.5,3.5,2.1,5.3,9.1,5.3c5.6,0,8-1.3,8-4.2c0-1.7-0.7-3-9.4-3.8C51,65.5,46.4,64,46.4,58.2c0-5.4,4.6-8.6,12.2-8.6
			c8.6,0,12.8,2.9,13.4,9.3c0,0.2-0.1,0.4-0.2,0.5c-0.1,0-0.3,0.1-0.5,0.1h-3.5c-0.3,0-0.7-0.2-0.8-0.7c-0.9-3.7-2.8-4.9-8.4-4.9
			c-6.1,0-6.8,2.2-6.8,3.7c0,2,0.9,2.5,9.1,3.6c8.1,1.1,12,2.6,12,8.4C73,75.6,68.1,79,59.7,79z"/>
	</g>
	<path display="inline" fill="#FFFFFF" d="M26.8,15.7c0-0.3-0.2-0.7-0.4-0.8L19,10.7c-0.1-0.1-0.2-0.1-0.4-0.1h-0.1
		c-0.1,0-0.3,0-0.4,0.1L10.6,15c-0.3,0.1-0.4,0.4-0.4,0.8v11.4c0,0.1,0.1,0.3,0.2,0.4c0.1,0.1,0.3,0.1,0.4,0l4.3-2.5
		c0.3-0.2,0.4-0.4,0.4-0.8V19c0-0.3,0.2-0.7,0.4-0.8l1.8-1.1C18,17,18.2,17,18.3,17s0.3,0,0.4,0.1l1.8,1.1c0.3,0.1,0.4,0.4,0.4,0.8
		v5.3c0,0.3,0.2,0.7,0.4,0.8l4.3,2.5c0.1,0.1,0.3,0.1,0.4,0c0.1-0.1,0.2-0.2,0.2-0.4L26.8,15.7z"/>
	<path display="inline" fill="#FFFFFF" d="M66,0.1c-0.1-0.1-0.3-0.1-0.4,0c-0.1,0.1-0.2,0.2-0.2,0.4v11.3c0,0.1-0.1,0.2-0.1,0.2
		c-0.1,0.1-0.2,0.1-0.3,0L63,10.9c-0.3-0.1-0.7-0.1-0.9,0l-7.4,4.2c-0.3,0.1-0.4,0.4-0.4,0.8v8.5c0,0.3,0.2,0.7,0.4,0.8l7.4,4.2
		c0.3,0.1,0.7,0.1,0.9,0l7.4-4.2c0.3-0.1,0.4-0.4,0.4-0.8V3.3c0-0.3-0.2-0.7-0.4-0.8L66,0.1z M65.3,21.7c0,0.1,0,0.1-0.1,0.2
		l-2.5,1.4c-0.1,0-0.1,0-0.2,0L60,21.9c-0.1,0-0.1-0.1-0.1-0.2v-2.9c0-0.1,0-0.1,0.1-0.2l2.5-1.4c0.1,0,0.1,0,0.2,0l2.5,1.4
		c0.1,0,0.1,0.1,0.1,0.2V21.7z"/>
	<path display="inline" fill="#FFFFFF" d="M92.2,18.6c0.3-0.1,0.4-0.4,0.4-0.8v-2.1c0-0.3-0.2-0.7-0.4-0.8L85,10.8
		c-0.3-0.1-0.7-0.1-0.9,0l-7.4,4.2c-0.3,0.1-0.4,0.4-0.4,0.8v8.5c0,0.3,0.2,0.7,0.4,0.8l7.3,4.1c0.2,0.1,0.7,0.1,0.9,0l4.5-2.5
		c0.1-0.1,0.2-0.2,0.2-0.4c0-0.1-0.1-0.3-0.2-0.4l-7.4-4.2c-0.1-0.1-0.2-0.2-0.2-0.4v-2.6c0-0.1,0.1-0.3,0.2-0.4l2.3-1.3
		c0.1-0.1,0.3-0.1,0.4,0l2.3,1.3c0.1,0.1,0.2,0.2,0.2,0.4v2.1c0,0.1,0.1,0.3,0.2,0.4s0.3,0.1,0.4,0L92.2,18.6z"/>
	<path display="inline" fill="#81BE41" d="M40.1,10.8c0.3-0.1,0.7-0.1,0.9,0l7.4,4.2c0.3,0.1,0.4,0.4,0.4,0.8v8.5
		c0,0.3-0.2,0.7-0.4,0.8L41,29.3c-0.3,0.1-0.7,0.1-0.9,0L32.8,25c-0.2-0.2-0.4-0.4-0.4-0.8v-8.5c0-0.3,0.2-0.7,0.4-0.8L40.1,10.8z"
		/>
	<path display="inline" fill="#81BE41" d="M84.3,18.2c0,0,0.1,0,0.2,0L86,19l0.1,0.1v1.6c0,0.1,0,0.1-0.1,0.1l-1.4,0.8
		c0,0-0.1,0-0.2,0l-1.4-0.8l-0.1-0.1v-1.6c0-0.1,0-0.1,0.1-0.1L84.3,18.2z"/>
</g>
<g id="nodeJS_dark" display="none">
	<g display="inline">
		<path fill="#81BE41" d="M51.5,100.2c-1,0-2-0.2-2.8-0.8l-8.9-5.3c-1.3-0.8-0.7-1-0.2-1.2c1.7-0.7,2.2-0.8,4-1.8
			c0.2-0.1,0.4-0.1,0.7,0l6.8,4c0.2,0.1,0.7,0.1,0.9,0l26.7-15.4c0.2-0.1,0.4-0.4,0.4-0.8V48.4c0-0.3-0.1-0.5-0.4-0.8L51.9,32.3
			c-0.2-0.1-0.5-0.1-0.9,0L24.4,47.6c-0.2,0.1-0.4,0.4-0.4,0.8v30.7c0,0.3,0.2,0.5,0.4,0.8l7.3,4.2c3.9,2,6.4-0.3,6.4-2.7V51
			c0-0.4,0.3-0.8,0.8-0.8h3.4c0.4,0,0.8,0.3,0.8,0.8v30.4c0,5.3-2.9,8.4-7.9,8.4c-1.5,0-2.7,0-6.2-1.6l-6.9-4
			c-1.6-1.1-2.6-2.9-2.6-5V48.4c0-2,1.1-3.9,2.8-4.9l26.6-15.4c1.7-1,3.9-1,5.6,0l26.7,15.4c1.7,1,2.8,2.8,2.8,4.9v30.7
			c0,2-1.1,3.9-2.8,4.9L54.3,99.4C53.5,99.8,52.5,100.2,51.5,100.2z"/>
		<path fill="#81BE41" d="M59.7,79c-11.6,0-14.1-5.3-14.1-9.9c0-0.4,0.3-0.8,0.8-0.8h3.5c0.4,0,0.8,0.3,0.8,0.7
			c0.5,3.5,2.1,5.3,9.1,5.3c5.6,0,8-1.3,8-4.2c0-1.7-0.7-3-9.4-3.8C51,65.5,46.4,64,46.4,58.2c0-5.4,4.6-8.6,12.2-8.6
			c8.6,0,12.8,2.9,13.4,9.3c0,0.2-0.1,0.4-0.2,0.5c-0.1,0-0.3,0.1-0.5,0.1h-3.5c-0.3,0-0.7-0.2-0.8-0.7c-0.9-3.7-2.8-4.9-8.4-4.9
			c-6.1,0-6.8,2.2-6.8,3.7c0,2,0.9,2.5,9.1,3.6c8.1,1.1,12,2.6,12,8.4C73,75.6,68.1,79,59.7,79z"/>
	</g>
	<path display="inline" fill="#333333" d="M26.8,15.7c0-0.3-0.2-0.7-0.4-0.8L19,10.7c-0.1-0.1-0.2-0.1-0.4-0.1h-0.1
		c-0.1,0-0.3,0-0.4,0.1L10.6,15c-0.3,0.1-0.4,0.4-0.4,0.8v11.4c0,0.1,0.1,0.3,0.2,0.4c0.1,0.1,0.3,0.1,0.4,0l4.3-2.5
		c0.3-0.2,0.4-0.4,0.4-0.8V19c0-0.3,0.2-0.7,0.4-0.8l1.8-1.1C18,17,18.2,17,18.3,17s0.3,0,0.4,0.1l1.8,1.1c0.3,0.1,0.4,0.4,0.4,0.8
		v5.3c0,0.3,0.2,0.7,0.4,0.8l4.3,2.5c0.1,0.1,0.3,0.1,0.4,0c0.1-0.1,0.2-0.2,0.2-0.4L26.8,15.7z"/>
	<path display="inline" fill="#333333" d="M66,0.1c-0.1-0.1-0.3-0.1-0.4,0c-0.1,0.1-0.2,0.2-0.2,0.4v11.3c0,0.1-0.1,0.2-0.1,0.2
		c-0.1,0.1-0.2,0.1-0.3,0L63,10.9c-0.3-0.1-0.7-0.1-0.9,0l-7.4,4.2c-0.3,0.1-0.4,0.4-0.4,0.8v8.5c0,0.3,0.2,0.7,0.4,0.8l7.4,4.2
		c0.3,0.1,0.7,0.1,0.9,0l7.4-4.2c0.3-0.1,0.4-0.4,0.4-0.8V3.3c0-0.3-0.2-0.7-0.4-0.8L66,0.1z M65.3,21.7c0,0.1,0,0.1-0.1,0.2
		l-2.5,1.4c-0.1,0-0.1,0-0.2,0L60,21.9c-0.1,0-0.1-0.1-0.1-0.2v-2.9c0-0.1,0-0.1,0.1-0.2l2.5-1.4c0.1,0,0.1,0,0.2,0l2.5,1.4
		c0.1,0,0.1,0.1,0.1,0.2V21.7z"/>
	<path display="inline" fill="#333333" d="M92.2,18.6c0.3-0.1,0.4-0.4,0.4-0.8v-2.1c0-0.3-0.2-0.7-0.4-0.8L85,10.8
		c-0.3-0.1-0.7-0.1-0.9,0l-7.4,4.2c-0.3,0.1-0.4,0.4-0.4,0.8v8.5c0,0.3,0.2,0.7,0.4,0.8l7.3,4.1c0.2,0.1,0.7,0.1,0.9,0l4.5-2.5
		c0.1-0.1,0.2-0.2,0.2-0.4c0-0.1-0.1-0.3-0.2-0.4l-7.4-4.2c-0.1-0.1-0.2-0.2-0.2-0.4v-2.6c0-0.1,0.1-0.3,0.2-0.4l2.3-1.3
		c0.1-0.1,0.3-0.1,0.4,0l2.3,1.3c0.1,0.1,0.2,0.2,0.2,0.4v2.1c0,0.1,0.1,0.3,0.2,0.4s0.3,0.1,0.4,0L92.2,18.6z"/>
	<path display="inline" fill="#81BE41" d="M40.1,10.8c0.3-0.1,0.7-0.1,0.9,0l7.4,4.2c0.3,0.1,0.4,0.4,0.4,0.8v8.5
		c0,0.3-0.2,0.7-0.4,0.8L41,29.3c-0.3,0.1-0.7,0.1-0.9,0L32.8,25c-0.2-0.2-0.4-0.4-0.4-0.8v-8.5c0-0.3,0.2-0.7,0.4-0.8L40.1,10.8z"
		/>
	<path display="inline" fill="#81BE41" d="M84.3,18.2c0,0,0.1,0,0.2,0L86,19l0.1,0.1v1.6c0,0.1,0,0.1-0.1,0.1l-1.4,0.8
		c0,0-0.1,0-0.2,0l-1.4-0.8l-0.1-0.1v-1.6c0-0.1,0-0.1,0.1-0.1L84.3,18.2z"/>
</g>
<g id="Cordova" display="none">
	<path display="inline" fill="#444445" d="M76.9,2.8H23L0.4,39.3l9.2,58.2h16L24.4,84h7.9l1.4,13.4h32.8l1.2-13.6h7.9l-1,13.6h15.9
		l9-58.3L76.9,2.8z M77.3,74.6H23l-4.7-35.8l9-18.1h14.8l-1.1,6.7h18.1l-1-6.7h14.2l9.3,18.6L77.3,74.6z"/>
	<ellipse display="inline" fill="#444445" cx="36.4" cy="55" rx="2.3" ry="8.6"/>
	<ellipse display="inline" fill="#444445" cx="64.5" cy="55" rx="2.3" ry="8.6"/>
</g>
<g id="SMF" display="none">
	<path display="inline" fill="#333333" d="M98.2,40.2l-1.9-5.6L35.4,55.7l-1.7-3.3l-2.5,4.7L1.8,67.4L3.7,73l23.5-8.1L19.8,79h27.8
		l-9.3-17.9L98.2,40.2z M33.6,62c-1.3,0-2.3-1-2.3-2.3c0-1.3,1-2.3,2.3-2.3s2.3,1,2.3,2.3C36,61,34.9,62,33.6,62z"/>
</g>
<g id="Angular" display="none">
	<path display="inline" fill="#B3B3B3" d="M51.6,2.1L6.4,18l7.1,59.1l38.1,20.9l38.3-21.2L97,17.7L51.6,2.1z M51.6,2.1"/>
	<path display="inline" fill="#B63032" d="M92.5,21.1l-41-14v85.9l34.4-19L92.5,21.1z M92.5,21.1"/>
	<path display="inline" fill="#E23337" d="M11.5,21.4l6.1,52.9l33.9,18.8V7.1L11.5,21.4z M11.5,21.4"/>
	<path display="inline" fill="#F3F3F3" d="M61,49.9l-9.4-19.7l-8.3,19.7H61z M64.6,58.2h-25l-5.6,14l-10.4,0.2l27.9-62.1l28.9,62.1
		h-9.6L64.6,58.2z M64.6,58.2"/>
	<path display="inline" fill="#B3B3B3" d="M51.5,10.3l0.1,19.9L61,49.9h-9.5l0,8.3l13.1,0l6.1,14.2l10,0.2L51.5,10.3z M51.5,10.3"/>
</g>
<g id="Ember" display="none">
	<g display="inline">
		<path fill="#BA8449" d="M70.9,62.5c-0.4-0.5-0.7-0.9-1.1-1.3c-0.1-0.1-0.2-0.2-0.3-0.3c0,0,0,0-0.1,0c-0.2-0.1-0.4-0.1-0.7-0.2
			c-1.1-0.2-2.3-0.2-3.5-0.2c-2.4,0-4.8,0-7.2,0.2c-4.8,0.2-9.6,0.6-14.5,1.1c-2.4,0.3-4.8,0.6-7.2,0.9c-1.2,0.2-2.4,0.4-3.5,0.6
			c-0.6,0.1-1.1,0.3-1.7,0.4c-0.3,0.1-0.5,0.2-0.8,0.3c-0.1,0-0.2,0.1-0.3,0.1c0,0,0,0,0,0c-0.3,0.4-0.5,0.8-0.8,1.2
			c-0.3,0.4-0.5,0.9-0.7,1.3c-0.4,0.9-0.8,1.9-1.2,2.8c-0.4,1-0.7,2-1.1,2.9c-0.2,0.5-0.4,1.1-0.6,1.6c-0.1,0.2-0.2,0.8-0.3,0.8h3.3
			c1.8-3,5.1-8.6,7.8-9.7c0.8-0.3,13.1-1.9,21.2-1.9c3,0,5.1,0.3,6.2,0.7C67.4,65.4,74,72,74.7,75h1.9c-0.4,0-1.1-4.3-2-6.3
			C73.5,66.6,72.4,64.4,70.9,62.5z"/>
	</g>
	<g display="inline">
		<polygon fill="#BA8449" points="69.5,61 69.5,61 69.5,60.9 69.5,61 69.5,61 		"/>
	</g>
	<g display="inline">
		<path fill="#895C2F" d="M76.3,67.8c-1-2.3-2.2-4.5-3.8-6.5c-0.4-0.5-0.8-1-1.3-1.5c-0.1-0.1-0.2-0.2-0.4-0.3l-0.1-0.1l-0.1,0
			l-0.1-0.1c-0.1-0.1-0.1-0.1-0.2-0.1c-0.1-0.1-0.2-0.1-0.3-0.1c-0.4-0.1-0.7-0.2-1.1-0.3c-1.3-0.2-2.5-0.2-3.8-0.3
			c-2.5,0-4.9,0-7.3,0.1c-4.9,0.2-9.7,0.6-14.6,1.1c-2.4,0.3-4.9,0.5-7.3,0.9c-1.2,0.2-2.4,0.4-3.6,0.6c-0.6,0.1-1.2,0.3-1.8,0.5
			c-0.3,0.1-0.6,0.2-1,0.3c-0.2,0.1-0.3,0.1-0.5,0.3c-0.1,0.1-0.2,0.1-0.3,0.2c-0.1,0.1-0.2,0.2-0.4,0.4l0,0c-0.3,0.4-0.7,0.9-1,1.4
			c-0.3,0.5-0.6,1-0.9,1.4c-0.5,1-1,2-1.5,2.9c-0.4,1-0.8,2-1.2,3c-0.2,0.5-0.3,1-0.5,1.5c-0.1,0.3-0.1,0.5-0.2,0.8l-0.1,0.4l0,0.2
			c0,0,0.1,0.2,0.2,0.3l0,0.2h2.2c0.1,0,0.2-0.6,0.3-0.8c0.2-0.5,0.4-1,0.6-1.5c0.4-1,0.7-2,1.1-3c0.4-1,0.7-1.9,1.2-2.9
			c0.2-0.5,0.4-0.9,0.7-1.3c0.2-0.4,0.5-0.8,0.8-1.2c0,0,0,0,0,0c0.1,0,0.2-0.1,0.3-0.1c0.2-0.1,0.5-0.2,0.8-0.3
			c0.5-0.2,1.1-0.3,1.7-0.4c1.2-0.2,2.3-0.5,3.5-0.6c2.4-0.4,4.8-0.7,7.2-0.9c4.8-0.5,9.6-0.9,14.5-1.1c2.4-0.1,4.8-0.2,7.2-0.2
			c1.2,0,2.4,0.1,3.5,0.2c0.3,0,0.5,0.1,0.7,0.2c0,0,0.1,0,0.1,0c0.1,0.1,0.2,0.2,0.3,0.3c0.4,0.4,0.8,0.8,1.1,1.3
			c1.4,1.8,2.6,4,3.6,6.2c0.9,2,1.6,6.3,2,6.3h1.9c-0.2,0-0.5-2.5-0.8-3.6C77.2,70.2,76.8,68.9,76.3,67.8z M69.5,60.9L69.5,60.9
			L69.5,60.9L69.5,60.9L69.5,60.9L69.5,60.9z"/>
	</g>
	<g display="inline">
		<path fill="#FFF8EF" d="M63.8,64.8c-1-0.4-3-0.7-5.9-0.7c-8.2,0-20.3,1.6-20.9,1.9c-2.5,1-5.6,5.9-7.3,8.9h44.3
			C73.2,72,67,66.1,63.8,64.8z"/>
	</g>
	<g display="inline">
		<path fill="#E5D1AE" d="M64,64.1c-1.1-0.4-3.2-0.7-6.2-0.7c-8.1,0-20.4,1.6-21.2,1.9c-2.8,1.1-6.1,6.7-7.8,9.7h0.9
			c1.7-3,4.8-8,7.3-9c0.7-0.2,12.7-1.9,20.9-1.9c2.9,0,4.9,0.3,5.9,0.7C67,66.1,73.2,72,73.9,75h0.8C74,72,67.4,65.4,64,64.1z"/>
	</g>
	<g display="inline">
		<path fill="#BA8449" d="M79.1,64.3c-0.5,0.9-2.9,3.5-4.9,3C73.2,67,73.4,75,75.8,75h4.4c1.2,0,3.1-8.1,3.4-8.7
			C83.9,65.6,79.6,63.4,79.1,64.3z"/>
	</g>
	<g display="inline">
		<path fill="#895C2F" d="M83.9,65.8c-0.1-1.2-0.8-2.2-2.1-2.5c-1-0.2-2.4-0.1-2.8,0.6c-0.7,1.3-1.5,2.9-5.7,3.1
			c-0.3,0-0.5,0.2-0.5,0.5c0,0.3,0.2,0.5,0.5,0.5c4.4-0.2,5.6-1.9,6.5-3.6c0.2-0.2,1.2-0.3,2.1,0c0.6,0.2,0.9,0.8,0.9,1.5
			c0.1,2.4-2.4,9.1-3.7,9.1h1.2C81.8,72,84,68.3,83.9,65.8z"/>
	</g>
	<g display="inline" opacity="0.15">
		<path fill="#C88A3D" d="M75.3,74.9c2.7-0.6,5.1-3.3,5.3-7.2c0-0.7-1.4-2.1-1.4-2.5s4.6,0.1,4.8,1.1c0.2,1.1-2.8,7.5-3.8,8.6
			C79.1,75.9,73.7,75.2,75.3,74.9z"/>
	</g>
	<g display="inline">
		<path fill="#FFB4AA" d="M77.4,61.7c-0.3,2.4,4.3,5.6,7.4,5.5c2.6-0.1,5.5-1.3,5.1-2.7c-0.4-1.5-3,0.3-3.2-0.8s3-2.9,1.7-4.2
			c-1.2-1.2-2.5,2-3.9,1.5c-1.4-0.5,0.3-3.6-1.4-3.8c-2-0.2-1.3,4.3-2.8,4.4C79.2,61.7,77.5,60.9,77.4,61.7z"/>
		<path fill="#FF8189" d="M84.7,70c-2.1,0-4.9-2.7-6.5-4.5c-0.8-0.9-1.2-2.5-1-3.2c0-0.3,0.2-0.9,0.8-0.9c0.3,0,0.6-0.1,1,0
			c0.4,0.1,0.9,0.1,1.3,0.1c0.5,0,0.7-1,0.9-1.9c0.3-1.2,0.6-2.6,1.8-2.6c0.1,0,0.1,0,0.2,0c1.1,0.1,1.1,1.3,1.1,2.2
			c0,0.9,0,1.5,0.4,1.6c0.5,0.2,1.1-0.4,1.7-0.9c0.5-0.5,1-1,1.6-1c0.3,0,0.5,0.1,0.8,0.4c0.9,1,0,2.1-0.8,3c-0.4,0.5-0.9,1-0.8,1.3
			c0,0.1,0,0.1,0.3,0.1c0.2,0,0.4,0,0.7-0.1c0.3-0.1,0.6-0.1,0.9-0.1c0.6,0,1.1,0.3,1.2,0.8c0.1,0.4,0,2.1-0.2,2.4
			c-0.7,1-2.9,3.2-5.1,3.2C84.8,70,84.7,70,84.7,70z M78,61.6c-0.3,0-0.3,0.1-0.3,0.1c-0.1,0.6,0.2,1.4,0.9,2.2
			c1.5,1.7,4.1,3.1,6.1,3.1c0,0,0.1,0,0.1,0c2,0,4.1-0.8,4.7-1.7c0.2-0.3,0.2-0.5,0.2-0.7c-0.1-0.3-0.3-0.4-0.7-0.4
			c-0.3,0-0.6,0.1-0.9,0.1c-0.3,0.1-0.6,0.1-0.8,0.1c-0.6,0-0.7-0.3-0.8-0.5c-0.1-0.5,0.4-1.1,0.9-1.7c0.8-1,1.4-1.8,0.8-2.4
			c-0.2-0.2-0.3-0.2-0.4-0.2c-0.4,0-0.8,0.4-1.3,0.8c-0.6,0.5-1.1,1-1.8,1c-0.1,0-0.2,0-0.4-0.1c-0.8-0.3-0.8-1.3-0.8-2.1
			c0-1.1,0-1.6-0.6-1.7c-0.8-0.1-1.1,0.8-1.4,2.2c-0.2,1.1-0.5,2.2-1.4,2.2c-0.4,0-0.9-0.1-1.4-0.1C78.6,61.6,78.2,61.6,78,61.6z"/>
	</g>
	<g display="inline" opacity="0.5">
		<path fill="#FFB4AA" d="M78.7,61.7c0.5,0.4,2.3,0.9,2.6,0.2c0.3-0.7,0.5-1.9,0.3-2.1c-0.1,0.6-0.3,1.7-1,2
			C80.1,62,79.1,61.7,78.7,61.7z"/>
	</g>
	<g display="inline" opacity="0.5">
		<path fill="#FFB4AA" d="M83.7,59.1c-0.1,0.4-0.4,2.4,0.6,2.7c0.9,0.2,1.5-0.3,2.2-1.4c-0.4,0.4-1.3,1.2-2.1,0.9
			C83.7,60.9,83.6,60.1,83.7,59.1z"/>
	</g>
	<g display="inline" opacity="0.25">
		<path fill="#FFB4AA" d="M79.2,64.5c5.2-2.5,6.3,1.6,6,2.4C83.2,67.3,79.5,65.2,79.2,64.5z"/>
	</g>
	<g display="inline" opacity="0.5">
		<path fill="#FFB4AA" d="M86.8,62.8c-0.9,1-0.4,1.8,0.1,1.9c0.7,0.1,1.7-0.6,1.5-0.6c-0.2,0-1.6,0.5-1.9-0.2
			C86.3,63.4,86.7,63.1,86.8,62.8z"/>
	</g>
	<g display="inline" opacity="0.15">
		<path fill="#C88A3D" d="M27.5,69.5c16.7,9.6,49.8-0.1,48-3.3c-2.3-4.1-3.3-6.8-8.4-6.5C62,59.9,29.4,62.5,28,63.5
			S25.3,68.2,27.5,69.5z"/>
	</g>
	<g display="inline">
		<path fill="#FFF8EF" d="M63.8,11.9c7.5-0.7,11.9-8.5,16.4-7.2c-3,1.9-6.1,5.7-10.3,12C68.9,18.1,61.8,12.1,63.8,11.9z"/>
		<path fill="#E5D1AE" d="M69.4,17.3c-1.7,0-6.2-3.6-6.3-5c0-0.3,0.2-0.7,0.7-0.7c3.7-0.3,6.6-2.5,9.2-4.3c2.3-1.6,4.2-3,6.3-3
			c0.4,0,0.7,0,1.1,0.1c0.1,0,0.3,0.2,0.3,0.3c0,0.1,0,0.3-0.2,0.4c-3.1,2-6.2,6-10.2,11.9C70.1,17.1,69.9,17.3,69.4,17.3z M63.9,14
			c0,0,0.2-0.3,0.8,0.3c1.3,1.4,3.7,2.7,4.7,2.7c0.1,0,0.2-0.2,0.2-0.3c3.7-5.5,6.6-9.5,9.6-11.6c-1.8,0-3.6,2.2-5.8,3.7
			C70.8,10.7,67.7,14,63.9,14C63.9,14,63.9,14,63.9,14z"/>
	</g>
	<g display="inline">
		<path fill="#BA8449" d="M17,10.2c3.4-3.1,9.4-1.9,14.3-0.1c2.8,1,6.4,0.2,6.7,0.8c0.6,1.3-3,4.1-6,4C29.1,14.8,24.1,9.3,17,10.2z"
			/>
		<path fill="#895C2F" d="M32.1,17H32c-1.1,0-2.5-1.7-4.1-2.6c-2.5-1.4-5.5-3.5-9.2-3.5c-0.5,0-1.1-0.2-1.6-0.1
			c-0.1,0-0.2-0.2-0.3-0.3c0-0.1,0-0.3,0.1-0.4c1.4-1.3,3.4-2,6-2c2.4,0,5.3,0.6,8.6,1.8c1.3,0.5,2.8,0.5,4,0.5c0.3,0,0.5,0,0.8,0
			c0.2,0,0.4,0,0.6,0c0.9,0,1.3,0.1,1.5,0.4c0.1,0.3,0.2,1.7-0.3,2.3C37.1,14.5,34.5,17,32.1,17z M18.7,9.8c3.8,0,6.9,2.9,9.4,4.3
			C29.7,15,31,17,32,17h0.1c2.1,0,4.6-2.6,5.4-3.9c0.2-0.3,0.3-1.2,0.2-1.5c-0.1,0-0.3-0.4-1-0.4c-0.2,0-0.4-0.1-0.6-0.1
			C36,11,35.7,11,35.4,11c-1.2,0-2.8-0.1-4.1-0.6C25.2,8.2,20.6,8,17.9,9.9C18.1,9.9,18.4,9.8,18.7,9.8z"/>
	</g>
	<g display="inline">
		<path fill="#FFB4AA" d="M69,15.6c1.7,0.5,8.2-12.3,11.4-11c10.1,4-3,19.5-7.2,19.8C69,24.7,68,15.3,69,15.6z"/>
		<path fill="#FF8189" d="M72.9,24.6c-1.4,0-2.7-1.1-3.5-3.1c-0.7-1.7-1-3.6-1-4.8c0-0.3,0-1.4,0.6-1.4c0,0,0.1,0,0.1,0c0,0,0,0,0,0
			c0.6,0,2.3-2.2,3.7-4.2c2.4-3.2,5.1-6.9,7.1-6.9c0.2,0,0.4,0,0.6,0.1c3,1.2,4.3,3.5,3.8,6.6c-0.9,6-8,13.4-11.1,13.6
			C73.1,24.6,73,24.6,72.9,24.6z M69,15.9c-0.2,0.5-0.1,3.2,0.9,5.6c0.6,1.3,1.6,2.8,3.2,2.7c2.6-0.2,9.7-7.2,10.6-13.2
			c0.4-2.9-0.7-5-3.5-6.1c-0.1,0-0.2-0.1-0.4-0.1c-1.7,0-4.5,3.7-6.7,6.7C71,14.4,69.8,16,69,15.9z"/>
	</g>
	<g display="inline">
		<path fill="#FFB4AA" d="M32.5,14.1c-2.8,1.2-12.7-9.1-16.9-2.5c-2.8,4.4,5.6,13.2,11.5,14.2S34,13.4,32.5,14.1z"/>
		<path fill="#FF8189" d="M27.8,26.1L27.8,26.1c-0.2,0-0.4,0-0.6-0.1c-4.2-0.7-9.6-5.1-11.6-9.5c-0.9-2-1-3.8-0.1-5.1
			c1-1.6,2.4-2.4,4.2-2.4c2.5,0,5.4,1.5,7.9,2.9c1.8,1,3.4,1.9,4.4,1.9h0c0.2,0,0.3,0,0.4-0.1c0.1,0,0.1,0,0.2,0
			c0.1,0,0.3,0.1,0.5,0.3c0.6,1.1,0.4,6.2-1.5,9.4C30.6,25.2,29.3,26.1,27.8,26.1z M19.6,9.6c-1.6,0-2.8,0.7-3.7,2.1
			c-0.9,1.5-0.4,3.3,0.2,4.6c1.9,4.2,7.2,8.6,11.2,9.2c0.2,0,0.4,0,0.6,0c2.7,0,4-3.3,4.5-5.2c0.8-3.1,0.7-5.8,0.3-6.1
			c-0.2,0.1-0.4,0.1-0.6,0.1h0c-1.1,0-2.8-0.9-4.7-1.9C24.8,11.1,22,9.6,19.6,9.6z"/>
	</g>
	<g display="inline">
		<path fill="#FFB4AA" d="M76.7,7c-0.5,1.8-5,6.3-4.4,10.2c0.2,1.4,1.8,5.7,2.4,5.6c0.7-0.2,2.3-1.2,2.2-1c-0.1,0.2-2.3,1.8-3.1,2.2
			c-0.8-0.4-4.2-8.3-3.7-8.7C71.5,14,76.1,7.1,76.7,7z"/>
	</g>
	<g display="inline">
		<path fill="#FFB4AA" d="M15.8,11.9c3-1.9,8.6-1.1,11.9,2.1c1.2,1.1,1.5,5-1.1,7.6c-1,1,6.1-3.7,6.1-5c0-1.4-0.5-1.8-1.5-2.2
			c-3.9-1.5-8.1-4.8-11.6-4.7C17.2,9.7,16.1,11.3,15.8,11.9z"/>
	</g>
	<g display="inline" opacity="0.25">
		<path fill="#FFB4AA" d="M78,6.1c6.9,3.8-4.2,9.6-3.4,16.9c-1.5-0.2-5-7.1-4.2-7.8C71.6,14.3,76.8,5.7,78,6.1z"/>
	</g>
	<g display="inline">
		<path fill="#E5D1AE" d="M25,29.9c0,1.1-0.3,2.1-0.8,3c-0.5,0.9-0.8,1.8-1.3,2.7c-1.1,1.8-2.1,3.5-3,5.2c-1,1.8-1.8,3.6-2.3,5.5
			c-0.5,1.9-0.7,3.8-0.4,5.7c0.3,1.9,1.1,3.7,2.3,5.2c0.3,0.4,0.6,0.8,0.9,1.1c0.2,0.2,0.3,0.4,0.5,0.5c0.2,0.2,0.3,0.3,0.5,0.5
			c0.7,0.6,1.5,1.2,2.3,1.8c1.7,1.1,3.5,2,5.3,2.8c1.8,0.8,3.7,1.5,5.7,2c1.9,0.5,3.9,0.9,5.9,1.2c2,0.3,4,0.4,6,0.3
			c0.5,0,1-0.1,1.5-0.1l1.5-0.1c1-0.1,2-0.2,3-0.3c2-0.2,4-0.5,6-0.8c2-0.3,4-0.7,5.9-1.3c1.9-0.5,3.9-1.1,5.7-2
			c1.8-0.8,3.5-1.9,5-3.3c0.4-0.4,0.7-0.7,1-1.1c0.2-0.2,0.3-0.4,0.5-0.6c0.2-0.2,0.3-0.4,0.5-0.6c0.3-0.4,0.5-0.9,0.7-1.4
			c0.2-0.5,0.3-1,0.5-1.5c0.5-2,0.6-4,0.5-6.1c-0.1-2-0.5-4-1-6c-1-4-2.4-7.8-3.9-11.6c-0.4-0.9-0.8-1.9-1.1-2.8l-0.6-1.4
			c-0.2-0.5-0.4-1-0.5-1.5c-0.3-1-0.5-2-0.7-3c-0.2-1-0.5-2-0.8-2.9c-0.6-1.9-1.6-3.5-3-4.9c-1.4-1.4-3.1-2.4-4.9-3.1
			c-1.8-0.8-3.8-1.2-5.8-1.6c-2-0.3-4-0.5-6.1-0.6c-2-0.1-4.1-0.1-6.1,0.1c-2,0.2-4,0.7-5.9,1.4c-1.9,0.8-3.6,1.9-5.1,3.2
			c-1.5,1.4-2.7,3-3.6,4.8c-0.9,1.8-1.6,3.7-2.1,5.6c-0.1,0.5-0.3,1-0.4,1.4c-0.1,0.2-0.1,0.5-0.2,0.7c0,0.1,0,0.2-0.1,0.4
			c0,0.1-0.1,0.2-0.1,0.4c-0.2,0.5-0.8,0.9-1.1,1.4C25.7,28.9,25,29.4,25,29.9L25,29.9z M23,29.5c0-0.5,0.8-1,0.9-1.6
			c0-0.5,0.4-1.1,0.5-1.6c0-0.3,0.3-0.5,0.4-0.8c0.1-0.2,0.3-0.5,0.4-0.7c0.2-0.5,0.4-1,0.6-1.5c0.9-1.9,1.9-3.8,3.1-5.5
			c1.2-1.7,2.6-3.3,4.1-4.7c1.5-1.4,3.3-2.5,5.3-3.3c1.9-0.8,4-1.3,6-1.6c2.1-0.3,4.1-0.3,6.2-0.3c2.1,0,4.1,0.1,6.2,0.4
			c2.1,0.3,4.1,0.7,6.1,1.5c1,0.4,2,0.8,2.9,1.3c0.9,0.5,1.8,1.2,2.6,1.9c0.8,0.7,1.5,1.6,2.1,2.5c0.6,0.9,1,1.9,1.4,2.9
			c0.4,1,0.6,2,0.8,3.1c0.2,1,0.4,2,0.6,3c0.1,0.5,0.3,0.9,0.4,1.4c0.2,0.5,0.4,1,0.6,1.4c0.4,1,0.7,1.9,1.1,2.9
			c1.3,3.9,2.5,7.9,3.2,11.9c0.4,2,0.6,4.1,0.6,6.1c0,2.1-0.1,4.1-0.7,6.1c-0.1,0.5-0.3,1-0.5,1.5c-0.2,0.5-0.4,0.9-0.6,1.4
			c-0.1,0.2-0.2,0.5-0.3,0.7c-0.1,0.2-0.3,0.5-0.4,0.7c-0.3,0.4-0.6,0.9-0.9,1.3c-1.4,1.6-3.1,2.9-4.9,3.9c-1.8,1-3.8,1.8-5.8,2.3
			c-2,0.6-4,1-6.1,1.4c-2,0.4-4.1,0.7-6.1,0.9c-1,0.1-2,0.2-3.1,0.3l-1.5,0.1c-0.5,0-1,0.1-1.6,0.1c-4.2,0.2-8.4-0.4-12.4-1.5
			c-2-0.6-4-1.3-5.9-2.1c-1.9-0.8-3.8-1.8-5.6-3c-0.9-0.6-1.7-1.2-2.5-2c-0.2-0.2-0.4-0.4-0.6-0.6c-0.2-0.2-0.4-0.4-0.5-0.6
			c-0.3-0.4-0.7-0.8-1-1.3c-1.3-1.7-2.2-3.8-2.5-6c-0.3-2.2,0-4.4,0.6-6.4c0.6-2,1.6-3.9,2.6-5.8c1-1.8,2.1-3.5,3.2-5.3
			c0.5-0.9,0.4-1.7,0.8-2.6C23.1,31.3,23,30.4,23,29.5L23,29.5z"/>
	</g>
	<g display="inline">
		<path fill="#FFF8EF" d="M25.1,29.7c-1.6,7.1-15.6,18.3-5,29.8c3.6,3.9,15.4,9.9,27.2,8.8C78,65.4,85.8,58,72.8,26.2
			c-2.1-5.2,0.3-17.1-22.3-17.7C41.1,8.2,29.7,9.5,25.1,29.7z"/>
	</g>
	<g display="inline">
		<path fill="#E5BFA1" d="M31,16.3c0,0.7-0.6,1.5-0.8,2.3C30,19.4,30,20.2,29.9,21c-0.1,1.7,0.1,3.4,0.5,5c0.7,3.3,2.2,6.5,4.2,9.2
			c1,1.3,2.2,2.6,3.5,3.6c1.3,1.1,2.7,2,4.3,2.7c1.5,0.7,3.1,1.3,4.8,1.6c1.7,0.4,3.4,0.6,5.1,0.7c1.7,0.1,3.4,0,5.1-0.2l0.6-0.1
			c0.2,0,0.4-0.1,0.6-0.1c0.4-0.1,0.8-0.2,1.2-0.3c0.8-0.2,1.7-0.5,2.5-0.7c1.7-0.4,3.5-0.7,5.2-0.7c1.8,0,3.6,0.3,5.2,1.1
			c0.8,0.4,1.6,0.8,2.3,1.4c0.3,0.3,0.7,0.6,1,0.9c0.2,0.2,0.3,0.3,0.5,0.5c0.1,0.2,0.3,0.4,0.4,0.5c0.5,0.8,0.8,1.7,0.9,2.5
			c0.1,0.9,0.1,1.8,0,2.7c-0.1,1.8-0.6,3.5-1,5.2l-0.2,0.6l-0.1,0.3c0,0,0,0.1,0,0.1c0,0,0.1,0.1-0.1-0.3c-0.7-0.2-0.4,0.1-0.5,0
			c0,0,0,0,0,0c0.1-0.1,0.2-0.4,0.3-0.5c0.1-0.2,0.2-0.4,0.3-0.6c0.4-0.8,0.7-1.5,1-2.3c1.2-3.2,1.4-6.7,0.8-10
			c-0.3-1.7-0.8-3.3-1.4-4.9c-0.6-1.6-1.3-3.1-2.2-4.6l-0.3-0.6l-0.1-0.1l-0.1-0.1l0-0.1c-0.1-0.1-0.1-0.2-0.2-0.4
			c-0.2-0.5-0.3-0.9-0.4-1.4c-0.2-0.9-0.3-1.8-0.5-2.6c-0.2-1.7-0.5-3.4-0.9-5c-0.4-1.6-0.9-3.2-1.6-4.7c-0.7-1.5-1.6-2.9-2.7-4.1
			c-2.2-2.4-5.3-4-8.5-5c-3.2-0.9-6.7-1.2-10.1-1.3c-3.4,0-6.8,0.4-10.1,1.5c-1.6,0.5-3.2,1.3-4.6,2.2C33.2,13.7,31,14.9,31,16.3
			L31,16.3z M28,15.8c3-1.5,3.5-2.8,5-3.8c1.5-1,3.7-1.8,5.3-2.4c3.3-1.2,7.2-1.7,10.7-1.8c3.5-0.1,7.2,0.2,10.7,1.1
			c1.7,0.5,3.5,1.1,5.1,1.9c1.6,0.9,3.1,2,4.4,3.3c1.3,1.3,2.3,2.8,3.1,4.5c0.8,1.6,1.4,3.4,1.8,5.1c0.4,1.7,0.7,3.5,0.9,5.2
			c0.1,0.9,0.2,1.7,0.4,2.5c0.1,0.4,0.2,0.8,0.3,1.1c0,0.1,0.1,0.2,0.1,0.2l0,0.1l0,0.1l0.1,0.1l0.3,0.6c1.7,3.1,3,6.5,3.4,10.1
			c0.2,1.8,0.3,3.6,0.1,5.3c-0.2,1.8-0.6,3.5-1.3,5.2c-0.3,0.8-0.7,1.6-1.2,2.4c-0.1,0.2-0.2,0.4-0.3,0.6c-0.1,0.2-0.2,0.4-0.4,0.6
			c0,0,0,0.1-0.1,0.1c-0.1-0.1,0.2,0.3-0.6,0c-0.2-0.3-0.1-0.3-0.1-0.3c0-0.1,0-0.2,0-0.2l0.1-0.3l0.2-0.6c0.5-1.6,1-3.3,1.2-5
			c0.1-0.8,0.1-1.7,0-2.5c-0.1-0.8-0.3-1.7-0.8-2.3c-0.1-0.2-0.2-0.3-0.4-0.5c-0.1-0.2-0.3-0.3-0.4-0.5c-0.3-0.3-0.6-0.6-0.9-0.9
			c-0.7-0.5-1.4-1-2.2-1.3c-1.6-0.7-3.3-0.9-5-0.9c-1.7,0.1-3.4,0.4-5,0.9c-0.8,0.2-1.6,0.5-2.5,0.8c-0.4,0.1-0.8,0.3-1.3,0.4
			c-0.2,0.1-0.4,0.1-0.7,0.2c-0.2,0-0.4,0.1-0.7,0.1c-1.7,0.2-3.5,0.3-5.3,0.3c-1.8,0-3.5-0.2-5.3-0.6c-1.7-0.4-3.4-0.9-5-1.7
			c-1.6-0.8-3.1-1.7-4.5-2.8c-1.4-1.1-2.6-2.4-3.7-3.9c-2.1-2.9-3.6-6.2-4.3-9.7C29.1,24.6,29,22.8,29,21c0-0.9-1.1-1.8-0.9-2.7
			C28.4,17.5,28,16.6,28,15.8L28,15.8z"/>
	</g>
	<g display="inline">
		<path fill="#895C2F" d="M32.1,16.9C32,17,32,17,32,17c0,0,0,0,0,0.1c0,0,0,0.1,0,0.1c0,0.1,0.1,0.3,0.2,0.5
			c0.2,0.4,0.6,0.9,1.1,1.4c0.9,0.9,2.1,1.7,3.2,2.5c2.3,1.6,4.9,3,7.4,4.3c5.1,2.7,10.3,5.1,15.5,7.7c2.6,1.3,5.2,2.5,7.8,3.9
			c2.6,1.3,5.2,2.7,7.6,4.3c0.6,0.4,1.2,0.8,1.8,1.3c0.3,0.2,0.6,0.5,0.9,0.8c0.1,0.1,0.3,0.3,0.4,0.4l0.1,0.1l0.1,0.1
			c0.1,0.1,0.1,0.2,0.2,0.2c0.5,0.6,0.8,1.4,1,2.2c0.2,0.8,0.3,1.6,0.3,2.3c-0.1,1.6-0.5,3-0.9,4.4c-0.5,1.4-1.1,2.7-1.7,4L76,57.3
			v0c1.8-3,2.7-6.6,2.6-10.1c-0.1-3.5-1-7-2.5-10.2c-0.4-0.8-0.8-1.6-1.2-2.4l-0.7-1.2c-0.3-0.5-0.4-1-0.5-1.5
			c-0.2-0.9-0.4-1.8-0.5-2.7c-0.1-0.9-0.3-1.8-0.5-2.7c-0.3-1.7-0.8-3.5-1.4-5.1C70.8,19.9,70,18.4,69,17c-1-1.4-2.2-2.5-3.6-3.5
			c-1.4-1-3-1.7-4.6-2.3c-3.3-1.1-6.8-1.5-10.3-1.5c-1.8,0-3.5,0.1-5.2,0.4c-1.7,0.3-3.4,0.7-5,1.3c-1.6,0.6-3.2,1.3-4.6,2.2
			c-0.7,0.5-1.4,1-2,1.5C33,15.7,32.5,16.3,32.1,16.9L32.1,16.9z M30,15.6c0.6-0.9,1.2-1.6,2-2.3c0.7-0.7,1.5-1.3,2.3-1.8
			c1.6-1.1,3.3-1.9,5.1-2.5c3.6-1.3,7.4-1.8,11.1-1.7c3.7,0.1,7.5,0.6,11,1.9c1.8,0.6,3.5,1.5,5.1,2.6c1.6,1.1,3,2.5,4.1,4.1
			c1.1,1.6,2,3.3,2.6,5.1c0.6,1.8,1,3.6,1.3,5.4c0.2,0.9,0.3,1.8,0.4,2.7c0.1,0.9,0.2,1.8,0.4,2.6c0.1,0.4,0.2,0.8,0.4,1.1l0,0.1
			l0,0.1l0.1,0.1l0.2,0.3l0.3,0.6c0.4,0.8,0.8,1.7,1.2,2.5c0.7,1.7,1.3,3.5,1.7,5.3c0.4,1.8,0.6,3.7,0.6,5.5c0,3.7-1.1,7.5-3,10.6
			l0,0c-0.1,0.2-0.5,0.3-0.7,0.2c-0.2-0.1-0.3-0.4-0.2-0.6l0,0c0.5-1.4,1.1-2.7,1.5-4c0.4-1.3,0.8-2.7,0.8-4.1
			c0-1.3-0.4-2.6-1.1-3.7c0-0.1-0.1-0.1-0.1-0.2L77,45.4l-0.1-0.1c-0.1-0.1-0.2-0.2-0.3-0.3c-0.2-0.2-0.5-0.4-0.8-0.7
			c-0.5-0.4-1.1-0.8-1.7-1.2c-2.4-1.5-5-2.8-7.6-4.1c-2.6-1.3-5.2-2.5-7.8-3.7c-5.3-2.4-10.5-4.8-15.7-7.4c-2.6-1.3-5.2-2.7-7.7-4.3
			c-1.2-0.8-2.5-1.7-3.6-2.7c-0.6-0.6-1.1-1.1-1.6-2c-0.2-0.4-0.4-0.9-0.5-1.5c0-0.3,0-0.6,0.1-0.9c0-0.2,0.1-0.3,0.2-0.4
			C29.8,15.9,29.9,15.7,30,15.6L30,15.6z"/>
	</g>
	<g display="inline">
		<path fill="#BA8449" d="M30.8,16c-4.2,6.5,0.8,31.4,27.2,28.1c2.8-0.4,12.1-5.3,18.3,1.6c3.4,3.8-1.2,13.5,0,11.5
			c1.3-2.2,6.5-10.8-1.2-24c-2.5-4.2,1.6-24.6-24.8-24.8C40.1,8.3,33.6,11.7,30.8,16z"/>
	</g>
	<g display="inline" opacity="0.15">
		<path fill="#C88A3D" d="M30.1,17.6c7.6-4.9,30.6-4.6,37.9,7.2c4.9,7.8-4.1,27-7.4,29.5c-3.3,2.5-7.9,4.6-19.9,1.7
			c-10.2-2.5,5.2-12-6.8-13.4C22.9,41.4,21.8,22.9,30.1,17.6z"/>
	</g>
	<g display="inline" opacity="0.25">
		<ellipse fill="#C88A3D" cx="48.8" cy="36.5" rx="2.5" ry="1.1"/>
	</g>
	<g display="inline">
		<g>
			<path fill="#FF8189" d="M47,33.4c0.6-0.4,3.6-0.3,4,0.1c0.4,0.4,1.2,2,0.3,2.7c-0.3,0.2-0.4-0.7-1.1-0.6C49.2,35.8,49.7,37,49,37
				c-1.1,0,0-1.3-1-1.5c-0.7-0.1-0.9,0.6-1.2,0.5C45.7,35.8,46.2,33.9,47,33.4z"/>
		</g>
		<g>
			<g>
				<path fill="#FF8189" d="M48.6,33.4L48.6,33.4c1.1,0,2,0.2,2.2,0.3c0.2,0.2,0.7,1.1,0.6,1.7c0,0.2-0.1,0.4-0.3,0.6
					c0,0,0-0.1-0.1-0.1c-0.1-0.2-0.4-0.5-0.8-0.5c-0.1,0-0.1,0-0.2,0c-0.6,0.1-0.8,0.8-0.9,1.1C49.1,36.9,49.1,37,49,37h0
					c-0.3,0-0.3-0.2-0.3-0.6c0-0.3,0-0.9-0.7-1.1c-0.1,0-0.1-0.1-0.2-0.1c-0.4,0-0.7,0.2-0.9,0.4c0,0-0.1,0.1-0.1,0.1
					c-0.1,0-0.3-0.1-0.4-0.4c-0.1-0.6,0.2-1.5,0.7-1.8C47.2,33.5,47.8,33.4,48.6,33.4 M48.6,33.2c-0.7,0-1.4,0.1-1.6,0.2
					c-0.8,0.5-1.3,2.4-0.2,2.6c0,0,0,0,0,0c0.3,0,0.4-0.5,1-0.5c0.1,0,0.1,0,0.2,0c1,0.2-0.1,1.5,1,1.5c0,0,0,0,0,0
					c0.7,0,0.2-1.2,1.1-1.4c0.1,0,0.1,0,0.2,0c0.5,0,0.6,0.6,0.9,0.6c0,0,0.1,0,0.1,0c1-0.7,0.1-2.3-0.3-2.7
					C50.7,33.3,49.6,33.2,48.6,33.2L48.6,33.2z"/>
			</g>
		</g>
	</g>
	<g display="inline" opacity="0.25">
		<path fill="#F6E8D0" d="M72.4,43.4c1.1,7.3-8,16.6-20.4,18.5c-12.3,1.9-21.4-9.1-22.6-16.5c-1.1-7.3,6.4-4.5,18.8-6.4
			C60.6,37.1,71.3,36.1,72.4,43.4z"/>
	</g>
	<g display="inline">
		<g opacity="0.5">
			<g>
				<path fill="#D7CAB2" d="M40.3,54.6c0.2,0.3,0.5,0.5,0.9,0.7c0.3,0.2,0.7,0.3,1.1,0.4c0.7,0.2,1.5,0.3,2.2,0.4
					c1.5,0.1,3,0.1,4.5,0c1.5-0.1,3-0.3,4.5-0.5c0.7-0.1,1.5-0.2,2.2-0.4c0.7-0.2,1.5-0.4,2.1-0.7c0.1,0,0.2-0.1,0.2-0.1
					c0.1,0,0.1-0.1,0.1-0.1c0-0.2,0.1-0.4,0.1-0.6c0.1-0.4,0.2-0.7,0.4-1.1c0.3-0.7,0.6-1.4,0.8-2.1c0.6-1.4,1.2-2.8,1.9-4.2
					c0.7-1.4,1.3-2.7,2.1-4.1c0.4-0.7,0.7-1.3,1.1-2c0.2-0.3,0.4-0.7,0.6-1c0.1-0.2,0.2-0.3,0.4-0.5c0.1-0.2,0.3-0.3,0.5-0.5l0,0
					l0.7,1.3c-2.8,1-5.6,1.7-8.4,2.4c-2.8,0.7-5.7,1.2-8.6,1.5c-2.9,0.3-5.8,0.5-8.8,0.5c-2.9-0.1-5.9-0.4-8.8-1.1l0.4-1.5h0
					c1.3,0.8,2.4,1.5,3.3,2.5c0.9,1,1.5,2.2,2,3.4c0.5,1.2,0.8,2.5,1.2,3.7c0.2,0.6,0.3,1.2,0.5,1.9C39.7,53.4,39.9,54,40.3,54.6z
					 M40.2,54.6c-0.3-0.5-0.5-1.2-0.7-1.8c-0.2-0.6-0.4-1.2-0.6-1.8c-0.4-1.2-0.8-2.4-1.4-3.6c-0.6-1.1-1.3-2.2-2.2-3
					c-0.9-0.8-2-1.3-3.2-1.6h0l0,0c-0.4-0.1-0.6-0.6-0.5-1c0.1-0.4,0.5-0.6,0.9-0.5c2.8,0.7,5.6,1,8.5,1c2.9,0.1,5.7-0.1,8.6-0.5
					c2.8-0.3,5.7-0.9,8.5-1.5c2.8-0.6,5.6-1.4,8.3-2.3c0.4-0.1,0.8,0.1,1,0.5c0.1,0.3,0,0.6-0.2,0.8l0,0l0,0
					c-0.1,0.1-0.2,0.2-0.3,0.3c-0.1,0.1-0.2,0.3-0.4,0.4c-0.2,0.3-0.5,0.6-0.7,0.9c-0.4,0.6-0.9,1.2-1.3,1.9
					c-0.8,1.3-1.6,2.6-2.3,3.9c-0.7,1.3-1.4,2.7-2.1,4c-0.3,0.7-0.6,1.4-0.9,2.1c-0.1,0.3-0.3,0.7-0.4,1.1c-0.1,0.2-0.1,0.4-0.2,0.5
					c0,0,0,0,0,0.1c0,0,0,0,0,0.1c0,0,0,0.1-0.1,0.1c0,0-0.1,0.1-0.1,0.1c-0.1,0.1-0.2,0.1-0.3,0.1c-0.7,0.3-1.5,0.4-2.2,0.6
					c-0.8,0.1-1.5,0.3-2.3,0.4c-1.5,0.2-3,0.3-4.5,0.4c-1.5,0.1-3,0.1-4.6-0.1c-0.8-0.1-1.5-0.2-2.2-0.4c-0.4-0.1-0.7-0.2-1.1-0.4
					C40.8,55.1,40.4,54.9,40.2,54.6z"/>
			</g>
		</g>
		<g opacity="0.5">
			<g>
				<path fill="#D7CAB2" d="M40.2,54.6c0.2,0.3,0.5,0.5,0.9,0.7c0.3,0.2,0.7,0.3,1.1,0.4c0.7,0.2,1.5,0.3,2.2,0.4
					c1.5,0.1,3,0.1,4.6,0c1.5-0.1,3-0.2,4.5-0.5c0.8-0.1,1.5-0.2,2.2-0.4c0.7-0.2,1.5-0.3,2.2-0.6c0.1,0,0.2-0.1,0.2-0.1
					c0.1-0.1,0.1-0.1,0.1-0.2c0-0.2,0.1-0.4,0.1-0.6c0.1-0.4,0.2-0.7,0.4-1.1c0.3-0.7,0.6-1.4,0.9-2.1c0.6-1.4,1.3-2.8,2-4.1
					c0.7-1.4,1.4-2.7,2.1-4c0.4-0.7,0.8-1.3,1.2-2c0.2-0.3,0.4-0.4,0.6-0.7c0.2-0.3,0.5-0.7,0.8-0.7h0l0.4,0.4
					c-2.8,0.9-5.6,1.6-8.4,2.2c-2.8,0.6-5.7,1.1-8.6,1.5c-2.9,0.3-5.8,0.5-8.7,0.4c-2.9-0.1-5.6-0.4-8.5-1.1l0.5-0.7v0
					c1,0.5,2.1,1.3,3,2.2c0.9,1,1.4,2.1,1.9,3.3c0.5,1.2,0.8,2.4,1.1,3.7c0.2,0.6,0.3,1.2,0.5,1.9C39.7,53.4,39.9,54,40.2,54.6z
					 M40.2,54.6c-0.3-0.5-0.5-1.2-0.7-1.8c-0.2-0.6-0.4-1.2-0.5-1.8c-0.4-1.2-0.8-2.5-1.3-3.6c-0.5-1.2-1.2-2.2-2.2-3.1
					c-0.9-0.9-2-1.5-3.2-1.7h0l0,0C32.1,42.4,32,42.2,32,42c0.1-0.2,0.3-0.3,0.4-0.3c2.8,0.7,5.7,1,8.5,1c2.9,0.1,5.8-0.1,8.6-0.5
					c2.9-0.3,5.7-0.9,8.5-1.5c2.8-0.6,5.6-1.4,8.3-2.3c0.2-0.1,0.4,0,0.5,0.2c0.1,0.2,0,0.3-0.1,0.4l0,0l0,0
					c-0.2,0.2-0.5,0.5-0.7,0.8c-0.2,0.3-0.5,0.6-0.7,0.9c-0.4,0.6-0.8,1.3-1.2,1.9c-0.8,1.3-1.5,2.6-2.3,3.9c-0.7,1.3-1.4,2.7-2,4.1
					c-0.3,0.7-0.6,1.4-0.9,2.1c-0.1,0.4-0.3,0.7-0.4,1.1c-0.1,0.2-0.1,0.4-0.2,0.5c0,0.1-0.1,0.2-0.2,0.3c-0.1,0.1-0.2,0.1-0.3,0.1
					c-0.7,0.3-1.5,0.5-2.2,0.6c-0.7,0.1-1.5,0.3-2.3,0.4c-1.5,0.2-3,0.3-4.5,0.4c-1.5,0.1-3,0.1-4.6-0.1c-0.8-0.1-1.5-0.2-2.2-0.4
					c-0.4-0.1-0.7-0.2-1.1-0.4C40.8,55.1,40.5,54.9,40.2,54.6z"/>
			</g>
		</g>
		<g>
			<path fill="#333333" d="M40.2,54.6c2,3,17.9,0.9,18.1-0.3c0.7-3.1,6.4-14,8.2-15.5c-3.3,1.1-20.3,6.6-34.2,3.3
				C38.7,44.1,38.7,52.2,40.2,54.6z"/>
		</g>
		<g>
			<g>
				<path fill="#333333" d="M64.5,40.3C62,44,58.4,51.2,57.7,54c-0.9,0.5-5.9,1.4-10.7,1.4c-3.9,0-5.7-0.6-6.1-1.2
					c-0.4-0.6-0.7-1.6-1-2.9c-0.7-2.3-1.6-5.5-3.7-7.8c1.9,0.2,3.9,0.4,6,0.4C51.2,43.9,60.1,41.6,64.5,40.3 M66.6,38.8
					c-2.5,0.9-13.3,4.3-24.5,4.3c-3.3,0-6.6-0.3-9.7-1c6.3,2,6.3,10.1,7.9,12.5c0.7,1.2,3.5,1.6,6.7,1.6c5.1,0,11.3-1.1,11.4-1.8
					C59.1,51.2,64.8,40.3,66.6,38.8L66.6,38.8z"/>
			</g>
		</g>
	</g>
	<g display="inline">
		<path fill="#818181" d="M39.3,51.9c1.1,0.9,4.7-3.1,4.3-4.7c-1-4-5.4-3.4-7-3.7c-1.6-0.3-4.7-1.6-3.4-1.2
			c3.7,1.1,10.8,0.6,11.7,0.9c1.1,0.3,1.8,4.6,0.8,5.6c-1.1,1-4.8,6.7-5.3,5.7C39.7,53.4,39.5,52.5,39.3,51.9z"/>
	</g>
	<g display="inline">
		<path fill="#818181" d="M56.1,47.2c0.9,0.8,3.1,1.8,4.5,1.3c-0.1,0.4-0.5,1.2-1,2.2c-9.6-0.8-7-7.6-6.3-8.2
			c0.7-0.6,9.6-1.9,11.4-2.3C62,40.8,53.2,44.4,56.1,47.2z"/>
	</g>
	<g display="inline">
		<g>
			<path fill="#FFB4AA" d="M46.8,56.2c-3.3,0-5.4-0.5-6.3-1.4c-0.1-0.1-0.1-0.5,0.3-1.4c0.9-2.1,3.7-5.7,8.6-6c0.3,0,0.7,0,1,0
				c5.7,0,9.2,2.9,9.2,3.4c-0.1,0.2-0.2,0.4-0.3,0.7c-0.3,0.7-0.8,1.9-1.2,3.1C57.6,55,51.9,56.2,46.8,56.2z"/>
		</g>
		<g>
			<path fill="#FF8189" d="M50.4,47.6c5.1,0,8.5,2.5,8.9,3.2c-0.1,0.2-0.1,0.4-0.2,0.6c-0.3,0.7-0.8,1.8-1.2,3
				c-0.8,0.5-6.2,1.5-11.1,1.5c-3.1,0-5.2-0.4-6-1.2c0-0.3,0.2-1.3,1.2-2.7c0.9-1.2,3.3-4.1,7.5-4.3C49.8,47.6,50.1,47.6,50.4,47.6
				L50.4,47.6 M50.4,47.1c-0.3,0-0.7,0-1,0c-6.7,0.4-9.8,7-9.1,7.8c1,1.1,3.5,1.4,6.4,1.4c5.2,0,11.4-1.2,11.6-1.7
				c0.6-1.7,1.2-3.1,1.5-3.8C60.1,50.2,56.2,47.1,50.4,47.1L50.4,47.1z"/>
		</g>
	</g>
	<g display="inline">
		<path fill="#FFB4AA" d="M40.5,54.6c-0.4,2.1,12.2-8,19-3.2c1.4-1.9-6.1-5.1-10.5-4.3C45.2,47.7,41.4,50.1,40.5,54.6z"/>
	</g>
	<g display="inline">
		<g>
			<path fill="#FEF6E4" d="M43,43.7c0.6,1.1,1.8,6.7,2.3,6.8c0.5,0.1,3.6,1,4.1,0.8c0.4-0.2,0.4-1.3,0.9-1c0.4,0.3,0.6,0.8,1,0.6
				c0.7-0.3,2.7-1.6,3-2.2c0.3-0.6,0.3-3.7,0-6.3C53,43.2,45.3,44,43,43.7z"/>
		</g>
		<g>
			<g>
				<path fill="#FFCF84" d="M54.1,42.9c0.2,2.6,0.2,5.4,0,5.8c-0.3,0.5-2.1,1.6-2.9,2.1c0,0,0,0,0,0c-0.1,0-0.2-0.1-0.3-0.2
					c-0.1-0.1-0.2-0.2-0.4-0.3c-0.1-0.1-0.2-0.1-0.3-0.1c-0.3,0-0.5,0.3-0.6,0.6c-0.1,0.2-0.2,0.4-0.3,0.4c0,0,0,0-0.1,0
					c-0.7,0-2.6-0.5-3.4-0.7c-0.1,0-0.3-0.1-0.3-0.1c-0.2-0.3-0.7-2.1-1.1-3.4c-0.3-1.2-0.6-2.3-0.9-3c0.2,0,0.4,0,0.7,0
					C47.1,44,52.4,43.4,54.1,42.9 M54.3,42.6c-1.2,0.5-7.1,1.2-10.2,1.2c-0.4,0-0.8,0-1.1,0c0.6,1.1,1.8,6.7,2.3,6.8
					c0.5,0.1,3,0.9,3.9,0.9c0.1,0,0.2,0,0.2,0c0.4-0.2,0.4-1,0.7-1c0,0,0.1,0,0.2,0.1c0.3,0.2,0.5,0.6,0.8,0.6c0.1,0,0.1,0,0.2,0
					c0.7-0.3,2.7-1.6,3-2.2C54.6,48.3,54.6,45.1,54.3,42.6L54.3,42.6z"/>
			</g>
		</g>
	</g>
	<g display="inline">
		<path fill="#EADCBE" d="M43.9,46.4c-0.2-2,9.3-2.7,10.5-2.6c0-0.5-0.1-0.8-0.1-1.4c-1.6,0.8-10.1,1.6-11.3,1.3
			C43.2,44,43.6,45.2,43.9,46.4z"/>
	</g>
	<g display="inline">
		<path fill="#FFCF84" d="M48.7,44.9c0.2,0.4,0.4,0.9,0.5,1.3c0.2,0.5,0.3,0.9,0.5,1.4l0.4,1.4l0.4,1.4l-0.7,0.2l-0.3-1.4l-0.3-1.4
			c-0.1-0.5-0.2-0.9-0.4-1.4c-0.1-0.5-0.3-0.9-0.4-1.4L48.7,44.9z"/>
	</g>
	<g display="inline" opacity="0.4">
		<path fill="#FFB4AA" d="M16.5,12.5c5,1.3,4.2,10,7.2,10.7c3,0.7,7-7.2,7.3-8.9c-5.8-2.5-8.5-5.4-12.7-4.5
			C17,10,15.1,12.1,16.5,12.5z"/>
	</g>
	<g display="inline" opacity="0.5">
		<path fill="#C88A3D" d="M30.5,38c6.3,0.5,11.6,0.8,13.4-1.2c1.9-1.9,2.5-10.6,5.6-10.4c2.6,0.2,3.5,11.4,5.2,11.7
			c1.7,0.3,13.6,3.6,16.5,0.5c3-3,4.3-4.9,3.6-6.8s-18-7.8-21.6-8.1c-3.5-0.3-27.6,2.7-28.1,4.2c-0.6,1.5-1.3,1.3-1.1,2.9
			C24.2,34,24.1,37.5,30.5,38z"/>
	</g>
	<g display="inline">
		<g>
			<path fill="#333333" d="M48.2,25.2c0.5,0,2.3-0.1,2.7,0.2c2.3,1.8,2.2,9.2,4.6,11.5c2.1,2,13.8,3.5,15.8,1.2c2-2.3,5-9.4,5.7-10
				c0.7-0.5,2.2-0.9,2.7-1.6c0.4-0.7,0.1-3.8-1-3.7c-1.1,0.1-3.1,0.8-4.4,0.4c-1.3-0.4-7.4-4.2-22.9-1.9c-1.5,0.2-3,0-4-0.3
				c-1-0.3-6.8-3.6-22.4-1.4c-1.6,0.2-3.7-0.4-4.4-0.4c-0.8,0.1-1,2.5-0.7,3.1c0.3,0.6,1.9,1.1,2.1,1.9s1.6,8.2,5.3,11.3
				c3.9,3.3,13.8,1,14.7,0.4C46,33.3,46.9,25.2,48.2,25.2z"/>
		</g>
		<g>
			<g>
				<path fill="#1A1A1A" d="M34.9,19.8c6.9,0,10.4,1.4,11.8,1.9c0.3,0.1,0.5,0.2,0.6,0.2c0.7,0.2,1.7,0.4,2.9,0.4
					c0.5,0,0.9,0,1.4-0.1c3.2-0.5,6.3-0.7,9.1-0.7c7.3,0,11,1.6,12.7,2.3c0.3,0.1,0.6,0.2,0.8,0.3c0.3,0.1,0.7,0.1,1.1,0.1
					c0.8,0,1.7-0.2,2.5-0.4c0.4-0.1,0.7-0.1,1-0.2c0.3,0.4,0.6,2.1,0.4,2.5c-0.2,0.2-0.8,0.5-1.3,0.7c-0.4,0.2-0.9,0.4-1.2,0.6
					c-0.4,0.3-0.8,1.1-2.1,3.6c-1.2,2.3-2.6,5.2-3.8,6.5c-0.4,0.4-1.8,0.9-4.5,0.9c-4,0-9.1-1.1-10.3-2.2c-1.1-1-1.6-3.3-2.1-5.6
					c-0.6-2.5-1.2-4.9-2.5-6c-0.3-0.3-0.9-0.4-2-0.4c-0.3,0-0.6,0-0.8,0c-0.1,0-0.2,0-0.3,0c-1.1,0-1.5,1.3-2.3,3.5
					c-0.9,2.5-2.1,5.9-4.3,7.5c-0.5,0.3-4.1,1.2-7.7,1.2c-2.8,0-4.9-0.5-6.1-1.5c-1.5-1.2-3.5-4.1-4.9-10.6c0-0.1-0.1-0.3-0.1-0.3
					c-0.2-0.7-0.9-1.2-1.5-1.5c-0.2-0.1-0.6-0.4-0.7-0.5c-0.1-0.3,0-1.6,0.2-2c0.2,0,0.6,0.1,1.1,0.2c0.7,0.1,1.6,0.3,2.5,0.3
					c0.3,0,0.6,0,0.8-0.1C28.7,20,31.9,19.8,34.9,19.8 M34.9,19c-2.7,0-6,0.2-9.8,0.8c-0.2,0-0.5,0-0.7,0c-1.4,0-2.9-0.4-3.6-0.4
					c0,0-0.1,0-0.1,0c-0.8,0.1-1,2.5-0.7,3.1c0.3,0.6,1.9,1.1,2.1,1.9s1.6,8.2,5.3,11.3c1.5,1.3,4,1.7,6.6,1.7c3.8,0,7.6-1,8.1-1.3
					c4-2.9,4.9-10.9,6.2-10.9c0.2,0,0.7,0,1.2,0c0.6,0,1.3,0,1.5,0.2c2.3,1.8,2.2,9.2,4.6,11.5c1.4,1.3,6.6,2.4,10.8,2.4
					c2.3,0,4.3-0.3,5.1-1.2c2-2.3,5-9.4,5.7-10c0.7-0.5,2.2-0.9,2.7-1.6c0.4-0.7,0.1-3.7-1-3.7c0,0,0,0-0.1,0
					c-0.9,0.1-2.3,0.6-3.5,0.6c-0.3,0-0.6,0-0.9-0.1c-1-0.3-4.8-2.7-13.6-2.7c-2.6,0-5.7,0.2-9.3,0.8c-0.4,0.1-0.9,0.1-1.3,0.1
					c-1,0-2-0.2-2.7-0.3C46.7,21,43.2,19,34.9,19L34.9,19z"/>
			</g>
		</g>
	</g>
	<g display="inline">
		<g opacity="0.5">
			<path fill="#333333" d="M34.1,34.9L34.1,34.9c-1.3,0-4.5-0.1-5.8-0.9c-1.5-1-2.2-3.2-2.5-4.8c-0.3-2-0.3-4.5,0.1-5
				c0.5-0.6,1.7-1.5,2.6-1.8c1.5-0.4,3.3-0.6,5.2-0.6c4.7,0,9.9,1.3,11,2.7c0.2,0.2,0.3,0.6,0.1,1.8c-0.5,2.4-2.5,6.5-4.5,7.7
				C39.3,34.6,36.5,34.9,34.1,34.9z M26.8,24.7c-0.3,0.8-0.3,6.8,2.1,8.4c0.7,0.5,2.7,0.8,5.2,0.8h0c2.5,0,5-0.3,5.7-0.7
				c2.3-1.3,4.4-7.2,4.1-8c-0.7-0.9-5.3-2.3-10.1-2.3c-1.8,0-3.5,0.2-4.9,0.6C28.2,23.5,27.2,24.3,26.8,24.7z"/>
		</g>
		<g>
			<path fill="#FFFFFF" d="M26.4,24.5c-0.4,0.5-0.6,7.2,2.3,9.1c1.9,1.2,9.8,1,11.4,0.1c2.5-1.4,4.9-7.8,4.2-8.7
				c-1.1-1.5-9.4-3.5-15.6-2C28,23.1,26.8,23.9,26.4,24.5z"/>
		</g>
	</g>
	<g display="inline">
		<g opacity="0.5">
			<path fill="#333333" d="M67.2,37c-3,0-7.9-0.9-9.3-1.8c-1.9-1.4-3.3-5.7-3.5-8.2c-0.1-1.2,0.1-1.6,0.3-1.8c0.9-0.9,4-1.5,7.5-1.5
				c3.2,0,6.3,0.5,8.7,1.5c0.8,0.3,2,1.4,2.4,2.1c0.3,0.5,0,3-0.6,5c-0.5,1.6-1.4,3.7-3.1,4.4C69.3,36.8,68.4,37,67.2,37z
				 M62.4,24.6c-3.5,0-6.2,0.6-6.8,1.2c-0.4,0.7,0.9,6.9,3,8.5C59.5,35,64,36,67.2,36c1.3,0,1.9-0.2,2.1-0.3c2.6-1.3,3.3-7.2,3.2-8
				c-0.3-0.5-1.3-1.4-1.8-1.6C68.4,25.1,65.5,24.6,62.4,24.6z"/>
		</g>
		<g>
			<path fill="#FFFFFF" d="M73,27.4c0.3,0.5-0.4,7.2-3.4,8.7c-2,1-9.9-0.3-11.3-1.4c-2.3-1.7-3.9-8.4-3.1-9.2
				c1.3-1.4,9.8-2.3,15.7,0.1C71.6,25.8,72.7,26.8,73,27.4z"/>
		</g>
	</g>
	<g display="inline">
		<ellipse transform="matrix(0.99 0.1411 -0.1411 0.99 4.3476 -4.5307)" fill="#010101" cx="34.1" cy="28.4" rx="1.3" ry="2.7"/>
	</g>
	<g display="inline">
		
			<ellipse transform="matrix(0.9946 -0.1037 0.1037 0.9946 -2.8075 6.8594)" fill="#010101" cx="64.6" cy="30.4" rx="1.3" ry="2.7"/>
	</g>
	<g display="inline" opacity="0.3">
		<path fill="#333333" d="M20.8,21.6c0.9,0.6,1.7,0.2,1.9,1.4c0.2,1.1,2.8,11.1,6.1,12.2c5.4,1.9,12.2,0,13.1-0.5
			c0.9-0.6,5.2-10.2,6-10.6c0.7-0.4,3,0,3.5,0.3c1.5,0.6,4.2,11.1,5,11.6c3.3,2.3,14,2.2,14.5,1.5c0.5-0.6,4.5-9.8,5.2-10.3
			c1-0.8,3.5-1.3,3.5-1c0.1,0.3-1.9,0.7-2.5,1.4s-4.6,9.5-5.9,10.3c-1.3,0.8-10.6,2-15.3-1.3c-2.3-1.6-3.1-11.1-4.9-11.6
			c-1.2-0.3-2-0.3-2.9-0.1c-1.1,0.7-2.7,8.8-6,10.9c-1.3,0.8-11.7,2.8-14.8-0.4c-5.8-6-4-11.4-5.9-12.2c-1.3-0.5-1.6-1.2-1.5-1.7
			C19.9,20.9,20.3,21.2,20.8,21.6z"/>
	</g>
	<g display="inline" opacity="0.3">
		<path fill="#333333" d="M20.8,19.5c-0.6-0.2,2.6,1.1,3.8,1c1.2-0.1,3.2-0.9,3.8-1.1c0.6-0.2-3,0.5-3.9,0.4S21.2,19.7,20.8,19.5z"
			/>
	</g>
	<g display="inline" opacity="0.3">
		<path fill="#333333" d="M45.6,21.3c1.1,0.5,1.6,1.7,2.7,1.9c1.1,0.1,2.4,0.3,3,0c0.6-0.3,2.1-1.1,2.6-1.2s-3.3,0.5-4.7,0.4
			C47.7,22.1,46,21.4,45.6,21.3z"/>
	</g>
	<g display="inline" opacity="0.3">
		<path fill="#333333" d="M72.7,22.8c-0.4-0.2,1.7,1.6,2.3,1.5s1.8-0.8,2.3-1c0.4-0.1-1.5,0.4-2.1,0.3C74.7,23.5,73.2,23,72.7,22.8z
			"/>
	</g>
	<g display="inline" opacity="0.3">
		<path fill="#333333" d="M25.2,23.5c2.8-2.8,9.5-1.8,10.8-1.6c-8.1,0.6-8.2,1.2-9.6,2.6c-0.2,1.1-0.5,4.8,0.8,8
			C25.7,31.7,24.2,24.4,25.2,23.5z"/>
	</g>
	<g display="inline" opacity="0.3">
		<path fill="#333333" d="M74.6,26.5c-2.4-3.1-9.2-3.1-10.5-3c7.9,1.6,8,2.3,9.2,3.9c0.1,1.1-0.2,4.8-1.8,7.8
			C73,34.5,75.4,27.5,74.6,26.5z"/>
	</g>
	<g display="inline">
		<path fill="#D0DDDC" d="M26.4,29.1c0.3-3.3,0.6-5.9,7.1-6.1c5.2-0.2,9.4,1.1,10,2.3c0.4,0.8,0.1,4.3-2.5,7.5
			c1.7-1.5,4.4-7.4,3.2-8.1C39.9,22,31.5,21.9,28.4,23c-0.6,0.2-1.5,0.8-2.1,1.5C26.2,25.4,26.2,28.7,26.4,29.1z"/>
	</g>
	<g display="inline">
		<path fill="#D0DDDC" d="M26.6,29.4c1,6.4,12.7,4.5,13.4,4.2c0,0.4-6.1,2-11.3,0.1C26.7,32.9,26.5,28.6,26.6,29.4z"/>
	</g>
	<g display="inline">
		<path fill="#D0DDDC" d="M72.5,32c0.1-3.3,0.2-6-6.3-7c-5.2-0.8-9.4-0.1-10.2,1.1c-0.5,0.7-0.6,4.3,1.6,7.8
			c-1.5-1.7-3.4-7.9-2.2-8.5c4.5-2.2,12.9-1.2,15.9,0.3c0.5,0.3,1.4,1,1.9,1.8C73.2,28.3,72.8,31.6,72.5,32z"/>
	</g>
	<g display="inline">
		<path fill="#D0DDDC" d="M72.3,32.2c-1.8,6.2-13.2,2.9-13.8,2.5c0,0.4,5.9,2.8,11.2,1.5C71.8,35.7,72.5,31.5,72.3,32.2z"/>
	</g>
	<g display="inline" opacity="0.25">
		<circle fill="#FFFFFF" cx="34.8" cy="26.7" r="0.4"/>
	</g>
	<g display="inline" opacity="0.25">
		<circle fill="#FFFFFF" cx="65" cy="28.5" r="0.4"/>
	</g>
	<g display="inline" opacity="0.1">
		<path fill="#D0DDDC" d="M20.9,21.1c0.9,1,1.5,1.1,2.7,1c11.9-1.6,18.4-1.5,21.7,1.6c0.7,0.7,0.3-1.9-1-2.3
			c-10-2.6-17.3-0.3-18.8-0.1C24,21.5,22.9,21.2,20.9,21.1z"/>
	</g>
	<g display="inline" opacity="0.1">
		<path fill="#D0DDDC" d="M53.8,22.7c-0.3,0.3-0.2,3,1.1,2c3.7-3,11.6-2.3,17-0.4c-0.9-1.7-7.3-2.9-10.8-2.9
			C59.4,21.4,54.5,21.9,53.8,22.7z"/>
	</g>
	<g display="inline">
		<ellipse fill="#D0DDDC" cx="75.1" cy="24.9" rx="1.3" ry="0.2"/>
	</g>
	<g display="inline">
		
			<ellipse transform="matrix(0.9858 0.1678 -0.1678 0.9858 3.9123 -3.6593)" fill="#D0DDDC" cx="23.6" cy="21.3" rx="1.3" ry="0.2"/>
	</g>
	<g display="inline">
		<path fill="#FFFFFF" d="M98.9,82.8c-0.2-2.3-1.9-3.4-3.5-3.4c-0.7,0-1.3,0.2-1.5,0.3l-0.3,0.1L93.2,80c-0.4,0.3-1,0.7-1.6,0.9
			c0-0.5,0-1.1,0.1-1.6l0-0.1c0.4-4.1-0.4-6.5-2.6-7.1C88.8,72,88.4,72,88,72c-1.3,0-2.4,0.6-3.2,1.2c-0.6-0.8-1.7-1.2-3-1.2
			c-1.9,0-3.5,0.9-4.1,2.4c-0.1,0.1-0.1,0.4-0.2,0.7c-1.1-2.5-3.5-3.5-5.6-3.5c-2.1,0-4,0.8-4.8,1.4c0,0-0.1,0.1-0.1,0.1
			c-1.9,1.4-3.5,3.1-4.5,5.2c-0.5-1.8-1.7-3.5-3.7-4.8l0,0c-0.1,0-0.1-0.1-0.2-0.1c2-3.6,3.8-8.3,2.7-12.8c-1.1-4.8-4-5.5-5.5-5.5
			c-0.6,0-1.3,0.1-2,0.4l0,0l0,0c-3,1.2-4.3,2.9-4.6,3.4c-0.3,0.4-3.6,5.4-4.3,12.7c-0.1,0.8-0.2,1.6-0.3,2.5
			c-0.5-0.7-1.2-1.3-2.4-1.6C41.7,72,41.3,72,40.9,72c-1.6,0-3,1-3.7,1.7c0,0,0,0,0,0c-0.6-0.9-1.6-1.5-2.7-1.5c-0.1,0-0.2,0-0.3,0
			c-1.7,0-3.2,0.8-4.2,1.6c-0.7-1.1-1.9-1.9-3.3-1.9c-0.1,0-0.2,0-0.3,0c-0.1,0-0.2,0-0.2,0c-1.9,0-3.5,0.9-4.1,2.4
			c0,0.1-0.1,0.3-0.2,0.5c-1.5-1.9-3.5-2.8-6.1-2.8c-0.1,0-0.2,0-0.2,0c-1.6,0-5.7,0.7-8.2,6.3c-0.4,0.9-0.7,1.7-0.9,2.6
			c-0.6-0.2-1.1-0.3-1.4-0.3c-1.3,0-2.3,0.7-2.8,1.4c-0.4,0.6-1.6,2.6-1,4.5c0.3,1,1.1,1.9,2.1,2.3c0.9,0.4,2.1,0.7,3,1
			c0.5,1.2,1.5,2.7,3.3,4c1.2,0.9,2.8,1.4,4.7,1.4c3.1,0,6.1-1.4,6.5-1.5l0.1-0.1l0,0c0.6,0.6,1.4,1.1,2.4,1.3
			c0.3,0.1,0.7,0.1,1.1,0.1c1.7,0,2.9-0.2,4-1.9c0.9,1.4,2.5,2.8,4.4,2.8c0,0,0,0,0,0c0.1,0,0.2-0.5,0.3-0.5c1,0,2.3-0.7,3.3-2.4
			c0.9,1.6,2.5,2.3,4.4,2.3c1.7,0,3.2-0.8,3.4-0.9l0.1-0.1c0.6-0.3,1-0.6,1.4-0.8c1.3,0.7,3.2,1.4,5.5,1.4c0.4,0,0.8,0,1.2-0.1
			l0.1,0l0.1,0c5-1,8.2-2.2,10.1-3.1c1.4,1.5,3.5,3,6.6,3.2c0.3,0,0.7,0,1,0c2.5,0,4.6-0.7,6-1.5c0.5,0.5,1.1,1,1.8,1.3
			c0.5,0.2,0.9,0.3,1.4,0.3c3.1,0,4.5-3.7,4.9-4.9l0.7-2c0.7,0.7,1.5,1.3,2.5,1.6c0.6,0.2,1.2,0.3,1.8,0.3c3.4,0,6.7-2.4,7.2-2.8
			C98.1,86.5,99.1,85,98.9,82.8z"/>
		<path fill="#E24C32" d="M96.3,83c-0.2-1.6-1.6-1-1.6-1s-2.3,1.8-4.2,1.6c-2-0.2-1.4-4.6-1.4-4.6s0.4-4.1-0.7-4.4
			c-1.2-0.3-2.6,1.1-2.6,1.1s-1.8,2-2.6,4.5l-0.2,0.1c0,0,0.3-4.4,0-5.5c-0.2-0.5-2.4-0.5-2.7,0.4c-0.4,0.9-2.1,7.1-2.2,9.7
			c0,0-3.3,2.8-6.3,3.3c-2.9,0.5-3.6-1.4-3.6-1.4s7.9-2.2,7.7-8.6c-0.3-6.3-6.4-4-7.1-3.5c-0.7,0.5-4.3,2.7-5.3,8.7
			c0,0.2-0.1,1.1-0.1,1.1s-3.1,2.1-4.8,2.6c0,0,4.8-8.1-1.1-11.7c-2.6-1.6-4.8,1.8-4.8,1.8s7.9-8.8,6.2-16.2
			c-0.8-3.5-2.6-3.9-4.2-3.3c-2.5,1-3.4,2.4-3.4,2.4s-3.2,4.6-3.9,11.5c-0.7,6.9-1.8,15.2-1.8,15.2s-1.5,1.5-2.9,1.6
			c-1.4,0.1-0.8-4.2-0.8-4.2s1.1-6.5,1-7.6c-0.1-1.1-0.2-1.7-1.4-2.1c-1.3-0.4-2.7,1.2-2.7,1.2s-3.7,5.6-4,6.5l-0.2,0.3l-0.2-0.2
			c0,0,2.6-7.6,0.1-7.7c-2.5-0.1-4.1,2.7-4.1,2.7s-2.8,4.8-3,5.3l-0.2-0.2c0,0,1.2-5.5,0.9-6.9c-0.2-1.4-1.5-1.1-1.5-1.1
			s-1.6-0.2-2.1,0.9c-0.4,1.1-2,8-2.2,10.2c0,0-4.1,2.9-6.8,3c-2.7,0-2.4-1.7-2.4-1.7s9.9-3.4,7.2-10c-1.2-1.7-2.6-2.3-4.6-2.2
			c-2,0-4.3,1.3-5.9,4.8c-0.8,1.7-1.1,3.3-1.1,4.6v0c0,0-1.8,0.4-2.8-0.4c-0.9-0.8-1.5,0-1.5,0s-1.6,2.5,0,3.1
			C5.9,87.3,8.4,88,8.4,88h0c0.2,1,0.9,2.5,2.8,4c2.9,2.2,8.5-0.4,8.5-0.4l2.3-1.4c0,0,0.1,2.1,1.8,2.4c1.7,0.3,2.4,0,5.3-7.1
			c1.7-3.6,1.8-3.4,1.8-3.4l0.2,0c0,0-1.3,6.9-0.8,8.8c0.5,1.9,2.7,1.7,2.7,1.7s1.2,0.8,2.2-2.7c1-3.4,2.8-6.7,2.8-6.7h0.2
			c0,0-0.8,6.6,0.4,8.8c1.2,2.3,4.5,0.5,4.5,0.5s2.3-1.3,2.6-1.6c0,0,2.7,2.2,6.5,1.8c8.5-1.7,11.5-3.9,11.5-3.9s1.5,3.7,6,4
			c5.1,0.4,7.9-2.9,7.9-2.9s0,2.1,1.8,2.8c1.8,0.7,3-2.4,3-2.4l3-7.2h0.3c0,0,0.2,4.3,3.1,5.2c3,0.9,6.8-2.5,6.8-2.5
			S96.5,84.6,96.3,83z M12.6,83.8c0.1-4.6,3.2-6.7,4.2-5.6c1.1,1,0.7,3.2-1.3,4.6C13.5,84.1,12.6,83.8,12.6,83.8z M52.1,65.8
			c0,0,2.8-7.2,3.4-3.7c0.7,3.5-5.8,13.9-5.8,13.9C49.8,73.7,52.1,65.8,52.1,65.8z M55.4,85.9c-1.8,4.8-6.3,2.8-6.3,2.8
			s-0.5-1.7,0.9-6.5c1.4-4.8,4.8-2.9,4.8-2.9S57.2,81.1,55.4,85.9z M67.7,83.8c0,0-0.4-1.5,1.2-4.4c1.6-2.9,2.8-1.3,2.8-1.3
			s1.4,1.5-0.2,3.7C69.9,83.9,67.7,83.8,67.7,83.8z"/>
	</g>
</g>
</svg>
