<?xml version="1.0" encoding="utf-8"?>
<!-- Generator: Adobe Illustrator 18.1.1, SVG Export Plug-In . SVG Version: 6.00 Build 0)  -->
<!DOCTYPE svg PUBLIC "-//W3C//DTD SVG 1.1//EN" "http://www.w3.org/Graphics/SVG/1.1/DTD/svg11.dtd">
<svg version="1.1" id="Angular" xmlns="http://www.w3.org/2000/svg" xmlns:xlink="http://www.w3.org/1999/xlink" x="0px" y="0px"
	 viewBox="0 0 100 100" enable-background="new 0 0 100 100" xml:space="preserve">
<path fill="#B3B3B3" d="M51.6,2.1L6.4,18l7.1,59.1l38.1,20.9l38.3-21.2L97,17.7L51.6,2.1z M51.6,2.1"/>
<path fill="#B63032" d="M92.5,21.1l-41-14v85.9l34.4-19L92.5,21.1z M92.5,21.1"/>
<path fill="#E23337" d="M11.5,21.4l6.1,52.9l33.9,18.8V7.1L11.5,21.4z M11.5,21.4"/>
<path fill="#F3F3F3" d="M61,49.9l-9.4-19.7l-8.3,19.7H61z M64.6,58.2h-25l-5.6,14l-10.4,0.2l27.9-62.1l28.9,62.1h-9.6L64.6,58.2z
	 M64.6,58.2"/>
<path fill="#B3B3B3" d="M51.5,10.3l0.1,19.9L61,49.9h-9.5l0,8.3l13.1,0l6.1,14.2l10,0.2L51.5,10.3z M51.5,10.3"/>
</svg>
