<?xml version="1.0" encoding="utf-8"?>
<!-- Generator: Adobe Illustrator 18.1.1, SVG Export Plug-In . SVG Version: 6.00 Build 0)  -->
<!DOCTYPE svg PUBLIC "-//W3C//DTD SVG 1.1//EN" "http://www.w3.org/Graphics/SVG/1.1/DTD/svg11.dtd">
<svg version="1.1" id="concrete5" xmlns="http://www.w3.org/2000/svg" xmlns:xlink="http://www.w3.org/1999/xlink" x="0px" y="0px"
	 viewBox="0 0 100 100" enable-background="new 0 0 100 100" xml:space="preserve">
<path fill="#22BBE5" d="M83.4,61.7C75.8,52.5,64,71.8,57.6,75.9c-4.4,2.9-11,3.1-15.7,0.4c-6.4-3.8-4.4-12.7,2.3-15
	c6-2,16.5,4.3,20.3-2c4.7-7.8-11.3-9.6-16.1-9.4c-8.6,0.3-16.8,3.1-21.9,9.6c-5.5,7-4.2,15.4,1.8,21.7c6.1,5.9,15,8.2,23.9,7.5
	c2.2-0.2,6.1-1.1,9-2.7C67.1,82.8,85,63.5,83.4,61.7z M27.4,54.8c3,0.6-2.8-16-3.2-18.2c-0.5-2.8-1.5-6.6-4.2-7
	c-3.2-0.5-4,3.1-3.4,6.3C17.3,39.1,24.7,54.3,27.4,54.8z M52,46.3c4.6,0.7,4.3-21.4,4.3-24.4c0-2.7,1.1-10.2-2.6-10.9
	c-5-1-5.5,5.6-5.6,9.1C48.3,23.7,47.2,45.6,52,46.3z M62.9,49.8c5,2.1,8.9-20.2,9.4-23c0.6-2.9,0.7-9.1-4.3-7.1c-2.5,1-3,5-3.3,7.3
	C64,29.8,59,48.2,62.9,49.8z M38.8,47.9c5.7,0.4,0.3-22-0.1-25c-0.5-3-2.5-9.1-6.7-5.6c-2.1,1.8-1.2,5.9-0.8,8.2
	C31.5,28.6,34.4,47.6,38.8,47.9z"/>
<g>
	<path fill="#22BBE5" d="M86,99.9H14C6.3,99.9,0.1,93.6,0.1,86v-72C0.1,6.3,6.3,0.1,14,0.1h72c7.7,0,13.9,6.2,13.9,13.9v72
		C99.9,93.6,93.7,99.9,86,99.9z M14,2.5C7.7,2.5,2.5,7.6,2.5,13.9v72c0,6.3,5.1,11.4,11.4,11.4h72c6.3,0,11.4-5.1,11.4-11.4v-72
		c0-6.3-5.1-11.4-11.4-11.4H14z"/>
</g>
</svg>
