<?xml version="1.0" encoding="utf-8"?>
<!-- Generator: Adobe Illustrator 18.1.1, SVG Export Plug-In . SVG Version: 6.00 Build 0)  -->
<!DOCTYPE svg PUBLIC "-//W3C//DTD SVG 1.1//EN" "http://www.w3.org/Graphics/SVG/1.1/DTD/svg11.dtd">
<svg version="1.1" xmlns="http://www.w3.org/2000/svg" xmlns:xlink="http://www.w3.org/1999/xlink" x="0px" y="0px"
	 viewBox="0 0 100 100" enable-background="new 0 0 100 100" xml:space="preserve">
<g id="BG" display="none">
	<rect display="inline" fill="#141414" width="100" height="100"/>
</g>
<g id="php" display="none">
	<g id="ellipse3860" display="inline">
		<path fill="#706CB1" d="M50,76.8C22.7,76.8,0.5,65,0.5,50.5C0.5,36,22.7,24.2,50,24.2c27.3,0,49.5,11.8,49.5,26.3
			C99.5,65,77.3,76.8,50,76.8z M50,26.6c-25.9,0-47,10.7-47,23.9c0,13.2,21.1,23.9,47,23.9s47-10.7,47-23.9
			C97,37.3,75.9,26.6,50,26.6z"/>
	</g>
	<g display="inline">
		<path id="h" fill="#706CB1" d="M40.6,58.4l5.3-26.8h6.3l-1.3,6.9h5.9c5.3,0.3,7.3,3,6.6,6.3L61,58.4h-6.6l2.3-12.2
			c0.3-1.7,0.3-2.6-2-2.6h-5l-3,14.9H40.6z"/>
		<path fill="#706CB1" d="M79.8,38.6H67.6l-5.3,26.8h6.3l1.3-6.9h5.9c5.6,0.3,11.9-4.3,11.9-12.2C87.7,41.6,85.1,38.9,79.8,38.6z
			 M74.5,53.5h-4l1.7-9.9h4.3c2.3,0,4,1,4,3C80.2,52.1,77.5,53.1,74.5,53.5z"/>
		<path fill="#706CB1" d="M32.6,38.6H20.4l-5.3,26.8h6.3l1.3-6.9h5.9c5.6,0.3,11.9-4.3,11.9-12.2C40.6,41.6,37.9,38.9,32.6,38.6z
			 M27.4,53.5h-4l1.7-9.9h4.3c2.3,0,4,1,4,3C33,52.1,30.3,53.1,27.4,53.5z"/>
	</g>
</g>
<g id="Sass" display="none">
	<path display="inline" fill="#CD6799" d="M84.8,55.4c-3.4,0-6.3,0.8-8.7,2c-0.9-1.8-1.8-3.4-2-4.5c-0.2-1.4-0.4-2.2-0.2-3.8
		c0.2-1.6,1.2-3.9,1.1-4.1c0-0.2-0.2-1-2.2-1c-1.9,0-3.6,0.4-3.8,0.9c-0.2,0.5-0.6,1.7-0.8,2.9c-0.3,1.8-3.9,8-5.9,11.3
		c-0.7-1.3-1.2-2.4-1.3-3.3c-0.2-1.4-0.4-2.2-0.2-3.8c0.2-1.6,1.2-3.9,1.1-4.1c0-0.2-0.2-1-2.2-1c-1.9,0-3.6,0.4-3.8,0.9
		c-0.2,0.5-0.4,1.7-0.8,2.9c-0.4,1.2-5.1,11.6-6.3,14.4c-0.6,1.4-1.2,2.5-1.6,3.3c0,0,0,0,0,0s0,0.1-0.1,0.1c-0.3,0.6-0.5,1-0.5,1
		s0,0,0,0c-0.3,0.5-0.5,0.9-0.7,0.9c-0.1,0-0.3-1.3,0-3c0.7-3.6,2.4-9.3,2.4-9.5c0-0.1,0.3-1.1-1.1-1.6c-1.4-0.5-1.9,0.3-2,0.3
		c-0.1,0-0.2,0.3-0.2,0.3s1.5-6.4-2.9-6.4c-2.8,0-6.6,3-8.5,5.8c-1.2,0.7-3.8,2.1-6.5,3.5c-1,0.6-2.1,1.2-3.1,1.7
		c-0.1-0.1-0.1-0.2-0.2-0.2c-5.4-5.7-15.3-9.8-14.9-17.5c0.2-2.8,1.1-10.2,19.1-19.2c14.7-7.3,26.6-5.3,28.6-0.8
		c2.9,6.4-6.3,18.3-21.6,20c-5.8,0.7-8.9-1.6-9.7-2.4c-0.8-0.9-0.9-0.9-1.2-0.8c-0.5,0.3-0.2,1.1,0,1.5c0.5,1.2,2.3,3.3,5.5,4.4
		c2.8,0.9,9.7,1.4,17.9-1.8C57,41,64.3,31.1,62.2,22.7c-2.2-8.5-16.2-11.3-29.6-6.5c-7.9,2.8-16.5,7.2-22.7,13
		C2.6,36,1.4,42,1.9,44.5c1.7,8.9,13.9,14.6,18.8,18.9c-0.2,0.1-0.5,0.3-0.7,0.4C17.6,65,8.3,69.9,6,75c-2.6,5.8,0.4,10,2.4,10.6
		c6.3,1.7,12.7-1.4,16.2-6.6c3.5-5.2,3-11.9,1.5-15c0,0,0-0.1-0.1-0.1c0.6-0.4,1.3-0.8,1.9-1.1c1.2-0.7,2.5-1.4,3.5-2
		c-0.6,1.6-1,3.6-1.3,6.4c-0.3,3.3,1.1,7.6,2.9,9.3c0.8,0.7,1.7,0.8,2.3,0.8c2.1,0,3-1.7,4.1-3.8c1.3-2.5,2.4-5.4,2.4-5.4
		S40.4,76,44.3,76c1.4,0,2.8-1.8,3.5-2.8c0,0,0,0,0,0s0-0.1,0.1-0.2c0.1-0.2,0.2-0.4,0.2-0.4s0,0,0,0c0.6-1,1.8-3.2,3.7-6.9
		C54.3,61,56.6,55,56.6,55s0.2,1.5,0.9,3.9c0.4,1.4,1.3,3,2,4.5c-0.6,0.8-0.9,1.2-0.9,1.2s0,0,0,0c-0.5,0.6-1,1.2-1.5,1.9
		c-1.9,2.3-4.2,4.9-4.5,5.7c-0.4,0.9-0.3,1.5,0.4,2.1c0.5,0.4,1.4,0.4,2.4,0.4c1.7-0.1,2.9-0.5,3.5-0.8c0.9-0.3,2-0.9,3-1.6
		c1.9-1.4,3-3.4,2.9-6c-0.1-1.4-0.5-2.9-1.1-4.2c0.2-0.2,0.3-0.5,0.5-0.7c3-4.3,5.3-9.1,5.3-9.1s0.2,1.5,0.9,3.9
		c0.4,1.2,1.1,2.6,1.7,3.9c-2.8,2.3-4.5,4.9-5.1,6.6c-1.1,3.2-0.2,4.7,1.4,5c0.7,0.1,1.8-0.2,2.6-0.5c1-0.3,2.2-0.9,3.3-1.7
		c1.9-1.4,3.7-3.3,3.6-6c-0.1-1.2-0.4-2.4-0.8-3.5c2.4-1,5.4-1.5,9.3-1.1c8.4,1,10,6.2,9.7,8.4c-0.3,2.2-2.1,3.4-2.7,3.8
		c-0.6,0.4-0.8,0.5-0.7,0.8c0.1,0.4,0.3,0.4,0.8,0.3c0.7-0.1,4.4-1.8,4.6-5.8C98.4,61,93.5,55.4,84.8,55.4z M20.1,77.2
		c-2.8,3-6.7,4.2-8.3,3.2c-1.8-1-1.1-5.5,2.3-8.7c2.1-2,4.8-3.8,6.5-4.9c0.4-0.2,1-0.6,1.7-1c0.1-0.1,0.2-0.1,0.2-0.1l0,0
		c0.1-0.1,0.3-0.2,0.4-0.3C24.3,70,23.1,74,20.1,77.2z M40.4,63.4c-1,2.4-3,8.4-4.2,8.1c-1.1-0.3-1.7-4.9-0.2-9.4
		c0.8-2.3,2.4-5,3.3-6c1.5-1.7,3.2-2.2,3.6-1.6C43.3,55.4,41,62,40.4,63.4z M57.1,71.4c-0.4,0.2-0.8,0.3-1,0.2
		c-0.1-0.1,0.2-0.4,0.2-0.4s2.1-2.2,2.9-3.3c0.5-0.6,1-1.3,1.6-2.1c0,0.1,0,0.2,0,0.2C60.8,68.9,58.2,70.7,57.1,71.4z M70,68.5
		c-0.3-0.2-0.3-0.9,0.8-3.1c0.4-0.9,1.3-2.3,2.9-3.7c0.2,0.6,0.3,1.1,0.3,1.6C73.8,66.7,71.4,67.9,70,68.5z"/>
</g>
<g id="Kirby" display="none">
	<path display="inline" fill="#EE2524" d="M51,2.3L9,26.1v47.7l42,23.8l42-23.8V26.1L51,2.3z M69.8,51L58,57.4v0.9h11.8v9.2H32.3
		v-9.2h11.8v-0.9L32.3,51V39.6L51,49.7l18.7-10.1V51z"/>
</g>
<g id="RSS" display="none">
	<path display="inline" fill="#F26722" d="M50.4,2C23.6,2,2,23.6,2,50.4s21.6,48.4,48.4,48.4s48.4-21.6,48.4-48.4S77.2,2,50.4,2
		L50.4,2z M33.9,75.7c-4.2,0-7.5-3.4-7.5-7.5c0-4.2,3.4-7.6,7.5-7.6c4.2,0,7.6,3.4,7.6,7.6C41.6,72.2,38.1,75.7,33.9,75.7L33.9,75.7
		z M53.5,75.2c-0.1-7.1-2.9-13.8-8-18.8s-11.6-7.9-18.7-8v-9.9C47,38.8,63.3,55.1,63.5,75.2H53.5z M73,75.2
		c-0.3-25.4-20.8-45.9-46-46.1v-9.9c30.7,0.1,55.7,25.2,55.9,56H73z"/>
</g>
<g id="jQuery" display="none">
	<path display="inline" fill="#0769AD" d="M23.2,17.6c-5.7,8.2-5,18.9-0.6,27.6c0.1,0.2,0.2,0.4,0.3,0.6c0.1,0.1,0.1,0.3,0.2,0.4
		c0,0.1,0.1,0.2,0.1,0.2c0.1,0.1,0.1,0.3,0.2,0.4c0.1,0.2,0.3,0.5,0.4,0.7c0.1,0.1,0.2,0.3,0.2,0.4c0.1,0.3,0.3,0.5,0.5,0.8
		c0.1,0.1,0.1,0.2,0.2,0.3c0.2,0.3,0.4,0.7,0.7,1c0,0,0,0,0,0c0,0.1,0.1,0.1,0.1,0.2c0.2,0.3,0.4,0.6,0.6,0.8
		c0.1,0.1,0.2,0.2,0.2,0.3c0.2,0.2,0.4,0.5,0.6,0.7c0.1,0.1,0.1,0.2,0.2,0.3c0.3,0.3,0.5,0.6,0.8,0.9c0,0,0,0,0,0c0,0,0,0,0,0
		c0.3,0.3,0.5,0.6,0.8,0.9c0.1,0.1,0.2,0.2,0.3,0.3c0.2,0.2,0.4,0.4,0.7,0.7c0.1,0.1,0.2,0.2,0.3,0.3c0.3,0.3,0.6,0.6,0.9,0.8
		c0,0,0,0,0,0c0.1,0,0.1,0.1,0.2,0.1c0.3,0.2,0.6,0.5,0.8,0.7c0.1,0.1,0.2,0.2,0.3,0.3c0.2,0.2,0.5,0.4,0.7,0.5
		c0.1,0.1,0.2,0.2,0.4,0.3c0.3,0.2,0.5,0.4,0.8,0.6c0.1,0.1,0.2,0.1,0.3,0.2c0,0,0.1,0,0.1,0.1c0.3,0.2,0.5,0.3,0.8,0.5
		c0.1,0.1,0.2,0.1,0.3,0.2c0.4,0.3,0.8,0.5,1.2,0.7c0.1,0.1,0.2,0.1,0.3,0.2c0.3,0.2,0.6,0.3,0.9,0.5c0.2,0.1,0.3,0.2,0.5,0.3
		c0.2,0.1,0.4,0.2,0.6,0.3c0.1,0,0.1,0,0.1,0.1c0.1,0,0.2,0.1,0.3,0.1c0.3,0.2,0.7,0.3,1,0.5c0.1,0,0.1,0.1,0.2,0.1
		c0.4,0.2,0.8,0.3,1.2,0.5c0.1,0,0.2,0.1,0.3,0.1c0.4,0.1,0.7,0.3,1.1,0.4c0,0,0.1,0,0.1,0c0.4,0.1,0.8,0.3,1.2,0.4
		c0.1,0,0.2,0.1,0.3,0.1c0.4,0.1,0.8,0.3,1.3,0.4c27.6,5,35.6-16.6,35.6-16.6c-6.7,8.8-18.7,11.1-30,8.5c-0.4-0.1-0.8-0.2-1.3-0.4
		c-0.1,0-0.2-0.1-0.3-0.1c-0.4-0.1-0.8-0.3-1.2-0.4c-0.1,0-0.1,0-0.2-0.1c-0.4-0.1-0.7-0.3-1.1-0.4c-0.1,0-0.2-0.1-0.3-0.1
		c-0.4-0.2-0.8-0.3-1.2-0.5c-0.1,0-0.2-0.1-0.2-0.1c-0.3-0.2-0.6-0.3-1-0.5c-0.1,0-0.2-0.1-0.3-0.1c-0.3-0.1-0.5-0.3-0.8-0.4
		c-0.2-0.1-0.3-0.2-0.5-0.3c-0.3-0.2-0.6-0.3-0.9-0.5c-0.1-0.1-0.2-0.1-0.3-0.2c-0.4-0.2-0.8-0.5-1.2-0.7c-0.1-0.1-0.2-0.1-0.3-0.2
		c-0.3-0.2-0.6-0.4-0.8-0.6c-0.1-0.1-0.2-0.1-0.3-0.2c-0.3-0.2-0.5-0.4-0.8-0.6c-0.1-0.1-0.2-0.2-0.4-0.3c-0.2-0.2-0.5-0.4-0.7-0.6
		c-0.1-0.1-0.2-0.2-0.3-0.3c-0.3-0.2-0.6-0.5-0.9-0.8c0,0-0.1-0.1-0.1-0.1c-0.3-0.3-0.6-0.6-0.9-0.9c-0.1-0.1-0.2-0.2-0.3-0.3
		c-0.2-0.2-0.4-0.4-0.7-0.7c-0.1-0.1-0.2-0.2-0.3-0.3c-0.3-0.3-0.6-0.6-0.8-0.9c0,0,0,0,0,0c-0.3-0.3-0.6-0.6-0.8-1
		c-0.1-0.1-0.1-0.2-0.2-0.3c-0.2-0.2-0.4-0.5-0.6-0.7c-0.1-0.1-0.1-0.2-0.2-0.3c-0.2-0.3-0.5-0.6-0.7-0.9
		c-6.3-8.6-8.6-20.4-3.5-30.1"/>
	<path display="inline" fill="#0769AD" d="M41,10.7c-4.1,5.9-3.9,13.9-0.7,20.2c0.5,1.1,1.1,2.1,1.8,3c0.6,0.9,1.3,1.9,2.1,2.7
		c0.3,0.3,0.6,0.6,0.9,1c0.1,0.1,0.2,0.2,0.2,0.2c0.3,0.3,0.6,0.6,0.9,0.9c0,0,0,0,0,0c0,0,0,0,0,0c0.4,0.3,0.7,0.6,1.1,0.9
		c0.1,0.1,0.2,0.1,0.3,0.2c0.4,0.3,0.8,0.6,1.1,0.8c0,0,0,0,0,0c0.2,0.1,0.3,0.2,0.5,0.4c0.1,0.1,0.2,0.1,0.2,0.2
		c0.3,0.2,0.6,0.4,0.9,0.5c0,0,0.1,0,0.1,0.1c0.2,0.1,0.5,0.3,0.8,0.4c0.1,0.1,0.2,0.1,0.3,0.1c0.2,0.1,0.4,0.2,0.5,0.3
		c0,0,0.1,0,0.1,0c0.4,0.2,0.7,0.3,1.1,0.5c0.1,0,0.2,0.1,0.2,0.1c0.3,0.1,0.6,0.3,0.9,0.4c0.1,0,0.3,0.1,0.4,0.1
		c0.3,0.1,0.6,0.2,0.8,0.3c0.1,0,0.3,0.1,0.4,0.1c0.4,0.1,0.8,0.3,1.2,0.3c21.3,3.5,26.2-12.9,26.2-12.9c-4.4,6.4-13,9.4-22.2,7.1
		c-0.4-0.1-0.8-0.2-1.2-0.4c-0.1,0-0.2-0.1-0.4-0.1c-0.3-0.1-0.6-0.2-0.8-0.3c-0.1,0-0.3-0.1-0.4-0.1c-0.3-0.1-0.6-0.2-0.9-0.4
		c-0.1,0-0.2-0.1-0.2-0.1c-0.4-0.2-0.8-0.3-1.1-0.5c-0.2-0.1-0.4-0.2-0.6-0.3c-0.1-0.1-0.2-0.1-0.3-0.2c-0.2-0.1-0.5-0.3-0.7-0.4
		c-0.1,0-0.1-0.1-0.2-0.1c-0.3-0.2-0.6-0.3-0.9-0.5c-0.1-0.1-0.2-0.1-0.3-0.2c-0.2-0.1-0.4-0.2-0.6-0.4c-0.4-0.3-0.8-0.6-1.1-0.8
		c-0.1-0.1-0.2-0.1-0.3-0.2c-4-3.2-7.2-7.5-8.7-12.4c-1.6-5.1-1.2-10.8,1.5-15.4"/>
	<path display="inline" fill="#0769AD" d="M55.9,5.5c-2.4,3.6-2.7,8-1,12c1.8,4.2,5.4,7.5,9.7,9.1c0.2,0.1,0.3,0.1,0.5,0.2
		c0.1,0,0.2,0,0.2,0.1c0.2,0.1,0.5,0.2,0.8,0.2c11.8,2.3,15-6,15.8-7.3c-2.8,4-7.5,5-13.3,3.6c-0.5-0.1-0.9-0.3-1.4-0.4
		c-0.6-0.2-1.1-0.4-1.7-0.7c-1-0.5-2-1.1-2.9-1.8c-5.2-3.9-8.4-11.4-5-17.5"/>
	<path display="inline" fill="#D3E6F1" d="M85.7,74.6l0.2,0.7c0,0.2-0.1,0.4-0.3,0.4"/>
	<path display="inline" fill="#D3E6F1" d="M72.5,73.4c0,0.2-0.1,0.4-0.1,0.6l-1.5,6.8l1.5-7.2L72.5,73.4z"/>
	<polygon display="inline" fill="#D3E6F1" points="29,78 28.2,80.8 29,78 	"/>
	<path display="inline" fill="#D3E6F1" d="M85.9,75.3l-0.4-1.8c-0.3-1.3-1.3-1.9-3.4-1.9h-8.8c-0.2,0-0.4,0.1-0.4,0.3l-3.4,15.9
		c0,0.2-0.1,0.3,0,0.4c0,0.1,0.4,0.1,0.6,0.1h3.1c0.2,0,0.6,0,0.7,0c0.1,0,0.2-0.3,0.2-0.6l1.1-5.6l1.3-6.2c0-0.2,0.2-0.4,0.4-0.4
		l8.8,0C85.8,75.7,85.9,75.5,85.9,75.3"/>
	<path display="inline" fill="#D3E6F1" d="M98.3,68.9c-0.2,0-3.9,0-3.9,0c-0.2,0-0.5,0.2-0.6,0.4l-6.8,10c-0.1,0.2-0.2,0.2-0.3,0
		l-0.5-2.2c0-0.2-0.2-0.4-0.5-0.4h-4.4c-0.2,0-0.3,0.2-0.3,0.4l2,6.9c0.1,0.2,0.1,0.5,0,0.7l-0.9,3.5c0,0.2,0.1,0.3,0.3,0.3h4.3
		c0.2,0,0.4-0.1,0.5-0.3l0.9-3.5c0.1-0.2,0.2-0.5,0.3-0.6l11.1-14.7c0.1-0.2,0.1-0.4-0.1-0.4L98.3,68.9z"/>
	<path display="inline" fill="#D3E6F1" d="M52.7,71.7h-4c-0.2,0-0.4,0.1-0.4,0.3L47,78.1l-1.3,5.9c0,0.2-0.2,0.2-0.4,0.2h-2.6
		c-2.6,0-2.3-1.6-1.7-4.1c0,0,1.6-8.1,1.6-8.1c0-0.2-0.1-0.3-0.3-0.3h-3.8c-0.2,0-0.4,0.1-0.4,0.3L36.6,80c-0.8,4.4-0.8,8.2,4.3,8.3
		c0.1,0,8,0,8,0c0.2,0,0.4-0.1,0.4-0.3L51,80l1.7-8.1C52.7,71.9,52.8,71.7,52.7,71.7z"/>
	<path display="inline" fill="#D3E6F1" d="M13.4,71.7H9.1c-0.2,0-0.4,0-0.5,0.2l-0.8,3.3c0,0.2,0.1,0.4,0.3,0.4h4.1
		c0.2,0,0.4-0.2,0.5-0.4l0.7-3.3C13.5,71.9,13.5,71.7,13.4,71.7z"/>
	<path display="inline" fill="#D3E6F1" d="M7.9,76.7c-0.2,0-0.4,0.2-0.5,0.4l-0.6,2.5l-1.3,5.8c0,0-0.7,3.1-0.7,3.3
		c0,0-0.6,2.2-1.9,2.1c-0.6,0-1.4-0.2-1.4-0.2h0c-0.4-0.1-0.4,0.3-0.5,0.5l-0.8,3.6c0,0.2,0.1,0.4,0.3,0.4c0,0,1.8,0.3,3.1,0.3h0.2
		c3.2,0,4.9-1.9,5.9-7l1.3-5.9l1.2-5.5c0-0.2-0.1-0.4-0.3-0.4"/>
	<path display="inline" fill="#D3E6F1" d="M62.7,71.6c-7.1,0-8.8,4.4-9.8,8.8c-0.9,4.5-0.9,8,6.5,8h0.3c2.9,0,6.5,0,6.5,0
		c0.2,0,0.4-0.2,0.4-0.4l0.7-2.8c0-0.2-0.1-0.3-0.3-0.3h-6.6c-2.4,0-3.3-0.7-3.2-2.4c0-0.2,0.2-0.7,0.4-0.7h10.2
		c0.4,0,0.5-0.3,0.5-0.3C69.4,76.9,69.5,71.6,62.7,71.6 M64.6,78.6c0,0.2-0.7,0.2-0.7,0.2l-5.6,0c-0.2,0-0.2-0.3-0.3-0.5
		c0,0,0-0.2,0-0.3c0.4-1.5,1.7-2.3,3.7-2.3c2.3,0,2.8,1.1,2.8,2.4"/>
	<path display="inline" fill="#D3E6F1" d="M31.9,83.8c0,0,2-4.8,2.4-7.7c0.6-3.8-1.3-9.2-8.5-9.2c-7.2,0-10.3,5.2-11.5,10.8
		c-1.2,5.7,0.4,10.6,7.5,10.6l10.9,0c0.2,0,0.4-0.2,0.5-0.4l0.9-3.5c0.1-0.2-0.1-0.4-0.3-0.4l-0.9,0l-0.9,0
		C32,84.1,31.9,84,31.9,83.8C31.9,83.8,31.9,83.8,31.9,83.8 M28.2,80.8l-0.8,2.8c-0.1,0.2-0.3,0.3-0.5,0.3h-4.2
		c-3.2,0-4-2.5-3.2-6.2c0.8-3.8,2.3-6.1,5.5-6.4c4.3-0.3,5.2,2.7,4.2,6.2L28.2,80.8z"/>
</g>
<g id="Illustrator" display="none">
	<rect x="2.5" y="2.7" display="inline" fill="#27170F" width="95" height="94.7"/>
	<g id="icon" display="inline">
		<path fill="#F47723" d="M95.7,4.4v91.2H4.3V4.4H95.7 M100,0H0v100H100V0L100,0z"/>
	</g>
	<g id="A" display="inline">
		<path fill="#F47723" d="M34.8,60.9l-4.6,13.2c-0.1,0.5-0.4,0.6-0.8,0.6h-7.6c-0.5,0-0.7-0.3-0.5-0.8c4.2-11.8,11-30.9,15.9-44.1
			c0.2-0.6,0.5-1.4,0.7-4.1c0-0.4,0.2-0.5,0.5-0.5h10.3c0.3,0,0.4,0.1,0.6,0.4c5.7,16,11.7,32.6,17.6,48.5c0.1,0.5,0,0.7-0.4,0.7
			h-8.4c-0.4,0-0.5-0.2-0.7-0.5l-4.9-13.4L34.8,60.9L34.8,60.9z M50.2,53.5c-1.6-5.1-5.3-15.3-6.8-20.7h-0.1
			c-1.2,5-4.3,13.7-6.5,20.7H50.2z"/>
	</g>
	<rect x="68.6" y="37.6" display="inline" fill="#F47723" width="8.5" height="37"/>
	<circle display="inline" fill="#F47723" cx="72.8" cy="28.3" r="4.3"/>
</g>
<g id="concrete5" display="none">
	<path display="inline" fill="#22BBE5" d="M83.4,61.7C75.8,52.5,64,71.8,57.6,75.9c-4.4,2.9-11,3.1-15.7,0.4
		c-6.4-3.8-4.4-12.7,2.3-15c6-2,16.5,4.3,20.3-2c4.7-7.8-11.3-9.6-16.1-9.4c-8.6,0.3-16.8,3.1-21.9,9.6c-5.5,7-4.2,15.4,1.8,21.7
		c6.1,5.9,15,8.2,23.9,7.5c2.2-0.2,6.1-1.1,9-2.7C67.1,82.8,85,63.5,83.4,61.7z M27.4,54.8c3,0.6-2.8-16-3.2-18.2
		c-0.5-2.8-1.5-6.6-4.2-7c-3.2-0.5-4,3.1-3.4,6.3C17.3,39.1,24.7,54.3,27.4,54.8z M52,46.3c4.6,0.7,4.3-21.4,4.3-24.4
		c0-2.7,1.1-10.2-2.6-10.9c-5-1-5.5,5.6-5.6,9.1C48.3,23.7,47.2,45.6,52,46.3z M62.9,49.8c5,2.1,8.9-20.2,9.4-23
		c0.6-2.9,0.7-9.1-4.3-7.1c-2.5,1-3,5-3.3,7.3C64,29.8,59,48.2,62.9,49.8z M38.8,47.9c5.7,0.4,0.3-22-0.1-25c-0.5-3-2.5-9.1-6.7-5.6
		c-2.1,1.8-1.2,5.9-0.8,8.2C31.5,28.6,34.4,47.6,38.8,47.9z"/>
	<g display="inline">
		<path fill="#22BBE5" d="M86,99.9H14C6.3,99.9,0.1,93.6,0.1,86v-72C0.1,6.3,6.3,0.1,14,0.1h72c7.7,0,13.9,6.2,13.9,13.9v72
			C99.9,93.6,93.7,99.9,86,99.9z M14,2.5C7.7,2.5,2.5,7.6,2.5,13.9v72c0,6.3,5.1,11.4,11.4,11.4h72c6.3,0,11.4-5.1,11.4-11.4v-72
			c0-6.3-5.1-11.4-11.4-11.4H14z"/>
	</g>
</g>
<g id="Visual_Studio" display="none">
	<path display="inline" fill="#682A7A" d="M73.6,4.4L96,13.5v72.7l-22.7,9.1L37.3,59.5L14.4,77.2l-9.1-4.5V27.1l9.1-4.3l22.9,17.9
		L73.6,4.4z M14.4,36.4V64L28,50L14.4,36.4z M49.9,50l23.5,18.5V31.4L49.9,50z"/>
</g>
<g id="GitHub" display="none">
	<g display="inline">
		<path fill-rule="evenodd" clip-rule="evenodd" fill="#FFFFFF" d="M50.2,1.8C22.7,1.8,0.4,24.1,0.4,51.6c0,22,14.3,40.7,34.1,47.3
			c2.5,0.5,3.4-1.1,3.4-2.4c0-1.2,0-5.1-0.1-9.3c-13.9,3-16.8-5.9-16.8-5.9c-2.3-5.8-5.5-7.3-5.5-7.3c-4.5-3.1,0.3-3,0.3-3
			c5,0.4,7.6,5.1,7.6,5.1c4.4,7.6,11.7,5.4,14.5,4.1c0.4-3.2,1.7-5.4,3.2-6.7C30.1,72.4,18.4,68.1,18.4,49c0-5.4,1.9-9.9,5.1-13.4
			c-0.5-1.3-2.2-6.3,0.5-13.2c0,0,4.2-1.3,13.7,5.1c4-1.1,8.2-1.7,12.5-1.7c4.2,0,8.5,0.6,12.5,1.7c9.5-6.4,13.7-5.1,13.7-5.1
			c2.7,6.9,1,11.9,0.5,13.2C80.1,39.1,82,43.6,82,49c0,19.1-11.7,23.4-22.8,24.6c1.8,1.5,3.4,4.6,3.4,9.2c0,6.7-0.1,12-0.1,13.7
			c0,1.3,0.9,2.9,3.4,2.4c19.8-6.6,34-25.3,34-47.3C100,24.1,77.7,1.8,50.2,1.8z"/>
		<path fill="#FFFFFF" d="M19.3,73.3c-0.1,0.2-0.5,0.3-0.9,0.2C18,73.3,17.8,73,18,72.7c0.1-0.3,0.5-0.3,0.9-0.2
			C19.2,72.8,19.4,73.1,19.3,73.3L19.3,73.3z M18.6,72.9"/>
		<path fill="#FFFFFF" d="M21.3,75.6c-0.2,0.2-0.7,0.1-1-0.2c-0.3-0.3-0.4-0.8-0.1-1c0.2-0.2,0.7-0.1,1,0.2
			C21.5,74.9,21.5,75.4,21.3,75.6L21.3,75.6z M20.8,75.1"/>
		<path fill="#FFFFFF" d="M23.2,78.5c-0.3,0.2-0.8,0-1.1-0.4c-0.3-0.4-0.3-1,0-1.2c0.3-0.2,0.8,0,1.1,0.4
			C23.6,77.7,23.6,78.3,23.2,78.5L23.2,78.5z M23.2,78.5"/>
		<path fill="#FFFFFF" d="M25.9,81.2c-0.3,0.3-0.9,0.2-1.3-0.2c-0.4-0.4-0.6-1-0.3-1.3c0.3-0.3,0.9-0.2,1.3,0.2
			C26.1,80.4,26.2,80.9,25.9,81.2L25.9,81.2z M25.9,81.2"/>
		<path fill="#FFFFFF" d="M29.6,82.8c-0.1,0.4-0.7,0.6-1.2,0.4c-0.6-0.2-0.9-0.6-0.8-1c0.1-0.4,0.7-0.6,1.2-0.4
			C29.4,82,29.8,82.5,29.6,82.8L29.6,82.8z M29.6,82.8"/>
		<path fill="#FFFFFF" d="M33.7,83.1c0,0.4-0.5,0.8-1.1,0.8c-0.6,0-1.1-0.3-1.1-0.7c0-0.4,0.5-0.8,1.1-0.8
			C33.2,82.4,33.7,82.7,33.7,83.1L33.7,83.1z M33.7,83.1"/>
		<path fill="#FFFFFF" d="M37.5,82.5c0.1,0.4-0.3,0.8-0.9,0.9c-0.6,0.1-1.1-0.1-1.2-0.5c-0.1-0.4,0.3-0.8,0.9-0.9
			C36.9,81.9,37.4,82.1,37.5,82.5L37.5,82.5z M37.5,82.5"/>
	</g>
</g>
<g id="jade" display="none">
	<rect x="0.4" y="43" display="inline" fill="#00A86B" width="8.1" height="34.6"/>
	<circle display="inline" fill="#00A86B" cx="4.5" cy="34.5" r="4.5"/>
	<path display="inline" fill="#00A86B" d="M31.3,43v2.8C29.4,44,26.9,43,24.1,43C18,43,13,48.2,13,54.7c0,6.5,5,11.7,11.1,11.7
		c2.8,0,5.3-1.1,7.2-2.8v2h7.7V43H31.3z M26.6,58.9c-3,0-5.4-2.1-5.4-4.6s2.4-4.6,5.4-4.6c3,0,5.4,2.1,5.4,4.6S29.6,58.9,26.6,58.9z
		"/>
	<path display="inline" fill="#00A86B" d="M62.2,30v15.8C60.2,44,57.7,43,54.9,43c-6.1,0-11.1,5.3-11.1,11.7c0,6.5,5,11.7,11.1,11.7
		c2.8,0,5.3-1.1,7.2-2.8v2h7.7V30H62.2z M57.4,58.9c-3,0-5.4-2.1-5.4-4.6s2.4-4.6,5.4-4.6c3,0,5.4,2.1,5.4,4.6S60.4,58.9,57.4,58.9z
		"/>
	<path display="inline" fill="#00A86B" d="M99.2,56.4c0.1-0.7,0.2-1.4,0.2-2.1c0-6.7-5.6-12.1-12.6-12.1c-6.9,0-12.6,5.4-12.6,12.1
		s5.6,12.1,12.6,12.1c5.3,0,9.8-3.1,11.6-7.5h-7.3c-1,1.7-2.6,2.9-4.3,2.9c-2.5,0-4.6-2.3-5.2-5.4H99.2z M86.8,46.9
		c2.5,0,4.6,2.3,5.2,5.3H81.5C82.2,49.2,84.3,46.9,86.8,46.9z"/>
</g>
<g id="nodeJS" display="none">
	<g display="inline">
		<path fill="#81BE41" d="M51.5,100.2c-1,0-2-0.2-2.8-0.8l-8.9-5.3c-1.3-0.8-0.7-1-0.2-1.2c1.7-0.7,2.2-0.8,4-1.8
			c0.2-0.1,0.4-0.1,0.7,0l6.8,4c0.2,0.1,0.7,0.1,0.9,0l26.7-15.4c0.2-0.1,0.4-0.4,0.4-0.8V48.4c0-0.3-0.1-0.5-0.4-0.8L51.9,32.3
			c-0.2-0.1-0.5-0.1-0.9,0L24.4,47.6c-0.2,0.1-0.4,0.4-0.4,0.8v30.7c0,0.3,0.2,0.5,0.4,0.8l7.3,4.2c3.9,2,6.4-0.3,6.4-2.7V51
			c0-0.4,0.3-0.8,0.8-0.8h3.4c0.4,0,0.8,0.3,0.8,0.8v30.4c0,5.3-2.9,8.4-7.9,8.4c-1.5,0-2.7,0-6.2-1.6l-6.9-4
			c-1.6-1.1-2.6-2.9-2.6-5V48.4c0-2,1.1-3.9,2.8-4.9l26.6-15.4c1.7-1,3.9-1,5.6,0l26.7,15.4c1.7,1,2.8,2.8,2.8,4.9v30.7
			c0,2-1.1,3.9-2.8,4.9L54.3,99.4C53.5,99.8,52.5,100.2,51.5,100.2z"/>
		<path fill="#81BE41" d="M59.7,79c-11.6,0-14.1-5.3-14.1-9.9c0-0.4,0.3-0.8,0.8-0.8h3.5c0.4,0,0.8,0.3,0.8,0.7
			c0.5,3.5,2.1,5.3,9.1,5.3c5.6,0,8-1.3,8-4.2c0-1.7-0.7-3-9.4-3.8C51,65.5,46.4,64,46.4,58.2c0-5.4,4.6-8.6,12.2-8.6
			c8.6,0,12.8,2.9,13.4,9.3c0,0.2-0.1,0.4-0.2,0.5c-0.1,0-0.3,0.1-0.5,0.1h-3.5c-0.3,0-0.7-0.2-0.8-0.7c-0.9-3.7-2.8-4.9-8.4-4.9
			c-6.1,0-6.8,2.2-6.8,3.7c0,2,0.9,2.5,9.1,3.6c8.1,1.1,12,2.6,12,8.4C73,75.6,68.1,79,59.7,79z"/>
	</g>
	<path display="inline" fill="#FFFFFF" d="M26.8,15.7c0-0.3-0.2-0.7-0.4-0.8L19,10.7c-0.1-0.1-0.2-0.1-0.4-0.1h-0.1
		c-0.1,0-0.3,0-0.4,0.1L10.6,15c-0.3,0.1-0.4,0.4-0.4,0.8v11.4c0,0.1,0.1,0.3,0.2,0.4c0.1,0.1,0.3,0.1,0.4,0l4.3-2.5
		c0.3-0.2,0.4-0.4,0.4-0.8V19c0-0.3,0.2-0.7,0.4-0.8l1.8-1.1C18,17,18.2,17,18.3,17s0.3,0,0.4,0.1l1.8,1.1c0.3,0.1,0.4,0.4,0.4,0.8
		v5.3c0,0.3,0.2,0.7,0.4,0.8l4.3,2.5c0.1,0.1,0.3,0.1,0.4,0c0.1-0.1,0.2-0.2,0.2-0.4L26.8,15.7z"/>
	<path display="inline" fill="#FFFFFF" d="M66,0.1c-0.1-0.1-0.3-0.1-0.4,0c-0.1,0.1-0.2,0.2-0.2,0.4v11.3c0,0.1-0.1,0.2-0.1,0.2
		c-0.1,0.1-0.2,0.1-0.3,0L63,10.9c-0.3-0.1-0.7-0.1-0.9,0l-7.4,4.2c-0.3,0.1-0.4,0.4-0.4,0.8v8.5c0,0.3,0.2,0.7,0.4,0.8l7.4,4.2
		c0.3,0.1,0.7,0.1,0.9,0l7.4-4.2c0.3-0.1,0.4-0.4,0.4-0.8V3.3c0-0.3-0.2-0.7-0.4-0.8L66,0.1z M65.3,21.7c0,0.1,0,0.1-0.1,0.2
		l-2.5,1.4c-0.1,0-0.1,0-0.2,0L60,21.9c-0.1,0-0.1-0.1-0.1-0.2v-2.9c0-0.1,0-0.1,0.1-0.2l2.5-1.4c0.1,0,0.1,0,0.2,0l2.5,1.4
		c0.1,0,0.1,0.1,0.1,0.2V21.7z"/>
	<path display="inline" fill="#FFFFFF" d="M92.2,18.6c0.3-0.1,0.4-0.4,0.4-0.8v-2.1c0-0.3-0.2-0.7-0.4-0.8L85,10.8
		c-0.3-0.1-0.7-0.1-0.9,0l-7.4,4.2c-0.3,0.1-0.4,0.4-0.4,0.8v8.5c0,0.3,0.2,0.7,0.4,0.8l7.3,4.1c0.2,0.1,0.7,0.1,0.9,0l4.5-2.5
		c0.1-0.1,0.2-0.2,0.2-0.4c0-0.1-0.1-0.3-0.2-0.4l-7.4-4.2c-0.1-0.1-0.2-0.2-0.2-0.4v-2.6c0-0.1,0.1-0.3,0.2-0.4l2.3-1.3
		c0.1-0.1,0.3-0.1,0.4,0l2.3,1.3c0.1,0.1,0.2,0.2,0.2,0.4v2.1c0,0.1,0.1,0.3,0.2,0.4s0.3,0.1,0.4,0L92.2,18.6z"/>
	<path display="inline" fill="#81BE41" d="M40.1,10.8c0.3-0.1,0.7-0.1,0.9,0l7.4,4.2c0.3,0.1,0.4,0.4,0.4,0.8v8.5
		c0,0.3-0.2,0.7-0.4,0.8L41,29.3c-0.3,0.1-0.7,0.1-0.9,0L32.8,25c-0.2-0.2-0.4-0.4-0.4-0.8v-8.5c0-0.3,0.2-0.7,0.4-0.8L40.1,10.8z"
		/>
	<path display="inline" fill="#81BE41" d="M84.3,18.2c0,0,0.1,0,0.2,0L86,19l0.1,0.1v1.6c0,0.1,0,0.1-0.1,0.1l-1.4,0.8
		c0,0-0.1,0-0.2,0l-1.4-0.8l-0.1-0.1v-1.6c0-0.1,0-0.1,0.1-0.1L84.3,18.2z"/>
</g>
<g id="Cordova">
	<path fill="#444445" d="M76.9,2.8H23L0.4,39.3l9.2,58.2h16L24.4,84h7.9l1.4,13.4h32.8l1.2-13.6h7.9l-1,13.6h15.9l9-58.3L76.9,2.8z
		 M77.3,74.6H23l-4.7-35.8l9-18.1h14.8l-1.1,6.7h18.1l-1-6.7h14.2l9.3,18.6L77.3,74.6z"/>
	<ellipse fill="#444445" cx="36.4" cy="55" rx="2.3" ry="8.6"/>
	<ellipse fill="#444445" cx="64.5" cy="55" rx="2.3" ry="8.6"/>
</g>
</svg>
