<?xml version="1.0" encoding="utf-8"?>
<!-- Generator: Adobe Illustrator 18.1.1, SVG Export Plug-In . SVG Version: 6.00 Build 0)  -->
<!DOCTYPE svg PUBLIC "-//W3C//DTD SVG 1.1//EN" "http://www.w3.org/Graphics/SVG/1.1/DTD/svg11.dtd">
<svg version="1.1" id="GitHib_Dark" xmlns="http://www.w3.org/2000/svg" xmlns:xlink="http://www.w3.org/1999/xlink" x="0px"
	 y="0px" viewBox="0 0 100 100" enable-background="new 0 0 100 100" xml:space="preserve">
<g>
	<path fill-rule="evenodd" clip-rule="evenodd" fill="#191717" d="M49.8,1C22.4,1,0.2,23.2,0.2,50.6c0,21.9,14.2,40.5,33.9,47.1
		c2.5,0.5,3.4-1.1,3.4-2.4c0-1.2,0-5.1-0.1-9.2c-13.8,3-16.7-5.9-16.7-5.9c-2.3-5.7-5.5-7.3-5.5-7.3c-4.5-3.1,0.3-3,0.3-3
		c5,0.3,7.6,5.1,7.6,5.1c4.4,7.6,11.6,5.4,14.4,4.1c0.4-3.2,1.7-5.4,3.1-6.6C29.8,71.3,18.2,67,18.2,48c0-5.4,1.9-9.8,5.1-13.3
		c-0.5-1.2-2.2-6.3,0.5-13.1c0,0,4.2-1.3,13.6,5.1c4-1.1,8.2-1.7,12.4-1.7c4.2,0,8.5,0.6,12.4,1.7c9.5-6.4,13.6-5.1,13.6-5.1
		c2.7,6.8,1,11.9,0.5,13.1c3.2,3.5,5.1,7.9,5.1,13.3c0,19.1-11.6,23.2-22.7,24.5c1.8,1.5,3.4,4.6,3.4,9.2c0,6.6-0.1,12-0.1,13.6
		c0,1.3,0.9,2.9,3.4,2.4c19.7-6.6,33.9-25.2,33.9-47.1C99.4,23.2,77.2,1,49.8,1z"/>
	<path fill="#191717" d="M19,72.2c-0.1,0.2-0.5,0.3-0.9,0.2c-0.4-0.2-0.6-0.5-0.4-0.7c0.1-0.3,0.5-0.3,0.9-0.2
		C18.9,71.6,19.1,72,19,72.2L19,72.2z M18.4,71.8"/>
	<path fill="#191717" d="M21,74.5c-0.2,0.2-0.7,0.1-1-0.2c-0.3-0.3-0.4-0.8-0.1-1c0.2-0.2,0.7-0.1,1,0.2
		C21.2,73.8,21.3,74.2,21,74.5L21,74.5z M20.5,74"/>
	<path fill="#191717" d="M23,77.3c-0.3,0.2-0.8,0-1.1-0.4c-0.3-0.4-0.3-1,0-1.2c0.3-0.2,0.8,0,1.1,0.4C23.3,76.6,23.3,77.1,23,77.3
		L23,77.3z M23,77.3"/>
	<path fill="#191717" d="M25.7,80.1c-0.3,0.3-0.9,0.2-1.3-0.2c-0.4-0.4-0.6-1-0.3-1.3c0.3-0.3,0.9-0.2,1.3,0.2
		C25.8,79.2,25.9,79.8,25.7,80.1L25.7,80.1z M25.7,80.1"/>
	<path fill="#191717" d="M29.4,81.7c-0.1,0.4-0.7,0.6-1.2,0.4c-0.6-0.2-0.9-0.6-0.8-1c0.1-0.4,0.7-0.6,1.2-0.4
		C29.1,80.8,29.5,81.3,29.4,81.7L29.4,81.7z M29.4,81.7"/>
	<path fill="#191717" d="M33.4,82c0,0.4-0.5,0.7-1.1,0.8c-0.6,0-1.1-0.3-1.1-0.7c0-0.4,0.5-0.7,1.1-0.8C32.9,81.2,33.4,81.6,33.4,82
		L33.4,82z M33.4,82"/>
	<path fill="#191717" d="M37.2,81.3c0.1,0.4-0.3,0.8-0.9,0.9c-0.6,0.1-1.1-0.1-1.2-0.5c-0.1-0.4,0.3-0.8,0.9-0.9
		C36.6,80.7,37.1,80.9,37.2,81.3L37.2,81.3z M37.2,81.3"/>
</g>
</svg>
