<?xml version="1.0" encoding="utf-8"?>
<!-- Generator: Adobe Illustrator 18.1.1, SVG Export Plug-In . SVG Version: 6.00 Build 0)  -->
<!DOCTYPE svg PUBLIC "-//W3C//DTD SVG 1.1//EN" "http://www.w3.org/Graphics/SVG/1.1/DTD/svg11.dtd">
<svg version="1.1" id="GitHub" xmlns="http://www.w3.org/2000/svg" xmlns:xlink="http://www.w3.org/1999/xlink" x="0px" y="0px"
	 viewBox="0 0 100 100" enable-background="new 0 0 100 100" xml:space="preserve">
<g>
	<path fill-rule="evenodd" clip-rule="evenodd" fill="#FFFFFF" d="M50.2,1.8C22.7,1.8,0.4,24.1,0.4,51.6c0,22,14.3,40.7,34.1,47.3
		c2.5,0.5,3.4-1.1,3.4-2.4c0-1.2,0-5.1-0.1-9.3c-13.9,3-16.8-5.9-16.8-5.9c-2.3-5.8-5.5-7.3-5.5-7.3c-4.5-3.1,0.3-3,0.3-3
		c5,0.4,7.6,5.1,7.6,5.1c4.4,7.6,11.7,5.4,14.5,4.1c0.4-3.2,1.7-5.4,3.2-6.7C30.1,72.4,18.4,68.1,18.4,49c0-5.4,1.9-9.9,5.1-13.4
		c-0.5-1.3-2.2-6.3,0.5-13.2c0,0,4.2-1.3,13.7,5.1c4-1.1,8.2-1.7,12.5-1.7c4.2,0,8.5,0.6,12.5,1.7c9.5-6.4,13.7-5.1,13.7-5.1
		c2.7,6.9,1,11.9,0.5,13.2C80.1,39.1,82,43.6,82,49c0,19.1-11.7,23.4-22.8,24.6c1.8,1.5,3.4,4.6,3.4,9.2c0,6.7-0.1,12-0.1,13.7
		c0,1.3,0.9,2.9,3.4,2.4c19.8-6.6,34-25.3,34-47.3C100,24.1,77.7,1.8,50.2,1.8z"/>
	<path fill="#FFFFFF" d="M19.3,73.3c-0.1,0.2-0.5,0.3-0.9,0.2C18,73.3,17.8,73,18,72.7c0.1-0.3,0.5-0.3,0.9-0.2
		C19.2,72.8,19.4,73.1,19.3,73.3L19.3,73.3z M18.6,72.9"/>
	<path fill="#FFFFFF" d="M21.3,75.6c-0.2,0.2-0.7,0.1-1-0.2c-0.3-0.3-0.4-0.8-0.1-1c0.2-0.2,0.7-0.1,1,0.2
		C21.5,74.9,21.5,75.4,21.3,75.6L21.3,75.6z M20.8,75.1"/>
	<path fill="#FFFFFF" d="M23.2,78.5c-0.3,0.2-0.8,0-1.1-0.4c-0.3-0.4-0.3-1,0-1.2c0.3-0.2,0.8,0,1.1,0.4
		C23.6,77.7,23.6,78.3,23.2,78.5L23.2,78.5z M23.2,78.5"/>
	<path fill="#FFFFFF" d="M25.9,81.2c-0.3,0.3-0.9,0.2-1.3-0.2c-0.4-0.4-0.6-1-0.3-1.3c0.3-0.3,0.9-0.2,1.3,0.2
		C26.1,80.4,26.2,80.9,25.9,81.2L25.9,81.2z M25.9,81.2"/>
	<path fill="#FFFFFF" d="M29.6,82.8c-0.1,0.4-0.7,0.6-1.2,0.4c-0.6-0.2-0.9-0.6-0.8-1c0.1-0.4,0.7-0.6,1.2-0.4
		C29.4,82,29.8,82.5,29.6,82.8L29.6,82.8z M29.6,82.8"/>
	<path fill="#FFFFFF" d="M33.7,83.1c0,0.4-0.5,0.8-1.1,0.8c-0.6,0-1.1-0.3-1.1-0.7c0-0.4,0.5-0.8,1.1-0.8
		C33.2,82.4,33.7,82.7,33.7,83.1L33.7,83.1z M33.7,83.1"/>
	<path fill="#FFFFFF" d="M37.5,82.5c0.1,0.4-0.3,0.8-0.9,0.9c-0.6,0.1-1.1-0.1-1.2-0.5c-0.1-0.4,0.3-0.8,0.9-0.9
		C36.9,81.9,37.4,82.1,37.5,82.5L37.5,82.5z M37.5,82.5"/>
</g>
</svg>
