<?xml version="1.0" encoding="utf-8"?>
<!-- Generator: Adobe Illustrator 18.1.1, SVG Export Plug-In . SVG Version: 6.00 Build 0)  -->
<!DOCTYPE svg PUBLIC "-//W3C//DTD SVG 1.1//EN" "http://www.w3.org/Graphics/SVG/1.1/DTD/svg11.dtd">
<svg version="1.1" id="Illustrator" xmlns="http://www.w3.org/2000/svg" xmlns:xlink="http://www.w3.org/1999/xlink" x="0px"
	 y="0px" viewBox="0 0 100 100" enable-background="new 0 0 100 100" xml:space="preserve">
<g id="icon">
	
		<radialGradient id="SVGID_1_" cx="-629.3309" cy="-482.1858" r="702.7548" gradientTransform="matrix(0.1778 0 0 0.1825 116.7733 92.5639)" gradientUnits="userSpaceOnUse">
		<stop  offset="0" style="stop-color:#3A2C23"/>
		<stop  offset="1.408249e-002" style="stop-color:#3A2C22"/>
		<stop  offset="0.2894" style="stop-color:#2C1C13"/>
		<stop  offset="0.5967" style="stop-color:#25140D"/>
		<stop  offset="1" style="stop-color:#24130C"/>
	</radialGradient>
	<rect x="2.2" y="2.2" fill="url(#SVGID_1_)" width="95.6" height="95.6"/>
</g>
<g id="A">
	<path fill="#F47723" d="M34.8,60.9l-4.6,13.2c-0.1,0.5-0.4,0.6-0.8,0.6h-7.6c-0.5,0-0.7-0.3-0.5-0.8c4.2-11.8,11-30.9,15.9-44.1
		c0.2-0.6,0.5-1.4,0.7-4.1c0-0.4,0.2-0.5,0.5-0.5h10.3c0.3,0,0.4,0.1,0.6,0.4c5.7,16,11.7,32.6,17.6,48.5c0.1,0.5,0,0.7-0.4,0.7
		h-8.4c-0.4,0-0.5-0.2-0.7-0.5l-4.9-13.4L34.8,60.9L34.8,60.9z M50.2,53.5c-1.6-5.1-5.3-15.3-6.8-20.7h-0.1
		c-1.2,5-4.3,13.7-6.5,20.7H50.2z"/>
</g>
<g id="i">
	<rect x="68.6" y="37.6" fill="#F47723" width="8.5" height="37"/>
	<ellipse fill="#F47723" cx="72.8" cy="30.7" rx="4.1" ry="4.2"/>
</g>
<path fill="#F47723" d="M95.7,4.4v91.2H4.3V4.4H95.7 M100,0H0v100H100V0L100,0z"/>
</svg>
