<?xml version="1.0" encoding="utf-8"?>
<!-- Generator: Adobe Illustrator 18.1.1, SVG Export Plug-In . SVG Version: 6.00 Build 0)  -->
<!DOCTYPE svg PUBLIC "-//W3C//DTD SVG 1.1//EN" "http://www.w3.org/Graphics/SVG/1.1/DTD/svg11.dtd">
<svg version="1.1" id="Jade" xmlns="http://www.w3.org/2000/svg" xmlns:xlink="http://www.w3.org/1999/xlink" x="0px" y="0px"
	 viewBox="0 0 100 100" enable-background="new 0 0 100 100" xml:space="preserve">
<rect x="0.4" y="43" fill="#00A86B" width="8.1" height="34.6"/>
<circle fill="#00A86B" cx="4.5" cy="34.5" r="4.5"/>
<path fill="#00A86B" d="M31.3,43v2.8C29.4,44,26.9,43,24.1,43C18,43,13,48.2,13,54.7c0,6.5,5,11.7,11.1,11.7c2.8,0,5.3-1.1,7.2-2.8
	v2h7.7V43H31.3z M26.6,58.9c-3,0-5.4-2.1-5.4-4.6s2.4-4.6,5.4-4.6c3,0,5.4,2.1,5.4,4.6S29.6,58.9,26.6,58.9z"/>
<path fill="#00A86B" d="M62.2,30v15.8C60.2,44,57.7,43,54.9,43c-6.1,0-11.1,5.3-11.1,11.7c0,6.5,5,11.7,11.1,11.7
	c2.8,0,5.3-1.1,7.2-2.8v2h7.7V30H62.2z M57.4,58.9c-3,0-5.4-2.1-5.4-4.6s2.4-4.6,5.4-4.6c3,0,5.4,2.1,5.4,4.6S60.4,58.9,57.4,58.9z"
	/>
<path fill="#00A86B" d="M99.2,56.4c0.1-0.7,0.2-1.4,0.2-2.1c0-6.7-5.6-12.1-12.6-12.1c-6.9,0-12.6,5.4-12.6,12.1s5.6,12.1,12.6,12.1
	c5.3,0,9.8-3.1,11.6-7.5h-7.3c-1,1.7-2.6,2.9-4.3,2.9c-2.5,0-4.6-2.3-5.2-5.4H99.2z M86.8,46.9c2.5,0,4.6,2.3,5.2,5.3H81.5
	C82.2,49.2,84.3,46.9,86.8,46.9z"/>
</svg>
