<?xml version="1.0" encoding="utf-8"?>
<!-- Generator: Adobe Illustrator 18.1.1, SVG Export Plug-In . SVG Version: 6.00 Build 0)  -->
<!DOCTYPE svg PUBLIC "-//W3C//DTD SVG 1.1//EN" "http://www.w3.org/Graphics/SVG/1.1/DTD/svg11.dtd">
<svg version="1.1" id="Layer_1" xmlns="http://www.w3.org/2000/svg" xmlns:xlink="http://www.w3.org/1999/xlink" x="0px" y="0px"
	 viewBox="0 0 100 100" enable-background="new 0 0 100 100" xml:space="preserve">
<path fill="#C1282D" d="M29.3,51.5c0-1.7-0.1-3.4-0.1-4.4l0.7-1.2c0.3-0.1,0.7-0.3,1.3-0.5c0.2-0.1,0.3,0.1,0.3,0.3
	c-1.1,5.2-1,10.9-1,16.2c0,2.3,0,4.5,0,6.8c0,1.1,0,2.8-0.9,3.7c-1.5,1.5-5.1,1.1-5.7-1.2c-0.5-1.9-0.2-3.9-0.5-5.9
	c-0.2-1.5-0.4-3.3,0.7-4.5c1.4-1.4,1.1,2.6,1.1,3.1C25.1,65.3,25,66.6,25,68c0,1,0,3.2,1.1,3.8c2.1,1.2,2.4-2.7,2.5-3.9
	c0.1-2.1,0.1-4.2,0.2-6.2c0.1-1.6,0.2-3.2,0.4-4.8c0-0.8,0-1.6,0-2.3V54C29.3,54,29.3,51.5,29.3,51.5z M39.2,58.4
	c0.4,0.8,0.4,1.8,0.4,2.7c0,1.1-0.1,2.2-0.3,3.3c-0.3,2.2-0.8,4.3-0.6,6.6l0,0.5c0,0.1,0.1,0.2,0.1,0.3c0,0.2-0.1,0.3-0.2,0.4
	c-0.2,0.2-0.5,0.4-0.8,0.5c-0.7,0.2-1.5,0.1-2.2,0c-1.5-0.4-2.9-1.5-3.1-3.2c-0.1-0.5-0.1-1.1-0.1-1.6c0-0.5-0.1-1.1-0.1-1.6
	c0-0.9,0.2-1.9,1-2.5c0.6-0.4,1.4-0.7,2.1-0.8c0.5-0.1,1.1,0,1.6,0c0.2,0,0.5,0,0.7-0.1c0.1-0.1,0.1-0.4,0.1-0.5
	c0-0.6,0.1-1.2-0.1-1.7c-0.6-1.8-2.6-0.5-3.8-0.3c-0.5,0.1-1-0.1-1.1-0.6c-0.2-0.5,0.2-0.9,0.6-1.2c0.6-0.4,1.3-0.7,2-0.9
	C36.9,56.9,38.5,56.9,39.2,58.4z M37.8,65c-0.3-0.7-1-0.5-1.6-0.4c-1.2,0.3-2.1,0.8-2.3,2.1c-0.2,1,0,2.3,0.4,3.2
	c0.2,0.5,0.6,0.8,1.1,0.9c0.4,0.1,1.1,0.3,1.5,0.1c0.5-0.3,0.6-1.3,0.7-1.8c0.2-0.9,0.2-1.7,0.3-2.6c0,0.3,0,0.7,0,0
	C37.9,66.1,38,65.5,37.8,65L37.8,65z M34,60.1C33.6,60.2,34.7,60,34,60.1z M37.9,66.6L37.9,66.6L37.9,66.6z M45.9,95.3
	c0.1-0.6,0.6-1.1,0.5-1.7c0-0.5-0.7-0.8-1.1-1c-0.8-0.3-2,0.5-1.5,1.4c0,0,0,0,0,0c-0.1,0.5,0,0.9,0.4,1.3c0.7,0.7,1.8,0.9,2.5,1.5
	c0.2,0.2,0.5,0,0.4-0.3C46.8,96.3,46.3,95.6,45.9,95.3z M70,52.9c-1.7-0.4-3.6-0.8-5.4-0.6c-0.8,0.1-3.6,0.7-1.9,1.6
	c0,0,0,0,0.1,0.1c1.3,2.4,4.3,2.5,6.9,2.8c1.5,0.2,3.1,0.3,4.4-0.5c0.5-0.4,0.5-1.1,0-1.5C72.9,53.7,71.5,53.3,70,52.9z M52.9,71.1
	c0.4-0.1,0.9-0.2,1.3-0.1c0.3,0.1,0.9,0.3,0.5,0.6c-0.2,0.2-0.6,0.3-0.9,0.4c-0.3,0.1-0.7,0.3-1,0.4c-1.3,0.5-3.1,0.8-3.9-0.7
	c-0.5-0.8-0.6-1.8-0.6-2.7c0-1-0.1-2.1,0-3.1c0-1.6-0.1-3.4,0.7-4.9c0.5-0.9,1.7-2.3,2.9-1.6c0.9,0.6,1.5,1.8,1.8,2.8
	c0.3,0.8,1,2.3,0.3,3c-0.4,0.4-1,0.4-1.4,0.3c-0.7,0-1.5-0.2-2.3,0c-0.8,0.2-0.8,0.8-0.7,1.5c0.1,0.9,0.1,1.9,0.4,2.8
	c0.2,0.6,0.5,1.2,1.2,1.4C51.7,71.5,52.3,71.3,52.9,71.1C53.7,70.9,51.5,71.5,52.9,71.1z M49.5,61.8c-0.4,0.9-0.3,1.9-0.2,2.8
	c0.6-0.1,1.4,0.1,2.1,0.1h1c0.2,0,0.4,0,0.6-0.1c0.5-0.4,0.1-1.4,0-1.9C52.6,61.7,50.2,60.3,49.5,61.8
	C49.1,62.7,50.1,60.4,49.5,61.8z M97.2,92.6c-1.2,0.8-0.6,2.2-1.5,3.3c-0.8,0.9-2.8,0.9-3.9,0.9c-4.5,0-9-0.3-13.5,0
	c-1.1,0.1-2.1,0.2-3.2,0.5c-0.3,0.1-0.8,0.3-1.2,0.1c-0.9-0.5-1.7-2-2.9-1.5c-1,0.4-1.7,1.9-2.9,1c-2.2-1.6-4-0.1-6.3,0.3
	c-2.3,0.5-4.6-0.8-7-0.2c-1.7,0.5-3.4,1-5.2,0.4c-1.8-0.6-2.3-2-0.7-3.3c2.5-2,5.5-2.3,8.6-2.1c4.6,0.4,9.2,0,13.9-0.2
	c0.1,0,0.2,0.1,0.2,0.2c2,0.8,3.3-0.8,4.4-2.2c0.1-0.2,0.4-0.1,0.5,0.1c1.6,2.5,3.7-0.3,5.8-0.1c0.5,0,1.1,0.2,1.4,0.7
	c0.1,0.2,0.2,0.5,0.2,0.8c0.1,1.2,1.7,1,1.6-0.3c0-0.2,0.2-0.4,0.4-0.3c1.6,0.6,3.8,1.5,5.2-0.2c1.1-1.4,1.3-3.6,1.4-5.4
	c0.2-4.8-0.1-9.7-0.4-14.5c-0.3-4.6-0.8-9.4-0.2-14c0.5-4.6,0.5-9.1,0.4-13.7c0-2.4-0.1-4.8,0-7.3c0.1-2.2,0.5-4.6,0.2-6.8
	c-0.2-2-1.4-3.7-1.7-5.7c-0.2-1.8,0-3.6,0.4-5.4c0.2-1.1,0.8-2.4,0.7-3.5c0-1-0.1-1.9-0.1-2.9c0-0.5-0.1-1.2,0.3-1.6
	c0.6-0.7,0.8-1.6-0.4-1.8c-3.1-0.3-6.3-2.3-9.3-0.4c0,0.6,0.1,1.4-0.1,2.1c0.1,0.2,0.3,0.4,0.4,0.6c0.7,0.3,1.5,0.4,2.3,0.4
	c0.9,0,2-0.2,2.9-0.1c0.8,0.1,1.5,0.8,1.2,1.7c-0.2,0.6-0.8,1.2-1.1,1.8c-0.6,1-0.5,2.4-0.5,3.5c0,2.9,0,5.8,0.1,8.6
	c0.1,2.4,0.3,4.8,0.5,7.2c0,0,0.2,0.1,0.2,0.2c0.1,2.7,1,5.3,1,8c0,0-0.7,3.3-0.7,3.3c0,3.5-0.3,10-0.3,10c0,6-1.1,11.8,0,17.8
	c0.4,2.4-0.5,4.7-0.6,7c-0.1,2.6,0.2,5.2-0.1,7.8c0.1,0.1,0,0.3-0.2,0.4c-5.4,1-10.9,1.2-16.5,0.9c-1.4-0.1-3-0.2-4.3,0.3
	c-0.5,0.2-1.2,0.6-1.9,0.5c-0.8-0.1-1.2-0.7-1.9-0.9c-0.9-0.2-1.9-0.4-2.8-0.5c-2.4-0.3-4.8-0.5-7.1,0.5c-1.3,0.5-2.6,0.3-3.9-0.2
	c-1.5-0.6-2.6-1.4-4.3-0.5c-0.7,0.3-1.3,0.7-2,0.8c-0.6,0.1-1.2,0-1.7-0.2c-1.3-0.5-2.3-0.6-3.6-0.4c0.1,0.2,0,0.6-0.2,0.6
	c-8.1-0.4-16.1,0.5-24.2,0.6c-0.3,0.1-0.6,0.5-0.9,0.5h-0.2c-0.2,0-0.2-0.7-0.2-0.8c-1.1-1.2-0.8-5.1-0.8-6.3
	c0.3-7.5-0.6-15-0.8-22.5c-0.1-3.7-0.1-7.5,0.5-11.2c0.7-4.2,0.7-8.2,0.6-12.4c-0.2-8.3,0.6-16.5,0.4-24.8c0-0.1,0.1-0.2,0.2-0.1
	c0,0,0,0,0.1,0c2.2-0.2,4.7-0.8,6.9-0.2c0,0,0.1,0,0.1,0.1l0.3,0h2.5c0.1,0,0.2,0,0.2,0.1c4.3,0,8.7-0.3,13-0.5
	c1.5-0.1,3.1,0,4.6-0.5c0.8-0.2,1.6-0.6,2.5-0.6c2,0.1,4,0.8,6,1.2c1.4,0.3,2.3-2.1,3.5-1.3c1.9,1.2,4,0.7,6.1,0.8
	c1.1,0,2.2-0.2,3.3-0.2c0.6,0,1.1,0.1,1.7,0.3c0.6-0.1,1.1,0,1.7,0.2c3.4,0.1,6.7-0.4,10.1-0.3c2,0,4.2,0.2,6.2-0.6
	c0.5-0.2,0.8-0.5,0.9-0.8l-0.2-0.5c-0.1-0.3-0.3-0.6-0.5-0.8c-2.1-0.7-4.7-0.5-6.9-0.6c-3.1-0.1-6.2,0.3-9.3,0.5
	c-2.9,0.2-5.9,0.4-8.8,0.2c-1.7-0.1-4.9-0.9-6.4,0.3c-0.1,0.1-0.3,0.1-0.4,0c-2.8-2.3-6.4,1.1-9.6,0.2c-1.9-0.6-3.7-0.9-5.7-0.7
	c-2,0.2-3.8,0.5-5.8,0.4c-4.3,0-8.6,0.2-12.9,0.1c-0.9,0-1.8,0-2.8-0.1C11.2,8.4,10.2,8,9.5,8.3C8.3,8.8,8.1,9.2,8.2,9.5
	c0.3,0.2-0.8,1.7-0.8,2.5c0,0.7-0.1,1.3-0.1,2c0,2.9-0.2,5.6-0.9,8.5C6,23.9,5.3,26,5.8,27.6c0.3,1,1.1,1.6,1.5,2.6
	c0.7,1.6,0.8,3.6,0.7,5.3c-0.2,5.7-0.2,11.3-0.4,17c-0.2,5.7-0.5,11.4-0.3,17.1c0.2,5.3,1,10.6,0.3,15.9c-0.2,1.7-2.3,4.8-0.3,6
	c1.1,0.7,2.5,0.8,3.8,0.9c3.2,0.2,6.5-0.1,9.7-0.5c1.2-0.1,2.4-0.4,3.5-0.4c0.9,0,1.7,0.1,2.6,0.4c0.7,0.3,1.9,0.8,2.8,0.8
	c0,0,1.4,0,1.5-0.4c1.2-0.5,2.2-0.9,3.8-0.6c1.4,0.3,2.8,0.5,4.3,0.2c0.8-0.1,2-0.2,2.8,0c0.1,0,0.3,0.2,0.3,0.2
	c0.3-0.1-0.2,0.4-0.5,0.5c-1.8,0.7-1.2,3-1.4,4.5c0,0.1-0.2,0.2-0.3,0.2c-0.7,0-1.7,0-2.1-0.7c-0.8-1.6-2.8-2.6-2.8,0.6
	c0,0.2-0.1,0.3-0.3,0.3c-0.1,0-0.3-0.1-0.3-0.3c0-0.2-2.1-1.3-2.3-1.4c-1-0.6-2.2-1.2-3.4-0.8c-0.7,0.2-1.4,0.7-2.1,1
	c-1.3,1.6-2.6,3.2-4.5,2.2c-0.4-0.2-2-1.6-2.2-1.2c-0.4,0.5-0.9,0.9-1.5,1.2c-1.7,0.7-3.5,0.5-5.3,0.5c-0.1,0-0.2-0.1-0.3-0.2
	c-0.1-0.7-0.5-2.1-1.5-1.3l-0.6,0.6c-0.3,0.2-0.6,0.6-1,0.7c-1.2,0.5-4.8-0.1-5.3-1c-0.3-0.6-0.5-1.3-0.6-2
	c-0.3-1.7-0.1-3.6-0.2-5.4C3.6,85.4,3.3,81,2.9,76.6c-0.2-2.3-0.4-4.6-0.2-6.9c0.1-1.5,0.1-3.5,0.9-4.8c0.6-1.1,0.2-1.9-0.6-2.8
	c-0.2-0.2-0.3-0.7-0.3-0.9c-0.1-1.7,0.1-3.4,0.2-5.1c0.1-1.2,0.2-2.4,0.3-3.7c0-0.9-0.2-1.8-0.3-2.8c0-0.4-0.1-1,0.2-1.4
	c0.6-0.8,0.4-1.2,0.1-2.1c-0.6-1.8,0-3.9,0.1-5.7c0.1-2.1,0.2-4.3,0-6.4c-0.2-2.4-0.7-4.7-0.5-7.1c0.1-2.1,0.3-4.1,0.4-6.3
	C3.5,16.9,3.5,13,3.4,9.1c0,0.2,0,0.9,0,0.9c0,0-0.3-5,1.8-6.2c3.1-1.8,7-1.4,10.4-1.6c4.5-0.2,9,0.2,13.5,0.2
	c2.6,0,5.2-0.1,7.7-0.6c1.8-0.4,3.6-0.6,5.4-0.5c2.2,0.1,4.3,0.7,6.5,0.9c2.2,0.2,4.3,0.1,6.5-0.1c4.7-0.3,9.5-0.2,14.2,0l7.4,0.3
	c1.1,0,2.5,0.3,3.6,0l2.1-0.7c1.5-0.4,2.6,0,4.1,0.3c1.8,0.4,3.7,0.8,5.6,1.3c0.6-0.1,1.2-0.2,1.7,0.3c1,0.9,0,2.1,0.8,3.2
	c0.9,1.3,1.7,2.1,1.9,3.7c0.2,1.8,0.3,3.6-0.3,5.3c-0.4,1.1-0.9,2.4-0.4,3.6c0.3,0.7,0.8,1.5,1,2.3c0.4,1.7,0.4,3.4,0.3,5.1
	c-0.1,2-0.2,4-0.4,6c-0.1,1.2-0.6,2.5-0.7,3.8c0,1,0.3,1.9,0.5,2.9c0.6,3.3-2.2,5.3-2.7,8.3c-0.3,1.6,1.6,0.9,2.3,1.8
	c0.5,0.6,0.2,1.6,0.2,2.3c-0.2,1.7,0.3,3.5,0.2,5.2c-0.1,2.1-0.7,4-0.2,6.1c0.3,1.2,0.5,2.4,0.2,3.7c-0.3,1.2-1.7,4.3,0.2,4.9
	c0.1,0,0.1,0.1,0.1,0.2c0,0.5-0.1,0.9-0.3,1.5c-0.8,1.9,0.4,1.5,0.7,2.7c0.2,1.1-0.4,1.5-0.6,2.6c-0.3,1.7,0.6,3,0.6,4.7
	c0,1.5-0.9,2.4-0.6,3.8c0.1,0,0.2,0.1,0.2,0.2c0.1,0.8,0.2,1.6,0,2.4c-0.4,1.1-0.8,1.3,0.4,2C97.4,92.2,97.3,92.5,97.2,92.6
	L97.2,92.6z M76.4,40c-0.8-4.6-1.2-9.5-2.7-13.9c-0.6-1.9-1-3.9-3.2-4.2c-2.8-0.5-1.9,1.9-1.5,4.1c0.6,3.5,0.8,7,1.7,10.5
	c0.6,2.4,1.8,5.2-1.3,3.3C64,36.7,62.2,29.6,60,24.4c-1-2.3-3.7-8.1-5.6-9.5c-0.9-0.7-5.4-1.7-6.3-1.1C46.3,15.1,52,24,52.8,25.6
	c1.7,3.5,3.6,7.1,5.9,10.3c1.6,2.3,4.2,4.4,0.5,5.7c-3.7,1.4-5.5-0.6-8.1-2.6c-2-1.5-4.6-1.7-7.1-2c-6.9-0.9-13.6,0-19.2,4.6
	c-2.7,2.2-4.4,5.4-5.8,8.5c-0.4,0.8-2.7,7.8-2.4,7.9c-1.4-0.2-0.6-3.5-2.4-1.6c-1.6,1.7,0.4,6.6,1.2,8.3c1.6,3.8,3.3,7.6,4.6,11.5
	c1.3,4,1.5,3.9,5.2,4.2c4.6,0.4,9.2-1,13.7-1.6c0,0-8.1-5,7.9,0.5c3.5,1.2,7.3,0.9,11,1c2.7-0.6,2.7-5.2,4.1-7.3
	c0.5-0.8,3.1-4.8,3.9-5.2c1.1-0.4,2.8,0.7,3.9,0.9c6.7,1,8.7-4.4,7.7-9.8c-0.9-4.7-0.4-9.9,0.3-13.5C78.1,44.2,76.7,41.3,76.4,40z
	 M45.8,66.7l0-0.5C45.8,65.9,45.8,66.5,45.8,66.7z M46.8,65c0.1,1.3,0.2,2.6,0.2,3.8c0,0.7,0,1.3-0.1,2c0,0.3-0.1,0.5-0.1,0.7
	c-0.1,0.3-0.1,0.4-0.4,0.5c-0.8,0.3-1.9,0.5-2.7,0.3c-0.4-0.1-0.8-0.2-1.2-0.4c-0.2-0.1-0.4-0.3-0.5-0.5c-0.1-0.1-0.3-0.2-0.4-0.3
	c-0.1-0.2-0.2-0.6-0.3-0.8c-0.1-0.2-0.1-0.4-0.2-0.6c-0.1-0.5-0.3-1-0.4-1.5c-0.2-1-0.4-2.1-0.4-3.2c0-1.4,0-3.4,0.8-4.6
	c0.4-0.7,1.1-1,1.9-1.2c0.7-0.2,1.9-0.4,2.5,0.2c-0.1-0.1,0-0.6,0-0.7l0.1-1c0.1-1,0-2.1,0-3.1l-0.1-3.8c0-0.6,0-1.3-0.1-1.9
	c0-0.3,0-0.6,0-0.9c0-0.2-0.1-0.3,0-0.5c0.1-0.2,0.8-0.7,1.1-0.7c0.3,0,0.4,1,0.5,1.2c0.2,1.1,0.1,2.2,0,3.3
	c-0.2,2.4-0.4,4.8-0.3,7.2c0,0.4,0,0.9,0.1,1.4c0.1,0.6,0.1,1.2,0.1,1.7c0,0.6,0,1.1,0,1.7C46.7,63.8,46.7,64.4,46.8,65
	C46.8,64.8,46.8,64.8,46.8,65z M45.8,66.2c0-1.1,0-2.2,0-3.4c0-0.4-0.1-0.9-0.1-1.3v0c0-0.3-0.3-0.6-0.3-0.6
	c-0.1-0.1-0.2-0.1-0.3-0.1c-1.1-0.3-2.4-0.2-3,0.8c-0.4,0.7-0.4,1.5-0.4,2.3c0,0.9,0.1,1.8,0.2,2.7c0.3,2,1.2,5.1,3.9,4.6
	c0-1.5,0.1-3,0.1-4.4C45.8,66.9,45.8,66.9,45.8,66.2z M46.8,65C46.9,66.6,46.8,65.4,46.8,65z"/>
</svg>
