<?xml version="1.0" encoding="utf-8"?>
<!-- Generator: Adobe Illustrator 18.1.1, SVG Export Plug-In . SVG Version: 6.00 Build 0)  -->
<!DOCTYPE svg PUBLIC "-//W3C//DTD SVG 1.1//EN" "http://www.w3.org/Graphics/SVG/1.1/DTD/svg11.dtd">
<svg version="1.1" xmlns="http://www.w3.org/2000/svg" xmlns:xlink="http://www.w3.org/1999/xlink" x="0px" y="0px"
	 viewBox="0 0 100 100" enable-background="new 0 0 100 100" xml:space="preserve">
<g id="php" display="none">
	<g id="ellipse3860" display="inline">
		<path fill="#706CB1" d="M50,77.2c-27.6,0-50.1-12-50.1-26.7c0-14.7,22.5-26.7,50.1-26.7c27.6,0,50.1,12,50.1,26.7
			C100.1,65.2,77.6,77.2,50,77.2z M50,26.3c-26.2,0-47.6,10.8-47.6,24.2c0,13.3,21.3,24.2,47.6,24.2s47.6-10.8,47.6-24.2
			C97.6,37.2,76.2,26.3,50,26.3z"/>
	</g>
	<g display="inline">
		<path id="h" fill="#706CB1" d="M40.4,58.5l5.4-27.1h6.4l-1.3,7h6c5.4,0.3,7.4,3,6.7,6.4l-2.3,13.7h-6.7l2.3-12.4
			c0.3-1.7,0.3-2.7-2-2.7h-5l-3,15.1H40.4z"/>
		<path fill="#706CB1" d="M80.2,38.5H67.8l-5.4,27.1h6.4l1.3-7h6c5.7,0.3,12-4.3,12-12.4C88.2,41.5,85.5,38.8,80.2,38.5z M74.9,53.5
			h-4l1.7-10h4.3c2.3,0,4,1,4,3C80.5,52.2,77.9,53.2,74.9,53.5z"/>
		<path fill="#706CB1" d="M32.4,38.5H20l-5.4,27.1H21l1.3-7h6c5.7,0.3,12-4.3,12-12.4C40.4,41.5,37.8,38.8,32.4,38.5z M27.1,53.5h-4
			l1.7-10h4.3c2.3,0,4,1,4,3C32.8,52.2,30.1,53.2,27.1,53.5z"/>
	</g>
</g>
<g id="Sass" display="none">
	<path display="inline" fill="#CD6799" d="M86.2,55.6c-3.5,0-6.5,0.9-9.1,2.1c-0.9-1.9-1.9-3.5-2-4.7c-0.2-1.4-0.4-2.3-0.2-4
		c0.2-1.7,1.2-4.1,1.2-4.3c0-0.2-0.2-1-2.2-1.1c-2,0-3.8,0.4-4,0.9c-0.2,0.5-0.6,1.7-0.8,3c-0.4,1.8-4,8.4-6.1,11.8
		c-0.7-1.3-1.3-2.5-1.4-3.4c-0.2-1.4-0.4-2.3-0.2-4c0.2-1.7,1.2-4.1,1.2-4.3c0-0.2-0.2-1-2.2-1.1c-2,0-3.8,0.4-4,0.9
		c-0.2,0.5-0.4,1.8-0.8,3c-0.4,1.2-5.3,12.1-6.6,15c-0.7,1.4-1.2,2.6-1.6,3.4c0,0,0,0,0,0s0,0.1-0.1,0.1c-0.3,0.7-0.5,1-0.5,1
		s0,0,0,0c-0.3,0.5-0.6,1-0.7,1c-0.1,0-0.3-1.3,0-3.1c0.7-3.8,2.5-9.7,2.5-9.9c0-0.1,0.3-1.1-1.1-1.7c-1.4-0.5-1.9,0.3-2.1,0.4
		c-0.1,0-0.2,0.3-0.2,0.3s1.6-6.6-3-6.6c-2.9,0-6.9,3.2-8.9,6c-1.2,0.7-3.9,2.1-6.7,3.7c-1.1,0.6-2.2,1.2-3.2,1.8
		c-0.1-0.1-0.1-0.2-0.2-0.2c-5.6-6-16-10.2-15.5-18.3c0.2-2.9,1.2-10.6,19.9-20C42.7,15.9,55,18,57.1,22.6c3,6.7-6.6,19.1-22.5,20.9
		c-6.1,0.7-9.3-1.7-10.1-2.6c-0.8-0.9-1-1-1.3-0.8c-0.5,0.3-0.2,1.1,0,1.6c0.5,1.2,2.4,3.4,5.8,4.5c2.9,1,10.1,1.5,18.7-1.8
		c9.7-3.7,17.2-14.1,15-22.8c-2.3-8.8-16.9-11.7-30.8-6.8c-8.3,2.9-17.2,7.5-23.6,13.5c-7.6,7.1-8.9,13.4-8.4,16
		C1.7,53.5,14.4,59.5,19.5,64c-0.3,0.1-0.5,0.3-0.7,0.4c-2.6,1.3-12.3,6.3-14.7,11.7c-2.8,6.1,0.4,10.5,2.6,11
		c6.5,1.8,13.3-1.5,16.9-6.8c3.6-5.4,3.2-12.4,1.5-15.6c0,0,0-0.1-0.1-0.1c0.7-0.4,1.3-0.8,2-1.2c1.3-0.8,2.6-1.5,3.7-2.1
		C30.1,63,29.6,65,29.4,68c-0.3,3.5,1.1,7.9,3,9.7c0.8,0.8,1.8,0.8,2.4,0.8c2.2,0,3.1-1.8,4.2-3.9c1.3-2.6,2.5-5.6,2.5-5.6
		s-1.5,8.2,2.6,8.2c1.5,0,2.9-1.9,3.6-2.9c0,0,0,0,0,0s0-0.1,0.1-0.2c0.2-0.2,0.2-0.4,0.2-0.4s0,0,0,0c0.6-1,1.9-3.4,3.9-7.2
		c2.5-5,5-11.2,5-11.2s0.2,1.5,1,4c0.4,1.5,1.4,3.1,2.1,4.7c-0.6,0.8-1,1.3-1,1.3s0,0,0,0c-0.5,0.6-1,1.3-1.5,2
		c-2,2.4-4.4,5.1-4.7,5.9c-0.4,0.9-0.3,1.6,0.4,2.2c0.5,0.4,1.5,0.5,2.5,0.4c1.8-0.1,3.1-0.6,3.7-0.8c1-0.3,2.1-0.9,3.2-1.7
		c2-1.4,3.1-3.5,3-6.2c-0.1-1.5-0.5-3-1.2-4.4c0.2-0.3,0.4-0.5,0.5-0.8c3.1-4.5,5.5-9.5,5.5-9.5s0.2,1.5,1,4c0.4,1.3,1.1,2.7,1.8,4
		c-2.9,2.4-4.7,5.1-5.3,6.9c-1.2,3.3-0.3,4.8,1.5,5.2c0.8,0.2,1.9-0.2,2.7-0.5c1-0.3,2.2-0.9,3.4-1.7c2-1.4,3.9-3.5,3.7-6.2
		c-0.1-1.2-0.4-2.5-0.8-3.7c2.5-1,5.7-1.6,9.7-1.1c8.7,1,10.4,6.5,10.1,8.8c-0.3,2.3-2.2,3.5-2.8,3.9c-0.6,0.4-0.8,0.5-0.7,0.8
		c0.1,0.4,0.4,0.4,0.9,0.3c0.7-0.1,4.6-1.9,4.8-6.1C100.4,61.5,95.3,55.6,86.2,55.6z M18.9,78.3c-2.9,3.2-6.9,4.3-8.7,3.3
		c-1.9-1.1-1.1-5.7,2.4-9.1c2.2-2,5-3.9,6.8-5.1c0.4-0.3,1-0.6,1.8-1.1c0.1-0.1,0.2-0.1,0.2-0.1l0,0c0.1-0.1,0.3-0.2,0.4-0.3
		C23.2,70.8,21.9,75,18.9,78.3z M40,64c-1,2.5-3.1,8.7-4.4,8.4c-1.1-0.3-1.8-5.1-0.2-9.8c0.8-2.4,2.5-5.2,3.4-6.3
		c1.6-1.8,3.3-2.3,3.7-1.6C43.1,55.6,40.6,62.5,40,64z M57.4,72.3c-0.4,0.2-0.8,0.4-1,0.3c-0.1-0.1,0.2-0.4,0.2-0.4s2.2-2.3,3-3.4
		c0.5-0.6,1.1-1.4,1.7-2.2c0,0.1,0,0.2,0,0.2C61.3,69.6,58.6,71.5,57.4,72.3z M70.8,69.2c-0.3-0.2-0.3-1,0.8-3.2
		c0.4-0.9,1.3-2.4,3-3.8c0.2,0.6,0.3,1.2,0.3,1.7C74.8,67.4,72.3,68.7,70.8,69.2z"/>
</g>
<g id="Kirby" display="none">
	<path display="inline" fill="#EE2524" d="M50.4,0.5l-44,25v50l44,25l44-25v-50L50.4,0.5z M70,51.5l-12.4,6.7v0.9H70v9.6H30.7v-9.6
		h12.4v-0.9l-12.4-6.7V39.6l19.6,10.6L70,39.6V51.5z"/>
</g>
<g id="RSS" display="none">
	<path display="inline" fill="#F26722" d="M50.4,0C22.5,0,0,22.5,0,50.4s22.5,50.4,50.4,50.4s50.4-22.5,50.4-50.4S78.3,0,50.4,0
		L50.4,0z M33.3,76.7c-4.4,0-7.8-3.6-7.8-7.8c0-4.4,3.6-8,7.8-8c4.4,0,8,3.6,8,8C41.2,73.1,37.6,76.7,33.3,76.7L33.3,76.7z
		 M53.6,76.2c-0.1-7.4-3-14.3-8.3-19.6s-12.1-8.2-19.5-8.3V38.1c20.9,0.2,38,17.2,38.2,38.2H53.6z M73.9,76.2
		c-0.3-26.4-21.6-47.8-47.9-48V17.9C57.9,18,84,44.1,84.2,76.2H73.9z"/>
</g>
<g id="jQuery">
	<path fill="#0769AD" d="M23.2,17.6c-5.7,8.2-5,18.9-0.6,27.6c0.1,0.2,0.2,0.4,0.3,0.6c0.1,0.1,0.1,0.3,0.2,0.4
		c0,0.1,0.1,0.2,0.1,0.2c0.1,0.1,0.1,0.3,0.2,0.4c0.1,0.2,0.3,0.5,0.4,0.7c0.1,0.1,0.2,0.3,0.2,0.4c0.1,0.3,0.3,0.5,0.5,0.8
		c0.1,0.1,0.1,0.2,0.2,0.3c0.2,0.3,0.4,0.7,0.7,1c0,0,0,0,0,0c0,0.1,0.1,0.1,0.1,0.2c0.2,0.3,0.4,0.6,0.6,0.8
		c0.1,0.1,0.2,0.2,0.2,0.3c0.2,0.2,0.4,0.5,0.6,0.7c0.1,0.1,0.1,0.2,0.2,0.3c0.3,0.3,0.5,0.6,0.8,0.9c0,0,0,0,0,0c0,0,0,0,0,0
		c0.3,0.3,0.5,0.6,0.8,0.9c0.1,0.1,0.2,0.2,0.3,0.3c0.2,0.2,0.4,0.4,0.7,0.7c0.1,0.1,0.2,0.2,0.3,0.3c0.3,0.3,0.6,0.6,0.9,0.8
		c0,0,0,0,0,0c0.1,0,0.1,0.1,0.2,0.1c0.3,0.2,0.6,0.5,0.8,0.7c0.1,0.1,0.2,0.2,0.3,0.3c0.2,0.2,0.5,0.4,0.7,0.5
		c0.1,0.1,0.2,0.2,0.4,0.3c0.3,0.2,0.5,0.4,0.8,0.6c0.1,0.1,0.2,0.1,0.3,0.2c0,0,0.1,0,0.1,0.1c0.3,0.2,0.5,0.3,0.8,0.5
		c0.1,0.1,0.2,0.1,0.3,0.2c0.4,0.3,0.8,0.5,1.2,0.7c0.1,0.1,0.2,0.1,0.3,0.2c0.3,0.2,0.6,0.3,0.9,0.5c0.2,0.1,0.3,0.2,0.5,0.3
		c0.2,0.1,0.4,0.2,0.6,0.3c0.1,0,0.1,0,0.1,0.1c0.1,0,0.2,0.1,0.3,0.1c0.3,0.2,0.7,0.3,1,0.5c0.1,0,0.1,0.1,0.2,0.1
		c0.4,0.2,0.8,0.3,1.2,0.5c0.1,0,0.2,0.1,0.3,0.1c0.4,0.1,0.7,0.3,1.1,0.4c0,0,0.1,0,0.1,0c0.4,0.1,0.8,0.3,1.2,0.4
		c0.1,0,0.2,0.1,0.3,0.1c0.4,0.1,0.8,0.3,1.3,0.4c27.6,5,35.6-16.6,35.6-16.6c-6.7,8.8-18.7,11.1-30,8.5c-0.4-0.1-0.8-0.2-1.3-0.4
		c-0.1,0-0.2-0.1-0.3-0.1c-0.4-0.1-0.8-0.3-1.2-0.4c-0.1,0-0.1,0-0.2-0.1c-0.4-0.1-0.7-0.3-1.1-0.4c-0.1,0-0.2-0.1-0.3-0.1
		c-0.4-0.2-0.8-0.3-1.2-0.5c-0.1,0-0.2-0.1-0.2-0.1c-0.3-0.2-0.6-0.3-1-0.5c-0.1,0-0.2-0.1-0.3-0.1c-0.3-0.1-0.5-0.3-0.8-0.4
		c-0.2-0.1-0.3-0.2-0.5-0.3c-0.3-0.2-0.6-0.3-0.9-0.5c-0.1-0.1-0.2-0.1-0.3-0.2c-0.4-0.2-0.8-0.5-1.2-0.7c-0.1-0.1-0.2-0.1-0.3-0.2
		c-0.3-0.2-0.6-0.4-0.8-0.6c-0.1-0.1-0.2-0.1-0.3-0.2c-0.3-0.2-0.5-0.4-0.8-0.6c-0.1-0.1-0.2-0.2-0.4-0.3c-0.2-0.2-0.5-0.4-0.7-0.6
		c-0.1-0.1-0.2-0.2-0.3-0.3c-0.3-0.2-0.6-0.5-0.9-0.8c0,0-0.1-0.1-0.1-0.1c-0.3-0.3-0.6-0.6-0.9-0.9c-0.1-0.1-0.2-0.2-0.3-0.3
		c-0.2-0.2-0.4-0.4-0.7-0.7c-0.1-0.1-0.2-0.2-0.3-0.3c-0.3-0.3-0.6-0.6-0.8-0.9c0,0,0,0,0,0c-0.3-0.3-0.6-0.6-0.8-1
		c-0.1-0.1-0.1-0.2-0.2-0.3c-0.2-0.2-0.4-0.5-0.6-0.7c-0.1-0.1-0.1-0.2-0.2-0.3c-0.2-0.3-0.5-0.6-0.7-0.9
		c-6.3-8.6-8.6-20.4-3.5-30.1"/>
	<path fill="#0769AD" d="M41,10.7c-4.1,5.9-3.9,13.9-0.7,20.2c0.5,1.1,1.1,2.1,1.8,3c0.6,0.9,1.3,1.9,2.1,2.7c0.3,0.3,0.6,0.6,0.9,1
		c0.1,0.1,0.2,0.2,0.2,0.2c0.3,0.3,0.6,0.6,0.9,0.9c0,0,0,0,0,0c0,0,0,0,0,0c0.4,0.3,0.7,0.6,1.1,0.9c0.1,0.1,0.2,0.1,0.3,0.2
		c0.4,0.3,0.8,0.6,1.1,0.8c0,0,0,0,0,0c0.2,0.1,0.3,0.2,0.5,0.4c0.1,0.1,0.2,0.1,0.2,0.2c0.3,0.2,0.6,0.4,0.9,0.5c0,0,0.1,0,0.1,0.1
		c0.2,0.1,0.5,0.3,0.8,0.4c0.1,0.1,0.2,0.1,0.3,0.1c0.2,0.1,0.4,0.2,0.5,0.3c0,0,0.1,0,0.1,0c0.4,0.2,0.7,0.3,1.1,0.5
		c0.1,0,0.2,0.1,0.2,0.1c0.3,0.1,0.6,0.3,0.9,0.4c0.1,0,0.3,0.1,0.4,0.1c0.3,0.1,0.6,0.2,0.8,0.3c0.1,0,0.3,0.1,0.4,0.1
		c0.4,0.1,0.8,0.3,1.2,0.3c21.3,3.5,26.2-12.9,26.2-12.9c-4.4,6.4-13,9.4-22.2,7.1c-0.4-0.1-0.8-0.2-1.2-0.4c-0.1,0-0.2-0.1-0.4-0.1
		c-0.3-0.1-0.6-0.2-0.8-0.3c-0.1,0-0.3-0.1-0.4-0.1c-0.3-0.1-0.6-0.2-0.9-0.4c-0.1,0-0.2-0.1-0.2-0.1c-0.4-0.2-0.8-0.3-1.1-0.5
		c-0.2-0.1-0.4-0.2-0.6-0.3c-0.1-0.1-0.2-0.1-0.3-0.2c-0.2-0.1-0.5-0.3-0.7-0.4c-0.1,0-0.1-0.1-0.2-0.1c-0.3-0.2-0.6-0.3-0.9-0.5
		c-0.1-0.1-0.2-0.1-0.3-0.2c-0.2-0.1-0.4-0.2-0.6-0.4c-0.4-0.3-0.8-0.6-1.1-0.8c-0.1-0.1-0.2-0.1-0.3-0.2c-4-3.2-7.2-7.5-8.7-12.4
		c-1.6-5.1-1.2-10.8,1.5-15.4"/>
	<path fill="#0769AD" d="M55.9,5.5c-2.4,3.6-2.7,8-1,12c1.8,4.2,5.4,7.5,9.7,9.1c0.2,0.1,0.3,0.1,0.5,0.2c0.1,0,0.2,0,0.2,0.1
		c0.2,0.1,0.5,0.2,0.8,0.2c11.8,2.3,15-6,15.8-7.3c-2.8,4-7.5,5-13.3,3.6c-0.5-0.1-0.9-0.3-1.4-0.4c-0.6-0.2-1.1-0.4-1.7-0.7
		c-1-0.5-2-1.1-2.9-1.8c-5.2-3.9-8.4-11.4-5-17.5"/>
	<path fill="#D3E6F1" d="M85.7,74.6l0.2,0.7c0,0.2-0.1,0.4-0.3,0.4"/>
	<path fill="#D3E6F1" d="M72.5,73.4c0,0.2-0.1,0.4-0.1,0.6l-1.5,6.8l1.5-7.2L72.5,73.4z"/>
	<polygon fill="#D3E6F1" points="29,78 28.2,80.8 29,78 	"/>
	<path fill="#D3E6F1" d="M85.9,75.3l-0.4-1.8c-0.3-1.3-1.3-1.9-3.4-1.9h-8.8c-0.2,0-0.4,0.1-0.4,0.3l-3.4,15.9c0,0.2-0.1,0.3,0,0.4
		c0,0.1,0.4,0.1,0.6,0.1h3.1c0.2,0,0.6,0,0.7,0c0.1,0,0.2-0.3,0.2-0.6l1.1-5.6l1.3-6.2c0-0.2,0.2-0.4,0.4-0.4l8.8,0
		C85.8,75.7,85.9,75.5,85.9,75.3"/>
	<path fill="#D3E6F1" d="M98.3,68.9c-0.2,0-3.9,0-3.9,0c-0.2,0-0.5,0.2-0.6,0.4l-6.8,10c-0.1,0.2-0.2,0.2-0.3,0l-0.5-2.2
		c0-0.2-0.2-0.4-0.5-0.4h-4.4c-0.2,0-0.3,0.2-0.3,0.4l2,6.9c0.1,0.2,0.1,0.5,0,0.7l-0.9,3.5c0,0.2,0.1,0.3,0.3,0.3h4.3
		c0.2,0,0.4-0.1,0.5-0.3l0.9-3.5c0.1-0.2,0.2-0.5,0.3-0.6l11.1-14.7c0.1-0.2,0.1-0.4-0.1-0.4L98.3,68.9z"/>
	<path fill="#D3E6F1" d="M52.7,71.7h-4c-0.2,0-0.4,0.1-0.4,0.3L47,78.1l-1.3,5.9c0,0.2-0.2,0.2-0.4,0.2h-2.6c-2.6,0-2.3-1.6-1.7-4.1
		c0,0,1.6-8.1,1.6-8.1c0-0.2-0.1-0.3-0.3-0.3h-3.8c-0.2,0-0.4,0.1-0.4,0.3L36.6,80c-0.8,4.4-0.8,8.2,4.3,8.3c0.1,0,8,0,8,0
		c0.2,0,0.4-0.1,0.4-0.3L51,80l1.7-8.1C52.7,71.9,52.8,71.7,52.7,71.7z"/>
	<path fill="#D3E6F1" d="M13.4,71.7H9.1c-0.2,0-0.4,0-0.5,0.2l-0.8,3.3c0,0.2,0.1,0.4,0.3,0.4h4.1c0.2,0,0.4-0.2,0.5-0.4l0.7-3.3
		C13.5,71.9,13.5,71.7,13.4,71.7z"/>
	<path fill="#D3E6F1" d="M7.9,76.7c-0.2,0-0.4,0.2-0.5,0.4l-0.6,2.5l-1.3,5.8c0,0-0.7,3.1-0.7,3.3c0,0-0.6,2.2-1.9,2.1
		c-0.6,0-1.4-0.2-1.4-0.2h0c-0.4-0.1-0.4,0.3-0.5,0.5l-0.8,3.6c0,0.2,0.1,0.4,0.3,0.4c0,0,1.8,0.3,3.1,0.3h0.2c3.2,0,4.9-1.9,5.9-7
		l1.3-5.9l1.2-5.5c0-0.2-0.1-0.4-0.3-0.4"/>
	<path fill="#D3E6F1" d="M62.7,71.6c-7.1,0-8.8,4.4-9.8,8.8c-0.9,4.5-0.9,8,6.5,8h0.3c2.9,0,6.5,0,6.5,0c0.2,0,0.4-0.2,0.4-0.4
		l0.7-2.8c0-0.2-0.1-0.3-0.3-0.3h-6.6c-2.4,0-3.3-0.7-3.2-2.4c0-0.2,0.2-0.7,0.4-0.7h10.2c0.4,0,0.5-0.3,0.5-0.3
		C69.4,76.9,69.5,71.6,62.7,71.6 M64.6,78.6c0,0.2-0.7,0.2-0.7,0.2l-5.6,0c-0.2,0-0.2-0.3-0.3-0.5c0,0,0-0.2,0-0.3
		c0.4-1.5,1.7-2.3,3.7-2.3c2.3,0,2.8,1.1,2.8,2.4"/>
	<path fill="#D3E6F1" d="M31.9,83.8c0,0,2-4.8,2.4-7.7c0.6-3.8-1.3-9.2-8.5-9.2c-7.2,0-10.3,5.2-11.5,10.8
		c-1.2,5.7,0.4,10.6,7.5,10.6l10.9,0c0.2,0,0.4-0.2,0.5-0.4l0.9-3.5c0.1-0.2-0.1-0.4-0.3-0.4l-0.9,0l-0.9,0
		C32,84.1,31.9,84,31.9,83.8C31.9,83.8,31.9,83.8,31.9,83.8 M28.2,80.8l-0.8,2.8c-0.1,0.2-0.3,0.3-0.5,0.3h-4.2
		c-3.2,0-4-2.5-3.2-6.2c0.8-3.8,2.3-6.1,5.5-6.4c4.3-0.3,5.2,2.7,4.2,6.2L28.2,80.8z"/>
</g>
</svg>
