<?xml version="1.0" encoding="utf-8"?>
<!-- Generator: Adobe Illustrator 18.1.1, SVG Export Plug-In . SVG Version: 6.00 Build 0)  -->
<!DOCTYPE svg PUBLIC "-//W3C//DTD SVG 1.1//EN" "http://www.w3.org/Graphics/SVG/1.1/DTD/svg11.dtd">
<svg version="1.1" id="jQuery_Dark" xmlns="http://www.w3.org/2000/svg" xmlns:xlink="http://www.w3.org/1999/xlink" x="0px"
	 y="0px" viewBox="0 0 100 100" enable-background="new 0 0 100 100" xml:space="preserve">
<path fill="#0769AD" d="M23.2,17.6c-5.7,8.2-5,18.9-0.6,27.6c0.1,0.2,0.2,0.4,0.3,0.6c0.1,0.1,0.1,0.3,0.2,0.4
	c0,0.1,0.1,0.2,0.1,0.2c0.1,0.1,0.1,0.3,0.2,0.4c0.1,0.2,0.3,0.5,0.4,0.7c0.1,0.1,0.2,0.3,0.2,0.4c0.1,0.3,0.3,0.5,0.5,0.8
	c0.1,0.1,0.1,0.2,0.2,0.3c0.2,0.3,0.4,0.7,0.7,1c0,0,0,0,0,0c0,0.1,0.1,0.1,0.1,0.2c0.2,0.3,0.4,0.6,0.6,0.8
	c0.1,0.1,0.2,0.2,0.2,0.3c0.2,0.2,0.4,0.5,0.6,0.7c0.1,0.1,0.1,0.2,0.2,0.3c0.3,0.3,0.5,0.6,0.8,0.9c0,0,0,0,0,0c0,0,0,0,0,0
	c0.3,0.3,0.5,0.6,0.8,0.9c0.1,0.1,0.2,0.2,0.3,0.3c0.2,0.2,0.4,0.4,0.7,0.7c0.1,0.1,0.2,0.2,0.3,0.3c0.3,0.3,0.6,0.6,0.9,0.8
	c0,0,0,0,0,0c0.1,0,0.1,0.1,0.2,0.1c0.3,0.2,0.6,0.5,0.8,0.7c0.1,0.1,0.2,0.2,0.3,0.3c0.2,0.2,0.5,0.4,0.7,0.5
	c0.1,0.1,0.2,0.2,0.4,0.3c0.3,0.2,0.5,0.4,0.8,0.6c0.1,0.1,0.2,0.1,0.3,0.2c0,0,0.1,0,0.1,0.1c0.3,0.2,0.5,0.3,0.8,0.5
	c0.1,0.1,0.2,0.1,0.3,0.2c0.4,0.3,0.8,0.5,1.2,0.7c0.1,0.1,0.2,0.1,0.3,0.2c0.3,0.2,0.6,0.3,0.9,0.5c0.2,0.1,0.3,0.2,0.5,0.3
	c0.2,0.1,0.4,0.2,0.6,0.3c0.1,0,0.1,0,0.1,0.1c0.1,0,0.2,0.1,0.3,0.1c0.3,0.2,0.7,0.3,1,0.5c0.1,0,0.1,0.1,0.2,0.1
	c0.4,0.2,0.8,0.3,1.2,0.5c0.1,0,0.2,0.1,0.3,0.1c0.4,0.1,0.7,0.3,1.1,0.4c0,0,0.1,0,0.1,0c0.4,0.1,0.8,0.3,1.2,0.4
	c0.1,0,0.2,0.1,0.3,0.1c0.4,0.1,0.8,0.3,1.3,0.4c27.6,5,35.6-16.6,35.6-16.6c-6.7,8.8-18.7,11.1-30,8.5c-0.4-0.1-0.8-0.2-1.3-0.4
	c-0.1,0-0.2-0.1-0.3-0.1c-0.4-0.1-0.8-0.3-1.2-0.4c-0.1,0-0.1,0-0.2-0.1c-0.4-0.1-0.7-0.3-1.1-0.4c-0.1,0-0.2-0.1-0.3-0.1
	c-0.4-0.2-0.8-0.3-1.2-0.5c-0.1,0-0.2-0.1-0.2-0.1c-0.3-0.2-0.6-0.3-1-0.5c-0.1,0-0.2-0.1-0.3-0.1c-0.3-0.1-0.5-0.3-0.8-0.4
	c-0.2-0.1-0.3-0.2-0.5-0.3c-0.3-0.2-0.6-0.3-0.9-0.5c-0.1-0.1-0.2-0.1-0.3-0.2c-0.4-0.2-0.8-0.5-1.2-0.7c-0.1-0.1-0.2-0.1-0.3-0.2
	c-0.3-0.2-0.6-0.4-0.8-0.6c-0.1-0.1-0.2-0.1-0.3-0.2c-0.3-0.2-0.5-0.4-0.8-0.6c-0.1-0.1-0.2-0.2-0.4-0.3c-0.2-0.2-0.5-0.4-0.7-0.6
	c-0.1-0.1-0.2-0.2-0.3-0.3c-0.3-0.2-0.6-0.5-0.9-0.8c0,0-0.1-0.1-0.1-0.1c-0.3-0.3-0.6-0.6-0.9-0.9c-0.1-0.1-0.2-0.2-0.3-0.3
	c-0.2-0.2-0.4-0.4-0.7-0.7c-0.1-0.1-0.2-0.2-0.3-0.3c-0.3-0.3-0.6-0.6-0.8-0.9c0,0,0,0,0,0c-0.3-0.3-0.6-0.6-0.8-1
	c-0.1-0.1-0.1-0.2-0.2-0.3c-0.2-0.2-0.4-0.5-0.6-0.7c-0.1-0.1-0.1-0.2-0.2-0.3c-0.2-0.3-0.5-0.6-0.7-0.9c-6.3-8.6-8.6-20.4-3.5-30.1
	"/>
<path fill="#0769AD" d="M41,10.7c-4.1,5.9-3.9,13.9-0.7,20.2c0.5,1.1,1.1,2.1,1.8,3c0.6,0.9,1.3,1.9,2.1,2.7c0.3,0.3,0.6,0.6,0.9,1
	c0.1,0.1,0.2,0.2,0.2,0.2c0.3,0.3,0.6,0.6,0.9,0.9c0,0,0,0,0,0c0,0,0,0,0,0c0.4,0.3,0.7,0.6,1.1,0.9c0.1,0.1,0.2,0.1,0.3,0.2
	c0.4,0.3,0.8,0.6,1.1,0.8c0,0,0,0,0,0c0.2,0.1,0.3,0.2,0.5,0.4c0.1,0.1,0.2,0.1,0.2,0.2c0.3,0.2,0.6,0.4,0.9,0.5c0,0,0.1,0,0.1,0.1
	c0.2,0.1,0.5,0.3,0.8,0.4c0.1,0.1,0.2,0.1,0.3,0.1c0.2,0.1,0.4,0.2,0.5,0.3c0,0,0.1,0,0.1,0c0.4,0.2,0.7,0.3,1.1,0.5
	c0.1,0,0.2,0.1,0.2,0.1c0.3,0.1,0.6,0.3,0.9,0.4c0.1,0,0.3,0.1,0.4,0.1c0.3,0.1,0.6,0.2,0.8,0.3c0.1,0,0.3,0.1,0.4,0.1
	c0.4,0.1,0.8,0.3,1.2,0.3c21.3,3.5,26.2-12.9,26.2-12.9c-4.4,6.4-13,9.4-22.2,7.1c-0.4-0.1-0.8-0.2-1.2-0.4c-0.1,0-0.2-0.1-0.4-0.1
	c-0.3-0.1-0.6-0.2-0.8-0.3c-0.1,0-0.3-0.1-0.4-0.1c-0.3-0.1-0.6-0.2-0.9-0.4c-0.1,0-0.2-0.1-0.2-0.1c-0.4-0.2-0.8-0.3-1.1-0.5
	c-0.2-0.1-0.4-0.2-0.6-0.3c-0.1-0.1-0.2-0.1-0.3-0.2c-0.2-0.1-0.5-0.3-0.7-0.4c-0.1,0-0.1-0.1-0.2-0.1c-0.3-0.2-0.6-0.3-0.9-0.5
	c-0.1-0.1-0.2-0.1-0.3-0.2c-0.2-0.1-0.4-0.2-0.6-0.4c-0.4-0.3-0.8-0.6-1.1-0.8c-0.1-0.1-0.2-0.1-0.3-0.2c-4-3.2-7.2-7.5-8.7-12.4
	c-1.6-5.1-1.2-10.8,1.5-15.4"/>
<path fill="#0769AD" d="M55.9,5.5c-2.4,3.6-2.7,8-1,12c1.8,4.2,5.4,7.5,9.7,9.1c0.2,0.1,0.3,0.1,0.5,0.2c0.1,0,0.2,0,0.2,0.1
	c0.2,0.1,0.5,0.2,0.8,0.2c11.8,2.3,15-6,15.8-7.3c-2.8,4-7.5,5-13.3,3.6c-0.5-0.1-0.9-0.3-1.4-0.4c-0.6-0.2-1.1-0.4-1.7-0.7
	c-1-0.5-2-1.1-2.9-1.8c-5.2-3.9-8.4-11.4-5-17.5"/>
<path fill="#333333" d="M85.7,74.6l0.2,0.7c0,0.2-0.1,0.4-0.3,0.4"/>
<path fill="#333333" d="M72.5,73.4c0,0.2-0.1,0.4-0.1,0.6l-1.5,6.8l1.5-7.2L72.5,73.4z"/>
<polygon fill="#333333" points="29,78 28.2,80.8 29,78 "/>
<path fill="#333333" d="M85.9,75.3l-0.4-1.8c-0.3-1.3-1.3-1.9-3.4-1.9h-8.8c-0.2,0-0.4,0.1-0.4,0.3l-3.4,15.9c0,0.2-0.1,0.3,0,0.4
	c0,0.1,0.4,0.1,0.6,0.1h3.1c0.2,0,0.6,0,0.7,0c0.1,0,0.2-0.3,0.2-0.6l1.1-5.6l1.3-6.2c0-0.2,0.2-0.4,0.4-0.4l8.8,0
	C85.8,75.7,85.9,75.5,85.9,75.3"/>
<path fill="#333333" d="M98.3,68.9c-0.2,0-3.9,0-3.9,0c-0.2,0-0.5,0.2-0.6,0.4l-6.8,10c-0.1,0.2-0.2,0.2-0.3,0l-0.5-2.2
	c0-0.2-0.2-0.4-0.5-0.4h-4.4c-0.2,0-0.3,0.2-0.3,0.4l2,6.9c0.1,0.2,0.1,0.5,0,0.7l-0.9,3.5c0,0.2,0.1,0.3,0.3,0.3h4.3
	c0.2,0,0.4-0.1,0.5-0.3l0.9-3.5c0.1-0.2,0.2-0.5,0.3-0.6l11.1-14.7c0.1-0.2,0.1-0.4-0.1-0.4L98.3,68.9z"/>
<path fill="#333333" d="M52.7,71.7h-4c-0.2,0-0.4,0.1-0.4,0.3L47,78.1l-1.3,5.9c0,0.2-0.2,0.2-0.4,0.2h-2.6c-2.6,0-2.3-1.6-1.7-4.1
	c0,0,1.6-8.1,1.6-8.1c0-0.2-0.1-0.3-0.3-0.3h-3.8c-0.2,0-0.4,0.1-0.4,0.3L36.6,80c-0.8,4.4-0.8,8.2,4.3,8.3c0.1,0,8,0,8,0
	c0.2,0,0.4-0.1,0.4-0.3L51,80l1.7-8.1C52.7,71.9,52.8,71.7,52.7,71.7z"/>
<path fill="#333333" d="M13.4,71.7H9.1c-0.2,0-0.4,0-0.5,0.2l-0.8,3.3c0,0.2,0.1,0.4,0.3,0.4h4.1c0.2,0,0.4-0.2,0.5-0.4l0.7-3.3
	C13.5,71.9,13.5,71.7,13.4,71.7z"/>
<path fill="#333333" d="M7.9,76.7c-0.2,0-0.4,0.2-0.5,0.4l-0.6,2.5l-1.3,5.8c0,0-0.7,3.1-0.7,3.3c0,0-0.6,2.2-1.9,2.1
	c-0.6,0-1.4-0.2-1.4-0.2h0c-0.4-0.1-0.4,0.3-0.5,0.5l-0.8,3.6c0,0.2,0.1,0.4,0.3,0.4c0,0,1.8,0.3,3.1,0.3h0.2c3.2,0,4.9-1.9,5.9-7
	l1.3-5.9l1.2-5.5c0-0.2-0.1-0.4-0.3-0.4"/>
<path fill="#333333" d="M62.7,71.6c-7.1,0-8.8,4.4-9.8,8.8c-0.9,4.5-0.9,8,6.5,8h0.3c2.9,0,6.5,0,6.5,0c0.2,0,0.4-0.2,0.4-0.4
	l0.7-2.8c0-0.2-0.1-0.3-0.3-0.3h-6.6c-2.4,0-3.3-0.7-3.2-2.4c0-0.2,0.2-0.7,0.4-0.7h10.2c0.4,0,0.5-0.3,0.5-0.3
	C69.4,76.9,69.5,71.6,62.7,71.6 M64.6,78.6c0,0.2-0.7,0.2-0.7,0.2l-5.6,0c-0.2,0-0.2-0.3-0.3-0.5c0,0,0-0.2,0-0.3
	c0.4-1.5,1.7-2.3,3.7-2.3c2.3,0,2.8,1.1,2.8,2.4"/>
<path fill="#333333" d="M31.9,83.8c0,0,2-4.8,2.4-7.7c0.6-3.8-1.3-9.2-8.5-9.2c-7.2,0-10.3,5.2-11.5,10.8
	c-1.2,5.7,0.4,10.6,7.5,10.6l10.9,0c0.2,0,0.4-0.2,0.5-0.4l0.9-3.5c0.1-0.2-0.1-0.4-0.3-0.4l-0.9,0l-0.9,0
	C32,84.1,31.9,84,31.9,83.8C31.9,83.8,31.9,83.8,31.9,83.8 M28.2,80.8l-0.8,2.8c-0.1,0.2-0.3,0.3-0.5,0.3h-4.2c-3.2,0-4-2.5-3.2-6.2
	c0.8-3.8,2.3-6.1,5.5-6.4c4.3-0.3,5.2,2.7,4.2,6.2L28.2,80.8z"/>
</svg>
