<?xml version="1.0" encoding="utf-8"?>
<!-- Generator: Adobe Illustrator 19.1.0, SVG Export Plug-In . SVG Version: 6.00 Build 0)  -->
<!DOCTYPE svg PUBLIC "-//W3C//DTD SVG 1.1//EN" "http://www.w3.org/Graphics/SVG/1.1/DTD/svg11.dtd">
<svg version="1.1" id="Layer_1" xmlns="http://www.w3.org/2000/svg" xmlns:xlink="http://www.w3.org/1999/xlink" x="0px" y="0px"
	 viewBox="0 0 100 100" enable-background="new 0 0 100 100" xml:space="preserve">
<g>
	<g>
		<path fill="#DB5126" d="M66.6,35.4c0.9-0.2,1.4,0.1,1.8,0.9c1,2.2,2,4.3,3,6.5c0.2,0.3,0.4,0.6,0.6,0.9c0.1,0,0.2,0,0.3,0
			c0.1-1,0.3-2,0.3-3c0.1-0.9,0.6-1.7,1.3-1.7c0.7,0,1.3,0.8,1.2,1.7c0,0.7-0.1,1.4-0.2,2.1c-0.1,0.5,0.1,0.8,0.7,0.9
			c0.9,0.1,1.9,0.4,2.8,0.6c0.9,0.2,1.4,0.9,1.3,1.7c-0.2,0.8-0.7,1.1-1.7,0.9c-1.6-0.3-3.1-0.6-5-0.9c0.5,1,0.9,1.8,1.2,2.7
			c0.3,0.6,0.5,1.2,0.7,1.8c0.2,0.8-0.2,1.5-1,1.8c-0.7,0.3-1.1-0.3-1.4-0.9c-1.2-2.4-2.4-4.8-3.5-7.3c-0.9-1.9-1.8-3.7-2.6-5.6
			c-0.3-0.7-0.4-1.5-0.5-2.3C66.1,35.9,66.4,35.6,66.6,35.4z"/>
		<path fill="#DB5126" d="M48.9,65.9c0.6-1,1-1.8,1.6-2.5c1-1.1,2.4-1.1,3.4,0.1c0.6,0.8,1,1.8,1.5,2.8c0.2,0.4,0.4,0.7,0.6,1.1
			c0.5-0.5,0.8-0.9,1.3-1.2c0.4-0.4,0.9-0.6,1.5-0.2c0.5,0.4,0.9,1.1,0.4,1.6c-0.8,1.1-1.7,2.2-2.8,3.1c-0.8,0.7-1.6,0.4-2.1-0.5
			c-0.6-1.1-1.1-2.2-1.7-3.2c-0.2-0.3-0.8-0.8-1-0.7c-0.4,0.2-0.8,0.7-0.9,1.1c-0.1,0.5,0,1.1,0.2,1.6c0.5,1.3,1.2,2.6,1.8,3.8
			c0.2,0.4,0.3,0.8,0.4,1.2c0.1,0.8-0.3,1.4-1,1.7c-0.8,0.3-1.2-0.3-1.5-0.9c-0.5-1-1-2-1.5-3c-0.5-1-0.9-2-1.4-2.9
			C46.8,67.1,47.3,66.2,48.9,65.9z"/>
		<path fill="#DB5126" d="M91.9,29.1c0.4-0.4,0.7-0.9,1.2-1.2c0.4-0.2,1.1-0.4,1.4-0.2c0.3,0.2,0.6,1,0.5,1.4
			c-0.5,1.5-1.5,2.5-2.9,3.2c-0.3,0.2-0.7,0.5-0.8,0.9c-0.4,1.2-1.2,2-2.2,2.6c-1.5,0.8-2.7,0.3-3.7-1.6c-0.8-1.5-1.4-3.1-2.1-4.7
			c-0.4-0.9,0-1.8,0.8-2.1c0.6-0.3,1.3,0.2,1.7,1.1c0.6,1.3,1.2,2.5,1.8,3.8c0.3,0.7,0.7,0.7,1.2,0.2c0.7-0.7,0.8-1.5,0.4-2.4
			c-0.6-1.3-1.2-2.6-1.8-3.9c-0.2-0.3-0.3-0.7-0.3-1.1c-0.1-0.8,0.2-1.4,1.1-1.6c0.8-0.2,1.2,0.4,1.5,1.1c0.6,1.4,1.3,2.8,1.9,4.1
			C91.6,28.9,91.7,28.9,91.9,29.1z"/>
		<path fill="#DB5126" d="M93.3,17.5c0.3-0.1,0.5-0.2,0.6-0.3c0.5-0.5,1-0.6,1.5-0.1c0.5,0.5,0.6,1.2,0.3,1.8
			c-0.1,0.2-0.3,0.4-0.5,0.6c-0.6,0.5-0.6,1-0.2,1.7c0.5,0.9,1,1.9,1.5,3c0.5-0.5,0.9-0.8,1.3-1.2c0.4-0.4,1-0.6,1.4-0.1
			c0.3,0.4,0.7,1.3,0.5,1.6c-0.8,1.1-1.7,2.2-2.7,3c-0.9,0.7-1.8,0.3-2.3-0.8c-0.6-1.4-1.4-2.8-2-4.1c-1.4,0.6-2.1,0.5-2.3-0.5
			c-0.1-0.5,0.1-1.2,0.4-1.6c0.4-0.6,0.5-1,0.1-1.6c-0.3-0.5-0.5-1-0.7-1.6c-0.2-0.8,0.2-1.7,0.8-1.9c0.9-0.3,1.4,0.2,1.7,0.9
			C92.9,16.6,93.1,17,93.3,17.5z"/>
		<path fill="#DB5126" d="M70.9,55.6c-0.6,0.5-1.2,1-1.8,1.6c-1.1,1-2.4,0.9-3.5,0.3c-3.5-2-3.9-6.4-1.5-8.7
			c1.4-1.4,3.6-1.2,4.6,0.5c0.4,0.7,0.3,1.3-0.3,1.9c-0.5,0.5-0.9,0.3-1.4,0c-0.4-0.3-0.7-0.9-1.4-0.5c-0.7,0.5-0.9,1.3-0.6,1.9
			c0.3,0.7,0.8,1.5,1.3,2c0.7,0.6,1.4,0.2,2-0.4c0.7-0.7,1.4-1.4,2-2.2c0.5-0.5,1.1-0.9,1.8-0.3c0.6,0.5,0.7,1.2,0.2,1.9
			C71.9,54.3,71.4,55,70.9,55.6z"/>
		<path fill="#DB5126" d="M57.1,56.3c-1.9,1.7-1.8,4.8-0.6,6.6c0.6,0.8,1.4,1.6,2.2,2.1c1.5,0.9,2.8,0.4,4-0.8
			c1.5-1.5,2.5-2.8,1.9-4.9c-0.3-0.8-0.6-1.7-1.1-2.4C61.7,54.3,58.5,54.2,57.1,56.3z M61,58.2c0.8,0.9,1.5,2.7,0.4,3.5
			c-0.7,0.8-1.5,0.8-2.2,0.3c-1-0.9-1.3-3-0.6-3.8C59.3,57.5,60.4,57.5,61,58.2z"/>
		<path fill="#DB5126" d="M77.7,34.2c-1.3,1.1-1.3,2.7-1.2,4.3c0.1,1.9,1.6,4,3.4,4.5c0.7,0.2,1.5,0.2,2.1-0.1
			c1.4-0.7,2.5-1.8,3-3.3c0.7-1.8,0-3.4-0.9-4.9C83,32.7,79.5,31.9,77.7,34.2z M82.1,39.6c-0.7,0.7-1.5,0.8-2.2,0.2
			c-1-0.9-1.3-3-0.5-3.8c0.6-0.6,1.5-0.6,2.3,0.2C82.9,37.3,83,38.7,82.1,39.6z"/>
	</g>
</g>
<path fill="#DB5126" d="M97.8,83.5c-0.3,0-0.5,0-0.8,0c-13.6,0.8-27.5,0.1-41.3,0.1c-2.8,0-5-0.9-6-3.6c-2.4-6.8-4.8-13.7-7.1-20.5
	c-0.3-0.8,0-2.1,0.5-2.7c3.2-3.7,6.5-7.1,9.8-10.8c3.3-3.7,6.7-7.2,9.6-11.2c1.8-2.4,0.8-5.6-1.9-6.1c-1.7-0.3-4.1,0.1-5.3,1.2
	c-3.9,3.5-7.4,7.4-10.9,11.2c-3.4,3.6-6.7,7.2-10,10.7c0-2.3,0.6-4.2,1.1-6.1c2.6-10.2-3.6-18.1-14.1-18C8,27.8-2.2,41.8,1.9,54.8
	c1.7,5.4,6.2,8.7,11.5,8.3c2.6-0.2,3.9-1.7,4.5-4.1c0.5-2.3-1-3-2.6-4.1c-1.7-1.2-3.9-2.7-4.5-4.5c-1.5-4.7,1.2-10.2,5.6-12.4
	c2.6-1.3,5.4-1.7,7.9,0.2c2.4,1.8,2.4,4.3,1.4,6.8c-3.6,9.2-7.2,18.5-10.7,27.7c-0.8,2-1.6,4-1.9,6.1c-0.4,2.7,0.9,4,3.6,4.1
	c3.2,0.1,5-1.1,6.5-4.7c2.4-6.1,4.7-12.2,7.1-18.3c0.3-0.7,0.8-1.3,1.5-2.5c1.3,3.6,2.3,6.6,3.4,9.6c2.4,6.8,4.9,13.6,7.4,20.5
	c1.3,3.7,4.1,5.5,8,5.5c1.1,0,2.1,0,3.2,0c12.4,0,24.9-0.2,37.3,0.1c1,0,2,0,3-0.3c0.7-0.3,1.3-0.8,1.9-1.3c1.8-1.5,3.7-3.3,3.8-5.7
	c0-0.7-0.2-1.4-0.7-1.8C98.6,83.6,98.2,83.5,97.8,83.5z"/>
</svg>
