<?xml version="1.0" encoding="utf-8"?>
<!-- Generator: Adobe Illustrator 18.1.1, SVG Export Plug-In . SVG Version: 6.00 Build 0)  -->
<!DOCTYPE svg PUBLIC "-//W3C//DTD SVG 1.1//EN" "http://www.w3.org/Graphics/SVG/1.1/DTD/svg11.dtd">
<svg version="1.1" id="Layer_12" xmlns="http://www.w3.org/2000/svg" xmlns:xlink="http://www.w3.org/1999/xlink" x="0px" y="0px"
	 viewBox="0 0 100 100" enable-background="new 0 0 100 100" xml:space="preserve">
<g>
	<path fill="#81BE41" d="M51.5,100.2c-1,0-2-0.2-2.8-0.8l-8.9-5.3c-1.3-0.8-0.7-1-0.2-1.2c1.7-0.7,2.2-0.8,4-1.8
		c0.2-0.1,0.4-0.1,0.7,0l6.8,4c0.2,0.1,0.7,0.1,0.9,0l26.7-15.4c0.2-0.1,0.4-0.4,0.4-0.8V48.4c0-0.3-0.1-0.5-0.4-0.8L51.9,32.3
		c-0.2-0.1-0.5-0.1-0.9,0L24.4,47.6c-0.2,0.1-0.4,0.4-0.4,0.8v30.7c0,0.3,0.2,0.5,0.4,0.8l7.3,4.2c3.9,2,6.4-0.3,6.4-2.7V51
		c0-0.4,0.3-0.8,0.8-0.8h3.4c0.4,0,0.8,0.3,0.8,0.8v30.4c0,5.3-2.9,8.4-7.9,8.4c-1.5,0-2.7,0-6.2-1.6l-6.9-4c-1.6-1.1-2.6-2.9-2.6-5
		V48.4c0-2,1.1-3.9,2.8-4.9l26.6-15.4c1.7-1,3.9-1,5.6,0l26.7,15.4c1.7,1,2.8,2.8,2.8,4.9v30.7c0,2-1.1,3.9-2.8,4.9L54.3,99.4
		C53.5,99.8,52.5,100.2,51.5,100.2z"/>
	<path fill="#81BE41" d="M59.7,79c-11.6,0-14.1-5.3-14.1-9.9c0-0.4,0.3-0.8,0.8-0.8h3.5c0.4,0,0.8,0.3,0.8,0.7
		c0.5,3.5,2.1,5.3,9.1,5.3c5.6,0,8-1.3,8-4.2c0-1.7-0.7-3-9.4-3.8C51,65.5,46.4,64,46.4,58.2c0-5.4,4.6-8.6,12.2-8.6
		c8.6,0,12.8,2.9,13.4,9.3c0,0.2-0.1,0.4-0.2,0.5c-0.1,0-0.3,0.1-0.5,0.1h-3.5c-0.3,0-0.7-0.2-0.8-0.7c-0.9-3.7-2.8-4.9-8.4-4.9
		c-6.1,0-6.8,2.2-6.8,3.7c0,2,0.9,2.5,9.1,3.6c8.1,1.1,12,2.6,12,8.4C73,75.6,68.1,79,59.7,79z"/>
</g>
<path fill="#FFFFFF" d="M26.8,15.7c0-0.3-0.2-0.7-0.4-0.8L19,10.7c-0.1-0.1-0.2-0.1-0.4-0.1h-0.1c-0.1,0-0.3,0-0.4,0.1L10.6,15
	c-0.3,0.1-0.4,0.4-0.4,0.8v11.4c0,0.1,0.1,0.3,0.2,0.4c0.1,0.1,0.3,0.1,0.4,0l4.3-2.5c0.3-0.2,0.4-0.4,0.4-0.8V19
	c0-0.3,0.2-0.7,0.4-0.8l1.8-1.1C18,17,18.2,17,18.3,17s0.3,0,0.4,0.1l1.8,1.1c0.3,0.1,0.4,0.4,0.4,0.8v5.3c0,0.3,0.2,0.7,0.4,0.8
	l4.3,2.5c0.1,0.1,0.3,0.1,0.4,0c0.1-0.1,0.2-0.2,0.2-0.4L26.8,15.7z"/>
<path fill="#FFFFFF" d="M66,0.1c-0.1-0.1-0.3-0.1-0.4,0c-0.1,0.1-0.2,0.2-0.2,0.4v11.3c0,0.1-0.1,0.2-0.1,0.2
	c-0.1,0.1-0.2,0.1-0.3,0L63,10.9c-0.3-0.1-0.7-0.1-0.9,0l-7.4,4.2c-0.3,0.1-0.4,0.4-0.4,0.8v8.5c0,0.3,0.2,0.7,0.4,0.8l7.4,4.2
	c0.3,0.1,0.7,0.1,0.9,0l7.4-4.2c0.3-0.1,0.4-0.4,0.4-0.8V3.3c0-0.3-0.2-0.7-0.4-0.8L66,0.1z M65.3,21.7c0,0.1,0,0.1-0.1,0.2
	l-2.5,1.4c-0.1,0-0.1,0-0.2,0L60,21.9c-0.1,0-0.1-0.1-0.1-0.2v-2.9c0-0.1,0-0.1,0.1-0.2l2.5-1.4c0.1,0,0.1,0,0.2,0l2.5,1.4
	c0.1,0,0.1,0.1,0.1,0.2V21.7z"/>
<path fill="#FFFFFF" d="M92.2,18.6c0.3-0.1,0.4-0.4,0.4-0.8v-2.1c0-0.3-0.2-0.7-0.4-0.8L85,10.8c-0.3-0.1-0.7-0.1-0.9,0l-7.4,4.2
	c-0.3,0.1-0.4,0.4-0.4,0.8v8.5c0,0.3,0.2,0.7,0.4,0.8l7.3,4.1c0.2,0.1,0.7,0.1,0.9,0l4.5-2.5c0.1-0.1,0.2-0.2,0.2-0.4
	c0-0.1-0.1-0.3-0.2-0.4l-7.4-4.2c-0.1-0.1-0.2-0.2-0.2-0.4v-2.6c0-0.1,0.1-0.3,0.2-0.4l2.3-1.3c0.1-0.1,0.3-0.1,0.4,0l2.3,1.3
	c0.1,0.1,0.2,0.2,0.2,0.4v2.1c0,0.1,0.1,0.3,0.2,0.4s0.3,0.1,0.4,0L92.2,18.6z"/>
<path fill="#81BE41" d="M40.1,10.8c0.3-0.1,0.7-0.1,0.9,0l7.4,4.2c0.3,0.1,0.4,0.4,0.4,0.8v8.5c0,0.3-0.2,0.7-0.4,0.8L41,29.3
	c-0.3,0.1-0.7,0.1-0.9,0L32.8,25c-0.2-0.2-0.4-0.4-0.4-0.8v-8.5c0-0.3,0.2-0.7,0.4-0.8L40.1,10.8z"/>
<path fill="#81BE41" d="M84.3,18.2c0,0,0.1,0,0.2,0L86,19l0.1,0.1v1.6c0,0.1,0,0.1-0.1,0.1l-1.4,0.8c0,0-0.1,0-0.2,0l-1.4-0.8
	l-0.1-0.1v-1.6c0-0.1,0-0.1,0.1-0.1L84.3,18.2z"/>
</svg>
