<?xml version="1.0" encoding="utf-8"?>
<!-- Generator: Adobe Illustrator 18.1.1, SVG Export Plug-In . SVG Version: 6.00 Build 0)  -->
<!DOCTYPE svg PUBLIC "-//W3C//DTD SVG 1.1//EN" "http://www.w3.org/Graphics/SVG/1.1/DTD/svg11.dtd">
<svg version="1.1" id="Layer_1" xmlns="http://www.w3.org/2000/svg" xmlns:xlink="http://www.w3.org/1999/xlink" x="0px" y="0px"
	 viewBox="0 0 100 100" enable-background="new 0 0 100 100" xml:space="preserve">
<g id="ellipse3860">
	<path fill="#706CB1" d="M50,77.2c-27.6,0-50.1-12-50.1-26.7c0-14.7,22.5-26.7,50.1-26.7c27.6,0,50.1,12,50.1,26.7
		C100.1,65.2,77.6,77.2,50,77.2z M50,26.3c-26.2,0-47.6,10.8-47.6,24.2c0,13.3,21.3,24.2,47.6,24.2s47.6-10.8,47.6-24.2
		C97.6,37.2,76.2,26.3,50,26.3z"/>
</g>
<g>
	<path id="h" fill="#706CB1" d="M40.4,58.5l5.4-27.1h6.4l-1.3,7h6c5.4,0.3,7.4,3,6.7,6.4l-2.3,13.7h-6.7l2.3-12.4
		c0.3-1.7,0.3-2.7-2-2.7h-5l-3,15.1H40.4z"/>
	<path fill="#706CB1" d="M80.2,38.5H67.8l-5.4,27.1h6.4l1.3-7h6c5.7,0.3,12-4.3,12-12.4C88.2,41.5,85.5,38.8,80.2,38.5z M74.9,53.5
		h-4l1.7-10h4.3c2.3,0,4,1,4,3C80.5,52.2,77.9,53.2,74.9,53.5z"/>
	<path fill="#706CB1" d="M32.4,38.5H20l-5.4,27.1H21l1.3-7h6c5.7,0.3,12-4.3,12-12.4C40.4,41.5,37.8,38.8,32.4,38.5z M27.1,53.5h-4
		l1.7-10h4.3c2.3,0,4,1,4,3C32.8,52.2,30.1,53.2,27.1,53.5z"/>
</g>
</svg>
