<?xml version="1.0" encoding="utf-8"?>
<!-- Generator: Adobe Illustrator 18.1.1, SVG Export Plug-In . SVG Version: 6.00 Build 0)  -->
<!DOCTYPE svg PUBLIC "-//W3C//DTD SVG 1.1//EN" "http://www.w3.org/Graphics/SVG/1.1/DTD/svg11.dtd">
<svg version="1.1" id="php" xmlns="http://www.w3.org/2000/svg" xmlns:xlink="http://www.w3.org/1999/xlink" x="0px" y="0px"
	 viewBox="0 0 100 100" enable-background="new 0 0 100 100" xml:space="preserve">
<g id="ellipse3860">
	<path fill="#706CB1" d="M50,76.8C22.7,76.8,0.5,65,0.5,50.5C0.5,36,22.7,24.2,50,24.2c27.3,0,49.5,11.8,49.5,26.3
		C99.5,65,77.3,76.8,50,76.8z M50,26.6c-25.9,0-47,10.7-47,23.9c0,13.2,21.1,23.9,47,23.9s47-10.7,47-23.9
		C97,37.3,75.9,26.6,50,26.6z"/>
</g>
<g>
	<path id="h" fill="#706CB1" d="M40.6,58.4l5.3-26.8h6.3l-1.3,6.9h5.9c5.3,0.3,7.3,3,6.6,6.3L61,58.4h-6.6l2.3-12.2
		c0.3-1.7,0.3-2.6-2-2.6h-5l-3,14.9H40.6z"/>
	<path fill="#706CB1" d="M79.8,38.6H67.6l-5.3,26.8h6.3l1.3-6.9h5.9c5.6,0.3,11.9-4.3,11.9-12.2C87.7,41.6,85.1,38.9,79.8,38.6z
		 M74.5,53.5h-4l1.7-9.9h4.3c2.3,0,4,1,4,3C80.2,52.1,77.5,53.1,74.5,53.5z"/>
	<path fill="#706CB1" d="M32.6,38.6H20.4l-5.3,26.8h6.3l1.3-6.9h5.9c5.6,0.3,11.9-4.3,11.9-12.2C40.6,41.6,37.9,38.9,32.6,38.6z
		 M27.4,53.5h-4l1.7-9.9h4.3c2.3,0,4,1,4,3C33,52.1,30.3,53.1,27.4,53.5z"/>
</g>
</svg>
