<?xml version="1.0" encoding="utf-8"?>
<!-- Generator: Adobe Illustrator 18.1.1, SVG Export Plug-In . SVG Version: 6.00 Build 0)  -->
<!DOCTYPE svg PUBLIC "-//W3C//DTD SVG 1.1//EN" "http://www.w3.org/Graphics/SVG/1.1/DTD/svg11.dtd">
<svg version="1.1" id="RSS" xmlns="http://www.w3.org/2000/svg" xmlns:xlink="http://www.w3.org/1999/xlink" x="0px" y="0px"
	 viewBox="0 0 100 100" enable-background="new 0 0 100 100" xml:space="preserve">
<path fill="#F26722" d="M50.4,0C22.5,0,0,22.5,0,50.4s22.5,50.4,50.4,50.4s50.4-22.5,50.4-50.4S78.3,0,50.4,0L50.4,0z M33.3,76.7
	c-4.4,0-7.8-3.6-7.8-7.8c0-4.4,3.6-8,7.8-8c4.4,0,8,3.6,8,8C41.2,73.1,37.6,76.7,33.3,76.7L33.3,76.7z M53.6,76.2
	c-0.1-7.4-3-14.3-8.3-19.6s-12.1-8.2-19.5-8.3V38.1c20.9,0.2,38,17.2,38.2,38.2H53.6z M73.9,76.2c-0.3-26.4-21.6-47.8-47.9-48V17.9
	C57.9,18,84,44.1,84.2,76.2H73.9z"/>
</svg>
