<?xml version="1.0" encoding="utf-8"?>
<!-- Generator: Adobe Illustrator 18.1.1, SVG Export Plug-In . SVG Version: 6.00 Build 0)  -->
<!DOCTYPE svg PUBLIC "-//W3C//DTD SVG 1.1//EN" "http://www.w3.org/Graphics/SVG/1.1/DTD/svg11.dtd">
<svg version="1.1" id="RSS" xmlns="http://www.w3.org/2000/svg" xmlns:xlink="http://www.w3.org/1999/xlink" x="0px" y="0px"
	 viewBox="0 0 100 100" enable-background="new 0 0 100 100" xml:space="preserve">
<path fill="#F26722" d="M50.4,2C23.6,2,2,23.6,2,50.4s21.6,48.4,48.4,48.4s48.4-21.6,48.4-48.4S77.2,2,50.4,2L50.4,2z M33.9,75.7
	c-4.2,0-7.5-3.4-7.5-7.5c0-4.2,3.4-7.6,7.5-7.6c4.2,0,7.6,3.4,7.6,7.6C41.6,72.2,38.1,75.7,33.9,75.7L33.9,75.7z M53.5,75.2
	c-0.1-7.1-2.9-13.8-8-18.8s-11.6-7.9-18.7-8v-9.9C47,38.8,63.3,55.1,63.5,75.2H53.5z M73,75.2c-0.3-25.4-20.8-45.9-46-46.1v-9.9
	c30.7,0.1,55.7,25.2,55.9,56H73z"/>
</svg>
