<?xml version="1.0" encoding="utf-8"?>
<!-- Generator: Adobe Illustrator 18.1.1, SVG Export Plug-In . SVG Version: 6.00 Build 0)  -->
<!DOCTYPE svg PUBLIC "-//W3C//DTD SVG 1.1//EN" "http://www.w3.org/Graphics/SVG/1.1/DTD/svg11.dtd">
<svg version="1.1" id="Sass" xmlns="http://www.w3.org/2000/svg" xmlns:xlink="http://www.w3.org/1999/xlink" x="0px" y="0px"
	 viewBox="0 0 100 100" enable-background="new 0 0 100 100" xml:space="preserve">
<path fill="#CD6799" d="M86.2,55.6c-3.5,0-6.5,0.9-9.1,2.1c-0.9-1.9-1.9-3.5-2-4.7c-0.2-1.4-0.4-2.3-0.2-4c0.2-1.7,1.2-4.1,1.2-4.3
	c0-0.2-0.2-1-2.2-1.1c-2,0-3.8,0.4-4,0.9c-0.2,0.5-0.6,1.7-0.8,3c-0.4,1.8-4,8.4-6.1,11.8c-0.7-1.3-1.3-2.5-1.4-3.4
	c-0.2-1.4-0.4-2.3-0.2-4c0.2-1.7,1.2-4.1,1.2-4.3c0-0.2-0.2-1-2.2-1.1c-2,0-3.8,0.4-4,0.9c-0.2,0.5-0.4,1.8-0.8,3
	c-0.4,1.2-5.3,12.1-6.6,15c-0.7,1.4-1.2,2.6-1.6,3.4c0,0,0,0,0,0s0,0.1-0.1,0.1c-0.3,0.7-0.5,1-0.5,1s0,0,0,0c-0.3,0.5-0.6,1-0.7,1
	c-0.1,0-0.3-1.3,0-3.1c0.7-3.8,2.5-9.7,2.5-9.9c0-0.1,0.3-1.1-1.1-1.7c-1.4-0.5-1.9,0.3-2.1,0.4c-0.1,0-0.2,0.3-0.2,0.3
	s1.6-6.6-3-6.6c-2.9,0-6.9,3.2-8.9,6c-1.2,0.7-3.9,2.1-6.7,3.7c-1.1,0.6-2.2,1.2-3.2,1.8c-0.1-0.1-0.1-0.2-0.2-0.2
	c-5.6-6-16-10.2-15.5-18.3c0.2-2.9,1.2-10.6,19.9-20C42.7,15.9,55,18,57.1,22.6c3,6.7-6.6,19.1-22.5,20.9c-6.1,0.7-9.3-1.7-10.1-2.6
	c-0.8-0.9-1-1-1.3-0.8c-0.5,0.3-0.2,1.1,0,1.6c0.5,1.2,2.4,3.4,5.8,4.5c2.9,1,10.1,1.5,18.7-1.8c9.7-3.7,17.2-14.1,15-22.8
	c-2.3-8.8-16.9-11.7-30.8-6.8c-8.3,2.9-17.2,7.5-23.6,13.5c-7.6,7.1-8.9,13.4-8.4,16C1.7,53.5,14.4,59.5,19.5,64
	c-0.3,0.1-0.5,0.3-0.7,0.4c-2.6,1.3-12.3,6.3-14.7,11.7c-2.8,6.1,0.4,10.5,2.6,11c6.5,1.8,13.3-1.5,16.9-6.8
	c3.6-5.4,3.2-12.4,1.5-15.6c0,0,0-0.1-0.1-0.1c0.7-0.4,1.3-0.8,2-1.2c1.3-0.8,2.6-1.5,3.7-2.1C30.1,63,29.6,65,29.4,68
	c-0.3,3.5,1.1,7.9,3,9.7c0.8,0.8,1.8,0.8,2.4,0.8c2.2,0,3.1-1.8,4.2-3.9c1.3-2.6,2.5-5.6,2.5-5.6s-1.5,8.2,2.6,8.2
	c1.5,0,2.9-1.9,3.6-2.9c0,0,0,0,0,0s0-0.1,0.1-0.2c0.2-0.2,0.2-0.4,0.2-0.4s0,0,0,0c0.6-1,1.9-3.4,3.9-7.2c2.5-5,5-11.2,5-11.2
	s0.2,1.5,1,4c0.4,1.5,1.4,3.1,2.1,4.7c-0.6,0.8-1,1.3-1,1.3s0,0,0,0c-0.5,0.6-1,1.3-1.5,2c-2,2.4-4.4,5.1-4.7,5.9
	c-0.4,0.9-0.3,1.6,0.4,2.2c0.5,0.4,1.5,0.5,2.5,0.4c1.8-0.1,3.1-0.6,3.7-0.8c1-0.3,2.1-0.9,3.2-1.7c2-1.4,3.1-3.5,3-6.2
	c-0.1-1.5-0.5-3-1.2-4.4c0.2-0.3,0.4-0.5,0.5-0.8c3.1-4.5,5.5-9.5,5.5-9.5s0.2,1.5,1,4c0.4,1.3,1.1,2.7,1.8,4
	c-2.9,2.4-4.7,5.1-5.3,6.9c-1.2,3.3-0.3,4.8,1.5,5.2c0.8,0.2,1.9-0.2,2.7-0.5c1-0.3,2.2-0.9,3.4-1.7c2-1.4,3.9-3.5,3.7-6.2
	c-0.1-1.2-0.4-2.5-0.8-3.7c2.5-1,5.7-1.6,9.7-1.1c8.7,1,10.4,6.5,10.1,8.8c-0.3,2.3-2.2,3.5-2.8,3.9c-0.6,0.4-0.8,0.5-0.7,0.8
	c0.1,0.4,0.4,0.4,0.9,0.3c0.7-0.1,4.6-1.9,4.8-6.1C100.4,61.5,95.3,55.6,86.2,55.6z M18.9,78.3c-2.9,3.2-6.9,4.3-8.7,3.3
	c-1.9-1.1-1.1-5.7,2.4-9.1c2.2-2,5-3.9,6.8-5.1c0.4-0.3,1-0.6,1.8-1.1c0.1-0.1,0.2-0.1,0.2-0.1l0,0c0.1-0.1,0.3-0.2,0.4-0.3
	C23.2,70.8,21.9,75,18.9,78.3z M40,64c-1,2.5-3.1,8.7-4.4,8.4c-1.1-0.3-1.8-5.1-0.2-9.8c0.8-2.4,2.5-5.2,3.4-6.3
	c1.6-1.8,3.3-2.3,3.7-1.6C43.1,55.6,40.6,62.5,40,64z M57.4,72.3c-0.4,0.2-0.8,0.4-1,0.3c-0.1-0.1,0.2-0.4,0.2-0.4s2.2-2.3,3-3.4
	c0.5-0.6,1.1-1.4,1.7-2.2c0,0.1,0,0.2,0,0.2C61.3,69.6,58.6,71.5,57.4,72.3z M70.8,69.2c-0.3-0.2-0.3-1,0.8-3.2
	c0.4-0.9,1.3-2.4,3-3.8c0.2,0.6,0.3,1.2,0.3,1.7C74.8,67.4,72.3,68.7,70.8,69.2z"/>
</svg>
