<?xml version="1.0" encoding="utf-8"?>
<!-- Generator: Adobe Illustrator 18.1.1, SVG Export Plug-In . SVG Version: 6.00 Build 0)  -->
<!DOCTYPE svg PUBLIC "-//W3C//DTD SVG 1.1//EN" "http://www.w3.org/Graphics/SVG/1.1/DTD/svg11.dtd">
<svg version="1.1" id="Sass" xmlns="http://www.w3.org/2000/svg" xmlns:xlink="http://www.w3.org/1999/xlink" x="0px" y="0px"
	 viewBox="0 0 100 100" enable-background="new 0 0 100 100" xml:space="preserve">
<path fill="#CD6799" d="M84.8,55.4c-3.4,0-6.3,0.8-8.7,2c-0.9-1.8-1.8-3.4-2-4.5c-0.2-1.4-0.4-2.2-0.2-3.8c0.2-1.6,1.2-3.9,1.1-4.1
	c0-0.2-0.2-1-2.2-1c-1.9,0-3.6,0.4-3.8,0.9c-0.2,0.5-0.6,1.7-0.8,2.9c-0.3,1.8-3.9,8-5.9,11.3c-0.7-1.3-1.2-2.4-1.3-3.3
	c-0.2-1.4-0.4-2.2-0.2-3.8c0.2-1.6,1.2-3.9,1.1-4.1c0-0.2-0.2-1-2.2-1c-1.9,0-3.6,0.4-3.8,0.9c-0.2,0.5-0.4,1.7-0.8,2.9
	c-0.4,1.2-5.1,11.6-6.3,14.4c-0.6,1.4-1.2,2.5-1.6,3.3c0,0,0,0,0,0s0,0.1-0.1,0.1c-0.3,0.6-0.5,1-0.5,1s0,0,0,0
	c-0.3,0.5-0.5,0.9-0.7,0.9c-0.1,0-0.3-1.3,0-3c0.7-3.6,2.4-9.3,2.4-9.5c0-0.1,0.3-1.1-1.1-1.6c-1.4-0.5-1.9,0.3-2,0.3
	c-0.1,0-0.2,0.3-0.2,0.3s1.5-6.4-2.9-6.4c-2.8,0-6.6,3-8.5,5.8c-1.2,0.7-3.8,2.1-6.5,3.5c-1,0.6-2.1,1.2-3.1,1.7
	c-0.1-0.1-0.1-0.2-0.2-0.2c-5.4-5.7-15.3-9.8-14.9-17.5c0.2-2.8,1.1-10.2,19.1-19.2c14.7-7.3,26.6-5.3,28.6-0.8
	c2.9,6.4-6.3,18.3-21.6,20c-5.8,0.7-8.9-1.6-9.7-2.4c-0.8-0.9-0.9-0.9-1.2-0.8c-0.5,0.3-0.2,1.1,0,1.5c0.5,1.2,2.3,3.3,5.5,4.4
	c2.8,0.9,9.7,1.4,17.9-1.8C57,41,64.3,31.1,62.2,22.7c-2.2-8.5-16.2-11.3-29.6-6.5c-7.9,2.8-16.5,7.2-22.7,13
	C2.6,36,1.4,42,1.9,44.5c1.7,8.9,13.9,14.6,18.8,18.9c-0.2,0.1-0.5,0.3-0.7,0.4C17.6,65,8.3,69.9,6,75c-2.6,5.8,0.4,10,2.4,10.6
	c6.3,1.7,12.7-1.4,16.2-6.6c3.5-5.2,3-11.9,1.5-15c0,0,0-0.1-0.1-0.1c0.6-0.4,1.3-0.8,1.9-1.1c1.2-0.7,2.5-1.4,3.5-2
	c-0.6,1.6-1,3.6-1.3,6.4c-0.3,3.3,1.1,7.6,2.9,9.3c0.8,0.7,1.7,0.8,2.3,0.8c2.1,0,3-1.7,4.1-3.8c1.3-2.5,2.4-5.4,2.4-5.4
	S40.4,76,44.3,76c1.4,0,2.8-1.8,3.5-2.8c0,0,0,0,0,0s0-0.1,0.1-0.2c0.1-0.2,0.2-0.4,0.2-0.4s0,0,0,0c0.6-1,1.8-3.2,3.7-6.9
	C54.3,61,56.6,55,56.6,55s0.2,1.5,0.9,3.9c0.4,1.4,1.3,3,2,4.5c-0.6,0.8-0.9,1.2-0.9,1.2s0,0,0,0c-0.5,0.6-1,1.2-1.5,1.9
	c-1.9,2.3-4.2,4.9-4.5,5.7c-0.4,0.9-0.3,1.5,0.4,2.1c0.5,0.4,1.4,0.4,2.4,0.4c1.7-0.1,2.9-0.5,3.5-0.8c0.9-0.3,2-0.9,3-1.6
	c1.9-1.4,3-3.4,2.9-6c-0.1-1.4-0.5-2.9-1.1-4.2c0.2-0.2,0.3-0.5,0.5-0.7c3-4.3,5.3-9.1,5.3-9.1s0.2,1.5,0.9,3.9
	c0.4,1.2,1.1,2.6,1.7,3.9c-2.8,2.3-4.5,4.9-5.1,6.6c-1.1,3.2-0.2,4.7,1.4,5c0.7,0.1,1.8-0.2,2.6-0.5c1-0.3,2.2-0.9,3.3-1.7
	c1.9-1.4,3.7-3.3,3.6-6c-0.1-1.2-0.4-2.4-0.8-3.5c2.4-1,5.4-1.5,9.3-1.1c8.4,1,10,6.2,9.7,8.4c-0.3,2.2-2.1,3.4-2.7,3.8
	c-0.6,0.4-0.8,0.5-0.7,0.8c0.1,0.4,0.3,0.4,0.8,0.3c0.7-0.1,4.4-1.8,4.6-5.8C98.4,61,93.5,55.4,84.8,55.4z M20.1,77.2
	c-2.8,3-6.7,4.2-8.3,3.2c-1.8-1-1.1-5.5,2.3-8.7c2.1-2,4.8-3.8,6.5-4.9c0.4-0.2,1-0.6,1.7-1c0.1-0.1,0.2-0.1,0.2-0.1l0,0
	c0.1-0.1,0.3-0.2,0.4-0.3C24.3,70,23.1,74,20.1,77.2z M40.4,63.4c-1,2.4-3,8.4-4.2,8.1c-1.1-0.3-1.7-4.9-0.2-9.4
	c0.8-2.3,2.4-5,3.3-6c1.5-1.7,3.2-2.2,3.6-1.6C43.3,55.4,41,62,40.4,63.4z M57.1,71.4c-0.4,0.2-0.8,0.3-1,0.2
	c-0.1-0.1,0.2-0.4,0.2-0.4s2.1-2.2,2.9-3.3c0.5-0.6,1-1.3,1.6-2.1c0,0.1,0,0.2,0,0.2C60.8,68.9,58.2,70.7,57.1,71.4z M70,68.5
	c-0.3-0.2-0.3-0.9,0.8-3.1c0.4-0.9,1.3-2.3,2.9-3.7c0.2,0.6,0.3,1.1,0.3,1.6C73.8,66.7,71.4,67.9,70,68.5z"/>
</svg>
