<?xml version="1.0" encoding="utf-8"?>
<!-- Generator: Adobe Illustrator 18.1.1, SVG Export Plug-In . SVG Version: 6.00 Build 0)  -->
<!DOCTYPE svg PUBLIC "-//W3C//DTD SVG 1.1//EN" "http://www.w3.org/Graphics/SVG/1.1/DTD/svg11.dtd">
<svg version="1.1" id="SVG" xmlns="http://www.w3.org/2000/svg" xmlns:xlink="http://www.w3.org/1999/xlink" x="0px" y="0px"
	 viewBox="0 0 100 100" enable-background="new 0 0 100 100" xml:space="preserve">
<path fill="#EFD314" d="M0,49.7h6.7c0.1-4.3,3.6-7.8,7.9-7.8c2.2,0,4.2,0.9,5.6,2.3h16.2L25,32.9c-2,0-4.1-0.8-5.6-2.3
	c-3.1-3.1-3.1-8.1,0-11.2c3.1-3.1,8.1-3.1,11.2,0c1.5,1.5,2.3,3.6,2.3,5.6l11.4,11.4V20.2c-1.4-1.4-2.3-3.4-2.3-5.6
	c0-4.4,3.5-7.9,7.9-7.9c4.4,0,7.9,3.5,7.9,7.9c0,2.2-0.9,4.2-2.3,5.6v16.2L67,24.9c0-2,0.8-4,2.3-5.6c3.1-3.1,8.1-3.1,11.2,0
	c3.1,3.1,3.1,8.1,0,11.2c-1.5,1.5-3.6,2.3-5.6,2.3L63.4,44.3h16.2c1.4-1.4,3.4-2.3,5.6-2.3c4.3,0,7.8,3.5,7.9,7.8h6.7
	c-0.1-8-6.6-14.5-14.6-14.5c5.7-5.7,5.7-15,0-20.7c-5.7-5.7-15-5.7-20.7,0C64.5,6.5,58,0,49.9,0c-8.1,0-14.6,6.5-14.6,14.6
	c-5.7-5.7-15-5.7-20.7,0c-5.7,5.7-5.7,15,0,20.7C6.6,35.3,0.1,41.8,0,49.7z"/>
<title>SVG</title>
<path fill="#EFD314" d="M0,49.7v44.7c0,3.7,1.9,5.6,5.6,5.6h88.6c3.7,0,5.6-1.9,5.6-5.6V49.7H0z M19.9,70c1,1,2.3,1.6,3.8,1.6v0
	c3.6,0,6.9,1.5,9.2,3.8c2.4,2.4,3.8,5.6,3.8,9.2c0,7.2-5.8,13-13,13c-7.2,0-13-5.8-13-13h7.6c0,3,2.4,5.4,5.4,5.4
	c3,0,5.4-2.4,5.4-5.4c0-1.5-0.6-2.8-1.6-3.8c-1-1-2.3-1.6-3.8-1.6c-3.6,0-6.9-1.5-9.2-3.8c-2.3-2.4-3.8-5.6-3.8-9.2
	c0-7.2,5.8-13,13-13c7.2,0,13,5.8,13,13h-7.6c0-3-2.4-5.4-5.4-5.4c-3,0-5.4,2.4-5.4,5.4C18.4,67.6,19,69,19.9,70z M46,97.6
	l-9.2-44.5h7.6l5.4,26.1l5.4-26.1h7.6l-9.2,44.5H46z M88.9,84.6c0,7.2-5.8,13-13,13c-7.2,0-13-5.8-13-13V66.1h0c0-7.2,5.9-13,13-13
	c7.2,0,13,5.8,13,13h-7.6c0-3-2.4-5.4-5.4-5.4c-3,0-5.4,2.4-5.4,5.4v18.4c0,3,2.4,5.4,5.4,5.4c3,0,5.4-2.4,5.4-5.4v0v-5.4h-5.4
	l0-7.6h13V84.6z"/>
</svg>
