<?xml version="1.0" encoding="utf-8"?>
<!-- Generator: Adobe Illustrator 18.1.1, SVG Export Plug-In . SVG Version: 6.00 Build 0)  -->
<!DOCTYPE svg PUBLIC "-//W3C//DTD SVG 1.1//EN" "http://www.w3.org/Graphics/SVG/1.1/DTD/svg11.dtd">
<svg version="1.1" id="SVG_1_" xmlns="http://www.w3.org/2000/svg" xmlns:xlink="http://www.w3.org/1999/xlink" x="0px" y="0px"
	 viewBox="0 0 100 100" enable-background="new 0 0 100 100" xml:space="preserve">
<path fill="#EFD31A" d="M100,49.7C100,49.7,100,49.7,100,49.7L100,49.7L100,49.7c-0.2-8-6.6-14.5-14.6-14.5c5.7-5.7,5.7-15,0-20.7
	c-5.7-5.7-15-5.7-20.7,0C64.8,6.5,58.3,0,50.2,0c-8.1,0-14.6,6.5-14.6,14.6c-5.7-5.7-15-5.7-20.7,0c-5.7,5.7-5.7,15,0,20.7
	c-8,0-14.5,6.5-14.6,14.4v44.6c0,3.7,1.9,5.6,5.6,5.6h88.4c3.7,0,5.6-1.9,5.6-5.6L100,49.7L100,49.7z M15,41.8
	c2.2,0,4.2,0.9,5.6,2.3h16.2L25.4,32.8c-2,0-4.1-0.8-5.6-2.3c-3.1-3.1-3.1-8.1,0-11.2s8.1-3.1,11.2,0c1.5,1.5,2.3,3.6,2.3,5.6
	l11.4,11.4V20.2c-1.4-1.4-2.3-3.4-2.3-5.6c0-4.4,3.5-7.9,7.9-7.9s7.9,3.5,7.9,7.9c0,2.2-0.9,4.2-2.3,5.6v16.2l11.5-11.5
	c0-2,0.8-4,2.3-5.6c3.1-3.1,8.1-3.1,11.2,0c3.1,3.1,3.1,8.1,0,11.2c-1.5,1.5-3.6,2.3-5.6,2.3L63.7,44.2h16.2
	c1.4-1.4,3.4-2.3,5.6-2.3c4.3,0,7.7,3.4,7.9,7.7H7.1C7.2,45.3,10.7,41.8,15,41.8z M20.3,69.9c1,1,2.3,1.6,3.8,1.6
	c3.6,0,6.9,1.5,9.2,3.8c2.4,2.4,3.8,5.6,3.8,9.2c0,7.2-5.8,13-13,13c-7.2,0-13-5.8-13-13h7.6c0,3,2.4,5.4,5.4,5.4s5.4-2.4,5.4-5.4
	c0-1.5-0.6-2.8-1.6-3.8c-1-1-2.3-1.6-3.8-1.6c-3.6,0-6.9-1.5-9.2-3.8c-2.3-2.4-3.8-5.6-3.8-9.2c0-7.2,5.8-13,13-13
	c7.2,0,13,5.8,13,13h-7.6c0-3-2.4-5.4-5.4-5.4s-5.4,2.4-5.4,5.4C18.8,67.5,19.4,68.9,20.3,69.9z M53.9,97.4h-7.6L37.1,53h7.6l5.4,26
	l5.4-26h7.6L53.9,97.4z M76.1,89.7c3,0,5.4-2.4,5.4-5.4v-5.4h-5.4v-7.6h13v13.1c0,7.2-5.8,13-13,13c-7.2,0-13-5.8-13-13V66
	c0-7.2,5.9-13,13-13c7.2,0,13,5.8,13,13h-7.6c0-3-2.4-5.4-5.4-5.4S70.8,63,70.8,66v18.4C70.8,87.3,73.2,89.7,76.1,89.7z"/>
</svg>
